<svg xmlns="http://www.w3.org/2000/svg" width="512" height="512" viewBox="0 0 512 512"><path stroke="#449FDB" d="M0 0"/><path d="M256 32C132.29 32 32 132.29 32 256c0 123.713 100.29 224 224 224 123.713 0 224-100.287 224-224 0-123.71-100.287-224-224-224zM64 256c0-41.397 13.3-79.674 35.67-111.065L367.064 412.33C335.674 434.697 297.396 448 256 448c-105.87 0-192-86.132-192-192zm348.318 111.076L144.924 99.682c31.392-22.375 69.674-35.68 111.076-35.68 105.87 0 192 86.13 192 192 0 41.402-13.307 79.682-35.682 111.075z" fill="#595959"/></svg>