<svg xmlns="http://www.w3.org/2000/svg" width="512" height="512" viewBox="0 0 512 512"><path stroke="#449FDB" d="M0 0"/><path d="M391.6 152.8l16.7-27.7-29.7-12.6 7.3-31.5-32.2-2.8-2.8-32.2-31.4 7.2-12.6-29.7-27.6 16.7L256 16l-23.3 24.4-27.6-16.7-12.6 29.7-31.4-7.2-2.8 32.1-32.2 2.8 7.3 31.4-29.7 12.6 16.6 27.7L96 173.9l24.3 21.2-16.6 27.6 29.7 12.6-7.3 31.4 32.1 2.8 3.1 32.1 12.6-3L176 480l80-71.5 80 71.5 2.3-180.3 12.3 2 2.9-32.2 32.2-2.8-7.2-31.4 29.7-12.6-16.6-27.7 24.4-21.1-24.4-21.1zM352 176c0 53-43 96-96 96s-96-43-96-96 43-96 96-96 96 43 96 96z" fill="#595959"/></svg>