<svg xmlns="http://www.w3.org/2000/svg" width="512" height="512" viewBox="0 0 512 512"><path stroke="#449FDB" d="M0 0"/><path d="M512 328.77c0-41.044-28.34-75.45-66.498-84.74-1.62-64.35-54.23-116.03-118.93-116.03-37.897 0-71.634 17.747-93.428 45.366-12.22-15.8-31.345-25.98-52.854-25.98-36.905 0-66.82 29.937-66.82 66.86 0 3.22.24 6.38.68 9.478-5.61-1.012-11.382-1.57-17.284-1.57C43.366 222.154 0 265.55 0 319.077 0 372.607 43.367 416 96.865 416l328.13-.006c48.07-.092 87.005-39.106 87.005-87.223z" fill="#595959"/></svg>