<svg xmlns="http://www.w3.org/2000/svg" width="512" height="512" viewBox="0 0 512 512"><path stroke="#449FDB" d="M0 0"/><path d="M446.134 193.245C447.356 187.69 448 181.92 448 176c0-44.183-35.817-80-80-80-7.11 0-14.007.934-20.566 2.676C335.034 60 298.79 32 256 32c-43.674 0-80.527 29.168-92.163 69.085C152.467 97.775 140.44 96 128 96 57.308 96 0 153.308 0 224c0 70.694 57.308 128 128 128h64v96h128v-96h112c44.183 0 80-35.816 80-80 0-39.36-28.427-72.08-65.866-78.755zM288 320v96h-64v-96h-80l112-112 112 112h-80z" fill="#595959"/></svg>