<svg xmlns="http://www.w3.org/2000/svg" width="512" height="512" viewBox="0 0 512 512"><path stroke="#449FDB" d="M0 0"/><path d="M176 158.973c-25.15 0-44.156 18.62-44.156 48.24S150.85 255.69 176 255.69c25.13 0 44.156-18.857 44.156-48.477 0-29.4-19.025-48.24-44.156-48.24zM448 32H64C28.654 32 0 60.653 0 96v224c0 35.346 28.654 64 64 64h32l160 128V384h192c35.346 0 64-28.654 64-64V96c0-35.347-28.654-64-64-64zM176 287.998c-44.815 0-80-29.84-80-79.888 0-50.034 35.185-80.11 80-80.11 44.797 0 80 30.077 80 80.11 0 50.05-35.203 79.888-80 79.888zm248 2.47h-38.297l-69.943-108.53s.695 19.258.695 36.175v72.353H280v-160h39.914l68.326 107.586s-.695-18.09-.695-35.006v-72.58H424v160z" fill="#595959"/></svg>