<svg xmlns="http://www.w3.org/2000/svg" width="512" height="512" viewBox="0 0 512 512"><path stroke="#449FDB" d="M0 0"/><path d="M447.97 316.75c-.006-.352-.015-.7-.02-1.052-.017-.714-.036-1.427-.06-2.14C442.875 155.734 256 0 256 0S69.123 155.734 64.11 313.56c-.022.716-.044 1.427-.06 2.142-.007.352-.015.7-.02 1.053-.02 1.08-.03 2.162-.03 3.248 0 1.184.015 2.36.036 3.54.002.097.003.194.007.292C66.083 428.1 151.24 512 256 512c104.758 0 189.916-83.9 191.96-188.168 0-.098.003-.196.004-.293.02-1.18.036-2.36.036-3.54 0-1.087-.012-2.17-.03-3.25zm-63.995 5.62l-.004.203c-.657 33.643-14.264 65.167-38.31 88.774C321.587 434.983 289.742 448 256 448c-6.23 0-12.397-.447-18.462-1.32 69.528-41.422 116.108-117.35 116.108-204.16 0-9.728-.59-19.317-1.726-28.74 20.136 36.97 31.032 71.4 32 101.813l.003.072c.016.474.026.946.04 1.422l.013.724c.014.73.024 1.46.024 2.19 0 .793-.01 1.58-.025 2.37z" fill="#595959"/></svg>