<svg xmlns="http://www.w3.org/2000/svg" width="512" height="512" viewBox="0 0 512 512"><path d="M448 96H64c-17.674 0-32 14.326-32 32v288c0 17.672 14.326 32 32 32h384c17.674 0 32-14.328 32-32V128c0-17.674-14.326-32-32-32zm-84.687 212.688c-6.25-6.25-16.375-6.25-22.625 0s-6.25 16.375 0 22.625L425.376 416H86.626l84.688-84.687c6.25-6.25 6.25-16.375 0-22.625s-16.375-6.25-22.625 0L64 393.376V149.71l192 176.01 192-176.01v243.666l-84.687-84.688zM87.68 128h336.637l-168.32 154.297L87.68 128z" fill="#595959"/></svg>