<svg xmlns="http://www.w3.org/2000/svg" width="512" height="512" viewBox="0 0 512 512"><path stroke="#449FDB" d="M0 0"/><path d="M256 96C144.34 96 47.56 161.02 0 256c47.56 94.98 144.34 160 256 160 111.657 0 208.44-65.02 256-160-47.558-94.98-144.343-160-256-160zm126.225 84.852c30.08 19.187 55.57 44.887 74.717 75.148-19.146 30.26-44.637 55.96-74.718 75.15C344.427 355.256 300.78 368 256 368s-88.428-12.743-126.225-36.852c-30.08-19.186-55.57-44.886-74.717-75.148 19.146-30.262 44.637-55.962 74.717-75.148 1.96-1.25 3.938-2.46 5.93-3.65C130.725 190.866 128 205.612 128 221c0 70.692 57.308 128 128 128s128-57.308 128-128c0-15.387-2.725-30.134-7.704-43.8 1.99 1.19 3.97 2.402 5.93 3.652zM256 205c0 26.51-21.49 48-48 48s-48-21.49-48-48 21.49-48 48-48 48 21.49 48 48z" fill="#595959"/></svg>