<svg xmlns="http://www.w3.org/2000/svg" width="512" height="512" viewBox="0 0 512 512"><path d="M232 344l8-24h-45.674l15.103-56.367-15.456-4.142L177.76 320h-55.434l15.103-56.366-15.456-4.142-16.213 60.51H56l-8 24h51.33l-12.862 48H40l-8 24h48.04L64 475.862l15.455 4.14 17.148-64h55.436L136 475.862l15.455 4.14 17.148-64H216l8-24h-48.965l12.862-48H232zm-73.53 48h-55.435l12.862-48h55.434l-12.86 48zM112.64 48C129.932 48 144 62.068 144 80.64c0 17.292-14.068 31.36-32.64 31.36C94.068 112 80 97.932 80 79.36 80 62.068 94.068 48 111.36 48h1.28zm0-16h-1.28C85.204 32 64 53.204 64 79.36v1.28C64 106.796 85.204 128 111.36 128h1.28c26.156 0 47.36-21.204 47.36-47.36v-1.28C160 53.204 138.796 32 112.64 32zM240.64 144c17.292 0 31.36 14.068 31.36 32.64 0 17.292-14.068 31.36-32.64 31.36-17.292 0-31.36-14.068-31.36-32.64 0-17.292 14.068-31.36 31.36-31.36h1.28zm0-16h-1.28c-26.156 0-47.36 21.204-47.36 47.36v1.28c0 26.156 21.204 47.36 47.36 47.36h1.28c26.156 0 47.36-21.204 47.36-47.36v-1.28c0-26.156-21.204-47.36-47.36-47.36zM225.072 27.005l13.857 8-112 193.99-13.857-8 112-193.99zM432.48 32h-.96C405.276 32 384 53.276 384 79.52v.96c0 26.244 21.277 47.52 47.52 47.52h.96c8.09 0 15.59-2.21 22.26-5.775-12.577 26.26-37.41 42.8-70.74 45.112v15.976c56.75-3.478 94.614-42.752 95.782-100.66.033-.737.22-1.427.22-2.172v-.96C480 53.276 458.724 32 432.48 32zM480 390.904c0-35.063-33.45-42.746-66.87-48.377-1.823-.303-3.38-.596-5.13-.892v-67.838c25.08 1.85 45.278 11.422 47.555 39.035h19.035c-1.172-39.62-32.637-54.067-66.59-56.36V224h-16v32.285c-33.563 1.42-66.59 15.014-66.59 52.705 0 29.32 23.248 41.61 66.59 48.54v72.632c-29.3-2.045-49.974-13.067-52.965-47.185H320c2.598 45.002 31.42 61.93 72 64.498V480h16v-32.21c34.543-1.04 72-14.002 72-56.885zm-134.004-85.23c0-19.31 19.465-30.483 46.004-31.96v64.968c-30.508-6.11-46.004-13.358-46.004-33.008zM408 430.414V360.12c27.547 4.548 51.414 10.558 51.414 34.118 0 27.3-25.426 35.346-51.414 36.176z" fill="#595959"/></svg>