<svg xmlns="http://www.w3.org/2000/svg" width="16" height="16" viewBox="0 0 16 16"><path d="M8 1C4.134 1 1 4.134 1 8s3.134 7 7 7 7-3.134 7-7-3.134-7-7-7zm-.17 11.5c-.71 0-1.19-.405-1.19-1.09s.48-1.088 1.19-1.088 1.19.405 1.19 1.09c0 .683-.482 1.088-1.19 1.088zm2.164-4.785c-.443.392-.962.683-1.152.9-.114.138-.14.24-.14.468l-.012.595H6.968l-.013-.823c-.013-.785.266-1.177.797-1.557l.772-.557c.278-.202.557-.43.557-.784 0-.532-.455-.823-1.214-.823-.772 0-1.392.38-1.785.76l-.58-1.42c.265-.29 1.075-.974 2.708-.974 1.62 0 2.71 1.024 2.71 2.24 0 1.05-.43 1.518-.925 1.974z" fill="#595959"/></svg>