<svg xmlns="http://www.w3.org/2000/svg" width="512" height="512" viewBox="0 0 512 512"><path stroke="#449FDB" d="M0 0"/><path d="M367.1 314.415h118.026c.91-8.185 1.274-16.55 1.274-25.098 0-40.112-10.767-77.734-29.562-110.133 19.44-51.654 18.746-95.494-7.278-121.695-24.748-24.64-91.145-20.64-166.206 12.597-5.552-.42-11.16-.636-16.82-.636-103.023 0-189.462 70.898-213.353 166.426C85.5 194.5 119.5 164.5 164.92 142.653c-4.13 3.87-28.227 27.826-32.28 31.882C12.866 294.275-24.905 450.688 15.737 491.337c30.893 30.887 86.88 25.67 151.188-5.824 29.903 15.23 63.75 23.815 99.61 23.815 96.566 0 178.4-62.158 208.044-148.724H355.643c-16.367 30.19-48.374 50.74-85.11 50.74s-68.74-20.55-85.107-50.74c-7.275-13.637-11.457-29.277-11.457-45.828v-.36H367.1zm-192.95-58.013c2.73-48.555 43.1-87.292 92.384-87.292s89.656 38.736 92.383 87.292H174.15zM448.484 81.904c16.763 16.94 16.344 48.107 2.006 87.01-24.57-37.453-60.26-66.967-102.397-83.82 45.053-19.318 81.703-21.877 100.39-3.19zM46.74 483.628c-21.39-21.398-14.94-66.31 12.616-120.416 17.154 48.135 50.578 88.545 93.668 114.577-47.715 21.657-86.768 25.335-106.283 5.837z" fill="#595959"/></svg>