<svg xmlns="http://www.w3.org/2000/svg" width="512" height="512" viewBox="0 0 512 512"><path stroke="#449FDB" d="M0 0"/><path d="M109.852 64H45.738c-4.387 0-7.943 3.6-7.943 8.04v367.92c0 4.44 3.557 8.042 7.943 8.042h64.113c4.39 0 7.945-3.6 7.945-8.042V72.04c0-4.44-3.555-8.04-7.942-8.04zm-1.025 116.638H46.763v-73.073h62.064v73.073zM205.852 64H141.74c-4.388 0-7.944 3.6-7.944 8.04v367.92c0 4.44 3.557 8.042 7.943 8.042h64.11c4.39 0 7.944-3.6 7.944-8.042V72.04c0-4.44-3.556-8.04-7.943-8.04zm-1.025 116.638h-62.064v-73.073h62.064v73.073zM301.852 64H237.74c-4.388 0-7.944 3.6-7.944 8.04v367.92c0 4.44 3.557 8.042 7.943 8.042h64.11c4.39 0 7.944-3.6 7.944-8.042V72.04c0-4.44-3.556-8.04-7.943-8.04zm-1.025 116.638h-62.064v-73.073h62.064v73.073zM386.27 61.575l-62.647 13.64c-4.286.935-6.995 5.21-6.05 9.548l78.275 359.494c.944 4.34 5.186 7.1 9.472 6.168l62.646-13.64c4.288-.935 6.996-5.21 6.05-9.548L395.742 67.742c-.943-4.34-5.183-7.1-9.47-6.167zm23.813 114.186l-60.644 13.206-15.55-71.4 60.645-13.204 15.547 71.4z" fill="#595959"/></svg>