<svg xmlns="http://www.w3.org/2000/svg" width="512" height="512" viewBox="0 0 512 512"><path stroke="#449FDB" d="M0 0"/><path d="M271.767 360.416c-4.598-4.607-10.71-7.142-17.216-7.142s-12.616 2.534-17.21 7.136l-32.335 32.336c-9.044 8.986-21.148 13.96-34.1 14.02-12.685-.062-24.583-5.038-33.584-14.01l-3.22-3.246c-8.99-9.02-13.965-21.07-13.996-33.917.03-12.725 5.004-24.7 14-33.756l75.01-75.038c9.108-9.02 21.123-13.973 33.86-13.973 11.59 0 22.582 4.1 31.307 11.61l34.52-34.52-3.31-3.3c-1.846-1.845-3.95-3.382-6.27-4.582l-.473-.245-.437-.304c-16.242-11.365-35.292-17.373-55.093-17.373h-.438c-25.34 0-50.16 10.297-68.093 28.252l-75.02 75.016c-17.998 18.004-28.308 42.855-28.283 68.186-.05 25.456 10.26 50.377 28.282 68.396l3.213 3.215c17.935 17.957 42.642 28.254 67.79 28.254h.372c25.506 0 50.432-10.3 68.388-28.254l32.336-32.33c9.493-9.49 9.493-24.937 0-34.43zm168.846-204.07c.05-25.38-10.26-50.266-28.282-68.312l-3.16-3.137c-18.013-18.01-42.904-28.327-68.31-28.327-25.428 0-50.328 10.317-68.316 28.305l-30.828 30.85c-9.475 9.493-9.475 24.946.004 34.444 4.6 4.597 10.72 7.134 17.224 7.134s12.622-2.536 17.23-7.142l30.822-30.856c9.013-8.984 21.02-13.96 33.824-14.024 12.88.063 24.886 5.04 33.887 14.012l3.22 3.243c8.976 9.016 13.94 21.014 13.972 33.773-.03 12.824-5.005 24.853-14.004 33.91l-75.01 74.982c-9.078 9.076-20.856 13.942-34.06 14.07h-.12c-11.415-.058-22.274-4.182-30.94-11.682l-34.526 34.514c17.677 16.454 41.294 25.838 65.318 25.838h.37c25.505 0 50.433-10.3 68.392-28.254l75.017-75.02c18.018-18.022 28.326-42.925 28.276-68.322z" fill="#595959"/></svg>