<svg xmlns="http://www.w3.org/2000/svg" width="512" height="512" viewBox="0 0 512 512"><path d="M256 353.137c-6.248-6.248-16.378-6.25-22.627 0l-33.94 33.94c-6.233 6.232-16.397 6.232-22.628 0l-67.882-67.88c-6.23-6.232-6.23-16.397 0-22.628L222.06 183.43c6.25-6.25 6.248-16.38 0-22.627s-16.378-6.25-22.627 0L86.296 273.942c-18.716 18.716-18.716 49.166 0 67.882l67.882 67.882c18.716 18.716 49.166 18.716 67.882 0l33.94-33.94c6.25-6.25 6.25-16.38 0-22.628zM256 126.863c6.248 6.248 16.378 6.25 22.627 0l33.94-33.94c6.232-6.232 16.397-6.232 22.628 0l67.882 67.88c6.23 6.233 6.23 16.397 0 22.628L289.94 296.57c-6.25 6.25-6.248 16.38 0 22.627s16.378 6.25 22.627 0l113.137-113.137c18.716-18.716 18.716-49.166 0-67.882l-67.882-67.882c-18.716-18.716-49.166-18.716-67.882 0L256 104.234c-6.25 6.25-6.25 16.38 0 22.628z" fill="#595959"/></svg>