<svg xmlns="http://www.w3.org/2000/svg" width="512" height="512" viewBox="0 0 512 512"><path stroke="#449FDB" d="M0 0"/><path d="M312.9 360c-16.6 8.4-34.5 12.6-53.2 12.6-31.6 0-61.4-12.4-83.8-34.8s-34.8-52.2-34.8-83.8c0-.7 0-3.4 0-6l.1-8.1H192l-79.9-80L32 240h49.8v8.3c0 2.3 0 5 0 5.8 0 47.5 18.5 92.2 52.1 125.8S212.2 432 259.7 432c34.4 0 67.9-9.9 96.6-28.5L312.9 360zm121.3-88h-3.1l.3-8.6c.1-1.8.1-3.7.1-5.5 0-47.5-18.5-92.2-52.1-125.8C345.7 98.5 301 80 253.5 80c-37.1 0-72.6 11.3-102.8 32.7l42.9 42.9c18.1-10.6 38.8-16.3 59.8-16.3 65.4 0 118.6 53.2 118.6 118.6 0 2-.1 4.1-.2 6.6l-.4 7.5H320l79.9 80 80.1-80h-45.8z" fill="#595959"/></svg>