<svg xmlns="http://www.w3.org/2000/svg" width="512" height="512" viewBox="0 0 512 512"><path stroke="#449FDB" d="M0 0"/><path d="M208 416c-8.844 0-16-7.156-16-16V240c0-8.844 7.156-16 16-16s16 7.156 16 16v160c0 8.844-7.156 16-16 16zm96 0c-8.844 0-16-7.156-16-16V240c0-8.844 7.156-16 16-16s16 7.156 16 16v160c0 8.844-7.156 16-16 16zM416 96h-96V64c0-17.674-14.326-32-32-32h-64c-17.674 0-32 14.326-32 32v32H96c-17.674 0-32 14.326-32 32v32c0 17.672 14.326 32 32 32v240c0 26.51 21.49 48 48 48h224c26.51 0 48-21.49 48-48V192c17.674 0 32-14.328 32-32v-32c0-17.674-14.326-32-32-32zM224 64h64v32h-64V64zm160 368c0 8.822-7.178 16-16 16H144c-8.822 0-16-7.178-16-16V192h256v240zm32-272H96v-32h320v32z" fill="#595959"/></svg>