<svg xmlns="http://www.w3.org/2000/svg" width="768" height="768" viewBox="0 0 768 768"><path stroke="#449FDB" d="M0 0"/><path d="M640 128H480V96c0-35.347-28.654-64-64-64h-64c-35.346 0-64 28.652-64 64v32H128c-17.674 0-32 14.327-32 32v64c0 17.672 14.327 32 32 32h32v91.808l32-22.4V256h384v416c0 17.644-14.356 32-32 32H224c-17.644 0-32-14.356-32-32v-5.41l-32-22.4V672c0 35.346 28.654 64 64 64h320c35.346 0 64-28.655 64-64V256h32c17.674 0 32-14.328 32-32v-64c0-17.674-14.327-32-32-32zM320 96c0-17.644 14.356-32 32-32h64c17.644 0 32 14.356 32 32v32H320V96zm320 128H128v-64h512v64zM288 480h-96v-96L32 496l160 112v-96h96c44.125 0 64 19.89 64 64v64h32v-64c0-61.75-34.25-96-96-96z" visibility="false" fill="#595959"/></svg>