<svg xmlns="http://www.w3.org/2000/svg" width="768" height="768" viewBox="0 0 768 768"><path d="M283.09 112.56C256.717 82.985 218.742 64 176 64 96.473 64 32 128.47 32 208c0 42.743 18.987 80.717 48.56 107.09 31.797-95.334 107.198-170.734 202.53-202.53zm404.352 202.53c29.572-26.373 48.56-64.348 48.56-107.09 0-79.53-64.472-144-144-144-42.744 0-80.717 18.986-107.09 48.56 95.333 31.796 170.733 107.197 202.53 202.53zM375.242 480l-129-99.343c-7-5.406-8.312-15.437-2.938-22.438 5.438-7.033 15.437-8.283 22.438-2.94l107.563 82.844 127.78-118.78c6.47-6.032 16.595-5.657 22.626.81 6.034 6.5 5.66 16.626-.81 22.626L375.243 480zM384 128C224.942 128 96 256.942 96 416c0 159.057 128.942 288 288 288s288-128.943 288-288c0-159.058-128.942-288-288-288zm0 544c-141.158 0-256-114.84-256-256s114.84-256 256-256 256 114.84 256 256c0 141.158-114.842 256-256 256z" fill="#595959"/></svg>