<svg xmlns="http://www.w3.org/2000/svg" width="768" height="768" viewBox="0 0 768 768"><path d="M153.74 574.796C110.72 522.966 84.8 456.462 84.8 384 84.8 219.02 219.022 84.8 384 84.8c72.463 0 138.97 25.92 190.796 68.94l37.433-37.43C550.753 63.843 471.153 32 384 32 189.596 32 32 189.595 32 384c0 87.154 31.844 166.753 84.31 228.23l37.432-37.433zM681.472 196.39l-38.474 38.474C668.414 278.828 683.2 329.67 683.2 384c0 164.978-134.22 299.2-299.2 299.2-54.33 0-105.173-14.783-149.136-40.202l-38.472 38.472C250.742 715.82 314.95 736 384 736c194.404 0 352-157.598 352-352 0-69.052-20.176-133.26-54.527-187.61zM340.545 403.562l-63.582-62.34L224 393.15 340.543 507.43 544 307.93 491.037 256z" fill="#595959"/></svg>