<svg xmlns="http://www.w3.org/2000/svg" width="512" height="512" viewBox="0 0 512 512"><path stroke="#449FDB" d="M0 0"/><path d="M361.045 221.957v24.13c-2.762 1.187-5.906 2.642-9.31 4.288v7.712c0 10.125-3.206 24.964-8.577 39.692-4.09 11.21-8.535 20.094-13.282 26.56V336H480v-69.41c-14.473-7.94-30.11-16.08-41.04-20.503v-24.25c6.944-5.076 15.897-30.685 15.897-42.534v-33.216c0-27.543-21.46-50.087-54.854-50.087-33.39 0-54.86 22.544-54.86 50.087 0 0 0 5.32 0 32.58 3.51 8.512 5.65 17.646 6.33 27.147 2.936 7.46 6.456 13.874 9.572 16.143zM168.84 297.922c-5.37-14.75-8.577-29.643-8.577-39.835v-7.898c-3.347-1.57-6.484-2.96-9.305-4.104v-24.25c3.12-2.28 6.642-8.705 9.578-16.162.692-9.45 2.828-18.535 6.32-27.004v-32.583c0-27.543-21.46-50.087-54.853-50.087-33.39 0-54.86 22.544-54.86 50.087 0 0 0 5.39 0 33.216 0 11.968 8.957 37.598 15.9 42.653v24.13c-10.427 4.48-26.28 12.774-41.043 20.812V336h150.128v-11.488c-4.753-6.47-9.2-15.362-13.288-26.59zm140.728 18.65c9.55-6.98 21.86-42.193 21.86-58.485v-45.672c0-37.872-29.51-68.415-75.425-68.415-45.91 0-75.433 30.543-75.433 68.415 0 0 0 7.413 0 45.672 0 16.456 12.315 51.696 21.865 58.647v33.18c-31.096 13.36-97.284 51.38-107.126 56.986C83.05 413.863 80 420.486 80 436.598c0 16.127 0 38.26 0 38.26 0 2.23 1.856 5.143 4.1 5.143h343.805c2.244 0 4.096-2.912 4.096-5.14 0 0 0-22.134 0-38.26 0-16.11-3.047-22.735-15.3-29.698-9.85-5.604-74.115-43.625-107.13-56.985v-33.343z" fill="#595959"/></svg>