<svg xmlns="http://www.w3.org/2000/svg" width="512" height="512" viewBox="0 0 512 512"><path stroke="#449FDB" d="M0 0"/><path d="M32 64v328.1l32-31.99V352h6.954c-7.25-18.85-9.516-39.007-6.954-58.575V256h11.327c5.685-11.543 13.304-22.33 22.827-31.847.052-.052.105-.1.157-.153H64v-64h96v31.196c7.5-1.45 15.193-2.196 23-2.196 3.02 0 6.02.11 9 .33V160h96v64h-20.31c.05.05.1.098.15.15 22.672 22.66 35.157 52.794 35.154 84.848-.002 20.685-5.21 40.57-14.994 58.17V416h-50.57c-16.655 8.5-35.197 13.002-54.43 13.002-15.176 0-30-2.826-43.865-8.286L111.855 448H448V64H32zm384 352h-96v-64h96v64zm0-96h-96v-64h96v64zm0-96h-96v-64h96v64zM133.125 381.47C148.095 391.81 165.53 397 183 397c22.516 0 45.03-8.596 62.22-25.783 34.358-34.375 34.374-90.08 0-124.44C228.046 229.595 205.53 221 183 221c-22.516 0-45.03 8.594-62.22 25.78-30.5 30.485-33.905 77.814-10.28 112.094l-88.22 88.188 22.61 22.656 88.235-88.25zM183 249.5c32.86 0 59.5 26.64 59.5 59.5 0 32.843-26.64 59.467-59.5 59.467-32.828 0-59.47-26.624-59.47-59.467 0-32.86 26.642-59.5 59.47-59.5z" fill="#595959"/></svg>