<svg xmlns="http://www.w3.org/2000/svg" width="512" height="512" viewBox="0 0 512 512"><path stroke="#449FDB" d="M0 0"/><path d="M208 224c-8.8 0-16 7.2-16 16v160c0 8.8 7.2 16 16 16s16-7.2 16-16V240c0-8.8-7.2-16-16-16zm96 0c-8.8 0-16 7.2-16 16v99.4c9.9-8.6 20.6-15.6 32-21.1V240c0-8.8-7.2-16-16-16zm-52.1 224H144c-8.8 0-16-7.2-16-16V192h256v112c11 0 21.7 1.1 32 3.3V192c17.7 0 32-14.3 32-32v-32c0-17.7-14.3-32-32-32h-96V64c0-17.7-14.3-32-32-32h-64c-17.7 0-32 14.3-32 32v32H96c-17.7 0-32 14.3-32 32v32c0 17.7 14.3 32 32 32v240c0 26.5 21.5 48 48 48h131c-.9-1-1.8-1.9-2.6-2.9-9-10.3-15.7-20.5-20.5-29.1zM224 64h64v32h-64V64zM96 160v-32h320v32H96zm288 176c-84 0-112 80-112 80s28 80 112 80 112-80 112-80-28-80-112-80zm0 144c-35.3 0-64-28.7-64-64s28.7-64 64-64 64 28.7 64 64-28.7 64-64 64zm0-96c-17.7 0-32 14.3-32 32s14.3 32 32 32 32-14.3 32-32-14.3-32-32-32z" fill="#595959"/></svg>