<?xml version="1.0" encoding="utf-8"?>
<!-- Generated by IcoMoon.io -->
<!DOCTYPE svg PUBLIC "-//W3C//DTD SVG 1.1//EN" "http://www.w3.org/Graphics/SVG/1.1/DTD/svg11.dtd">
<svg version="1.1" xmlns="http://www.w3.org/2000/svg" xmlns:xlink="http://www.w3.org/1999/xlink" width="512" height="512" viewBox="0 0 512 512">
<g>
</g>
	<path d="M194.291 288h-49.619v32h39.817c5.644-9.469 9.138-20.36 9.802-32zM161.087 224h-16.415v32h43.972c-5.733-13.26-15.416-24.42-27.557-32zM128.672 219.358c-3.109-0.453-6.281-0.703-9.5-0.703-34.703 0-63.172 27.219-65.172 61.422v7.734c0.375 6.413 1.681 12.58 3.783 18.368 0.35 0.965 0.723 1.919 1.117 2.862 0.788 1.886 1.663 3.727 2.618 5.519 10.988 20.605 32.711 34.658 57.653 34.658 3.219 0 6.391-0.236 9.5-0.704v-129.156z" fill="#595959" />
</svg>
