<svg xmlns="http://www.w3.org/2000/svg" width="512" height="512" viewBox="0 0 512 512"><path stroke="#449FDB" d="M0 0"/><path d="M96 224v192h352V224H96zm85.26 147.464c-1.25-3.263-2.016-7.15-2.304-11.664-.288-4.51-.72-8.83-1.296-12.96-.77-5.375-2.4-9.31-4.896-11.808-2.498-2.496-6.577-3.744-12.24-3.744h-22.608v40.176h-22.608V268.647h55.44c4.608 0 8.76.745 12.456 2.232 3.694 1.487 6.862 3.526 9.504 6.12 2.64 2.59 4.655 5.592 6.048 9 1.39 3.406 2.088 7.08 2.088 11.014 0 6.048-1.273 11.282-3.816 15.696-2.544 4.418-6.696 7.777-12.456 10.08v.29c2.783.77 5.087 1.942 6.912 3.526 1.823 1.584 3.312 3.456 4.464 5.616s1.99 4.536 2.52 7.128c.526 2.593.886 5.185 1.08 7.776.095 1.634.19 3.553.288 5.76.095 2.21.263 4.464.504 6.77.24 2.303.624 4.487 1.152 6.55.526 2.066 1.318 3.816 2.376 5.257H181.26zm57.74 0h-22.606V268.647H239v102.817zm94.32-17.424c-1.824 4.032-4.535 7.513-8.136 10.44-3.6 2.93-8.063 5.208-13.392 6.84-5.328 1.63-11.498 2.447-18.504 2.447-5.666 0-11.16-.697-16.488-2.088s-10.032-3.577-14.112-6.554c-4.08-2.975-7.32-6.768-9.72-11.376-2.4-4.607-3.553-10.08-3.456-16.415h21.89c0 3.456.622 6.386 1.87 8.784 1.247 2.4 2.903 4.343 4.97 5.83 2.06 1.49 4.485 2.592 7.27 3.312 2.783.72 5.663 1.08 8.64 1.08 2.017 0 4.177-.166 6.48-.504 2.304-.336 4.464-.984 6.48-1.945 2.016-.958 3.694-2.28 5.04-3.96 1.343-1.678 2.016-3.815 2.016-6.407 0-2.784-.89-5.04-2.664-6.77-1.777-1.727-4.104-3.167-6.984-4.32s-6.145-2.158-9.792-3.022c-3.65-.864-7.344-1.822-11.088-2.88-3.84-.96-7.585-2.136-11.23-3.528-3.65-1.39-6.913-3.19-9.793-5.4-2.88-2.207-5.21-4.968-6.984-8.28-1.777-3.31-2.664-7.318-2.664-12.023 0-5.278 1.125-9.864 3.382-13.752 2.255-3.887 5.207-7.127 8.856-9.72 3.646-2.59 7.775-4.51 12.383-5.76s9.217-1.87 13.825-1.87c5.375 0 10.534.6 15.48 1.8 4.942 1.2 9.335 3.146 13.176 5.832 3.84 2.688 6.888 6.12 9.145 10.296 2.255 4.175 3.384 9.24 3.384 15.19H310.71c-.193-3.07-.842-5.615-1.944-7.632-1.105-2.016-2.57-3.6-4.393-4.752-1.825-1.15-3.913-1.966-6.264-2.447-2.353-.48-4.92-.722-7.703-.722-1.826 0-3.65.193-5.474.576-1.824.386-3.48 1.06-4.968 2.018s-2.713 2.16-3.672 3.6c-.96 1.44-1.44 3.266-1.44 5.473 0 2.018.383 3.65 1.152 4.897.768 1.247 2.28 2.4 4.536 3.455 2.256 1.058 5.376 2.112 9.36 3.168 3.983 1.058 9.19 2.4 15.625 4.03 1.92.386 4.583 1.08 7.99 2.09 3.408 1.008 6.792 2.616 10.153 4.823 3.36 2.21 6.265 5.162 8.713 8.856 2.45 3.695 3.673 8.423 3.673 14.183.002 4.705-.91 9.072-2.734 13.104zm79.775 17.424l-30.96-46.224-12.96 13.104v33.12h-22.607V268.647h22.607v42.624l40.176-42.622h28.227L397.4 309.255l44.064 62.208h-28.37zm-234.86-70.992c0 5.185-1.296 8.928-3.888 11.232s-6.48 3.456-11.664 3.456h-24.768v-28.944h24.768c5.184 0 9.072 1.13 11.664 3.384 2.592 2.256 3.888 5.88 3.888 10.872z" fill="#595959"/></svg>