<?xml version="1.0" encoding="utf-8"?>
<!-- Generated by IcoMoon.io -->
<!DOCTYPE svg PUBLIC "-//W3C//DTD SVG 1.1//EN" "http://www.w3.org/Graphics/SVG/1.1/DTD/svg11.dtd">
<svg version="1.1" xmlns="http://www.w3.org/2000/svg" xmlns:xlink="http://www.w3.org/1999/xlink" width="512" height="512" viewBox="0 0 512 512">
<g>
</g>
	<path d="M96 224v192h352v-192h-352zM181.26 371.464c-1.249-3.263-2.016-7.15-2.304-11.664-0.288-4.511-0.72-8.831-1.296-12.96-0.77-5.375-2.401-9.311-4.896-11.808-2.498-2.496-6.577-3.744-12.24-3.744h-22.608v40.176h-22.608v-102.817h55.44c4.608 0 8.759 0.745 12.456 2.232 3.694 1.489 6.862 3.528 9.504 6.12 2.639 2.592 4.655 5.594 6.048 9 1.391 3.408 2.088 7.081 2.088 11.016 0 6.048-1.273 11.282-3.816 15.696-2.544 4.417-6.696 7.776-12.456 10.080v0.288c2.783 0.77 5.087 1.943 6.912 3.527 1.823 1.584 3.312 3.456 4.464 5.616 1.152 2.16 1.991 4.536 2.52 7.128 0.526 2.593 0.886 5.185 1.080 7.776 0.095 1.634 0.191 3.553 0.288 5.76 0.095 2.21 0.263 4.464 0.504 6.769 0.239 2.304 0.624 4.488 1.152 6.552 0.526 2.065 1.318 3.815 2.376 5.256h-22.608zM239.001 371.464h-22.607v-102.817h22.607v102.817zM333.321 354.040c-1.825 4.032-4.536 7.513-8.137 10.439-3.6 2.93-8.063 5.209-13.392 6.841-5.328 1.631-11.498 2.447-18.504 2.447-5.666 0-11.16-0.697-16.488-2.088s-10.032-3.575-14.112-6.552c-4.081-2.975-7.321-6.768-9.72-11.376-2.4-4.608-3.553-10.080-3.456-16.416h21.889c0 3.456 0.623 6.386 1.871 8.784 1.247 2.4 2.903 4.345 4.969 5.832 2.062 1.489 4.486 2.592 7.271 3.312 2.783 0.72 5.663 1.080 8.641 1.080 2.016 0 4.176-0.166 6.479-0.504 2.304-0.335 4.464-0.983 6.48-1.944 2.016-0.958 3.694-2.279 5.040-3.96 1.343-1.678 2.016-3.815 2.016-6.407 0-2.784-0.889-5.040-2.664-6.769-1.777-1.728-4.104-3.168-6.984-4.32-2.88-1.151-6.145-2.159-9.792-3.023-3.649-0.864-7.344-1.822-11.088-2.88-3.841-0.959-7.585-2.136-11.231-3.528-3.649-1.391-6.912-3.19-9.792-5.4-2.88-2.207-5.209-4.968-6.984-8.279-1.777-3.312-2.664-7.319-2.664-12.024 0-5.278 1.127-9.864 3.384-13.752 2.255-3.888 5.207-7.128 8.856-9.72 3.647-2.592 7.776-4.512 12.384-5.76 4.608-1.247 9.216-1.872 13.824-1.872 5.375 0 10.534 0.601 15.479 1.8 4.943 1.201 9.336 3.146 13.177 5.832 3.838 2.688 6.887 6.12 9.144 10.296 2.255 4.176 3.384 9.24 3.384 15.192h-21.888c-0.193-3.071-0.842-5.616-1.944-7.633-1.104-2.016-2.569-3.6-4.392-4.752-1.825-1.151-3.913-1.966-6.264-2.447-2.354-0.479-4.921-0.721-7.704-0.721-1.825 0-3.649 0.193-5.473 0.576-1.824 0.385-3.48 1.058-4.968 2.017-1.489 0.96-2.713 2.159-3.672 3.6-0.961 1.439-1.44 3.265-1.44 5.472 0 2.017 0.383 3.649 1.152 4.896 0.768 1.248 2.279 2.4 4.536 3.456 2.255 1.058 5.375 2.112 9.36 3.168 3.982 1.058 9.19 2.4 15.624 4.031 1.919 0.385 4.583 1.080 7.991 2.089 3.407 1.008 6.791 2.616 10.152 4.823 3.359 2.21 6.264 5.162 8.712 8.856 2.448 3.696 3.672 8.424 3.672 14.184 0.002 4.705-0.911 9.072-2.734 13.104zM413.095 371.464l-30.959-46.224-12.961 13.104v33.12h-22.607v-102.817h22.607v42.624l40.176-42.624h28.225l-40.176 40.608 44.064 62.208h-28.369zM178.235 300.472c0 5.185-1.296 8.928-3.888 11.232s-6.48 3.456-11.664 3.456h-24.768v-28.944h24.768c5.184 0 9.072 1.13 11.664 3.384 2.592 2.256 3.888 5.881 3.888 10.872z" fill="#595959" />
</svg>
