<?xml version="1.0" encoding="utf-8"?>
<!-- Generated by IcoMoon.io -->
<!DOCTYPE svg PUBLIC "-//W3C//DTD SVG 1.1//EN" "http://www.w3.org/Graphics/SVG/1.1/DTD/svg11.dtd">
<svg version="1.1" xmlns="http://www.w3.org/2000/svg" xmlns:xlink="http://www.w3.org/1999/xlink" width="512" height="512" viewBox="0 0 512 512">
<g>
</g>
	<path d="M384 336c-84 0-112 80-112 80s28 80 112 80 112-80 112-80-28-80-112-80zM384 480c-35.344 0-64-28.656-64-64s28.656-64 64-64 64 28.656 64 64-28.656 64-64 64zM384 384c-17.687 0-32 14.313-32 32s14.313 32 32 32 32-14.313 32-32-14.313-32-32-32z" fill="#595959" />
</svg>
