<?xml version="1.0" encoding="utf-8"?>
<!-- Generated by IcoMoon.io -->
<!DOCTYPE svg PUBLIC "-//W3C//DTD SVG 1.1//EN" "http://www.w3.org/Graphics/SVG/1.1/DTD/svg11.dtd">
<svg version="1.1" xmlns="http://www.w3.org/2000/svg" xmlns:xlink="http://www.w3.org/1999/xlink" width="512" height="512" viewBox="0 0 512 512">
<g>
</g>
	<path d="M378.136 311.359c-2.398 0.814-8.416 1.222-18.053 1.222h-14.864v-25.248h15.679c8.145 0 13.031 0.113 14.66 0.339 3.258 0.543 5.779 1.845 7.567 3.903 1.787 2.060 2.681 4.763 2.681 8.11 0 2.986-0.679 5.476-2.036 7.466-1.358 1.992-3.236 3.394-5.634 4.208zM448 224v192h-352v-192h352zM215.11 339.594l-19.479-6.176c-1.674 7.285-4.435 12.623-8.28 16.018-3.846 3.393-8.439 5.090-13.778 5.090-7.24 0-13.123-2.669-17.646-8.009-4.525-5.339-6.787-14.298-6.787-26.877 0-11.854 2.296-20.429 6.889-25.724 4.592-5.293 10.577-7.94 17.952-7.94 5.338 0 9.875 1.493 13.608 4.479 3.732 2.986 6.187 7.059 7.364 12.217l19.886-4.751c-2.263-7.963-5.657-14.071-10.181-18.325-7.602-7.194-17.488-10.791-29.66-10.791-13.937 0-25.18 4.581-33.732 13.743-8.552 9.163-12.828 22.024-12.828 38.585 0 15.656 4.252 27.997 12.76 37.023 8.506 9.027 19.366 13.541 32.578 13.541 10.678 0 19.49-2.636 26.436-7.907 6.946-5.27 11.912-13.337 14.898-24.196zM308.162 341.020c0-6.289-1.323-11.572-3.971-15.849-2.646-4.275-6.312-7.646-10.995-10.112-4.683-2.466-11.911-4.854-21.685-7.16-9.773-2.309-15.928-4.524-18.461-6.652-1.991-1.673-2.986-3.687-2.986-6.040 0-2.579 1.062-4.638 3.19-6.177 3.302-2.397 7.873-3.597 13.709-3.597 5.656 0 9.898 1.12 12.727 3.359 2.827 2.24 4.671 5.917 5.531 11.029l20.090-0.882c-0.317-9.14-3.631-16.447-9.943-21.923-6.312-5.475-15.712-8.212-28.2-8.212-7.647 0-14.175 1.153-19.581 3.461-5.407 2.308-9.547 5.667-12.42 10.079-2.874 4.411-4.311 9.151-4.311 14.219 0 7.873 3.055 14.548 9.163 20.022 4.344 3.892 11.899 7.172 22.669 9.841 8.37 2.082 13.732 3.529 16.086 4.344 3.438 1.222 5.847 2.658 7.228 4.31 1.38 1.652 2.070 3.654 2.070 6.007 0 3.665-1.641 6.866-4.921 9.604-3.281 2.738-8.156 4.106-14.626 4.106-6.108 0-10.961-1.538-14.559-4.615-3.597-3.076-5.984-7.896-7.16-14.457l-19.547 1.9c1.312 11.131 5.339 19.604 12.081 25.418 6.741 5.814 16.401 8.722 28.98 8.722 8.643 0 15.859-1.211 21.651-3.631 5.791-2.42 10.271-6.119 13.438-11.097 3.169-4.977 4.753-10.316 4.753-16.017zM414.583 370l-12.148-19.411c-4.797-7.737-8.609-13.121-11.437-16.153-2.828-3.031-6.414-5.813-10.758-8.348 8.732-1.267 15.293-4.333 19.683-9.197 4.389-4.863 6.584-11.029 6.584-18.494 0-5.882-1.449-11.108-4.344-15.679-2.896-4.569-6.754-7.748-11.572-9.536-4.819-1.787-12.546-2.681-23.178-2.681h-42.284v99.499h20.090v-41.537h4.072c4.615 0 7.985 0.373 10.112 1.12 2.127 0.746 4.141 2.127 6.041 4.14 1.9 2.014 5.43 6.889 10.588 14.627l14.525 21.65h24.026z" fill="#595959" />
</svg>
