<svg xmlns="http://www.w3.org/2000/svg" width="768" height="768" viewBox="0 0 768 768"><path d="M482.6 706.1c-1.4-5.4-4.2-10.6-8.4-14.8-5.6-5.6-13-8.9-20.9-9.4L439 681l-.9-14.3c-.5-7.9-3.8-15.3-9.4-20.9-4.2-4.2-9.4-7.1-14.8-8.4-.9.9-1.6 2.1-2.2 3.6l-26.8 86.6c-2.6 6.8.8 10.2 7.6 7.6l86.5-26.8c1.5-.7 2.7-1.4 3.6-2.3zM732.8 440.3l-53-53.1c-2.2-2.2-5-3.2-7.9-3.2s-5.7 1.1-7.9 3.2l-38 38 68.9 68.9 38-38c4.2-4.4 4.2-11.5-.1-15.8zM436.8 614.3c4.9 2.3 9.6 5.5 13.7 9.6 8.7 8.7 13.4 19.9 14.1 31.4 11.4.7 22.6 5.4 31.4 14.1 4.1 4.1 7.3 8.7 9.6 13.7l167.3-167.3-68.8-68.8-167.3 167.3z" fill="#595959"/></svg>