<?xml version="1.0" encoding="utf-8"?>
<!-- Generated by IcoMoon.io -->
<!DOCTYPE svg PUBLIC "-//W3C//DTD SVG 1.1//EN" "http://www.w3.org/Graphics/SVG/1.1/DTD/svg11.dtd">
<svg version="1.1" xmlns="http://www.w3.org/2000/svg" xmlns:xlink="http://www.w3.org/1999/xlink" width="512" height="512" viewBox="0 0 512 512">
<g>
</g>
	<path d="M430.749 355.67c-0.906-2.531-1.859-4.998-2.999-7.404l14.375-30.234c-6.813-9.234-14.938-17.375-24.173-24.156l-30.218 14.375c-2.422-1.141-4.89-2.094-7.437-3.016l-11.203-31.516c-5.61-0.86-11.251-1.719-17.094-1.719s-11.484 0.859-17.095 1.719l-11.203 31.516c-2.547 0.922-5.014 1.875-7.437 3.016l-30.219-14.375c-9.234 6.781-17.359 14.922-24.172 24.156l14.375 30.234c-1.141 2.406-2.094 4.873-3 7.404l-31.531 11.203c-0.874 5.626-1.718 11.268-1.718 17.127 0 5.844 0.844 11.484 1.719 17.11l31.531 11.187c0.906 2.548 1.859 5.016 3 7.438l-14.375 30.218c6.812 9.235 14.938 17.36 24.172 24.173l30.219-14.375c2.423 1.14 4.89 2.094 7.437 2.999l11.203 31.532c5.61 0.873 11.251 1.718 17.094 1.718s11.484-0.845 17.095-1.719l11.203-31.532c2.547-0.905 5.015-1.859 7.437-2.999l30.218 14.375c9.235-6.812 17.359-14.938 24.173-24.173l-14.375-30.218c1.14-2.422 2.093-4.89 2.999-7.438l31.532-11.187c0.873-5.625 1.718-11.265 1.718-17.109 0-5.859-0.845-11.501-1.719-17.127l-31.532-11.203zM352 426c-23.219 0-42-18.812-42-42s18.781-42 42-42 42 18.812 42 42-18.781 42-42 42z" fill="#595959" />
</svg>
