<?xml version="1.0" encoding="utf-8"?>
<!-- Generated by IcoMoon.io -->
<!DOCTYPE svg PUBLIC "-//W3C//DTD SVG 1.1//EN" "http://www.w3.org/Graphics/SVG/1.1/DTD/svg11.dtd">
<svg version="1.1" xmlns="http://www.w3.org/2000/svg" xmlns:xlink="http://www.w3.org/1999/xlink" width="512" height="512" viewBox="0 0 512 512">
	<path d="M192 256v192h288v-192h-288zM324.516 378.203c-2.865 8.334-6.953 15.078-12.266 20.234-4.011 3.906-9.428 6.953-16.25 9.141-5.104 1.615-11.928 2.422-20.469 2.422h-43.531v-115h42.281c9.531 0 16.797 0.965 21.797 2.422 6.719 1.98 12.474 5.613 17.266 10.664 4.791 5.053 8.438 11.297 10.938 18.613 2.5 7.318 3.75 16.371 3.75 27.1-0.001 9.428-1.173 17.582-3.516 24.404zM426.195 402.852c-7.995 6.068-18.139 9.102-30.43 9.102-15.209 0-27.709-5.195-37.5-15.586-9.792-10.391-14.688-24.596-14.688-42.617 0-19.062 4.922-33.867 14.766-44.414s22.786-15.82 38.828-15.82c14.010 0 25.391 4.141 34.141 12.422 5.208 4.896 9.114 11.928 11.719 21.094l-22.891 5.469c-1.354-5.938-4.18-10.625-8.477-14.062s-9.519-5.156-15.664-5.156c-8.49 0-15.378 3.047-20.664 9.141-5.287 6.094-7.93 15.965-7.93 29.609 0 14.48 2.604 24.793 7.812 30.938 5.208 6.146 11.979 9.219 20.312 9.219 6.146 0 11.432-1.953 15.859-5.859s7.604-10.051 9.531-18.438l22.425 7.106c-3.438 12.5-9.155 21.785-17.149 27.852v0zM295.219 321.328c-2.812-2.656-6.381-4.375-10.703-5.312-3.229-0.729-9.558-1.016-18.984-1.016h-10.532v76h17.406c6.458 0 11.119-0.512 13.984-1.242 3.75-0.938 6.861-2.6 9.336-4.84 2.474-2.238 4.492-5.961 6.055-11.092 1.562-5.129 2.344-12.14 2.344-20.995 0-8.854-0.781-15.66-2.344-20.4-1.562-4.738-3.75-8.447-6.562-11.103v0z" fill="#595959" />
</svg>
