<?xml version="1.0" encoding="utf-8"?>
<!-- Generated by IcoMoon.io -->
<!DOCTYPE svg PUBLIC "-//W3C//DTD SVG 1.1//EN" "http://www.w3.org/Graphics/SVG/1.1/DTD/svg11.dtd">
<svg version="1.1" xmlns="http://www.w3.org/2000/svg" xmlns:xlink="http://www.w3.org/1999/xlink" width="512" height="512" viewBox="0 0 512 512">
<g>
</g>
	<path d="M446.998 365.594c-0.046 0.191-0.118 0.368-0.214 0.529 0.114 0.245 0.178 0.518 0.178 0.807 0 0.175-0.024 0.342-0.068 0.502-0.389 1.766-2.131 9.412-3.625 11.777-0.024 0.040-0.052 0.078-0.079 0.115-1.835 2.476-5.68 5.635-9.777 6.714-2.862 0.765-6.427 1.153-10.586 1.153-11.254 0-26.517-2.817-42.976-7.93-17.684-5.494-35.469-13.201-51.476-22.305-41.75 6.202-89.895 17.698-132.332 31.596-5.333 9.345-10.423 17.88-15.297 25.666h0.002c-7.645 12.321-14.308 21.875-19.861 29.361-10.276 13.855-21.909 24.307-31.249 30.596-3.452 2.324-6.626 3.993-9.428 4.958-4.001 1.393-8.951 0.92-11.853-0.109-0.043-0.016-0.089-0.032-0.13-0.051-2.557-1.128-8.262-6.5-9.569-7.749-0.126-0.108-0.239-0.234-0.336-0.378-0.161-0.239-0.26-0.502-0.301-0.769-0.17-0.079-0.328-0.186-0.472-0.319v0c-0.035-0.035-3.63-3.393-4.78-5.342-0.011-0.021-0.024-0.043-0.035-0.062-2.532-4.669-3.279-8.92-2.352-13.375 2.387-11.7 15.415-23.008 28.93-32.367 0.702-0.485 20.62-15.326 43.833-26.541 0 0 2.069-1.049 2.947 0.176 0.146 0.204 0.523 0.638 0.621 1.205 0.215 1.244-2.014 2.937-2.014 2.937-13.85 12.98-46.020 41.246-53.686 53.071-8.095 12.489-8.638 16.836-7.628 17.842 0.295 0.293 5.785 2.675 7.8 2.394 2.045-0.311 4.619-1.498 7.629-3.525 8.922-6.006 18.963-22.972 33.325-44.85 0 0 3.329-5.037 3.774-5.703 14.381-21.684 30.453-49.891 48.073-84.424l1.362-2.67c10.383-20.358 22.151-43.435 31.56-66.406l3.648-8.845c-13.115-50.066-20.411-88.635-13.516-114.101 1.93-6.891 9.42-11.171 19.549-11.171 0.145 0 18.917-0.137 24.912 21.46 6.667 24.023-5.428 72.552-8.449 86.142-0.612 2.736-1.295 5.454-2 8.221 10.765 29.879 28.199 57.088 49.132 76.665 8.002 7.486 18.137 13.61 27.893 19.232 20.017-2.838 39.073-4.338 55.15-4.338 0.996 0 1.979 0.006 2.957 0.018 16.431 0.216 37.802 2.23 46.3 10.606 3.252 3.179 4.999 7.124 5.498 12.414 0.002 0.024 0.004 0.048 0.006 0.072 0.132 2.256-0.982 7.053-0.99 7.101v0 0zM244.997 162.184c0 16.070 3.012 36.512 8.335 56.901 0.471-1.529 15.323-37.71 8.958-72.085-2.302-12.431-8.141-10.312-10.414-9.965-6.309 0.965-6.881 20.729-6.879 25.149v0zM309.155 344.634c-4.062-2.934-7.843-5.887-11.277-8.808-18.863-15.982-34.726-36.227-47.199-60.225-6.294 16.706-14.801 37.351-29.176 64.58-6.488 12.236-12.834 23.674-18.855 34.423 30.337-12.244 65.282-22.075 106.507-29.97zM443.444 365.949c-0.162-0.352-0.219-0.755-0.138-1.162 0.277-1.399-2.106-6.019-16.269-10.545-6.956-2.224-17.3-3.351-30.745-3.351-9.739 0-20.965 0.594-33.447 1.769 26.139 12.133 51.937 19.81 67.028 19.81 3.627 0 6.425-0.453 8.295-1.337 1.828-0.895 4.332-3.92 5.276-5.184v0z" fill="#595959" />
</svg>
