<?xml version="1.0" encoding="utf-8"?>
<!-- Generated by IcoMoon.io -->
<!DOCTYPE svg PUBLIC "-//W3C//DTD SVG 1.1//EN" "http://www.w3.org/Graphics/SVG/1.1/DTD/svg11.dtd">
<svg version="1.1" xmlns="http://www.w3.org/2000/svg" xmlns:xlink="http://www.w3.org/1999/xlink" width="512" height="512" viewBox="0 0 512 512">
<g>
</g>
	<path d="M430.248 365.039l-52.366-52.366 45.408-45.409c-1.003-0.337-2.012-0.649-3.024-0.947-0.317-0.094-0.637-0.177-0.955-0.268-0.702-0.196-1.405-0.389-2.111-0.567-0.371-0.094-0.744-0.182-1.117-0.271-0.667-0.159-1.335-0.311-2.005-0.453-0.377-0.080-0.755-0.159-1.132-0.233-0.696-0.139-1.395-0.264-2.093-0.385-0.343-0.059-0.685-0.121-1.027-0.175-0.863-0.138-1.729-0.259-2.596-0.369-0.174-0.022-0.347-0.050-0.521-0.071-1.046-0.126-2.093-0.23-3.142-0.317-0.274-0.022-0.549-0.035-0.823-0.056-0.771-0.056-1.541-0.104-2.312-0.14-0.375-0.018-0.751-0.026-1.126-0.038-0.677-0.021-1.354-0.036-2.032-0.041-0.191-0.001-0.383 0-0.575 0-0.177 0-0.354-0.001-0.531 0-1.021 0.006-2.040 0.029-3.059 0.073-0.181 0.007-0.362 0.009-0.543 0.018-1.174 0.058-2.347 0.146-3.519 0.252-0.322 0.030-0.644 0.066-0.966 0.099-0.914 0.095-1.827 0.204-2.739 0.328-0.315 0.044-0.631 0.083-0.946 0.13-1.159 0.171-2.315 0.364-3.467 0.584-0.226 0.044-0.451 0.096-0.677 0.141-0.955 0.191-1.907 0.399-2.855 0.625-0.348 0.082-0.695 0.166-1.042 0.252-1.005 0.252-2.005 0.521-3.001 0.81-0.159 0.047-0.318 0.087-0.478 0.134-1.129 0.335-2.25 0.701-3.366 1.086-0.326 0.111-0.65 0.23-0.975 0.346-0.868 0.312-1.732 0.638-2.592 0.979-0.296 0.116-0.592 0.229-0.887 0.35-1.095 0.449-2.183 0.92-3.262 1.417-0.237 0.11-0.472 0.228-0.709 0.34-0.876 0.414-1.747 0.845-2.611 1.29-0.318 0.165-0.636 0.33-0.952 0.498-0.989 0.527-1.971 1.070-2.941 1.641-0.087 0.051-0.177 0.098-0.263 0.148-1.045 0.619-2.076 1.269-3.098 1.937-0.292 0.19-0.582 0.387-0.871 0.581-0.809 0.542-1.609 1.1-2.403 1.674-0.239 0.173-0.481 0.342-0.72 0.518-0.989 0.732-1.967 1.489-2.932 2.271-0.211 0.172-0.419 0.352-0.629 0.526-0.779 0.645-1.55 1.306-2.311 1.983-0.266 0.235-0.53 0.472-0.793 0.712-0.938 0.855-1.866 1.729-2.773 2.636-23.129 23.129-29.799 56.468-20.045 85.504l-54.823 54.822 52.367 52.362 54.822-54.822c1.001 0.337 2.009 0.648 3.020 0.945 0.326 0.097 0.654 0.184 0.982 0.274 0.689 0.194 1.381 0.383 2.075 0.559 0.384 0.097 0.769 0.188 1.153 0.279 0.651 0.155 1.305 0.304 1.959 0.442 0.392 0.084 0.783 0.166 1.176 0.244 0.676 0.133 1.354 0.255 2.033 0.372 0.36 0.062 0.721 0.129 1.081 0.186 0.83 0.132 1.661 0.248 2.493 0.354 0.208 0.026 0.414 0.060 0.621 0.084 1.038 0.125 2.078 0.229 3.119 0.314 0.289 0.024 0.578 0.039 0.867 0.060 0.757 0.055 1.514 0.103 2.271 0.138 0.38 0.017 0.759 0.026 1.139 0.038 0.676 0.021 1.353 0.036 2.029 0.041 0.365 0.002 0.732 0.002 1.099-0.001 1.027-0.006 2.056-0.028 3.083-0.072 0.172-0.008 0.345-0.010 0.517-0.018 1.181-0.059 2.36-0.146 3.539-0.254 0.309-0.028 0.617-0.062 0.925-0.095 0.934-0.096 1.866-0.208 2.797-0.335 0.3-0.041 0.601-0.078 0.899-0.123 1.171-0.173 2.338-0.367 3.501-0.591 0.201-0.039 0.4-0.085 0.602-0.124 0.984-0.197 1.965-0.411 2.941-0.644 0.33-0.078 0.659-0.158 0.988-0.239 1.039-0.261 2.074-0.537 3.104-0.838 0.127-0.037 0.255-0.069 0.382-0.107 1.143-0.339 2.278-0.709 3.408-1.099 0.307-0.105 0.61-0.217 0.916-0.326 0.895-0.319 1.784-0.655 2.67-1.007 0.274-0.109 0.551-0.214 0.824-0.326 1.107-0.453 2.207-0.929 3.298-1.432 0.217-0.101 0.432-0.209 0.648-0.311 0.898-0.424 1.791-0.865 2.677-1.323 0.307-0.158 0.612-0.317 0.917-0.479 1.007-0.536 2.008-1.090 2.997-1.671 0.071-0.042 0.144-0.080 0.215-0.122 1.051-0.62 2.087-1.274 3.115-1.946 0.284-0.186 0.566-0.376 0.85-0.566 0.816-0.548 1.625-1.111 2.426-1.69 0.234-0.17 0.471-0.334 0.704-0.507 0.992-0.734 1.972-1.491 2.938-2.274 0.21-0.171 0.416-0.349 0.624-0.521 0.781-0.646 1.554-1.31 2.316-1.988 0.264-0.235 0.528-0.47 0.789-0.709 0.939-0.857 1.867-1.729 2.775-2.638 23.128-23.129 29.796-56.467 20.044-85.502l-45.407 45.409z" fill="#595959" />
</svg>
