<?xml version="1.0" encoding="utf-8"?>
<!-- Generated by IcoMoon.io -->
<!DOCTYPE svg PUBLIC "-//W3C//DTD SVG 1.1//EN" "http://www.w3.org/Graphics/SVG/1.1/DTD/svg11.dtd">
<svg version="1.1" xmlns="http://www.w3.org/2000/svg" xmlns:xlink="http://www.w3.org/1999/xlink" width="768" height="768" viewBox="0 0 768 768">
<g>
</g>
	<path d="M688 96h16v-32h-16c-25.6 0-48 12.8-64 32-16-19.2-38.4-32-64-32h-16v32h16c25.6 0 48 22.4 48 48v240h-64v32h64v224c0 28.8-22.4 64-48 64h-16v32h16c25.6 0 48-25.6 64-48 16 22.4 38.4 48 64 48h16v-32h-16c-25.6 0-48-35.2-48-64v-224h64v-32h-64v-240c0-25.6 22.4-48 48-48z" fill="#595959" />
</svg>
