<?xml version="1.0" encoding="utf-8"?>
<!-- Generator: Adobe Illustrator 17.1.0, SVG Export Plug-In . SVG Version: 6.00 Build 0)  -->
<!DOCTYPE svg PUBLIC "-//W3C//DTD SVG 1.1//EN" "http://www.w3.org/Graphics/SVG/1.1/DTD/svg11.dtd">
<svg version="1.1" id="Layer_1" xmlns="http://www.w3.org/2000/svg" xmlns:xlink="http://www.w3.org/1999/xlink" x="0px" y="0px"
	 width="768px" height="768px" viewBox="0 0 768 768" enable-background="new 0 0 768 768" xml:space="preserve">
<path fill="#595959" d="M606.5,569.6c-0.1,0.3-0.2,0.5-0.3,0.8c0.2,0.4,0.3,0.8,0.3,1.2c0,0.3,0,0.5-0.1,0.7
	c-0.6,2.6-3.1,13.7-5.3,17.1c0,0.1-0.1,0.1-0.1,0.2c-2.7,3.6-8.3,8.2-14.2,9.8c-4.2,1.1-9.3,1.7-15.4,1.7
	c-16.4,0-38.6-4.1-62.5-11.5c-25.7-8-51.6-19.2-74.9-32.4c-60.7,9-130.8,25.7-192.5,46c-7.8,13.6-15.2,26-22.2,37.3h0
	c-11.1,17.9-20.8,31.8-28.9,42.7c-14.9,20.2-31.9,35.4-45.5,44.5c-5,3.4-9.6,5.8-13.7,7.2c-5.8,2-13,1.3-17.2-0.2
	c-0.1,0-0.1,0-0.2-0.1c-3.7-1.6-12-9.5-13.9-11.3c-0.2-0.2-0.3-0.3-0.5-0.6c-0.2-0.3-0.4-0.7-0.4-1.1c-0.2-0.1-0.5-0.3-0.7-0.5l0,0
	c-0.1-0.1-5.3-4.9-7-7.8c0,0,0-0.1-0.1-0.1c-3.7-6.8-4.8-13-3.4-19.5c3.5-17,22.4-33.5,42.1-47.1c1-0.7,30-22.3,63.8-38.6
	c0,0,3-1.5,4.3,0.3c0.2,0.3,0.8,0.9,0.9,1.8c0.3,1.8-2.9,4.3-2.9,4.3c-20.1,18.9-66.9,60-78.1,77.2c-11.8,18.2-12.6,24.5-11.1,26
	c0.4,0.4,8.4,3.9,11.3,3.5c3-0.5,6.7-2.2,11.1-5.1c13-8.7,27.6-33.4,48.5-65.2c0,0,4.8-7.3,5.5-8.3c20.9-31.5,44.3-72.6,69.9-122.8
	l2-3.9c15.1-29.6,32.2-63.2,45.9-96.6l5.3-12.9c-19.1-72.8-29.7-128.9-19.7-166c2.8-10,13.7-16.2,28.4-16.2
	c0.2,0,27.5-0.2,36.2,31.2c9.7,34.9-7.9,105.5-12.3,125.3c-0.9,4-1.9,7.9-2.9,12c15.7,43.5,41,83,71.5,111.5
	c11.6,10.9,26.4,19.8,40.6,28c29.1-4.1,56.8-6.3,80.2-6.3c1.4,0,2.9,0,4.3,0c23.9,0.3,55,3.2,67.3,15.4c4.7,4.6,7.3,10.4,8,18.1
	c0,0,0,0.1,0,0.1C608.2,562.5,606.6,569.5,606.5,569.6L606.5,569.6L606.5,569.6L606.5,569.6z M312.7,273.7
	c0,23.4,4.4,53.1,12.1,82.8c0.7-2.2,22.3-54.9,13-104.9c-3.3-18.1-11.8-15-15.1-14.5C313.6,238.5,312.7,267.3,312.7,273.7
	L312.7,273.7L312.7,273.7z M406,539.1c-5.9-4.3-11.4-8.6-16.4-12.8c-27.4-23.2-50.5-52.7-68.7-87.6c-9.2,24.3-21.5,54.3-42.4,93.9
	c-9.4,17.8-18.7,34.4-27.4,50.1C295.3,564.9,346.1,550.6,406,539.1L406,539.1z M601.4,570.1c-0.2-0.5-0.3-1.1-0.2-1.7
	c0.4-2-3.1-8.8-23.7-15.3c-10.1-3.2-25.2-4.9-44.7-4.9c-14.2,0-30.5,0.9-48.6,2.6c38,17.6,75.5,28.8,97.5,28.8
	c5.3,0,9.3-0.7,12.1-1.9C596.4,576.3,600,571.9,601.4,570.1L601.4,570.1L601.4,570.1z"/>
</svg>
