<svg xmlns="http://www.w3.org/2000/svg" width="512" height="512" viewBox="0 0 512 512"><path stroke="#449FDB" d="M0 0"/><path d="M430.248 365.04l-52.366-52.367 45.408-45.41c-1.003-.336-2.012-.648-3.024-.946-.317-.094-.637-.177-.955-.268-.7-.198-1.403-.39-2.11-.57-.37-.093-.743-.18-1.116-.27-.667-.16-1.335-.31-2.005-.453-.378-.08-.756-.16-1.133-.233-.696-.14-1.395-.264-2.093-.385-.343-.06-.685-.12-1.027-.176-.863-.138-1.73-.26-2.596-.37-.173-.02-.346-.05-.52-.07-1.046-.126-2.093-.23-3.142-.317-.274-.022-.55-.035-.823-.056-.77-.055-1.54-.103-2.312-.14-.375-.017-.75-.025-1.126-.037-.677-.02-1.354-.036-2.032-.04-.19-.002-.383 0-.575 0-.178 0-.355-.002-.532 0-1.02.005-2.04.028-3.06.072-.18.007-.36.01-.542.018-1.174.058-2.347.146-3.52.252-.32.03-.643.066-.965.1-.912.094-1.825.203-2.737.327-.315.044-.63.083-.946.13-1.16.17-2.315.364-3.467.584-.227.044-.452.096-.678.14-.955.192-1.907.4-2.855.626-.348.082-.695.166-1.042.252-1.005.252-2.005.52-3 .81-.16.047-.32.087-.48.134-1.128.334-2.25.7-3.365 1.085-.326.11-.65.23-.975.346-.868.312-1.732.64-2.592.98-.296.115-.592.23-.887.35-1.095.45-2.183.92-3.262 1.416-.237.11-.472.228-.71.34-.875.414-1.746.845-2.61 1.29-.318.165-.636.33-.952.498-.99.527-1.97 1.07-2.94 1.64-.088.052-.178.1-.264.15-1.045.618-2.076 1.268-3.098 1.936-.292.19-.582.388-.87.582-.81.542-1.61 1.1-2.404 1.674-.24.173-.48.342-.72.518-.99.732-1.967 1.49-2.932 2.27-.21.173-.42.353-.63.527-.778.647-1.55 1.308-2.31 1.985-.266.235-.53.472-.793.712-.936.855-1.864 1.73-2.77 2.636-23.13 23.13-29.8 56.468-20.046 85.504L262.92 427.64 315.288 480l54.822-54.822c1 .337 2.007.648 3.02.945.324.097.652.184.98.274.69.194 1.38.383 2.075.56.384.096.77.187 1.153.278.65.155 1.304.304 1.958.442.392.084.783.166 1.176.244.676.135 1.354.257 2.033.374.36.062.72.13 1.08.186.83.13 1.662.247 2.494.353.21.026.414.06.62.084 1.04.125 2.08.23 3.12.314.29.026.578.04.867.06.757.057 1.514.105 2.27.14.38.017.76.026 1.14.038.676.02 1.353.036 2.03.04.364.003.73.003 1.098 0 1.027-.006 2.056-.028 3.083-.072.17-.008.344-.01.516-.018 1.18-.06 2.36-.146 3.54-.254.308-.028.616-.062.924-.095.934-.097 1.866-.21 2.797-.336.3-.04.6-.078.9-.123 1.17-.172 2.337-.366 3.5-.59.2-.04.4-.085.602-.124.983-.197 1.964-.41 2.94-.644.33-.077.66-.157.988-.238 1.04-.26 2.074-.537 3.104-.838.126-.037.254-.07.38-.107 1.144-.34 2.28-.71 3.41-1.1.306-.105.61-.217.915-.326.895-.32 1.784-.655 2.67-1.007.274-.11.55-.214.824-.326 1.106-.453 2.206-.93 3.297-1.432.217-.1.432-.21.648-.31.898-.425 1.79-.866 2.677-1.324.307-.158.612-.317.917-.48 1.006-.535 2.007-1.09 2.996-1.67.07-.042.143-.08.214-.122 1.05-.62 2.087-1.273 3.115-1.945.283-.186.565-.376.85-.566.815-.55 1.624-1.11 2.425-1.69.234-.17.47-.334.704-.507.99-.734 1.97-1.49 2.937-2.274.21-.17.417-.35.625-.52.782-.648 1.555-1.31 2.317-1.99.264-.235.528-.47.79-.71.938-.856 1.866-1.73 2.774-2.637 23.13-23.13 29.797-56.467 20.045-85.502l-45.406 45.41z" fill="#595959"/></svg>