<svg xmlns="http://www.w3.org/2000/svg" width="768" height="768" viewBox="0 0 768 768"><path d="M208 256h-64c-9.6 0-16-6.4-16-16s6.4-16 16-16h64c9.6 0 16 6.4 16 16s-6.4 16-16 16zm128 0h-64c-9.6 0-16-6.4-16-16s6.4-16 16-16h64c9.6 0 16 6.4 16 16s-6.4 16-16 16zm0 96h-64c-9.6 0-16-6.4-16-16s6.4-16 16-16h64c9.6 0 16 6.4 16 16s-6.4 16-16 16zm0 96h-64c-9.6 0-16-6.4-16-16s6.4-16 16-16h64c9.6 0 16 6.4 16 16s-6.4 16-16 16zm0 96h-64c-9.6 0-16-6.4-16-16s6.4-16 16-16h64c9.6 0 16 6.4 16 16s-6.4 16-16 16zm128-288h-64c-9.6 0-16-6.4-16-16s6.4-16 16-16h64c9.6 0 16 6.4 16 16s-6.4 16-16 16zm0 96h-64c-9.6 0-16-6.4-16-16s6.4-16 16-16h64c9.6 0 16 6.4 16 16s-6.4 16-16 16zm0 96h-64c-9.6 0-16-6.4-16-16s6.4-16 16-16h64c9.6 0 16 6.4 16 16s-6.4 16-16 16zm0 96h-64c-9.6 0-16-6.4-16-16s6.4-16 16-16h64c9.6 0 16 6.4 16 16s-6.4 16-16 16zM208 352h-64c-9.6 0-16-6.4-16-16s6.4-16 16-16h64c9.6 0 16 6.4 16 16s-6.4 16-16 16zm0 96h-64c-9.6 0-16-6.4-16-16s6.4-16 16-16h64c9.6 0 16 6.4 16 16s-6.4 16-16 16zm384-96h-64c-9.6 0-16-6.4-16-16s6.4-16 16-16h64c9.6 0 16 6.4 16 16s-6.4 16-16 16zm0 96h-64c-9.6 0-16-6.4-16-16s6.4-16 16-16h64c9.6 0 16 6.4 16 16s-6.4 16-16 16zm0 96h-64c-9.6 0-16-6.4-16-16s6.4-16 16-16h64c9.6 0 16 6.4 16 16s-6.4 16-16 16zm3.2-384l76.8 76.8V608H64V160h531.2zm12.8-32H32v512h672V224l-96-96z" fill="#595959"/></svg>