<svg xmlns="http://www.w3.org/2000/svg" width="512" height="512" viewBox="0 0 512 512"><path stroke="#449FDB" d="M0 0"/><path d="M128 448V256h48v-32H96v224H64V64h96v96h192V64h64c17.642 0 32 14.36 32 32.016V176h32V96.016C480 60.656 451.344 32 416 32H32v448h144v-32h-48zM320 64v64H192V64h128zm-80 416h240V208H208v272h32zm0-240h208v208H240V240zm152.076 176H416l-62.467-153.297h-18.83L272.453 416h22.595l15.734-39.875h65.562L392.076 416zm-75.326-57.81l26.812-68.69 26.797 68.69h-53.61z" fill="#595959"/></svg>