<svg xmlns="http://www.w3.org/2000/svg" width="512" height="512" viewBox="0 0 512 512"><path stroke="#449FDB" d="M0 0"/><path d="M288 336v160h160V336H288zm96 112v-80h16v96h-16v-16zm-48-80h16v96h-16v-96zM64 448V64h284.812C368.218 64 384 79.797 384 99.203v108.86c12.342.546 23.533 5.56 32 13.468V99.205C416 62.094 385.907 32 348.812 32H32v448h224v-32H64zm64-288h192v32H128v-32zm0 96h112v-16h67.438c2.345-5.97 5.813-11.39 10.096-16H128v32zm0 32h112v32H128v-32zm144 32h192v-48h-64v-13.72c0-10.093-8.19-18.28-18.28-18.28h-27.44c-10.09 0-18.28 8.188-18.28 18.28V272h-64v48z" fill="#595959"/></svg>