<svg xmlns="http://www.w3.org/2000/svg" width="512" height="512" viewBox="0 0 512 512"><path stroke="#449FDB" d="M0 0"/><path d="M416 224V99.2c0-37.114-30.086-67.2-67.2-67.2H32v448h384v-64h32V224h-32zm-32 224H64V64h284.8c19.41 0 35.2 15.79 35.2 35.2V224H96v192h288v32zm-97.998-112.92c-1.38-1.65-3.79-3.088-7.228-4.31-2.354-.814-7.716-2.262-16.086-4.344-10.77-2.67-18.325-5.95-22.67-9.84-6.107-5.476-9.162-12.15-9.162-20.023 0-5.067 1.437-9.808 4.31-14.22 2.874-4.41 7.014-7.77 12.42-10.078s11.935-3.46 19.582-3.46c12.488 0 21.89 2.736 28.2 8.21 6.312 5.477 9.626 12.784 9.943 21.924l-20.09.88c-.86-5.11-2.702-8.79-5.53-11.03-2.827-2.24-7.07-3.36-12.726-3.36-5.836 0-10.407 1.2-13.71 3.6-2.127 1.54-3.19 3.597-3.19 6.176 0 2.354.996 4.367 2.987 6.04 2.534 2.128 8.69 4.344 18.46 6.652s17.004 4.693 21.687 7.16c4.684 2.466 8.35 5.836 10.995 10.11s3.972 9.56 3.972 15.85c0 5.7-1.584 11.04-4.75 16.018-3.17 4.978-7.648 8.677-13.44 11.097s-13.008 3.63-21.65 3.63c-12.58 0-22.24-2.906-28.98-8.72-6.742-5.814-10.77-14.288-12.08-25.42l19.546-1.9c1.176 6.563 3.563 11.382 7.16 14.458s8.45 4.616 14.56 4.616c6.47 0 11.344-1.368 14.625-4.106s4.92-5.938 4.92-9.604c0-2.354-.69-4.356-2.07-6.008zm-130.075 11.437c4.524 5.34 10.407 8.01 17.646 8.01 5.338 0 9.932-1.698 13.778-5.09 3.847-3.396 6.608-8.733 8.28-16.02l19.48 6.177c-2.985 10.86-7.952 18.926-14.896 24.196-6.946 5.27-15.758 7.907-26.436 7.907-13.212 0-24.072-4.514-32.578-13.54-8.508-9.027-12.76-21.368-12.76-37.024 0-16.56 4.275-29.422 12.827-38.585s19.795-13.743 33.732-13.743c12.17 0 22.056 3.597 29.66 10.79 4.522 4.255 7.915 10.363 10.18 18.326l-19.887 4.753c-1.177-5.158-3.63-9.23-7.364-12.217s-8.27-4.48-13.61-4.48c-7.374 0-13.36 2.648-17.95 7.94-4.594 5.296-6.89 13.87-6.89 25.725 0 12.58 2.26 21.54 6.786 26.878zM390.557 370l-14.524-21.65c-5.158-7.738-8.688-12.613-10.588-14.627-1.9-2.013-3.914-3.394-6.04-4.14-2.128-.747-5.498-1.12-10.113-1.12h-4.072V370h-20.09v-99.5h42.284c10.632 0 18.358.895 23.178 2.682 4.818 1.788 8.676 4.967 11.572 9.536 2.895 4.57 4.344 9.797 4.344 15.68 0 7.464-2.195 13.63-6.584 18.493s-10.95 7.933-19.683 9.2c4.346 2.533 7.93 5.315 10.76 8.347s6.64 8.416 11.437 16.153L414.583 370h-24.026zM320 193H128v-32h192v32zm58.136 118.36c-2.398.813-8.416 1.22-18.053 1.22H345.22v-25.247h15.678c8.145 0 13.03.113 14.66.34 3.258.542 5.78 1.844 7.567 3.902 1.787 2.06 2.68 4.763 2.68 8.11 0 2.986-.678 5.476-2.035 7.466-1.358 1.994-3.236 3.396-5.634 4.21z" fill="#595959"/></svg>