<svg xmlns="http://www.w3.org/2000/svg" width="512" height="512" viewBox="0 0 512 512"><path d="M63.904 64h192c17.63 0 32 14.367 32 32v32h32V96c0-35.36-28.64-64-64-64H32.19v320h127.714v-32h-96V64zM96 96h160v32H96V96zM96 160h31.903v32H96v-32zM287.904 448h-64V320H192.19v160h138.483l-26-32zM479.904 224c0-35.362-28.64-64-64-64H160v32h255.904c17.63 0 32 14.367 32 32 11.71 0 22.55 3.388 32 8.903V224zM288 224H96v32h136.806c11.103-19.037 31.614-32 55.194-32zM448 256H288c-17.674 0-32 14.326-32 32v96c0 17.672 14.326 32 32 32h32l52 64 44-64h32c17.674 0 32-14.328 32-32v-96c0-17.674-14.326-32-32-32z" fill="#595959"/></svg>