<svg xmlns="http://www.w3.org/2000/svg" width="512" height="512" viewBox="0 0 512 512"><path d="M288.32 416h-.64c-17.497 0-31.68-14.183-31.68-31.68v-.64c0-17.497 14.183-31.68 31.68-31.68h.64c17.497 0 31.68 14.183 31.68 31.68v.64c0 17.497-14.183 31.68-31.68 31.68zM384.32 416h-.64c-17.497 0-31.68-14.183-31.68-31.68v-.64c0-17.497 14.183-31.68 31.68-31.68h.64c17.497 0 31.68 14.183 31.68 31.68v.64c0 17.497-14.183 31.68-31.68 31.68zM96.32 416h-.64C78.184 416 64 401.817 64 384.32v-.64C64 366.183 78.184 352 95.68 352h.64c17.496 0 31.68 14.183 31.68 31.68v.64c0 17.497-14.183 31.68-31.68 31.68zM192.32 416h-.64c-17.496 0-31.68-14.183-31.68-31.68v-.64c0-17.497 14.184-31.68 31.68-31.68h.64c17.496 0 31.68 14.183 31.68 31.68v.64c0 17.497-14.184 31.68-31.68 31.68zM288.32 320h-.64c-17.497 0-31.68-14.183-31.68-31.68v-.64c0-17.497 14.183-31.68 31.68-31.68h.64c17.497 0 31.68 14.183 31.68 31.68v.64c0 17.497-14.183 31.68-31.68 31.68zM96.32 320h-.64C78.184 320 64 305.817 64 288.32v-.64C64 270.183 78.184 256 95.68 256h.64c17.496 0 31.68 14.183 31.68 31.68v.64c0 17.497-14.183 31.68-31.68 31.68zM192.32 320h-.64c-17.496 0-31.68-14.183-31.68-31.68v-.64c0-17.497 14.184-31.68 31.68-31.68h.64c17.496 0 31.68 14.183 31.68 31.68v.64c0 17.497-14.184 31.68-31.68 31.68zM288.32 224h-.64c-17.497 0-31.68-14.184-31.68-31.68v-.64c0-17.496 14.183-31.68 31.68-31.68h.64c17.497 0 31.68 14.184 31.68 31.68v.64c0 17.496-14.183 31.68-31.68 31.68zM384.32 320h-.64c-17.497 0-31.68-14.183-31.68-31.68v-.64c0-17.497 14.183-31.68 31.68-31.68h.64c17.497 0 31.68 14.183 31.68 31.68v.64c0 17.497-14.183 31.68-31.68 31.68zM384.32 224h-.64c-17.497 0-31.68-14.184-31.68-31.68v-.64c0-17.496 14.183-31.68 31.68-31.68h.64c17.497 0 31.68 14.184 31.68 31.68v.64c0 17.496-14.183 31.68-31.68 31.68zM192.32 224h-.64c-17.496 0-31.68-14.184-31.68-31.68v-.64c0-17.496 14.184-31.68 31.68-31.68h.64c17.496 0 31.68 14.184 31.68 31.68v.64c0 17.496-14.184 31.68-31.68 31.68zM0 32v384c0 35.346 28.654 64 64 64h352c35.346 0 64-28.654 64-64V32H0zm448 384c0 17.644-14.356 32-32 32H64c-17.645 0-32-14.356-32-32V128h416v288zM32 96V64h416v32H32z" fill="#595959"/></svg>