<svg xmlns="http://www.w3.org/2000/svg" width="512" height="512" viewBox="0 0 512 512"><path d="M463.1 324.297l.212-.39L338.818 256l124.494-67.905-.213-.39C473.014 182.27 480 172.107 480 160c0-17.672-14.327-32-32-32-5.568 0-10.54 1.8-15.1 4.3l-.213-.39L272 219.554l-85.597-46.69C189.9 163.884 192 154.204 192 144c0-44.113-35.888-80-80-80s-80 35.887-80 80 35.888 80 80 80c9.123 0 17.752-1.856 25.926-4.683L205.182 256l-67.256 36.686C129.75 289.86 121.124 288 112 288c-44.11 0-80 35.888-80 80s35.89 80 80 80 80-35.888 80-80c0-10.202-2.1-19.882-5.597-28.862L272 292.448l160.688 87.647.213-.39c4.56 2.5 9.536 4.297 15.1 4.297 17.676 0 32-14.328 32-32 0-12.108-6.983-22.267-16.9-27.703zM112 192c-26.51 0-48-21.49-48-48s21.49-48 48-48 48 21.49 48 48-21.49 48-48 48zm0 224c-26.51 0-48-21.49-48-48 0-15.883 7.802-29.85 19.69-38.588 3.745-2.754 7.947-4.89 12.388-6.498.62-.22 1.26-.394 1.894-.588 4.445-1.4 9.11-2.326 14.028-2.326 4.98 0 9.694.963 14.194 2.377.748.233 1.51.43 2.242.697 4.38 1.625 8.49 3.8 12.155 6.568.296.217.557.47.845.695 7.75 6.144 13.627 14.576 16.463 24.348 1.234 4.254 2.106 8.662 2.106 13.315 0 26.51-21.49 48-48 48z" fill="#595959"/></svg>