<svg xmlns="http://www.w3.org/2000/svg" width="512" height="512" viewBox="0 0 512 512"><path stroke="#449FDB" d="M0 0"/><path d="M399.798 8.104C354.535 8.104 325.488 0 278.874 0 128.232 0 57.978 85.792 57.978 172.936c0 51.34 24.32 68.23 72.282 68.23-3.38-7.433-9.457-15.54-9.457-52.018 0-102.005 38.503-131.73 87.818-133.755 0 0-40.456 396.687-157.886 444.27V512H209.03l54.012-256h98.922L384 192H276.546l25.972-123.095c29.723 6.078 58.77 12.158 83.766 12.158 31.074 0 59.447-9.457 74.984-81.063-18.913 6.08-39.18 8.104-61.47 8.104z" fill="#595959"/></svg>