<svg xmlns="http://www.w3.org/2000/svg" width="512" height="512" viewBox="0 0 512 512"><path stroke="#449FDB" d="M0 0"/><path d="M64 320h384v64H64zm72.656-113.633h-23.293v37.825c0 8.977 1.28 11.113 2.992 13.035 1.496 1.71 3.633 2.563 8.12 2.563 5.34 0 10.255-1.922 10.255-1.922l1.71 26.71c-2.56.64-11.964 3.422-24.358 3.422-12.184 0-20.3-3.636-25.645-9.832s-7.48-14.957-7.48-30.984v-40.816H64v-25.855h14.957v-28.637h34.406v28.637h23.293v25.854zM251.19 241.2h-75.003c1.496 15.17 13.035 22.01 26.922 22.01 13.68 0 25.642-5.983 31.626-10.04l13.46 17.733c-3.415 2.567-17.305 17.097-50 17.097-32.48 0-56.2-20.09-56.2-54.922s25.645-54.703 56.84-54.703c31.2 0 52.78 20.727 52.78 51.5 0 5.13-.425 11.324-.425 11.324zm-31.413-19.446c-.21-9.618-7.262-21.156-21.582-21.156-14.102 0-21.367 11.113-21.797 21.156h43.38zm156.21 63.893h-38.894l-23.72-35.045-23.933 35.045h-38.89l42.31-54.917-37.823-50.434h38.676l19.66 31.63 19.445-31.63h38.68l-37.824 50.434 42.314 54.917zM448 206.367h-23.293v37.825c0 8.977 1.28 11.113 2.992 13.035 1.493 1.71 3.63 2.563 8.12 2.563 5.34 0 10.256-1.922 10.256-1.922l1.707 26.71c-2.562.64-11.965 3.422-24.36 3.422-12.18 0-20.3-3.636-25.644-9.832-5.34-6.195-7.477-14.957-7.477-30.984v-40.816h-14.96v-25.855h14.96v-28.637h34.402v28.637H448v25.854z" fill="#595959"/></svg>