<svg xmlns="http://www.w3.org/2000/svg" width="512" height="512" viewBox="0 0 512 512"><path d="M235.345 334.4c-14.156 0-28.313-5.374-39.094-16.155l-40.093-40.11c-6.25-6.25-6.25-16.376 0-22.626s16.375-6.25 22.625 0l40.097 40.11c9.062 9.093 23.874 9.093 32.937 0L354.65 192.786c9.093-9.078 9.093-23.86 0-32.938l-57.586-57.57c-9.063-9.063-23.875-9.063-32.938 0l-28.78 28.78c-6.25 6.25-16.375 6.25-22.625 0s-6.25-16.374 0-22.624l28.78-28.78c20.875-20.876 57.313-20.876 78.188 0l57.585 57.568c21.563 21.563 21.563 56.625 0 78.188L274.44 318.245c-10.78 10.78-24.938 16.156-39.094 16.156zm-90.495 90.526c-14.78 0-28.655-5.75-39.093-16.188l-57.585-57.553c-21.563-21.563-21.563-56.625 0-78.203l102.832-102.816c21.563-21.563 56.625-21.563 78.188 0l52.22 52.22c6.25 6.25 6.25 16.374 0 22.624s-16.376 6.25-22.626 0l-52.22-52.22c-9.062-9.062-23.874-9.062-32.937 0L70.795 295.608c-9.063 9.078-9.094 23.86 0 32.953l57.585 57.554c9.064 9.063 23.876 9.063 32.94 0l28.772-28.773c6.25-6.25 16.375-6.25 22.625 0s6.25 16.376 0 22.626l-28.773 28.773c-10.438 10.437-24.313 16.187-39.094 16.187zM288 384h192v64H288v-64z" fill="#595959"/></svg>