<svg xmlns="http://www.w3.org/2000/svg" width="512" height="512" viewBox="0 0 512 512"><path stroke="#449FDB" d="M0 0"/><path d="M511.76 177.08c-2.665-47.048-39.484-88.804-91.275-98.565-60.233-11.338-110.09 26.22-120.615 82.176-10.532 55.97 22.22 109.096 82.445 120.44 4.802.91 9.535 1.014 14.274 1.33-.18 25.463-72.896 109.236-120.217 153.05h34.006c181.45-91.557 204.387-231.39 201.38-258.43zM0 435.507h34.006C215.452 343.953 238.396 204.12 235.38 177.08c-2.66-47.05-39.48-88.806-91.27-98.565-60.24-11.338-110.08 26.218-120.615 82.173-10.542 55.97 22.218 109.094 82.446 120.438 4.8.908 9.53 1.014 14.277 1.33C120.04 307.918 47.323 391.69 0 435.506z" fill="#595959"/></svg>