<svg xmlns="http://www.w3.org/2000/svg" width="768" height="768" viewBox="0 0 768 768"><path d="M457.025 500.98c-28.602 0-57.19-10.936-78.968-32.84l-66.427-66.806c-6.232-6.267-6.232-16.42 0-22.687s16.326-6.267 22.558 0l66.427 66.806c31.048 31.24 81.678 31.304 112.805 0l135.378-136.12c31.063-31.288 31.063-82.177 0-113.45l-45.147-45.388c-30.064-30.27-82.594-30.332-112.786 0l-97.756 98.314c-6.232 6.264-16.326 6.264-22.558 0s-6.233-16.42 0-22.69l97.755-98.314c42.218-42.443 115.81-42.38 157.904 0l45.144 45.39c43.526 43.774 43.526 115.03 0 158.82L535.974 468.14c-21.78 21.904-50.38 32.84-78.95 32.84zM252.728 704c-29.833 0-57.875-11.688-78.952-32.902l-45.13-45.374c-43.527-43.807-43.527-115.03 0-158.838l135.36-136.12c42.188-42.428 115.765-42.428 157.92 0l68.936 69.314c6.232 6.267 6.232 16.42 0 22.687s-16.326 6.267-22.558 0l-68.935-69.313c-30.13-30.317-82.678-30.286-112.808 0L151.2 489.574c-31.094 31.273-31.094 82.192 0 113.464l45.13 45.374c30.147 30.332 82.693 30.332 112.807 0l97.74-98.33c6.232-6.267 16.326-6.267 22.558 0 6.216 6.267 6.247 16.42 0 22.687l-97.74 98.326C310.603 692.312 282.56 704 252.728 704z" fill="#595959"/></svg>