<svg xmlns="http://www.w3.org/2000/svg" width="768" height="768" viewBox="0 0 768 768"><path d="M400 64c-64.3 0-124.203 18.254-175.187 49.627L176 16 56 256h240l-56.808-113.618C285.887 113.112 340.936 96 400 96c167.627 0 304 136.372 304 304 0 167.624-136.373 304-304 304S96 567.623 96 400c0-16.372 1.664-32.325 4.168-48h-32.35C65.562 367.716 64 383.656 64 400c0 185.566 150.432 336 336 336s336-150.434 336-336c0-185.57-150.432-336-336-336zM531.078 493.254L416 378.176V208c0-8.844-7.157-16-16-16s-16 7.156-16 16v184h.57L508.45 515.88c6.254 6.254 16.373 6.254 22.627 0 6.253-6.252 6.253-16.373 0-22.627z" fill="#595959"/></svg>