<svg xmlns="http://www.w3.org/2000/svg" width="768" height="768" viewBox="0 0 768 768"><path d="M377.002 542.396C361.162 514.488 352 482.318 352 448c0-70.88 38.71-132.762 96-166.02V192c0-88.364-71.635-160-160-160h-32c-88.365 0-160 71.636-160 160v96H32c-17.672 0-32 14.327-32 32v320c0 17.673 14.328 32 32 32h264.426c13.232-51.128 41.752-96.067 80.576-129.603zM128 192c0-70.58 57.422-128 128-128h32c70.58 0 128 57.42 128 128v96H128v-96zm515.357 380.414c-9.545 7.64-19.79 14.303-30.935 19.62 44.71 21.22 78.223 62.212 88.364 111.966h-313.57c10.14-49.754 43.652-90.746 88.363-111.965-11.146-5.318-21.393-11.983-30.937-19.62C389.283 606.078 352 666.468 352 736h384c0-69.533-37.282-129.92-92.64-163.586zM544 352c52.935 0 96 43.065 96 96s-43.065 96-96 96-96-43.065-96-96 43.065-96 96-96zm0-32c-70.693 0-128 57.308-128 128s57.307 128 128 128 128-57.307 128-128-57.308-128-128-128z" fill="#595959"/></svg>