<?xml version="1.0" encoding="utf-8"?>
<!-- Generated by IcoMoon.io -->
<!DOCTYPE svg PUBLIC "-//W3C//DTD SVG 1.1//EN" "http://www.w3.org/Graphics/SVG/1.1/DTD/svg11.dtd">
<svg version="1.1" xmlns="http://www.w3.org/2000/svg" xmlns:xlink="http://www.w3.org/1999/xlink" width="512" height="512" viewBox="0 0 512 512">
<g>
</g>
	<path d="M320 448v32h-256v-384h64v-64h127.952l0.048 144.696-64.027-36.174-63.973 36.174v-48.696h-32v320h224zM160 384v-188.638l-32 18.095v202.543h128v-32h-96zM448 96c0-35.346-28.654-64-64-64h-96.047v32h96.047c17.645 0 32 14.355 32 32v160h32v-160zM416 352v-64h-64v64h-64v64h64v64h64v-64h64v-64h-64z" fill="#595959" />
</svg>
