<?xml version="1.0" encoding="utf-8"?>
<!-- Generated by IcoMoon.io -->
<!DOCTYPE svg PUBLIC "-//W3C//DTD SVG 1.1//EN" "http://www.w3.org/Graphics/SVG/1.1/DTD/svg11.dtd">
<svg version="1.1" xmlns="http://www.w3.org/2000/svg" xmlns:xlink="http://www.w3.org/1999/xlink" width="512" height="512" viewBox="0 0 512 512">
<g>
</g>
	<path d="M384 64h-192.047v-32h192.047c35.346 0 64 28.654 64 64v168.491l-10.524-7.728-20.911 9.948-0.565-1.588v-169.123c0-17.645-14.355-32-32-32v0zM159.952 176.696h0.048l-0.048-144.696h-127.952v144.696l63.973-36.174 63.979 36.174zM252.123 468.948l-11.381-15.429 2.626-5.52h-179.368v-252.637l-32 18.095v266.543h229.169c-3.182-3.534-6.213-7.21-9.046-11.052v0zM446.75 412.296c-0.906 2.548-1.859 5.016-2.999 7.438l14.375 30.218c-6.814 9.235-14.938 17.361-24.173 24.173l-30.218-14.375c-2.422 1.14-4.89 2.094-7.437 2.999l-11.203 31.532c-5.611 0.874-11.252 1.719-17.095 1.719s-11.484-0.845-17.094-1.718l-11.203-31.532c-2.547-0.905-5.014-1.859-7.437-2.999l-30.219 14.375c-9.234-6.813-17.36-14.938-24.172-24.173l14.375-30.218c-1.141-2.422-2.094-4.89-3-7.438l-31.531-11.187c-0.875-5.626-1.719-11.266-1.719-17.11 0-5.859 0.844-11.501 1.718-17.127l31.531-11.203c0.906-2.531 1.859-4.998 3-7.404l-14.375-30.234c6.813-9.234 14.938-17.375 24.172-24.156l30.219 14.375c2.423-1.141 4.89-2.094 7.437-3.016l11.203-31.516c5.611-0.86 11.252-1.719 17.095-1.719s11.484 0.859 17.094 1.719l11.203 31.516c2.547 0.922 5.015 1.875 7.437 3.016l30.218-14.375c9.235 6.781 17.36 14.922 24.173 24.156l-14.375 30.234c1.14 2.406 2.093 4.873 2.999 7.404l31.532 11.203c0.874 5.626 1.719 11.268 1.719 17.127 0 5.844-0.845 11.484-1.718 17.109l-31.532 11.187zM410 384c0-23.188-18.781-42-42-42s-42 18.812-42 42 18.781 42 42 42 42-18.812 42-42z" fill="#595959" />
</svg>
