<?xml version="1.0" encoding="utf-8"?>
<!-- Generated by IcoMoon.io -->
<!DOCTYPE svg PUBLIC "-//W3C//DTD SVG 1.1//EN" "http://www.w3.org/Graphics/SVG/1.1/DTD/svg11.dtd">
<svg version="1.1" xmlns="http://www.w3.org/2000/svg" xmlns:xlink="http://www.w3.org/1999/xlink" width="512" height="512" viewBox="0 0 512 512">
<g>
</g>
	<path d="M416 224v-124.8c0-37.114-30.086-67.2-67.2-67.2h-316.8v448h384v-64h32v-192h-32zM384 448h-320v-384h284.8c19.409 0 35.2 15.791 35.2 35.2v124.8h-288v192h288v32zM286.002 335.080c-1.381-1.651-3.79-3.088-7.228-4.31-2.354-0.814-7.716-2.262-16.086-4.344-10.77-2.669-18.325-5.949-22.669-9.841-6.108-5.475-9.163-12.149-9.163-20.022 0-5.067 1.437-9.808 4.311-14.219 2.873-4.412 7.013-7.771 12.42-10.079 5.406-2.308 11.934-3.461 19.581-3.461 12.488 0 21.889 2.737 28.2 8.212 6.312 5.476 9.626 12.783 9.943 21.923l-20.090 0.882c-0.86-5.112-2.704-8.789-5.531-11.029-2.828-2.239-7.070-3.359-12.727-3.359-5.836 0-10.407 1.199-13.709 3.597-2.128 1.539-3.19 3.598-3.19 6.177 0 2.354 0.995 4.367 2.986 6.040 2.533 2.128 8.688 4.344 18.461 6.652 9.773 2.307 17.002 4.694 21.685 7.16 4.684 2.467 8.349 5.837 10.995 10.112 2.647 4.276 3.971 9.56 3.971 15.849 0 5.701-1.584 11.040-4.751 16.018-3.168 4.978-7.647 8.677-13.438 11.097-5.792 2.42-13.009 3.631-21.651 3.631-12.579 0-22.239-2.907-28.98-8.722-6.742-5.813-10.77-14.287-12.081-25.418l19.547-1.9c1.176 6.562 3.563 11.381 7.16 14.457 3.598 3.077 8.45 4.615 14.559 4.615 6.47 0 11.345-1.368 14.626-4.106 3.28-2.737 4.921-5.938 4.921-9.604-0.002-2.354-0.692-4.356-2.072-6.008zM155.927 346.517c4.524 5.34 10.407 8.009 17.646 8.009 5.338 0 9.932-1.697 13.778-5.090 3.845-3.395 6.606-8.732 8.28-16.018l19.479 6.176c-2.986 10.859-7.953 18.926-14.897 24.196-6.946 5.271-15.758 7.907-26.436 7.907-13.212 0-24.072-4.514-32.578-13.541-8.507-9.026-12.76-21.367-12.76-37.023 0-16.561 4.276-29.422 12.828-38.585 8.552-9.162 19.795-13.743 33.732-13.743 12.171 0 22.058 3.597 29.66 10.791 4.524 4.254 7.917 10.362 10.181 18.325l-19.886 4.751c-1.177-5.158-3.631-9.23-7.364-12.217-3.733-2.986-8.27-4.479-13.608-4.479-7.375 0-13.36 2.647-17.952 7.94-4.593 5.295-6.889 13.869-6.889 25.724-0.001 12.579 2.261 21.538 6.786 26.877zM390.557 370l-14.524-21.65c-5.158-7.738-8.688-12.613-10.588-14.627-1.9-2.013-3.914-3.394-6.041-4.14-2.127-0.747-5.497-1.12-10.112-1.12h-4.072v41.537h-20.090v-99.499h42.284c10.632 0 18.358 0.894 23.178 2.681 4.818 1.788 8.676 4.967 11.572 9.536 2.895 4.57 4.344 9.797 4.344 15.679 0 7.465-2.195 13.631-6.584 18.494-4.39 4.864-10.95 7.931-19.683 9.197 4.344 2.534 7.93 5.316 10.758 8.348 2.827 3.032 6.64 8.416 11.437 16.153l12.147 19.411h-24.026zM320 193h-192v-32h192v32zM378.136 311.359c-2.398 0.814-8.416 1.222-18.053 1.222h-14.864v-25.248h15.679c8.145 0 13.031 0.113 14.66 0.339 3.258 0.543 5.779 1.845 7.567 3.903 1.787 2.060 2.681 4.763 2.681 8.11 0 2.986-0.679 5.476-2.036 7.466-1.358 1.992-3.236 3.394-5.634 4.208z" fill="#595959" />
</svg>
