<?xml version="1.0" encoding="utf-8"?>
<!-- Generated by IcoMoon.io -->
<!DOCTYPE svg PUBLIC "-//W3C//DTD SVG 1.1//EN" "http://www.w3.org/Graphics/SVG/1.1/DTD/svg11.dtd">
<svg version="1.1" xmlns="http://www.w3.org/2000/svg" xmlns:xlink="http://www.w3.org/1999/xlink" width="512" height="512" viewBox="0 0 512 512">
<g>
</g>
	<path d="M256 160h160v32h-160v-32zM256 240h160v32h-160v-32zM96 320h320v32h-320v-32zM220.523 203.197l-60.523 20.803 0.201-63.996c-0.067 0-0.133-0.004-0.201-0.004-35.345 0-64 28.653-64 64s28.655 64 64 64c35.347 0 64-28.654 64-64 0-7.285-1.234-14.279-3.477-20.803zM448 128v256h-384v-256h384zM480 96h-448v320h448v-320z" fill="#595959" />
</svg>
