<?xml version="1.0" encoding="utf-8"?>
<!-- Generated by IcoMoon.io -->
<!DOCTYPE svg PUBLIC "-//W3C//DTD SVG 1.1//EN" "http://www.w3.org/Graphics/SVG/1.1/DTD/svg11.dtd">
<svg version="1.1" xmlns="http://www.w3.org/2000/svg" xmlns:xlink="http://www.w3.org/1999/xlink" width="512" height="512" viewBox="0 0 512 512">
<g>
</g>
	<path d="M32 64v384h416v-384h-416zM160 416h-96v-64h96v64zM160 320h-96v-64h96v64zM160 224h-96v-64h96v64zM288 416h-96v-64h96v64zM288 320h-96v-64h96v64zM288 224h-96v-64h96v64zM416 416h-96v-64h96v64zM416 320h-96v-64h96v64zM416 224h-96v-64h96v64z" fill="#595959" />
</svg>
