<?xml version="1.0" encoding="utf-8"?>
<!-- Generated by IcoMoon.io -->
<!DOCTYPE svg PUBLIC "-//W3C//DTD SVG 1.1//EN" "http://www.w3.org/Graphics/SVG/1.1/DTD/svg11.dtd">
<svg version="1.1" xmlns="http://www.w3.org/2000/svg" xmlns:xlink="http://www.w3.org/1999/xlink" width="512" height="512" viewBox="0 0 512 512">
<g>
</g>
	<path d="M226.625 280.266c0.125 1.484 0.25 2.953 0.375 4.406 0.188 1.438 0.344 2.844 0.5 4.219 0.656 5.516 1.5 10.547 2.375 14.953 0.406 2.203 0.938 4.25 1.344 6.141 0.406 1.875 0.875 3.672 1.281 5.281 0.219 0.797 0.406 1.547 0.594 2.266 0.188 0.703 0.375 1.375 0.562 1.922 0.344 1.126 0.656 2.080 0.875 2.86 0.5 1.546 0.781 2.374 0.781 2.374 1.375 4.282 5.375 7.405 10.125 7.405 5.906 0.017 10.688-4.765 10.688-10.655 0 0 0-0.858 0-2.484 0-0.812 0-1.812-0.031-3 0-0.609 0.031-1.172 0.062-1.797 0.031-0.609 0.062-1.266 0.094-1.953 0.094-2.688 0.281-6.203 0.594-10.109 0.219-1.969 0.344-4.047 0.656-6.234 0.25-2.203 0.5-4.484 0.875-6.875 0.656-4.766 1.719-9.875 2.812-15.219 1.25-5.344 2.594-10.906 4.406-16.547 1.75-5.625 3.656-11.375 6-17.031 2.312-5.672 4.875-11.281 7.656-16.703 0.688-1.359 1.375-2.719 2.125-4.047 0.719-1.312 1.438-2.656 2.188-3.953 1.562-2.594 3.031-5.172 4.688-7.625 1.531-2.5 3.281-4.828 4.875-7.203 0.844-1.141 1.656-2.281 2.5-3.406 0.406-0.562 0.844-1.125 1.25-1.688 0.438-0.547 0.844-1.078 1.281-1.609 0.844-1.078 1.719-2.125 2.531-3.172 0.875-1.016 1.75-2.016 2.625-3 0.406-0.5 0.844-0.984 1.25-1.469 0.438-0.469 0.875-0.938 1.312-1.406 0.875-0.922 1.719-1.828 2.562-2.734 1.75-1.719 3.406-3.422 5.094-4.969 1.594-1.375 3-2.812 4.469-4.094l35.28 48.922 78.47-174.625-190.468 19.326 37.812 52.453c-2.781 2.812-5.719 6-8.594 9.578-0.469 0.578-0.969 1.172-1.469 1.797-0.469 0.625-0.938 1.25-1.406 1.891-0.938 1.266-1.906 2.578-2.844 3.906-1.906 2.688-3.719 5.531-5.625 8.422-0.906 1.484-1.812 2.984-2.719 4.5-0.469 0.766-0.906 1.531-1.375 2.297-0.438 0.766-0.875 1.562-1.312 2.344-0.875 1.578-1.75 3.172-2.625 4.781-0.844 1.641-1.688 3.281-2.531 4.953-0.406 0.828-0.812 1.656-1.25 2.5-0.375 0.844-0.781 1.703-1.156 2.562-0.781 1.703-1.594 3.422-2.344 5.156-1.469 3.5-2.938 7.047-4.219 10.672-1.344 3.594-2.5 7.281-3.719 10.953-0.562 1.844-1.062 3.703-1.594 5.562-0.562 1.844-1.031 3.703-1.5 5.578-0.969 3.719-1.812 7.469-2.562 11.203-0.375 1.859-0.688 3.734-1 5.594l-0.5 2.781c-0.125 0.938-0.25 1.859-0.406 2.781-1.125 7.391-1.781 14.688-2.156 21.719-0.406 7.047-0.312 13.844-0.156 20.234 0.188 3.205 0.281 6.299 0.594 9.315zM432 336c0-17.672-14.313-32-32-32h-16v96h-256v-96h-48v144h352v-112z" fill="#595959" />
</svg>
