<?xml version="1.0" encoding="utf-8"?>
<!-- Generated by IcoMoon.io -->
<!DOCTYPE svg PUBLIC "-//W3C//DTD SVG 1.1//EN" "http://www.w3.org/Graphics/SVG/1.1/DTD/svg11.dtd">
<svg version="1.1" xmlns="http://www.w3.org/2000/svg" xmlns:xlink="http://www.w3.org/1999/xlink" width="512" height="512" viewBox="0 0 512 512">
<g>
</g>
	<path d="M64 396h-32v-40h32v40zM228 447v32h40v-32h-40zM292 447v32h40v-32h-40zM292 63h40v-31h-40v31zM228 63h40v-31h-40v31zM164 447v32h40v-32h-40zM100 447v32h40v-32h-40zM64 292h-32v40h32v-40zM64 447v-27h-32v59h44v-32h-12zM416 332v-40h-32v40h32zM140 32h-40v31h40v-31zM164 63h40v-31h-40v31zM384 356v40h32v-40h-32zM384 100v40h32v-40h-32zM360.298 32h-4.298v31.743c8.041 1.678 15.081 6.108 20.092 12.257h36.137c-7.944-22.697-27.715-39.823-51.931-44zM64 228h-32v40h32v-40zM384 164v40h32v-40h-32zM384 228v40h32v-40h-32zM384 447h-28v32h60v-59h-32v27zM64 164h-32v40h32v-40zM64 63h12v-31h-44v44h32v-13zM64 100h-32v40h32v-40zM320 191h-192v-32h192v32zM320 255h-192v-32h192v32zM320 319h-192v-32h192v32z" fill="#595959" />
</svg>
