<?xml version="1.0" encoding="utf-8"?>
<!-- Generated by IcoMoon.io -->
<!DOCTYPE svg PUBLIC "-//W3C//DTD SVG 1.1//EN" "http://www.w3.org/Graphics/SVG/1.1/DTD/svg11.dtd">
<svg version="1.1" xmlns="http://www.w3.org/2000/svg" xmlns:xlink="http://www.w3.org/1999/xlink" width="512" height="512" viewBox="0 0 512 512">
<g>
</g>
	<path d="M384 288h-64v64h-64v64h64v64h64v-64h64v-64h-64v-64zM268 63h-40v-31h40v31zM416 204h-32v-40h32v40zM64 447h12v32h-44v-59h32v27zM64 396h-32v-40h32v40zM64 268h-32v-40h32v40zM64 204h-32v-40h32v40zM64 332h-32v-40h32v40zM228 447h40v32h-40v-32zM100 447h40v32h-40v-32zM164 447h40v32h-40v-32zM32 32h44v31h-12v13h-32v-44zM356 63.743v-31.743h4.298c24.216 4.177 43.987 21.303 51.931 44h-36.137c-5.011-6.148-12.051-10.579-20.092-12.257zM416 140h-32v-40h32v40zM384 228h32v40h-32v-40zM332 63h-40v-31h40v31zM140 63h-40v-31h40v31zM64 140h-32v-40h32v40zM288 287v32h-160v-32h160zM320 191h-192v-32h192v32zM128 223h192v32h-192v-32zM204 63h-40v-31h40v31z" fill="#595959" />
</svg>
