<?xml version="1.0" encoding="utf-8"?>
<!-- Generated by IcoMoon.io -->
<!DOCTYPE svg PUBLIC "-//W3C//DTD SVG 1.1//EN" "http://www.w3.org/Graphics/SVG/1.1/DTD/svg11.dtd">
<svg version="1.1" xmlns="http://www.w3.org/2000/svg" xmlns:xlink="http://www.w3.org/1999/xlink" width="512" height="512" viewBox="0 0 512 512">
<g>
</g>
	<path d="M192 192h192v32h-192v-32zM192 128v32h192v-32h-192zM96 448v-320h32v288h128v-32h-96v-320h224c17.658 0 32 14.359 32 32v160h32v-160c0-35.344-28.656-64-64-64h-256v64h-64v384h256v-32h-224zM192 288h128v-32h-128v32zM416 352v-64h-64v64h-64v64h64v64h64v-64h64v-64h-64z" fill="#595959" />
</svg>
