<?xml version="1.0" encoding="utf-8"?>
<!-- Generated by IcoMoon.io -->
<!DOCTYPE svg PUBLIC "-//W3C//DTD SVG 1.1//EN" "http://www.w3.org/Graphics/SVG/1.1/DTD/svg11.dtd">
<svg version="1.1" xmlns="http://www.w3.org/2000/svg" xmlns:xlink="http://www.w3.org/1999/xlink" width="512" height="512" viewBox="0 0 512 512">
<g>
</g>
	<path d="M432 336c0-17.672-14.33-32-32-32h-16v96h-256v-96h-48v144h352v-112zM103.438 73.922l0.656 0.297c0 0 0.781 0.359 2.266 1.031 0.734 0.328 1.656 0.734 2.719 1.203 1.078 0.469 2.297 1.016 3.625 1.719 1.328 0.672 2.797 1.406 4.406 2.219 1.594 0.812 3.25 1.812 5.031 2.797 1.812 0.969 3.609 2.203 5.547 3.406 1.953 1.141 3.891 2.578 5.906 3.984 0.516 0.344 1.031 0.703 1.547 1.062 0.484 0.391 1 0.781 1.5 1.172 1.016 0.797 2.031 1.594 3.078 2.406 1.062 0.797 2.031 1.734 3.078 2.609 1.031 0.891 2.109 1.719 3.125 2.703 2.031 1.922 4.141 3.828 6.125 5.969 2.062 2.047 4 4.344 6 6.594 3.906 4.641 7.719 9.578 11.281 14.875 3.531 5.344 6.844 10.984 10.031 16.734 3.125 5.828 6.031 11.828 8.75 17.859 2.656 6.078 5.203 12.172 7.578 18.156 2.344 6.047 4.547 11.906 6.547 17.641 2.031 5.672 3.844 11.172 5.703 16.203 1.016 2.781 2.031 5.422 3.016 7.922l-57.406 25.609 155 112.39 19.859-190.421-57.219 25.547c-1.188-2.438-2.5-5-3.922-7.672-2.656-4.984-5.734-10.297-9.078-15.969-3.312-5.672-6.984-11.672-10.859-17.844-3.953-6.172-8.156-12.547-12.75-18.891-4.625-6.344-9.547-12.688-14.766-18.875-5.266-6.172-10.906-12.109-16.766-17.688-5.89-5.544-12.046-10.669-18.265-15.278-3.203-2.234-6.281-4.438-9.469-6.375-3.109-2.047-6.328-3.797-9.406-5.531-1.516-0.891-3.109-1.609-4.641-2.406-1.531-0.75-3.016-1.547-4.547-2.188-1.516-0.656-3-1.312-4.469-1.938-0.734-0.312-1.453-0.625-2.172-0.938-0.734-0.266-1.453-0.547-2.172-0.812-2.859-1.062-5.562-2.125-8.219-2.906-2.641-0.812-5.109-1.641-7.5-2.203-2.375-0.578-4.562-1.188-6.625-1.625-2.047-0.406-3.938-0.781-5.656-1.109-1.688-0.344-3.219-0.562-4.547-0.734-1.328-0.188-2.453-0.344-3.359-0.469-1.828-0.25-2.797-0.375-2.797-0.375-4.5-0.594-9.062 1.781-11.031 6.125-2.421 5.327-0.062 11.609 5.267 14.015z" fill="#595959" />
</svg>
