<?xml version="1.0" encoding="utf-8"?>
<!-- Generated by IcoMoon.io -->
<!DOCTYPE svg PUBLIC "-//W3C//DTD SVG 1.1//EN" "http://www.w3.org/Graphics/SVG/1.1/DTD/svg11.dtd">
<svg version="1.1" xmlns="http://www.w3.org/2000/svg" xmlns:xlink="http://www.w3.org/1999/xlink" width="512" height="512" viewBox="0 0 512 512">
<g>
</g>
	<path d="M128 448v-192h48v-32h-80v224h-32v-384h96v96h192v-96h64c17.642 0 32 14.359 32 32.016v79.984h32v-79.984c0-35.36-28.656-64.016-64-64.016h-384v448h144v-32h-48zM320 64v64h-128v-64h128zM240 480h240v-272h-272v272h32zM240 240h208v208h-208v-208zM392.076 416h23.924l-62.467-153.297h-18.829l-62.251 153.297h22.594l15.734-39.875h65.561l15.734 39.875zM316.75 358.189l26.812-68.689 26.797 68.689h-53.609z" fill="#595959" />
</svg>
