<?xml version="1.0" encoding="utf-8"?>
<!-- Generated by IcoMoon.io -->
<!DOCTYPE svg PUBLIC "-//W3C//DTD SVG 1.1//EN" "http://www.w3.org/Graphics/SVG/1.1/DTD/svg11.dtd">
<svg version="1.1" xmlns="http://www.w3.org/2000/svg" xmlns:xlink="http://www.w3.org/1999/xlink" width="512" height="512" viewBox="0 0 512 512">
<g>
</g>
	<path d="M320 256h-75.555c-2.596-11.208-6.742-21.974-12.293-32h87.848v32zM320 160h-192v0.201c29.383 0.968 56.991 12.129 78.738 31.799h113.262v-32zM320 288h-72.447c-0.355 10.903-2.139 21.659-5.277 32h77.724v-32zM194.291 288h-49.619v32h39.817c5.644-9.469 9.138-20.36 9.802-32zM416 99.2c0-37.114-30.086-67.2-67.2-67.2h-316.8v168.888c1.38-1.521 2.802-3.014 4.265-4.476 8.345-8.356 17.68-15.365 27.735-20.932v-111.48h284.8c19.409 0 35.2 15.791 35.2 35.2v348.8h-51.689l10.173 10.171-21.779 21.829h95.295v-380.8zM161.087 224h-16.415v32h43.972c-5.733-13.26-15.416-24.42-27.557-32zM64 448v-55.593c-10.049-5.562-19.38-12.561-27.726-20.907-1.466-1.466-2.891-2.963-4.274-4.488v112.988h243.478l-31.996-32h-179.482zM128.672 219.358c-3.109-0.453-6.281-0.703-9.5-0.703-34.703 0-63.172 27.219-65.172 61.422v7.734c0.375 6.413 1.681 12.58 3.783 18.368 0.35 0.965 0.723 1.919 1.117 2.862 0.788 1.886 1.663 3.727 2.618 5.519 10.988 20.605 32.711 34.658 57.653 34.658 3.219 0 6.391-0.236 9.5-0.704v-129.156zM298.104 480l-109.688-109.702c-19.094 14.311-41.844 21.469-64.578 21.469-27.594 0-55.188-10.519-76.25-31.581-42.109-42.109-42.125-110.374 0-152.468 21.031-21.063 48.625-31.594 76.234-31.594 27.593 0 55.187 10.532 76.234 31.594 38.407 38.39 41.782 98.578 10.141 140.812l109.672 109.655-21.765 21.815zM123.838 370.563c47.781 0 86.578-38.785 86.578-86.627 0-47.812-38.797-86.609-86.578-86.609-47.844 0-86.625 38.797-86.625 86.609 0 47.842 38.781 86.627 86.625 86.627z" fill="#595959" />
</svg>
