<?xml version="1.0" encoding="utf-8"?>
<!-- Generated by IcoMoon.io -->
<!DOCTYPE svg PUBLIC "-//W3C//DTD SVG 1.1//EN" "http://www.w3.org/Graphics/SVG/1.1/DTD/svg11.dtd">
<svg version="1.1" xmlns="http://www.w3.org/2000/svg" xmlns:xlink="http://www.w3.org/1999/xlink" width="512" height="512" viewBox="0 0 512 512">
<g>
</g>
	<path d="M510.281 417.11c0.873-5.625 1.719-11.265 1.719-17.11 0-5.86-0.846-11.502-1.719-17.127l-31.533-11.203c-0.904-2.531-1.858-4.998-2.998-7.404l14.375-30.235c-6.813-9.233-14.938-17.375-24.174-24.154l-30.217 14.375c-2.422-1.142-4.89-2.096-7.438-3.017l-11.203-31.515c-5.61-0.86-11.25-1.719-17.094-1.719s-11.485 0.86-17.096 1.719l-11.203 31.515c-2.547 0.922-5.014 1.875-7.435 3.017l-30.219-14.375c-9.235 6.779-17.36 14.922-24.174 24.154l14.375 30.235c-1.14 2.406-2.094 4.873-3 7.404l-31.529 11.203c-0.875 5.625-1.719 11.267-1.719 17.127 0 5.844 0.844 11.485 1.719 17.11l31.531 11.188c0.906 2.549 1.86 5.015 3 7.438l-14.375 30.219c6.813 9.235 14.938 17.36 24.172 24.174l30.219-14.375c2.424 1.139 4.89 2.094 7.438 2.998l11.203 31.531c5.61 0.873 11.25 1.719 17.094 1.719s11.485-0.846 17.096-1.719l11.203-31.533c2.547-0.904 5.014-1.858 7.435-2.998l30.219 14.375c9.235-6.813 17.36-14.938 24.174-24.174l-14.375-30.217c1.139-2.422 2.092-4.89 2.998-7.438l31.531-11.188zM400 442c-23.219 0-42-18.813-42-42s18.781-42 42-42 42 18.813 42 42-18.781 42-42 42zM284.123 484.949l-11.381-15.43 9.963-20.943-1.623-0.576h-185.082v-125.168c14.531 5.166 26.147 17.111 30.344 32.59 2.313 8.515 11.031 13.64 19.625 11.25 8.531-2.313 13.563-11.094 11.25-19.625-7.978-29.486-32.103-51.258-61.219-57.242v-94.972c14.531 5.166 26.147 17.112 30.344 32.59 2.313 8.516 11.031 13.641 19.625 11.25 8.531-2.313 13.563-11.094 11.25-19.625-7.978-29.487-32.103-51.258-61.219-57.242v-94.972c14.531 5.166 26.147 17.112 30.344 32.59 2.313 8.516 11.031 13.641 19.625 11.25 8.531-2.313 13.563-11.094 11.25-19.625-7.978-29.486-32.103-51.258-61.219-57.242v-1.804h320v225.272c2.017 0.277 4.162 0.543 5.943 0.817l18.899 2.899 7.158 20.137v-249.123l-32-32h-352v33.619c-36.471 7.434-64 39.75-64 78.381 0 26.269 12.89 49.41 32.492 64.002-19.602 14.595-32.492 37.738-32.492 63.998 0 26.269 12.89 49.41 32.492 64.002-19.602 14.596-32.492 37.738-32.492 63.998 0 38.644 27.529 70.949 64 78.383v33.617l32 32h214.545c-9.879-7.926-18.892-16.844-26.422-27.051zM64 413.053c-18.584-6.627-32-24.221-32-45.053s13.416-38.426 32-45.053v90.106zM64 285.053c-18.584-6.627-32-24.221-32-45.053s13.416-38.426 32-45.053v90.106zM64 157.053c-18.584-6.627-32-24.221-32-45.053s13.416-38.426 32-45.053v90.106z" fill="#595959"></path>
</svg>
