<?xml version="1.0" encoding="utf-8"?>
<!-- Generated by IcoMoon.io -->
<!DOCTYPE svg PUBLIC "-//W3C//DTD SVG 1.1//EN" "http://www.w3.org/Graphics/SVG/1.1/DTD/svg11.dtd">
<svg version="1.1" xmlns="http://www.w3.org/2000/svg" xmlns:xlink="http://www.w3.org/1999/xlink" width="512" height="512" viewBox="0 0 512 512">
<g>
</g>
	<path d="M288 336v160h160v-160h-160zM384 448v-80h16v96h-16v-16zM336 368h16v96h-16v-96zM64 448v-384h284.812c19.406 0 35.188 15.797 35.188 35.203v108.859c12.342 0.547 23.533 5.562 32 13.469v-122.328c0-37.109-30.093-67.203-67.188-67.203h-316.812v448h224v-32h-192zM128 160h192v32h-192v-32zM128 256h112v-16h67.438c2.345-5.969 5.813-11.391 10.096-16h-189.534v32zM128 288h112v32h-112v-32zM272 320h192v-48h-64v-13.719c0-10.094-8.189-18.281-18.281-18.281h-27.438c-10.092 0-18.281 8.188-18.281 18.281v13.719h-64v48z" fill="#595959" />
</svg>
