<?xml version="1.0" encoding="utf-8"?>
<!-- Generated by IcoMoon.io -->
<!DOCTYPE svg PUBLIC "-//W3C//DTD SVG 1.1//EN" "http://www.w3.org/Graphics/SVG/1.1/DTD/svg11.dtd">
<svg version="1.1" xmlns="http://www.w3.org/2000/svg" xmlns:xlink="http://www.w3.org/1999/xlink" width="512" height="512" viewBox="0 0 512 512">
<g>
</g>
	<path d="M448 384h64v64h-64v64h-64v-64h-64v-64h64v-64h64v64zM512 32v288h-32v-288h-320v32h256l32 32v192h-32v-192h-272.951c6.172 8.025 11.408 16.836 14.17 27.047 2.313 8.531-2.719 17.313-11.25 19.625-8.594 2.391-17.313-2.734-19.625-11.25-4.197-15.478-15.813-27.424-30.344-32.59v94.972c29.115 5.984 53.24 27.756 61.219 57.242 2.313 8.531-2.719 17.313-11.25 19.625-8.594 2.39-17.313-2.735-19.625-11.25-4.197-15.478-15.813-27.424-30.344-32.59v94.972c29.115 5.985 53.24 27.756 61.219 57.242 2.313 8.531-2.719 17.313-11.25 19.625-8.594 2.39-17.313-2.735-19.625-11.25-4.198-15.478-15.813-27.424-30.344-32.59v125.168h256v32h-256l-32-32v-1.617c-36.471-7.433-64-39.738-64-78.383 0-26.26 12.89-49.403 32.492-63.998-19.602-14.592-32.492-37.733-32.492-64.002 0-26.26 12.89-49.403 32.492-63.998-19.602-14.592-32.492-37.733-32.492-64.002 0-38.631 27.529-70.948 64-78.381v-1.619h64v-64h352l32 32zM64 354.947c-18.584 6.627-32 24.221-32 45.053s13.416 38.426 32 45.053v-90.106zM64 226.947c-18.584 6.627-32 24.221-32 45.053s13.416 38.426 32 45.053v-90.106zM64 98.948c-18.584 6.627-32 24.221-32 45.052s13.416 38.426 32 45.053v-90.106z" fill="#595959"></path>
</svg>
