<svg xmlns="http://www.w3.org/2000/svg" width="512" height="512" viewBox="0 0 512 512"><path d="M307.6 511.2l-33.9-33.9 9.6-20.4 4.2-8.9H96V322.8c14.5 5.2 26.1 17.1 30.3 32.6 2.3 8.5 11 13.6 19.6 11.2 8.5-2.3 13.6-11.1 11.2-19.6-8-29.5-32.1-51.3-61.2-57.2v-95c14.5 5.2 26.1 17.1 30.3 32.6 2.3 8.5 11 13.6 19.6 11.2 8.5-2.3 13.6-11.1 11.2-19.6-8-29.5-32.1-51.3-61.2-57.2v-95c14.5 5.2 26.1 17.1 30.3 32.6 2.3 8.5 11 13.6 19.6 11.2 8.5-2.3 13.6-11.1 11.2-19.6-8-29.5-32.1-51.3-61.2-57.2V32h320v224h18.7l7.6 21.2 3.7 10.4 2-1V32l-32-32H64v33.6C27.5 41 0 73.4 0 112c0 26.3 12.9 49.4 32.5 64C12.9 190.6 0 213.7 0 240s12.9 49.4 32.5 64C12.9 318.6 0 341.7 0 368c0 38.6 27.5 70.9 64 78.4V480l32 32h212.3l-.7-.8zM64 413.1c-18.6-6.6-32-24.2-32-45.1s13.4-38.4 32-45.1v90.2zm0-128c-18.6-6.6-32-24.2-32-45.1 0-20.8 13.4-38.4 32-45.1v90.2zm0-128c-18.6-6.6-32-24.2-32-45.1s13.4-38.4 32-45.1v90.2zm336 202.4c-22.4 0-40.5 18.1-40.5 40.5 0 22.3 18.1 40.5 40.5 40.5s40.4-18.2 40.4-40.5c-.1-22.4-18.1-40.5-40.4-40.5zm81.2 63.8l-7.3 17.6 14.7 28.9-18 18-29.6-14-17.6 7.2-8.9 27.3-1.1 3.6h-25.5l-11-30.8-17.6-7.2-29 14.7-18-18 14-29.6-7.2-17.6-31.1-10.1v-25.5l30.9-11.1 7.2-17.5-13-25.6-1.7-3.4 18-18 29.6 14 17.6-7.3 8.9-27.3 1.1-3.6h25.5l11 30.9 17.5 7.3 29-14.7 18 18-14 29.6 7.2 17.6 30.9 10.1v25.5l-30.5 11z" fill="#595959"/></svg>