<?xml version="1.0" encoding="utf-8"?>
<!-- Generated by IcoMoon.io -->
<!DOCTYPE svg PUBLIC "-//W3C//DTD SVG 1.1//EN" "http://www.w3.org/Graphics/SVG/1.1/DTD/svg11.dtd">
<svg version="1.1" xmlns="http://www.w3.org/2000/svg" xmlns:xlink="http://www.w3.org/1999/xlink" width="512" height="512" viewBox="0 0 512 512">
<g>
</g>
	<path d="M193.829 451.291c4.32 10.67 10.48 20.303 18.297 28.709h-180.126v-448h316.8c37.114 0 67.2 30.086 67.2 67.2v107.782c-10.291-3.735-21.035-5.646-32-5.654v-102.128c0-19.41-15.79-35.2-35.2-35.2h-284.8v384h128.587c0.399 1.102 0.801 2.201 1.242 3.291v0zM128 192h192v-32h-192v32zM128 224v32h163.987c1.966-3.096 4.296-6.026 6.991-8.727l18.338-18.35c0.877-0.876 1.778-1.716 2.684-2.554v-2.369h-192zM128 320h115.863l15.256-15.255c6.733-6.742 14.469-12.362 22.84-16.745h-153.959v32zM429.793 253.43c12.082 12.098 18.237 28.107 18.207 43.97 0.030 15.828-6.080 31.867-18.207 43.996l-44.606 44.607c-12.16 12.158-28.246 18.192-44.027 18.192h-0.108c-0.516 0.001-1.030-0.023-1.545-0.035-0.496-0.012-0.992-0.013-1.488-0.036-0.49-0.023-0.981-0.070-1.471-0.105-0.5-0.036-1.001-0.062-1.5-0.11-0.479-0.046-0.957-0.115-1.436-0.174-0.508-0.062-1.017-0.112-1.523-0.187-0.473-0.068-0.943-0.16-1.415-0.241-0.509-0.087-1.021-0.163-1.527-0.263-0.457-0.090-0.91-0.201-1.364-0.302-0.52-0.114-1.040-0.219-1.557-0.346-0.438-0.109-0.872-0.239-1.309-0.357-0.528-0.143-1.059-0.276-1.583-0.434-0.423-0.126-0.839-0.274-1.259-0.41-0.533-0.173-1.069-0.336-1.599-0.522-0.409-0.145-0.812-0.31-1.218-0.464-0.534-0.201-1.070-0.394-1.6-0.61-0.397-0.162-0.788-0.346-1.183-0.518-0.531-0.229-1.064-0.451-1.589-0.696-0.395-0.185-0.782-0.391-1.174-0.584-0.516-0.255-1.036-0.5-1.545-0.771-0.4-0.212-0.793-0.444-1.189-0.666-0.492-0.274-0.988-0.538-1.475-0.827-0.4-0.238-0.793-0.498-1.189-0.747-0.471-0.293-0.945-0.578-1.409-0.885-0.414-0.275-0.817-0.571-1.226-0.857-0.436-0.304-0.877-0.597-1.306-0.913-0.436-0.321-0.858-0.665-1.286-0.998-0.39-0.304-0.786-0.595-1.17-0.909-0.518-0.422-1.020-0.869-1.524-1.311-0.283-0.247-0.573-0.48-0.853-0.733-0.778-0.704-1.543-1.432-2.291-2.181l-1.895-1.91 27.214-27.203 1.896 1.88c4.685 4.669 10.598 6.943 16.585 6.974 6.277-0.061 12.266-2.305 16.936-6.974l44.59-44.572c4.67-4.7 6.929-10.644 6.943-16.798-0.015-6.125-2.273-12.068-6.928-16.742l-1.896-1.91c-4.685-4.671-10.644-6.913-16.768-6.943-6.126 0.030-12.085 2.272-16.769 6.943l-18.331 18.349c-0.47 0.47-0.958 0.91-1.462 1.322-3.529 2.878-7.837 4.317-12.146 4.317-4.308 0-8.616-1.439-12.146-4.317-0.504-0.412-0.992-0.853-1.463-1.322-7.504-7.521-7.504-19.684 0-27.203l18.332-18.344c12.098-12.099 28.123-18.224 43.983-18.224 15.843 0 31.868 6.125 43.969 18.224l1.9 1.88zM346.211 415.385c-0.938-0.94-1.949-1.762-3.016-2.467s-2.188-1.293-3.345-1.763c-2.315-0.94-4.777-1.41-7.239-1.41-3.693 0-7.387 1.058-10.586 3.173-1.065 0.705-2.077 1.526-3.016 2.467l-19.223 19.224c-4.67 4.64-10.658 6.913-16.935 6.943-5.991-0.030-11.904-2.273-16.589-6.943l-1.895-1.91c-4.654-4.669-6.928-10.642-6.943-16.829 0.016-6.063 2.273-12.006 6.943-16.706l44.59-44.607c4.685-4.64 10.644-6.913 16.768-6.913 6.128 0 12.086 2.273 16.77 6.913l1.896 1.91 27.198-27.198-1.895-1.91-3.441-3.426c-1.485-1.487-3.139-2.67-4.896-3.579-0.664-0.465-1.337-0.915-2.016-1.353-0.258-0.165-0.521-0.318-0.781-0.48-0.425-0.264-0.847-0.532-1.275-0.785-0.305-0.179-0.615-0.345-0.923-0.52-0.39-0.221-0.777-0.447-1.172-0.659-0.345-0.185-0.693-0.355-1.040-0.533-0.363-0.188-0.724-0.38-1.090-0.559-0.367-0.18-0.739-0.345-1.109-0.517-0.351-0.163-0.699-0.333-1.053-0.489-0.376-0.166-0.756-0.318-1.135-0.477-0.353-0.147-0.702-0.302-1.057-0.442-0.383-0.152-0.77-0.29-1.155-0.434-0.354-0.133-0.707-0.271-1.062-0.397-0.392-0.139-0.786-0.263-1.18-0.393-0.354-0.117-0.706-0.241-1.062-0.353-0.394-0.122-0.79-0.229-1.185-0.344-0.36-0.104-0.719-0.216-1.079-0.312-0.396-0.107-0.795-0.2-1.193-0.299-0.361-0.090-0.723-0.188-1.087-0.271-0.397-0.091-0.796-0.168-1.194-0.251-0.367-0.077-0.734-0.16-1.103-0.23-0.401-0.076-0.804-0.139-1.206-0.207-0.366-0.062-0.732-0.131-1.1-0.187-0.404-0.062-0.81-0.108-1.215-0.162-0.368-0.048-0.735-0.103-1.104-0.145-0.399-0.045-0.8-0.076-1.2-0.114-0.374-0.034-0.748-0.076-1.123-0.104-0.401-0.030-0.803-0.047-1.205-0.068-0.374-0.021-0.748-0.048-1.121-0.062-0.402-0.016-0.805-0.017-1.207-0.023-0.4-0.007-0.8-0.021-1.199-0.020-0.515-0.001-1.029 0.022-1.545 0.034-0.494 0.012-0.988 0.013-1.482 0.036-0.517 0.024-1.033 0.072-1.551 0.109-0.471 0.035-0.942 0.058-1.412 0.104-0.543 0.052-1.083 0.127-1.625 0.193-0.443 0.055-0.889 0.098-1.333 0.161-0.563 0.082-1.124 0.188-1.686 0.285-0.419 0.073-0.84 0.133-1.258 0.214-0.582 0.113-1.161 0.251-1.74 0.381-0.395 0.088-0.791 0.164-1.185 0.261-0.595 0.146-1.186 0.316-1.776 0.479-0.374 0.104-0.75 0.194-1.123 0.305-0.61 0.181-1.217 0.388-1.823 0.588-0.348 0.115-0.698 0.217-1.044 0.338-0.622 0.219-1.237 0.462-1.854 0.7-0.325 0.125-0.653 0.237-0.976 0.368-0.612 0.249-1.217 0.523-1.822 0.791-0.321 0.143-0.647 0.273-0.966 0.421-0.617 0.286-1.225 0.599-1.835 0.905-0.299 0.151-0.604 0.29-0.9 0.446-0.62 0.326-1.23 0.677-1.841 1.025-0.279 0.159-0.563 0.305-0.84 0.468-0.601 0.354-1.189 0.735-1.78 1.111-0.278 0.178-0.562 0.343-0.84 0.524-0.284 0.188-0.56 0.394-0.843 0.587-0.304 0.208-0.607 0.419-0.909 0.633-0.265 0.188-0.536 0.363-0.798 0.557-0.584 0.429-1.155 0.884-1.728 1.336-0.248 0.196-0.503 0.38-0.748 0.58-0.578 0.471-1.141 0.968-1.704 1.462-0.229 0.201-0.465 0.39-0.692 0.595-0.783 0.709-1.554 1.44-2.308 2.195l-44.604 44.603c-12.070 12.072-18.227 28.052-18.211 43.909-0.030 15.859 6.079 31.899 18.211 44.027l1.91 1.91c0.748 0.75 1.512 1.476 2.29 2.18 0.298 0.271 0.608 0.521 0.91 0.783 0.487 0.425 0.97 0.855 1.468 1.263 0.334 0.273 0.681 0.526 1.021 0.793 0.477 0.374 0.95 0.756 1.436 1.114 0.386 0.284 0.782 0.547 1.174 0.821 0.451 0.317 0.897 0.646 1.356 0.949 0.434 0.287 0.879 0.552 1.318 0.828 0.427 0.268 0.849 0.547 1.281 0.804 0.456 0.271 0.922 0.519 1.383 0.777 0.428 0.238 0.849 0.488 1.279 0.717 0.475 0.25 0.958 0.479 1.437 0.716 0.429 0.212 0.852 0.437 1.283 0.638 0.486 0.228 0.98 0.432 1.472 0.646 0.433 0.189 0.862 0.391 1.299 0.569 0.491 0.201 0.988 0.378 1.483 0.566 0.444 0.169 0.886 0.349 1.334 0.508 0.491 0.174 0.989 0.324 1.484 0.485 0.457 0.148 0.912 0.309 1.372 0.446 0.496 0.149 0.997 0.274 1.496 0.41 0.464 0.127 0.927 0.265 1.394 0.381 0.505 0.125 1.015 0.227 1.521 0.339 0.465 0.103 0.929 0.216 1.396 0.309 0.506 0.1 1.014 0.175 1.521 0.262 0.475 0.081 0.946 0.173 1.421 0.242 0.503 0.074 1.007 0.125 1.51 0.186 0.482 0.059 0.965 0.128 1.448 0.175 0.501 0.049 1.005 0.074 1.508 0.11 0.487 0.036 0.973 0.082 1.459 0.105 0.501 0.023 1.001 0.024 1.502 0.036 0.511 0.013 1.021 0.036 1.531 0.035h0.106c15.782 0 31.868-6.034 44.026-18.193l19.226-19.224c7.521-7.518 7.521-19.676 0.001-27.196v0z" fill="#595959" />
</svg>
