<?xml version="1.0" encoding="utf-8"?>
<!-- Generated by IcoMoon.io -->
<!DOCTYPE svg PUBLIC "-//W3C//DTD SVG 1.1//EN" "http://www.w3.org/Graphics/SVG/1.1/DTD/svg11.dtd">
<svg version="1.1" xmlns="http://www.w3.org/2000/svg" xmlns:xlink="http://www.w3.org/1999/xlink" width="512" height="512" viewBox="0 0 512 512">
<g>
</g>
	<path d="M32 96v320h448v-320h-448zM448 384h-384v-243.367l113.194 69.658c1.902-11.007 6.044-21.242 11.954-30.218l-84.619-52.073h302.942l-84.62 52.074c5.91 8.976 10.052 19.211 11.954 30.218l113.195-69.659v243.367zM311.653 216.987l6.939-11.523-12.378-5.234 3.021-13.106-13.398-1.161-1.154-13.396-13.102 3.018-5.244-12.38-11.52 6.938-8.817-10.143-8.833 10.146-11.516-6.941-5.238 12.38-13.103-3.018-1.154 13.392-13.4 1.16 3.023 13.102-12.385 5.243 6.937 11.523-10.139 8.819 10.139 8.819-6.937 11.52 12.385 5.247-3.023 13.097 13.395 1.161 1.273 13.394 5.576-1.261v74.217l33.001-29.366 32.999 29.365v-74.207l5.565 1.258 1.213-13.399 13.43-1.159-3.007-13.102 12.383-5.238-6.93-11.526 10.153-8.818-10.154-8.821zM256 264.203c-21.212 0-38.4-17.193-38.4-38.396 0-21.206 17.188-38.401 38.4-38.403 21.201 0 38.399 17.197 38.399 38.403 0 21.203-17.198 38.396-38.399 38.396z" fill="#595959" />
</svg>
