<?xml version="1.0" encoding="utf-8"?>
<!-- Generated by IcoMoon.io -->
<!DOCTYPE svg PUBLIC "-//W3C//DTD SVG 1.1//EN" "http://www.w3.org/Graphics/SVG/1.1/DTD/svg11.dtd">
<svg version="1.1" xmlns="http://www.w3.org/2000/svg" xmlns:xlink="http://www.w3.org/1999/xlink" width="512" height="512" viewBox="0 0 512 512">
<g>
</g>
	<path d="M96 224v192h352v-192h-352zM213.54 354.056c-1.825 4.032-4.536 7.513-8.136 10.439-3.6 2.93-8.064 5.209-13.392 6.841-5.328 1.631-11.498 2.447-18.504 2.447-5.666 0-11.16-0.697-16.488-2.088-5.328-1.391-10.033-3.575-14.112-6.552-4.082-2.975-7.321-6.768-9.72-11.376-2.401-4.608-3.553-10.080-3.456-16.416h21.888c0 3.456 0.623 6.386 1.872 8.784 1.247 2.4 2.903 4.345 4.968 5.832 2.063 1.489 4.486 2.592 7.272 3.312 2.783 0.72 5.663 1.080 8.64 1.080 2.016 0 4.176-0.166 6.48-0.504 2.304-0.335 4.464-0.983 6.48-1.944 2.016-0.958 3.694-2.279 5.040-3.96 1.343-1.678 2.016-3.815 2.016-6.407 0-2.784-0.889-5.040-2.664-6.769-1.778-1.728-4.104-3.168-6.984-4.32-2.88-1.151-6.145-2.159-9.792-3.023-3.649-0.864-7.344-1.822-11.088-2.88-3.841-0.959-7.585-2.136-11.232-3.528-3.649-1.391-6.912-3.19-9.792-5.4-2.88-2.207-5.209-4.968-6.984-8.279-1.778-3.312-2.664-7.319-2.664-12.024 0-5.278 1.127-9.864 3.384-13.752 2.254-3.888 5.207-7.128 8.856-9.72 3.647-2.592 7.776-4.512 12.384-5.76 4.608-1.247 9.216-1.872 13.824-1.872 5.375 0 10.535 0.601 15.48 1.8 4.943 1.201 9.335 3.146 13.176 5.832 3.838 2.688 6.887 6.12 9.144 10.296 2.254 4.176 3.384 9.24 3.384 15.192h-21.888c-0.193-3.071-0.841-5.616-1.944-7.633-1.104-2.016-2.569-3.6-4.392-4.752-1.825-1.151-3.913-1.966-6.264-2.447-2.354-0.479-4.921-0.721-7.704-0.721-1.825 0-3.649 0.193-5.472 0.576-1.825 0.385-3.48 1.058-4.968 2.017-1.49 0.96-2.713 2.159-3.672 3.6-0.961 1.439-1.44 3.265-1.44 5.472 0 2.017 0.383 3.649 1.152 4.896 0.767 1.248 2.279 2.4 4.536 3.456 2.255 1.058 5.375 2.112 9.36 3.168 3.982 1.058 9.191 2.4 15.624 4.031 1.919 0.385 4.583 1.080 7.992 2.089 3.407 1.008 6.791 2.616 10.152 4.823 3.359 2.21 6.264 5.162 8.712 8.856 2.448 3.696 3.672 8.424 3.672 14.184 0 4.705-0.914 9.072-2.736 13.104zM307.714 371.48h-78.049v-102.816h76.896v19.009h-54.288v22.031h49.824v17.568h-49.824v25.2h55.44v19.008zM409.809 349.304c-2.4 5.184-5.568 9.601-9.504 13.248-3.938 3.649-8.545 6.433-13.823 8.352-5.281 1.919-11.089 2.88-17.425 2.88-7.872 0-14.953-1.368-21.239-4.104-6.289-2.736-11.593-6.503-15.912-11.304-4.32-4.8-7.632-10.44-9.937-16.921-2.304-6.479-3.456-13.464-3.456-20.951 0-7.68 1.152-14.808 3.456-21.385 2.305-6.574 5.616-12.312 9.937-17.208 4.319-4.896 9.623-8.734 15.912-11.52 6.286-2.783 13.367-4.176 21.239-4.176 5.664 0 11.017 0.816 16.057 2.447 5.040 1.634 9.551 4.010 13.536 7.128 3.982 3.121 7.271 6.984 9.863 11.593 2.593 4.607 4.224 9.889 4.896 15.84h-21.888c-0.385-2.592-1.249-4.968-2.593-7.128-1.345-2.16-3.023-4.055-5.040-5.688-2.016-1.631-4.297-2.902-6.84-3.815-2.545-0.911-5.209-1.368-7.992-1.368-5.089 0-9.409 0.985-12.96 2.952-3.553 1.969-6.433 4.607-8.64 7.92-2.21 3.312-3.816 7.080-4.824 11.304-1.008 4.226-1.512 8.593-1.512 13.104 0 4.319 0.504 8.521 1.512 12.6 1.008 4.081 2.614 7.754 4.824 11.016 2.207 3.265 5.087 5.882 8.64 7.849 3.551 1.969 7.871 2.952 12.96 2.952 6.912 0 12.312-2.111 16.2-6.337 3.888-4.223 6.265-9.792 7.128-16.703h21.889c-0.575 6.432-2.066 12.239-4.464 17.423z" fill="#595959" />
	<path d="M416 224v-124.491c0-37.114-29.674-67.509-66.788-67.509h-317.212v448h384v-64h-32v32h-320v-384h285.212c19.409 0 34.788 16.099 34.788 35.509v124.491h32zM320 193v-32h-192v32h192z" fill="#595959" />
</svg>
