<svg xmlns="http://www.w3.org/2000/svg" width="512" height="512" viewBox="0 0 512 512"><path stroke="#449FDB" d="M0 0"/><path d="M192 160h96v64h32v-64h96v64h32V64H32v384h128v-32H64v-64h96v-32H64v-64h96v-32H64v-64h96v64h32v-64zm0 96v192h288V256H192zm132.516 122.203c-2.865 8.334-6.953 15.078-12.266 20.234-4.01 3.906-9.428 6.953-16.25 9.14-5.104 1.616-11.928 2.423-20.47 2.423H232V295h42.28c9.532 0 16.798.965 21.798 2.422 6.72 1.98 12.474 5.613 17.266 10.664 4.79 5.053 8.438 11.297 10.938 18.613 2.5 7.316 3.75 16.37 3.75 27.1 0 9.426-1.173 17.58-3.516 24.402zm101.68 24.65c-7.996 6.067-18.14 9.1-30.43 9.1-15.21 0-27.71-5.194-37.5-15.585s-14.69-24.596-14.69-42.617c0-19.06 4.923-33.865 14.767-44.412s22.786-15.82 38.828-15.82c14.01 0 25.393 4.14 34.143 12.422 5.208 4.895 9.114 11.927 11.72 21.093l-22.892 5.47c-1.353-5.94-4.18-10.626-8.476-14.063s-9.52-5.156-15.664-5.156c-8.49 0-15.38 3.047-20.665 9.14s-7.93 15.966-7.93 29.61c0 14.48 2.604 24.793 7.812 30.938 5.208 6.146 11.98 9.22 20.312 9.22 6.144 0 11.43-1.954 15.857-5.86s7.604-10.05 9.53-18.438L443.345 375c-3.438 12.5-9.155 21.785-17.15 27.852zM295.22 321.328c-2.814-2.656-6.383-4.375-10.705-5.312-3.23-.73-9.558-1.016-18.984-1.016H255v76h17.406c6.458 0 11.12-.512 13.984-1.242 3.75-.938 6.86-2.6 9.336-4.84 2.474-2.238 4.492-5.96 6.055-11.092 1.564-5.13 2.346-12.14 2.346-20.995 0-8.852-.78-15.66-2.344-20.4-1.56-4.736-3.75-8.445-6.56-11.1z" fill="#595959"/></svg>