<?xml version="1.0" encoding="utf-8"?>
<!-- Generated by IcoMoon.io -->
<!DOCTYPE svg PUBLIC "-//W3C//DTD SVG 1.1//EN" "http://www.w3.org/Graphics/SVG/1.1/DTD/svg11.dtd">
<svg version="1.1" xmlns="http://www.w3.org/2000/svg" xmlns:xlink="http://www.w3.org/1999/xlink" width="768" height="768" viewBox="0 0 768 768">
<g>
</g>
	<path d="M427.37 735.635l-15.43-11.383c-18.406-13.58-34.619-29.795-48.191-48.195l-2.993-4.057h-232.756v-183.897c16.222 8.939 28.439 24.592 32.328 43.615 1.766 8.656 10.297 14.281 18.875 12.469 8.656-1.766 14.234-10.219 12.469-18.875-7-34.186-31.928-61.092-63.672-71.983v-125.227c16.222 8.939 28.439 24.592 32.328 43.615 1.766 8.656 10.297 14.281 18.875 12.469 8.656-1.765 14.234-10.219 12.469-18.875-7-34.186-31.928-61.092-63.672-71.983v-125.227c16.222 8.939 28.439 24.592 32.328 43.615 1.766 8.656 10.297 14.281 18.875 12.469 8.656-1.766 14.234-10.219 12.469-18.875-7-34.186-31.928-61.092-63.672-71.983v-37.33h480v261.016l6.199 17.439 25.801-12.275v-266.18l-32-32h-512v64.084c-53 0.458-96 43.636-96 96.729 0 32.738 16.787 62.209 42.62 79.836-25.695 17.428-42.62 46.856-42.62 80.164 0 32.738 16.787 62.209 42.62 79.836-25.695 17.428-42.62 46.856-42.62 80.164 0 45.859 32.593 86.078 77.469 95.188 5.231 0 11.838 0 18.531 0v64l32 32 299.369-0.365zM96 608.056c-4.951 0.019-9.514 0.045-12.801 0.080-30.209-3.148-51.2-32.849-51.2-63.324 0-35.451 28.641-64.274 64-64.729v127.973zM96 448.084c-3.51 0.032-6.859 0.643-10.271 1.039-0.655-0.225-1.187-0.655-1.885-0.795-30.047-6.094-51.844-32.813-51.844-63.515 0-35.451 28.641-64.274 64-64.729v128zM96 288.084c-3.51 0.031-6.859 0.643-10.271 1.040-0.655-0.225-1.187-0.655-1.885-0.795-30.047-6.094-51.844-32.813-51.844-63.516 0-35.451 28.641-64.274 64-64.729v128z" fill="#595959"></path>
	<path d="M678.998 495.434c-1.553-4.339-3.187-8.568-5.141-12.692l24.643-51.829c-11.679-15.829-25.608-29.785-41.439-41.41l-51.803 24.643c-4.152-1.956-8.383-3.589-12.749-5.171l-19.205-54.028c-9.617-1.474-19.288-2.947-29.304-2.947s-19.687 1.473-29.305 2.947l-19.205 54.028c-4.366 1.58-8.596 3.214-12.749 5.171l-51.804-24.643c-15.829 11.625-29.758 25.58-41.438 41.41l24.643 51.829c-1.956 4.124-3.589 8.354-5.143 12.692l-54.053 19.205c-1.498 9.644-2.945 19.316-2.945 29.361 0 10.018 1.447 19.687 2.947 29.332l54.053 19.178c1.553 4.368 3.187 8.599 5.143 12.751l-24.643 51.803c11.678 15.831 25.608 29.76 41.438 41.439l51.804-24.643c4.154 1.955 8.383 3.59 12.749 5.141l19.205 54.055c9.617 1.497 19.288 2.945 29.304 2.945s19.687-1.449 29.305-2.947l19.205-54.055c4.367-1.551 8.597-3.187 12.749-5.141l51.803 24.643c15.831-11.678 29.758-25.608 41.439-41.439l-24.643-51.802c1.955-4.152 3.588-8.383 5.141-12.751l54.055-19.178c1.497-9.643 2.945-19.312 2.945-29.33 0-10.044-1.449-19.716-2.947-29.361l-54.055-19.205zM544 608c-35.381 0-64-28.666-64-64s28.619-64 64-64 64 28.666 64 64-28.618 64-64 64z" fill="#595959"></path>
</svg>
