<?xml version="1.0" encoding="utf-8"?>
<!-- Generated by IcoMoon.io -->
<!DOCTYPE svg PUBLIC "-//W3C//DTD SVG 1.1//EN" "http://www.w3.org/Graphics/SVG/1.1/DTD/svg11.dtd">
<svg version="1.1" xmlns="http://www.w3.org/2000/svg" xmlns:xlink="http://www.w3.org/1999/xlink" width="768" height="768" viewBox="0 0 768 768">
<g>
</g>
	<path d="M366.077 736h1.078l-0.242-0.515c-0.293 0.154-0.539 0.367-0.836 0.515z" fill="#595959" />
	<path d="M226.537 717.33l4.129-13.33h-166.666v-608h416c35.289 0 64 28.709 64 64v192.033c11.438 0.043 22.196 4.467 30.343 12.578l1.656 1.656v-206.267c0-53.020-42.98-96-96-96h-448v672h192.279c-0.679-6.033 0.049-12.385 2.257-18.67z" fill="#595959" />
	<path d="M566.77 539.287l-22.769 22.768v141.945h-141.944l-11.867 11.867 0.236 0.918-13.226 12.074-7.141 7.141h205.942v-205.943l-9.23 9.23z" fill="#595959" />
	<path d="M160 256h288v32h-288v-32z" fill="#595959" />
	<path d="M160 352h288v32h-288v-32z" fill="#595959" />
	<path d="M160 480h237.937l32-32h-269.938z" fill="#595959" />
	<path d="M354.644 706.119c-1.394-5.43-4.205-10.567-8.446-14.806-5.587-5.588-13.014-8.936-20.909-9.428l-14.293-0.889-0.887-14.291c-0.49-7.894-3.84-15.319-9.426-20.906-4.242-4.242-9.379-7.053-14.806-8.449-0.865 0.947-1.611 2.143-2.18 3.605l-26.82 86.572c-2.607 6.809 0.784 10.198 7.618 7.592l86.545-26.822c1.465-0.566 2.658-1.314 3.604-2.177z" fill="#595959" />
	<path d="M596.894 463.907l7.857-7.856c4.33-4.354 4.33-11.426 0-15.756l-53.039-53.060c-2.166-2.154-5.016-3.232-7.869-3.232s-5.711 1.078-7.887 3.232l-7.857 7.879-30.125 30.125 68.795 68.793 30.125-30.125z" fill="#595959" />
	<path d="M476.125 447.067l-167.275 167.275c4.947 2.328 9.586 5.529 13.675 9.62 8.727 8.727 13.433 19.946 14.143 31.367 11.422 0.709 22.641 5.416 31.37 14.143 4.088 4.092 7.289 8.729 9.617 13.678l167.276-167.278-68.805-68.805z" fill="#595959" />
</svg>
