<?xml version="1.0" encoding="utf-8"?>
<!-- Generator: Adobe Illustrator 17.1.0, SVG Export Plug-In . SVG Version: 6.00 Build 0)  -->
<!DOCTYPE svg PUBLIC "-//W3C//DTD SVG 1.1//EN" "http://www.w3.org/Graphics/SVG/1.1/DTD/svg11.dtd">
<svg version="1.1" id="Layer_1" xmlns="http://www.w3.org/2000/svg" xmlns:xlink="http://www.w3.org/1999/xlink" x="0px" y="0px"
	 width="768px" height="768px" viewBox="0 0 768 768" enable-background="new 0 0 768 768" xml:space="preserve">
<path fill="#595959" d="M32,96v576h608V96H32z M416,192v128H256V192H416z M416,352v128H256V352H416z M64,192h160v128H64V192z
	 M64,352h160v128H64V352z M64,640V512h160v128H64z M256,640V512h160v128H256z M608,640H448V512h160V640z M608,480H448V352h160V480z
	 M448,320V192h160v128H448z"/>
</svg>
