<svg xmlns="http://www.w3.org/2000/svg" width="768" height="768" viewBox="0 0 768 768"><path stroke="#449FDB" d="M0 0"/><path d="M672 0H160v64H96v64.084c-53 .458-96 43.636-96 96.73 0 32.737 16.787 62.208 42.62 79.835C16.925 322.075 0 351.502 0 384.81c0 32.738 16.787 62.21 42.62 79.836C16.925 482.076 0 511.504 0 544.813 0 590.673 32.593 630.89 77.47 640c5.23 0 11.837 0 18.53 0v64l32 32h384v-64H128V488.106c16.222 8.94 28.44 24.592 32.328 43.615 1.766 8.657 10.297 14.282 18.875 12.47 8.656-1.766 14.234-10.22 12.47-18.876-7-34.186-31.93-61.092-63.673-71.983V328.106c16.222 8.94 28.44 24.592 32.328 43.615 1.766 8.655 10.297 14.28 18.875 12.468 8.656-1.765 14.234-10.22 12.47-18.875-7-34.186-31.93-61.092-63.673-71.983V168.103c16.222 8.94 28.44 24.592 32.328 43.615 1.766 8.656 10.297 14.28 18.875 12.47 8.656-1.767 14.234-10.22 12.47-18.876-7-34.186-31.93-61.092-63.673-71.983V96h480v320h32V96l-32-32H192V32h480v416h32V32L672 0zM96 608.056c-4.95.02-9.514.045-12.8.08-30.21-3.148-51.2-32.85-51.2-63.324 0-35.45 28.64-64.274 64-64.73v127.974zm0-159.972c-3.51.032-6.86.643-10.27 1.04-.656-.226-1.188-.656-1.886-.796C53.797 442.234 32 415.515 32 384.813c0-35.45 28.64-64.274 64-64.73v128zm0-160c-3.51.03-6.86.643-10.27 1.04-.656-.225-1.188-.655-1.886-.795C53.797 282.233 32 255.514 32 224.81c0-35.45 28.64-64.274 64-64.73v128zM736 544h-96v-96h-96v96h-96v96h96v96h96v-96h96z" fill="#595959"/></svg>