<?xml version="1.0" encoding="utf-8"?>
<!-- Generator: Adobe Illustrator 17.1.0, SVG Export Plug-In . SVG Version: 6.00 Build 0)  -->
<!DOCTYPE svg PUBLIC "-//W3C//DTD SVG 1.1//EN" "http://www.w3.org/Graphics/SVG/1.1/DTD/svg11.dtd">
<svg version="1.1" id="Layer_1" xmlns="http://www.w3.org/2000/svg" xmlns:xlink="http://www.w3.org/1999/xlink" x="0px" y="0px"
	 width="768px" height="768px" viewBox="0 0 768 768" enable-background="new 0 0 768 768" xml:space="preserve">
<path fill="#595959" d="M416,640H64V160h544c35.3,0,64,28.7,64,64v61.8c7.3,6.2,13.4,12.6,18.1,18.8c5.4,7,9.9,14.8,13.9,23.1V224
	c0-53-43-96-96-96H32v544h384V640z"/>
<path fill="#595959" d="M672,512v128H556.5v32H704V476C696.1,492.2,685.4,500.9,672,512L672,512z"/>
<path fill="#595959" d="M584,288.1L416,288v56h32v328h76.8l-0.3-153.3h41.4c73.2,0,122.1-36,122.1-115.6
	C688,345.6,662.5,288.1,584,288.1L584,288.1z M558.9,461.7h-34.4V345.1h32.3c38.7,0,53.8,21.5,53.8,59.2
	C610.5,443.5,589.6,461.7,558.9,461.7L558.9,461.7z"/>
</svg>
