<?xml version="1.0" encoding="utf-8"?>
<!-- Generated by IcoMoon.io -->
<!DOCTYPE svg PUBLIC "-//W3C//DTD SVG 1.1//EN" "http://www.w3.org/Graphics/SVG/1.1/DTD/svg11.dtd">
<svg version="1.1" xmlns="http://www.w3.org/2000/svg" xmlns:xlink="http://www.w3.org/1999/xlink" width="768" height="768" viewBox="0 0 768 768">
<g>
</g>
	<path d="M64 640v-128h160v-32h-160v-128h160v-32h-160v-128h160v128h32v-128h160v128h32v-128h160v128h32v-224h-608v576h192v-32z" fill="#595959" />
	<path d="M641.34 415.658c5.166-1.842 10.63-2.797 16.144-2.797 14.281 0 27.754 6.402 36.793 17.115 3.164-0.648 6.398-0.98 9.646-0.98 12.039 0 23.357 4.744 32.076 12.592v-57.588h-131.15c0.115 0.314 0.347 0.559 0.457 0.875 16.697 3.231 30.336 15.119 36.033 30.783z" fill="#595959" />
	<path d="M369.639 630.584c1.959-7.307 5.527-13.904 10.406-19.404-3.338-9.162-3.791-19.108-1.215-28.723 2.334-8.715 6.959-16.42 13.367-22.459-6.408-6.037-11.033-13.744-13.367-22.459-2.576-9.615-2.121-19.562 1.215-28.723-4.879-5.5-8.45-12.098-10.409-19.404-3.322-12.398-1.607-25.346 4.832-36.459 8.564-14.78 24.511-23.959 41.614-23.957 3.311 0 6.605 0.346 9.828 1.019 9.033-10.268 22.213-16.373 36.16-16.373 5.156 0 10.271 0.836 15.139 2.453 5.723-16.228 19.943-28.488 37.299-31.422 0.082-0.245 0.266-0.432 0.352-0.674h-258.859v288h122.297c-1.281-1.656-2.77-3.123-3.834-4.961-6.436-11.112-8.149-24.059-4.824-36.456z" fill="#595959" />
	<path d="M657.482 674.637c5.551 0 10.947-2.869 13.922-8.002 2.069-3.566 2.463-7.578 1.664-11.313l0.314-0.084-3.766-14.004 26.289 15.121c2.529 1.453 5.291 2.147 8.016 2.147 5.551 0 10.949-2.869 13.924-8.002 4.435-7.652 1.803-17.438-5.879-21.857l-25.711-14.789 12.5-3.336-0.016-0.061c3.842-1.109 7.301-3.586 9.459-7.31 4.436-7.654 1.804-17.439-5.879-21.857-2.496-1.438-5.219-2.103-7.906-2.103-1.338 0-2.668 0.166-3.957 0.482l-0.016-0.058-0.308 0.082-43.215 11.535-40.006-22.907c0.476-2.713 0.838-5.471 0.838-8.321 0-2.893-0.361-5.696-0.851-8.447l40.221-23.399 42.223 11.269c1.688 0.549 3.453 0.844 5.231 0.844 2.635 0 5.291-0.646 7.748-2.059 7.682-4.418 10.315-14.203 5.879-21.855-2.068-3.566-5.356-5.912-9.002-7.090l0.084-0.314-12.823-3.422 25.507-14.672c7.682-4.418 10.315-14.204 5.879-21.855-2.975-5.135-8.373-8.004-13.924-8.004-2.725 0-5.486 0.692-8.016 2.146l-26.494 15.239 3.679-13.682-0.061-0.016c0.957-3.871 0.531-8.094-1.627-11.819-2.975-5.135-8.373-8.004-13.922-8.004-2.725 0-5.486 0.692-8.016 2.147-3.74 2.15-6.226 5.596-7.34 9.424l-0.063-0.016-11.922 44.326 0.269 0.072-39.482 22.965c-4.649-4.004-9.007-7.088-14.949-9.086v-39.195l30.803-31.701c3.275-2.929 5.424-7.067 5.424-11.797 0-8.838-7.189-16-16.060-16-4.135 0-7.818 1.664-10.666 4.221l-0.229-0.229-9.271 9.584v-28.557c0-8.838-7.111-17.020-15.98-17.020s-16 7.163-16 16v29.576l-10.31-9.115-0.043 0.043c-2.885-2.762-6.77-4.504-11.088-4.504-8.869 0-16.060 7.162-16.060 16 0 4.303 1.752 8.17 4.525 11.044l-0.045 0.045 33.021 31.742v40.389c-5.145 1.946-10.947 4.778-15.074 8.266l-39.984-23.044-11.315-42.062c-0.906-4.295-3.43-8.223-7.545-10.59-2.529-1.455-5.291-2.146-8.014-2.146-5.551 0-10.949 2.869-13.926 8.004-2.066 3.566-2.461 7.578-1.662 11.313l-0.314 0.084 3.436 12.772-25.507-14.672c-2.529-1.455-5.291-2.147-8.016-2.147-5.551 0-10.949 2.869-13.924 8.004-4.433 7.652-1.803 17.438 5.879 21.855l26.496 15.24-13.736 3.666 0.016 0.061c-3.842 1.109-7.301 3.588-9.459 7.313-4.436 7.652-1.803 17.438 5.877 21.855 2.498 1.436 5.219 2.101 7.908 2.101 1.338 0 2.666-0.164 3.957-0.48l0.016 0.061 44.492-11.877-0.072-0.268 39.121 22.547c-0.547 2.899-0.899 5.869-0.899 8.926s0.352 6.027 0.899 8.926l-38.986 22.468-43.465-11.603c-1.685-0.549-3.449-0.842-5.223-0.842-2.635 0-5.291 0.644-7.748 2.059-7.68 4.418-10.313 14.203-5.877 21.857 2.066 3.566 5.356 5.912 9.002 7.090l-0.084 0.314 14.055 3.752-26.289 15.121c-7.682 4.418-10.313 14.203-5.879 21.857 2.975 5.131 8.373 8.002 13.924 8.002 2.725 0 5.485-0.692 8.016-2.147l25.711-14.789-3.347 12.453 0.058 0.016c-0.957 3.871-0.531 8.094 1.627 11.819 2.974 5.133 8.373 8.002 13.924 8.002 2.725 0 5.486-0.692 8.016-2.146 3.74-2.15 6.226-5.594 7.342-9.424l0.058 0.016 0.080-0.299 0.002-0.010 11.582-43.053 39.777-22.928c4.127 3.489 9.932 6.321 15.077 8.268v40.623l-32.076 30.799c-3.275 2.929-5.426 7.067-5.426 11.799 0 8.836 7.191 16 16.060 16 4.135 0 7.82-1.666 10.668-4.222l0.229 0.229 10.545-9.349v29.344c0 8.836 7.131 16 16 16s15.98-7.164 15.98-16v-30.479l9.035 10.016 0.045-0.045c2.885 2.761 6.768 4.507 11.086 4.507 8.871 0 16.060-7.164 16.060-16 0-4.303-1.748-8.172-4.522-11.047l0.043-0.043-32.57-32.449 0.823 0.195v-39.349c5.986-2.012 10.383-5.125 15.053-9.172l39.242 22.471 11.647 43.303c0.91 4.291 3.432 8.217 7.545 10.582 2.529 1.453 5.291 2.147 8.016 2.147z" fill="#595959" />
</svg>
