<?xml version="1.0" encoding="utf-8"?>
<!-- Generated by IcoMoon.io -->
<!DOCTYPE svg PUBLIC "-//W3C//DTD SVG 1.1//EN" "http://www.w3.org/Graphics/SVG/1.1/DTD/svg11.dtd">
<svg version="1.1" xmlns="http://www.w3.org/2000/svg" xmlns:xlink="http://www.w3.org/1999/xlink" width="512" height="512" viewBox="0 0 512 512">
<g>
</g>
	<path d="M170.667 426.666v-85.334h106.667v9.291l30.625-30.624h-9.291v-85.334l106.666 0.022c7.625 0.029 14.797 2.978 20.229 8.386l1.104 1.104v-180.179h-405.334v384h181.72l6.609-21.334h-38.996zM298.666 128h106.666v85.334h-106.666v-85.334zM170.667 128h106.667v85.334h-106.666v-85.334zM170.667 234.667h106.667v85.333h-106.666v-85.334zM149.333 426.666h-106.666v-85.334h106.666v85.334zM149.333 320h-106.666v-85.334h106.666v85.334zM149.333 213.333h-106.666v-85.334h106.666v85.334z" fill="#595959" />
	<path d="M279.096 470.746c-0.93-3.62-2.803-7.045-5.63-9.871-3.725-3.725-8.676-5.957-13.939-6.285l-9.529-0.592-0.591-9.527c-0.327-5.263-2.56-10.212-6.284-13.938-2.828-2.828-6.252-4.702-9.871-5.633-0.577 0.632-1.074 1.428-1.453 2.404l-17.88 57.715c-1.738 4.539 0.522 6.798 5.078 5.061l57.696-17.882c0.977-0.377 1.772-0.876 2.402-1.452z" fill="#595959" />
	<path d="M440.596 309.271l5.238-5.237c2.887-2.902 2.887-7.618 0-10.504l-35.359-35.373c-1.444-1.436-3.344-2.155-5.246-2.155s-3.808 0.719-5.258 2.155l-5.238 5.252-20.084 20.084 45.863 45.862 20.084-20.084z" fill="#595959" />
	<path d="M360.084 298.045l-111.517 111.517c3.298 1.552 6.391 3.686 9.117 6.413 5.818 5.818 8.955 13.297 9.428 20.911 7.615 0.473 15.094 3.611 20.913 9.428 2.726 2.728 4.86 5.819 6.411 9.118l111.517-111.519-45.87-45.87z" fill="#595959" />
	<path d="M420.513 359.524l-15.18 15.178v51.964h-51.962l-21.334 21.334h94.629v-94.629l-6.154 6.154z" fill="#595959" />
</svg>
