<svg xmlns="http://www.w3.org/2000/svg" width="768" height="768" viewBox="0 0 768 768"><path stroke="#449FDB" d="M0 0"/><path d="M416 640H64V160h544c35.29 0 64 28.71 64 64v61.79c7.34 6.157 13.414 12.605 18.135 18.765 5.383 7.024 9.902 14.826 13.865 23.078V224c0-53.02-42.98-96-96-96H32v544h384v-32zm256-128v128H556.484v32H704V476.025c-7.874 16.14-18.55 24.86-32 35.975zm-88-223.938L416 288v56h32v328h76.8l-.316-153.254H565.9c73.153 0 122.1-36.028 122.1-115.61 0-57.537-25.47-115.074-104-115.074zM558.91 461.75h-34.425V345.06h32.275c38.726 0 53.785 21.51 53.785 59.152 0 39.254-20.977 57.535-51.636 57.537z" fill="#595959"/></svg>