<svg xmlns="http://www.w3.org/2000/svg" width="768" height="768" viewBox="0 0 768 768"><path stroke="#449FDB" d="M0 0"/><path d="M378.83 582.457c.615-2.3 1.797-4.31 2.722-6.457H64V160h608v255.402c8.597 2.752 16.417 7.63 22.276 14.574 3.164-.648 6.398-.98 9.646-.98.025 0 .05.01.077.01V128H32v480h347.41c-2.388-8.278-2.868-17.005-.58-25.543zM384 224h224v32H384v-32zm0 160h130.86c6.62-18.598 24.3-32 45.14-32H384v32zm224-32h-48c20.576 0 38.047 13.37 44.85 32H608v-32zM128 512h251.412c.3-1.045.258-2.156.633-3.184-4.88-5.5-8.45-12.097-10.41-19.404-.833-3.115-1.347-6.265-1.55-9.412H128v32zm96-192v-96c-53.02 0-96 42.98-96 96s42.98 96 96 96 96-42.98 96-96c0-10.603-1.422-19.582-4.7-29.666L224 320zm487.967 308.643l-25.71-14.79 12.5-3.335-.017-.06c3.842-1.11 7.3-3.587 9.46-7.31 4.435-7.655 1.803-17.44-5.88-21.858-2.496-1.438-5.22-2.103-7.907-2.103-1.338 0-2.668.166-3.957.482l-.016-.06-.308.082-43.215 11.535-40.006-22.907c.478-2.712.84-5.47.84-8.32 0-2.893-.36-5.696-.85-8.447l40.22-23.398 42.223 11.27c1.688.548 3.453.843 5.23.843 2.636 0 5.292-.647 7.75-2.06 7.68-4.417 10.314-14.202 5.878-21.854-2.067-3.566-5.355-5.912-9-7.09l.083-.314-12.823-3.42 25.506-14.673c7.682-4.418 10.315-14.203 5.88-21.855-2.975-5.135-8.374-8.004-13.925-8.004-2.723 0-5.484.692-8.014 2.147l-26.494 15.238 3.68-13.68-.06-.017c.956-3.87.53-8.094-1.628-11.818-2.975-5.135-8.373-8.004-13.922-8.004-2.725 0-5.486.692-8.016 2.146-3.74 2.15-6.226 5.596-7.34 9.424l-.062-.016-11.922 44.326.27.072-39.483 22.965c-4.65-4-9.008-7.086-14.95-9.084V475.5l30.803-31.7c3.276-2.93 5.425-7.068 5.425-11.798 0-8.838-7.19-16-16.06-16-4.135 0-7.818 1.664-10.666 4.22l-.23-.228-9.27 9.584V401.02c0-8.837-7.112-17.02-15.98-17.02s-16 7.163-16 16v29.577l-10.31-9.115-.044.043c-2.885-2.762-6.77-4.504-11.088-4.504-8.87 0-16.06 7.165-16.06 16 0 4.305 1.75 8.17 4.525 11.047l-.045.045L544 474.835v40.39c-5.144 1.945-10.946 4.777-15.073 8.265l-39.984-23.045-11.314-42.062c-.907-4.294-3.43-8.222-7.546-10.59-2.528-1.454-5.29-2.146-8.013-2.146-5.55 0-10.95 2.87-13.925 8.004-2.065 3.567-2.46 7.58-1.66 11.314l-.315.085 3.436 12.77-25.507-14.67c-2.53-1.456-5.29-2.147-8.017-2.147-5.55 0-10.95 2.868-13.924 8.003-4.434 7.652-1.804 17.438 5.88 21.855l26.494 15.24-13.736 3.667.016.06c-3.842 1.11-7.3 3.59-9.46 7.314-4.434 7.653-1.802 17.44 5.878 21.856 2.498 1.436 5.22 2.102 7.908 2.102 1.338 0 2.666-.164 3.957-.48l.017.06L473.6 528.8l-.073-.27 39.12 22.548c-.546 2.9-.898 5.87-.898 8.926s.35 6.027.897 8.926L473.66 591.4l-43.464-11.604c-1.685-.55-3.45-.842-5.223-.842-2.635 0-5.29.644-7.748 2.06-7.68 4.417-10.313 14.202-5.877 21.856 2.066 3.566 5.356 5.912 9.002 7.09l-.084.314 14.055 3.752-26.287 15.12c-7.68 4.42-10.313 14.204-5.88 21.858 2.975 5.13 8.374 8.002 13.925 8.002 2.725 0 5.485-.692 8.016-2.146l25.71-14.79-3.346 12.454.058.016c-.957 3.87-.53 8.094 1.627 11.818 2.975 5.133 8.373 8.002 13.924 8.002 2.725 0 5.486-.692 8.016-2.146 3.74-2.15 6.227-5.593 7.342-9.424l.058.016.08-.3.002-.01 11.582-43.052 39.777-22.928c4.127 3.49 9.93 6.32 15.076 8.268v40.623l-32.077 30.8c-3.275 2.928-5.426 7.066-5.426 11.798 0 8.836 7.19 16 16.06 16 4.136 0 7.82-1.666 10.67-4.222l.228.23 10.545-9.35v29.344c0 8.836 7.13 16 16 16s15.98-7.164 15.98-16V689.53l9.035 10.014.045-.045c2.885 2.76 6.768 4.506 11.086 4.506 8.87 0 16.06-7.164 16.06-16 0-4.303-1.747-8.172-4.52-11.047l.042-.044-32.57-32.45.823.195v-39.35c5.988-2.01 10.385-5.124 15.055-9.17l39.242 22.47 11.647 43.303c.91 4.29 3.432 8.217 7.545 10.582 2.53 1.453 5.29 2.146 8.015 2.146 5.55 0 10.947-2.87 13.922-8 2.068-3.567 2.463-7.58 1.664-11.314l.315-.084-3.766-14.004 26.29 15.12c2.527 1.453 5.29 2.147 8.014 2.147 5.55 0 10.95-2.87 13.924-8.002 4.435-7.652 1.802-17.438-5.88-21.857z" fill="#595959"/></svg>