<?xml version="1.0" encoding="utf-8"?>
<!-- Generator: Adobe Illustrator 17.1.0, SVG Export Plug-In . SVG Version: 6.00 Build 0)  -->
<!DOCTYPE svg PUBLIC "-//W3C//DTD SVG 1.1//EN" "http://www.w3.org/Graphics/SVG/1.1/DTD/svg11.dtd">
<svg version="1.1" id="Layer_1" xmlns="http://www.w3.org/2000/svg" xmlns:xlink="http://www.w3.org/1999/xlink" x="0px" y="0px"
	 width="768px" height="768px" viewBox="0 0 768 768" enable-background="new 0 0 768 768" xml:space="preserve">
<path fill="#595959" d="M672,160v416H64V160H672z M704,128H32v480h672V128z"/>
<path fill="#595959" d="M384,224h224v32H384V224z"/>
<path fill="#595959" d="M384,352h224v32H384V352z"/>
<path fill="#595959" d="M128,480h480v32H128V480z"/>
<path fill="#595959" d="M224,320v-96c-53,0-96,43-96,96s43,96,96,96s96-43,96-96c0-10.6-1.4-19.6-4.7-29.7L224,320L224,320z"/>
</svg>
