<?xml version="1.0" encoding="utf-8"?>
<!-- Generator: Adobe Illustrator 17.1.0, SVG Export Plug-In . SVG Version: 6.00 Build 0)  -->
<!DOCTYPE svg PUBLIC "-//W3C//DTD SVG 1.1//EN" "http://www.w3.org/Graphics/SVG/1.1/DTD/svg11.dtd">
<svg version="1.1" id="Layer_1" xmlns="http://www.w3.org/2000/svg" xmlns:xlink="http://www.w3.org/1999/xlink" x="0px" y="0px"
	 width="768px" height="768px" viewBox="0 0 768 768" enable-background="new 0 0 768 768" xml:space="preserve">
<path fill="#595959" d="M64,640V512h160v-32H64V352h160v-32H64V192h160v128h32V192h160v128h32V192h160v128h32V96H32v576h192v-32H64z
	"/>
<path fill="#595959" d="M425.3,475.3c-4.7-4.4-10.6-7.5-17.8-9c-5.4-1.2-15.9-1.8-31.6-1.8h-17.3v127.2h28.7
	c10.8,0,18.6-0.6,23.3-1.9c6.2-1.6,11.4-4.2,15.6-8c4.1-3.7,7.5-9.9,10.1-18.5c2.6-8.6,3.9-20.4,3.9-35.2s-1.3-26.2-3.9-34.2
	C433.7,486,430,479.8,425.3,475.3L425.3,475.3z"/>
<path fill="#595959" d="M256,384v288h480V384H256z M474.1,570.7c-4.8,14-11.6,25.2-20.4,33.9c-6.7,6.6-15.7,11.6-27.1,15.3
	c-8.5,2.7-19.9,4.1-34.1,4.1H320V432h70.4c15.9,0,28,1.2,36.3,3.7c11.2,3.3,20.8,9.2,28.8,17.7c8,8.4,14,18.8,18.2,31.1
	s6.2,27.4,6.2,45.4C480,545.6,478,559.3,474.1,570.7L474.1,570.7z M644.5,609.2c-12.8,9.8-29.1,14.8-48.8,14.8
	c-24.4,0-44.4-8.4-60.1-25.2S512,558.9,512,529.7c0-30.9,7.9-54.9,23.7-72S572.2,432,598,432c22.5,0,40.7,6.8,54.8,20.2
	c8.4,7.9,14.6,19.3,18.8,34.2l-36.7,8.9c-2.2-9.7-6.7-17.2-13.6-22.8c-6.9-5.6-15.3-8.4-25.1-8.4c-13.6,0-24.7,4.9-33.2,14.8
	c-8.5,9.9-12.7,25.9-12.7,48c0,23.5,4.2,40.2,12.5,50.2c8.4,10,19.2,14.9,32.6,14.9c9.9,0,18.3-3.2,25.5-9.5
	c7.1-6.3,12.2-16.3,15.3-29.9l35.9,11.5C666.5,584.4,657.3,599.4,644.5,609.2z"/>
</svg>
