<svg xmlns="http://www.w3.org/2000/svg" width="768" height="768" viewBox="0 0 768 768"><path stroke="#449FDB" d="M0 0"/><path d="M482.644 706.12c-1.394-5.43-4.205-10.568-8.446-14.807-5.588-5.588-13.014-8.936-20.91-9.428l-14.292-.89-.887-14.29c-.49-7.894-3.84-15.32-9.428-20.906-4.242-4.244-9.38-7.055-14.806-8.45-.865.946-1.61 2.142-2.18 3.604l-26.82 86.572c-2.606 6.808.784 10.197 7.618 7.59l86.545-26.82c1.464-.567 2.66-1.315 3.603-2.178zm242.25-242.213l7.857-7.856c4.33-4.352 4.33-11.424 0-15.754l-53.037-53.06c-2.166-2.154-5.016-3.232-7.87-3.232s-5.71 1.078-7.886 3.232l-7.857 7.88-30.126 30.124 68.794 68.792 30.125-30.125zm-120.77-16.84L436.85 614.342c4.947 2.328 9.586 5.53 13.675 9.62 8.727 8.727 13.433 19.946 14.143 31.367 11.422.707 22.64 5.414 31.37 14.14 4.088 4.093 7.29 8.73 9.617 13.68L672.93 515.87l-68.804-68.805zm-199.99 154.736L429.935 576H64V160h608v192.033c11.44.043 22.197 4.467 30.345 12.578L704 366.27V128H32v480h365.34l5.87-6.436.924.24zm290.636-62.516L672 562.055V576h-13.946l-32 32H704v-77.94l-9.23 9.23zM384 224h224v32H384v-32zm0 128h224v32H384v-32zM128 512h365.935l32.002-32H128zm96-192v-96c-53.02 0-96 42.98-96 96s42.98 96 96 96 96-42.98 96-96c0-10.603-1.422-19.582-4.7-29.666L224 320z" fill="#595959"/></svg>