<?xml version="1.0" encoding="utf-8"?>
<!-- Generated by IcoMoon.io -->
<!DOCTYPE svg PUBLIC "-//W3C//DTD SVG 1.1//EN" "http://www.w3.org/Graphics/SVG/1.1/DTD/svg11.dtd">
<svg version="1.1" xmlns="http://www.w3.org/2000/svg" xmlns:xlink="http://www.w3.org/1999/xlink" width="768" height="768" viewBox="0 0 768 768">
<g>
</g>
	<path d="M256 192h160v128h32v-128h160v128h32v-224h-608v576h192v-32h-160v-128h160v-32h-160v-128h160v-32h-160v-128h160v128h32z" fill="#595959" />
	<path d="M381.463 630.422l0.402-1.039c0.625-1.611 1.856-2.793 2.644-4.295l-2.49-1.172 9.109-9.11 12.080-13.242 0.924 0.239 217.824-217.802h-365.957v288h112.58l12.883-41.578z" fill="#595959" />
	<path d="M717.397 516.66l-155.34 155.34h173.943v-173.943l-4.191 4.191z" fill="#595959" />
	<path d="M482.644 706.119c-1.394-5.43-4.205-10.567-8.446-14.806-5.588-5.588-13.014-8.936-20.909-9.428l-14.293-0.889-0.887-14.291c-0.49-7.894-3.84-15.319-9.426-20.906-4.242-4.242-9.379-7.053-14.806-8.449-0.865 0.947-1.611 2.143-2.179 3.605l-26.82 86.572c-2.607 6.808 0.783 10.197 7.617 7.591l86.545-26.822c1.465-0.566 2.659-1.314 3.604-2.177z" fill="#595959" />
	<path d="M732.752 440.295l-53.039-53.060c-2.166-2.154-5.016-3.232-7.869-3.232s-5.711 1.078-7.887 3.232l-7.857 7.879-30.125 30.125 68.794 68.793 37.982-37.981c4.331-4.354 4.331-11.426 0-15.756z" fill="#595959" />
	<path d="M436.85 614.341c4.947 2.328 9.586 5.529 13.675 9.62 8.727 8.727 13.433 19.946 14.143 31.367 11.422 0.709 22.641 5.416 31.37 14.143 4.088 4.092 7.289 8.728 9.617 13.678l167.276-167.278-68.805-68.805-167.275 167.275z" fill="#595959" />
</svg>
