<?xml version="1.0" encoding="utf-8"?>
<!-- Generator: Adobe Illustrator 17.1.0, SVG Export Plug-In . SVG Version: 6.00 Build 0)  -->
<!DOCTYPE svg PUBLIC "-//W3C//DTD SVG 1.1//EN" "http://www.w3.org/Graphics/SVG/1.1/DTD/svg11.dtd">
<svg version="1.1" id="Layer_1" xmlns="http://www.w3.org/2000/svg" xmlns:xlink="http://www.w3.org/1999/xlink" x="0px" y="0px"
	 width="768px" height="768px" viewBox="0 0 768 768" enable-background="new 0 0 768 768" xml:space="preserve">
<path fill="#595959" d="M640,512c0,0-160,0-272-96S96,320,96,320v288h544V512z"/>
<path fill="#595959" d="M608,304c0,44.2-35.8,80-80,80s-80-35.8-80-80c0-44.2,35.8-80,80-80S608,259.8,608,304z"/>
<path fill="#595959" d="M672,224v416H64V160h544C643.3,160,672,188.7,672,224z M704,224c0-53-43-96-96-96H32v544h672V224z"/>
</svg>
