<svg xmlns="http://www.w3.org/2000/svg" width="768" height="768" viewBox="0 0 768 768"><path stroke="#449FDB" d="M0 0"/><path d="M64 640V512h160v-32H64V352h160v-32H64V192h160v128h32V192h160v128h32V192h160v128h32V96H32v576h192v-32zm361.312-164.672c-4.672-4.448-10.624-7.456-17.824-9.024-5.408-1.216-15.904-1.824-31.648-1.824h-17.28v127.168h28.736c10.784 0 18.56-.608 23.328-1.856 6.24-1.568 11.424-4.224 15.552-8 4.128-3.744 7.488-9.92 10.112-18.528 2.592-8.608 3.904-20.352 3.904-35.168s-1.312-26.208-3.904-34.176c-2.624-7.904-6.272-14.112-10.976-18.592zM256 384v288h480V384H256zm218.144 186.688c-4.768 13.952-11.584 25.248-20.416 33.92-6.688 6.56-15.744 11.648-27.104 15.328-8.512 2.688-19.872 4.064-34.112 4.064H320V432h70.432c15.904 0 28 1.216 36.32 3.68 11.2 3.328 20.8 9.184 28.768 17.696 8 8.448 14.048 18.816 18.24 31.072S480 511.84 480 529.824c0 15.808-1.952 29.44-5.856 40.864zm170.336 38.56C631.648 619.072 615.392 624 595.68 624c-24.352 0-44.416-8.416-60.128-25.248S512 558.88 512 529.664c0-30.912 7.904-54.912 23.68-72S572.224 432 597.952 432c22.464 0 40.736 6.752 54.752 20.16 8.352 7.936 14.624 19.328 18.784 34.176l-36.704 8.896c-2.176-9.664-6.72-17.248-13.6-22.784-6.912-5.568-15.264-8.352-25.12-8.352-13.632 0-24.672 4.896-33.152 14.816-8.48 9.856-12.704 25.856-12.704 47.968 0 23.488 4.192 40.192 12.544 50.176C571.136 587.04 581.984 592 595.328 592c9.856 0 18.336-3.168 25.472-9.472 7.104-6.336 12.192-16.288 15.264-29.92L672 564.096c-5.504 20.256-14.688 35.328-27.52 45.152z" fill="#595959"/></svg>