<svg xmlns="http://www.w3.org/2000/svg" width="512" height="512" viewBox="0 0 512 512"><path stroke="#449FDB" d="M0 0"/><path d="M378.136 311.36c-2.398.813-8.416 1.22-18.053 1.22H345.22v-25.247h15.678c8.145 0 13.03.113 14.66.34 3.258.542 5.78 1.844 7.567 3.902 1.787 2.06 2.68 4.763 2.68 8.11 0 2.986-.678 5.476-2.035 7.466-1.358 1.994-3.236 3.396-5.634 4.21zM448 224v192H96V224h352zM215.11 339.594l-19.48-6.176c-1.673 7.285-4.434 12.623-8.28 16.018-3.845 3.393-8.438 5.09-13.777 5.09-7.24 0-13.123-2.67-17.646-8.01-4.525-5.338-6.787-14.297-6.787-26.876 0-11.854 2.296-20.43 6.89-25.724 4.59-5.293 10.576-7.94 17.95-7.94 5.34 0 9.876 1.493 13.61 4.48 3.73 2.985 6.186 7.058 7.363 12.216l19.886-4.75c-2.265-7.964-5.66-14.072-10.183-18.326-7.602-7.194-17.488-10.79-29.66-10.79-13.937 0-25.18 4.58-33.732 13.742-8.552 9.163-12.828 22.024-12.828 38.585 0 15.656 4.252 27.997 12.76 37.023 8.506 9.027 19.366 13.54 32.578 13.54 10.678 0 19.49-2.635 26.436-7.906s11.913-13.337 14.9-24.196zm93.052 1.426c0-6.29-1.323-11.572-3.97-15.85-2.647-4.274-6.313-7.645-10.996-10.11s-11.91-4.855-21.685-7.16c-9.77-2.31-15.926-4.525-18.46-6.653-1.99-1.673-2.985-3.687-2.985-6.04 0-2.58 1.062-4.638 3.19-6.177 3.302-2.397 7.873-3.597 13.71-3.597 5.655 0 9.897 1.12 12.726 3.36 2.828 2.24 4.67 5.916 5.53 11.028l20.09-.88c-.315-9.14-3.63-16.447-9.94-21.923s-15.713-8.212-28.2-8.212c-7.648 0-14.176 1.153-19.58 3.46-5.41 2.31-9.55 5.668-12.42 10.08-2.876 4.41-4.313 9.15-4.313 14.22 0 7.872 3.055 14.547 9.163 20.02 4.343 3.893 11.898 7.173 22.668 9.842 8.37 2.082 13.732 3.53 16.086 4.344 3.438 1.223 5.847 2.66 7.228 4.31 1.38 1.653 2.07 3.655 2.07 6.008 0 3.665-1.64 6.866-4.92 9.604-3.282 2.74-8.157 4.107-14.627 4.107-6.108 0-10.96-1.54-14.56-4.616s-5.983-7.896-7.16-14.457l-19.546 1.9c1.31 11.13 5.337 19.604 12.08 25.418 6.74 5.814 16.4 8.722 28.98 8.722 8.642 0 15.86-1.21 21.65-3.63 5.79-2.42 10.27-6.12 13.44-11.098 3.167-4.978 4.75-10.317 4.75-16.018zM414.582 370l-12.147-19.41c-4.797-7.738-8.61-13.122-11.437-16.154-2.828-3.03-6.414-5.813-10.758-8.348 8.732-1.267 15.293-4.333 19.683-9.197s6.584-11.027 6.584-18.492c0-5.882-1.45-11.108-4.344-15.68-2.896-4.568-6.754-7.747-11.572-9.535-4.817-1.787-12.544-2.68-23.176-2.68H325.13V370h20.09v-41.537h4.07c4.616 0 7.986.373 10.113 1.12 2.127.746 4.14 2.127 6.04 4.14 1.9 2.014 5.43 6.89 10.59 14.627L390.556 370h24.026z" fill="#595959"/></svg>