<svg xmlns="http://www.w3.org/2000/svg" width="512" height="512" viewBox="0 0 512 512"><path stroke="#449FDB" d="M0 0"/><path d="M446.998 365.594c-.046.19-.118.368-.214.53.114.244.178.517.178.806 0 .175-.024.342-.068.502-.39 1.766-2.13 9.412-3.625 11.777-.026.04-.054.076-.08.113-1.836 2.476-5.68 5.635-9.778 6.714-2.862.765-6.427 1.153-10.586 1.153-11.254 0-26.517-2.816-42.976-7.93-17.683-5.493-35.468-13.2-51.475-22.304-41.75 6.202-89.895 17.698-132.332 31.596-5.333 9.345-10.423 17.88-15.297 25.666h.002c-7.645 12.32-14.308 21.875-19.86 29.36-10.277 13.856-21.91 24.308-31.25 30.597-3.452 2.324-6.626 3.993-9.428 4.958-4 1.393-8.95.92-11.853-.11-.043-.015-.09-.03-.13-.05-2.557-1.128-8.262-6.5-9.57-7.75-.125-.107-.238-.233-.335-.377-.16-.24-.26-.502-.3-.77-.17-.078-.33-.185-.473-.318-.037-.035-3.63-3.393-4.78-5.342-.013-.02-.026-.043-.037-.062-2.532-4.67-3.28-8.92-2.352-13.375 2.388-11.7 15.416-23.01 28.93-32.37.703-.484 20.62-15.325 43.834-26.54 0 0 2.07-1.05 2.947.176.147.204.524.638.62 1.205.217 1.245-2.012 2.938-2.012 2.938-13.85 12.98-46.02 41.245-53.687 53.07-8.094 12.49-8.637 16.836-7.627 17.842.295.293 5.785 2.675 7.8 2.394 2.045-.31 4.62-1.498 7.63-3.525 8.92-6.006 18.962-22.97 33.324-44.85 0 0 3.328-5.037 3.773-5.703 14.38-21.684 30.453-49.89 48.073-84.424l1.362-2.67c10.383-20.358 22.15-43.435 31.56-66.406l3.648-8.845c-13.115-50.066-20.41-88.635-13.516-114.1 1.93-6.892 9.42-11.172 19.55-11.172.144 0 18.916-.136 24.91 21.46 6.668 24.024-5.427 72.553-8.448 86.143-.613 2.736-1.296 5.454-2 8.22 10.764 29.88 28.2 57.09 49.13 76.666 8.003 7.484 18.138 13.61 27.894 19.23 20.017-2.838 39.073-4.338 55.15-4.338.996 0 1.98.006 2.957.018 16.43.217 37.803 2.23 46.3 10.607 3.253 3.18 5 7.124 5.5 12.414 0 .026.003.05.005.074.132 2.256-.982 7.053-.99 7.1zm-202-203.41c0 16.07 3.01 36.512 8.334 56.9.47-1.528 15.323-37.71 8.958-72.084-2.302-12.43-8.14-10.312-10.414-9.965-6.31.965-6.88 20.73-6.88 25.15zm64.157 182.45c-4.062-2.934-7.843-5.887-11.277-8.808-18.863-15.982-34.726-36.227-47.2-60.225-6.293 16.708-14.8 37.353-29.175 64.58-6.488 12.238-12.834 23.676-18.855 34.425 30.337-12.244 65.282-22.075 106.507-29.97zm134.29 21.315c-.163-.354-.22-.757-.14-1.164.278-1.4-2.105-6.02-16.268-10.545-6.956-2.223-17.3-3.35-30.745-3.35-9.74 0-20.965.594-33.447 1.77 26.14 12.132 51.937 19.81 67.028 19.81 3.627 0 6.425-.454 8.295-1.338 1.828-.895 4.332-3.92 5.276-5.184z" fill="#595959"/></svg>