<svg xmlns="http://www.w3.org/2000/svg" width="512" height="512" viewBox="0 0 512 512"><path stroke="#449FDB" d="M0 0"/><path d="M432 256l-75.7 75.7-75.5-75.7h51.9c.1-1.3.1-2.6.1-3.8 0-38.3-31.2-69.4-69.4-69.4-12.3 0-24.4 3.3-35 9.5l-5.3 3.1-39.1-39.1 7.7-5.5c21-14.9 45.8-22.8 71.7-22.8 33.2 0 64.4 12.9 87.8 36.4 23.5 23.5 36.4 54.6 36.4 87.8 0 1.3 0 2.6-.1 3.8H432zm-111.2 95.7l-32.5-32.5-5.2 2.6c-9.7 4.9-20.2 7.4-31.1 7.4-18.5 0-35.9-7.2-49.1-20.4-13.1-13.1-20.4-30.6-20.4-49.1 0-.5 0-2.2 0-3.8h48.6l-75.4-75.6L80 256h47.9c0 1.5 0 3.3 0 3.8 0 33.2 12.9 64.3 36.4 87.8s54.6 36.4 87.8 36.4c24 0 47.3-6.9 67.4-19.9l8.3-5.4-7-7z" fill="#595959"/></svg>