<svg xmlns="http://www.w3.org/2000/svg" width="512" height="512" viewBox="0 0 512 512"><path d="M403.2 96l76.8 76.8V384H64V96h339.2zM416 64H32v352h480V160l-96-96zM240 192h-32c-9.6 0-16-6.4-16-16s6.4-16 16-16h32c9.6 0 16 6.4 16 16s-6.4 16-16 16zM240 256h-32c-9.6 0-16-6.4-16-16s6.4-16 16-16h32c9.6 0 16 6.4 16 16s-6.4 16-16 16zM240 320h-32c-9.6 0-16-6.4-16-16s6.4-16 16-16h32c9.6 0 16 6.4 16 16s-6.4 16-16 16zM336 192h-32c-9.6 0-16-6.4-16-16s6.4-16 16-16h32c9.6 0 16 6.4 16 16s-6.4 16-16 16zM336 256h-32c-9.6 0-16-6.4-16-16s6.4-16 16-16h32c9.6 0 16 6.4 16 16s-6.4 16-16 16zM336 320h-32c-9.6 0-16-6.4-16-16s6.4-16 16-16h32c9.6 0 16 6.4 16 16s-6.4 16-16 16zM432 256h-32c-9.6 0-16-6.4-16-16s6.4-16 16-16h32c9.6 0 16 6.4 16 16s-6.4 16-16 16zM432 320h-32c-9.6 0-16-6.4-16-16s6.4-16 16-16h32c9.6 0 16 6.4 16 16s-6.4 16-16 16zM144 192h-32c-9.6 0-16-6.4-16-16s6.4-16 16-16h32c9.6 0 16 6.4 16 16s-6.4 16-16 16zM144 256h-32c-9.6 0-16-6.4-16-16s6.4-16 16-16h32c9.6 0 16 6.4 16 16s-6.4 16-16 16z" fill="#595959"/></svg>