<svg xmlns="http://www.w3.org/2000/svg" width="512" height="512" viewBox="0 0 512 512"><path stroke="#449FDB" d="M0 0"/><path d="M193.83 451.29c4.32 10.67 10.48 20.304 18.296 28.71H32V32h316.8c37.114 0 67.2 30.086 67.2 67.2v107.782c-10.29-3.735-21.035-5.646-32-5.654V99.2c0-19.41-15.79-35.2-35.2-35.2H64v384h128.587c.4 1.102.8 2.2 1.242 3.29zM128 192h192v-32H128v32zm0 32v32h163.987c1.966-3.096 4.296-6.026 6.99-8.727l18.34-18.35c.876-.876 1.777-1.716 2.683-2.554V224H128zm0 96h115.863l15.256-15.255c6.73-6.742 14.467-12.362 22.84-16.745H128v32zm301.793-66.57c12.082 12.098 18.237 28.107 18.207 43.97.03 15.828-6.08 31.867-18.207 43.996l-44.606 44.607c-12.16 12.158-28.246 18.192-44.027 18.192h-.108c-.516 0-1.03-.023-1.545-.035-.496-.012-.992-.013-1.488-.036-.49-.023-.983-.07-1.473-.105-.5-.038-1-.064-1.5-.11-.48-.048-.957-.117-1.436-.176-.507-.062-1.016-.112-1.522-.187-.474-.068-.944-.16-1.416-.24-.51-.088-1.02-.164-1.527-.264-.457-.09-.91-.2-1.364-.302-.52-.113-1.04-.22-1.556-.345-.438-.11-.872-.24-1.31-.357-.527-.144-1.058-.277-1.582-.435-.423-.126-.84-.274-1.26-.41-.532-.173-1.068-.336-1.598-.522-.41-.144-.812-.31-1.218-.463-.534-.202-1.07-.395-1.6-.61-.397-.163-.788-.347-1.183-.52-.53-.228-1.064-.45-1.59-.695-.394-.185-.78-.39-1.173-.584-.516-.254-1.036-.5-1.545-.77-.4-.212-.793-.444-1.19-.666-.49-.274-.987-.538-1.474-.827-.4-.238-.792-.498-1.19-.747-.47-.293-.943-.578-1.407-.885-.414-.275-.817-.57-1.226-.857-.437-.304-.878-.597-1.307-.913-.436-.32-.858-.665-1.286-.998-.39-.304-.786-.595-1.17-.91-.518-.42-1.02-.868-1.524-1.31-.283-.247-.573-.48-.853-.733-.778-.704-1.543-1.432-2.29-2.18l-1.896-1.91 27.215-27.204 1.896 1.88c4.686 4.67 10.6 6.943 16.586 6.974 6.276-.06 12.265-2.305 16.935-6.974l44.59-44.572c4.67-4.7 6.93-10.644 6.944-16.798-.015-6.125-2.273-12.068-6.928-16.742l-1.896-1.91c-4.685-4.67-10.644-6.913-16.768-6.943-6.126.03-12.085 2.272-16.77 6.943l-18.33 18.35c-.47.47-.958.91-1.462 1.32-3.53 2.88-7.837 4.318-12.146 4.318-4.308 0-8.616-1.44-12.146-4.317-.504-.413-.992-.854-1.463-1.323-7.505-7.52-7.505-19.684 0-27.203l18.33-18.343c12.1-12.1 28.124-18.224 43.984-18.224 15.842 0 31.867 6.125 43.97 18.224l1.9 1.88zM346.21 415.385c-.937-.94-1.948-1.762-3.015-2.467s-2.188-1.293-3.345-1.763c-2.315-.94-4.777-1.41-7.24-1.41-3.692 0-7.386 1.058-10.585 3.173-1.065.705-2.077 1.526-3.016 2.467l-19.225 19.224c-4.67 4.64-10.658 6.91-16.935 6.94-5.99-.03-11.903-2.272-16.588-6.942l-1.895-1.91c-4.654-4.67-6.928-10.643-6.943-16.83.016-6.063 2.273-12.006 6.943-16.706l44.59-44.607c4.685-4.64 10.644-6.913 16.768-6.913 6.128 0 12.086 2.273 16.77 6.913l1.896 1.91 27.2-27.198-1.895-1.91-3.44-3.427c-1.486-1.487-3.14-2.67-4.897-3.58-.664-.464-1.337-.914-2.016-1.352-.257-.164-.52-.317-.78-.48-.425-.263-.847-.53-1.275-.784-.305-.18-.615-.345-.923-.52-.39-.22-.777-.447-1.172-.66-.345-.184-.693-.354-1.04-.532-.363-.188-.724-.38-1.09-.56-.367-.18-.74-.344-1.11-.516-.35-.163-.698-.333-1.052-.49-.376-.165-.756-.317-1.135-.476-.353-.147-.702-.302-1.057-.442-.383-.152-.77-.29-1.155-.434-.353-.133-.706-.27-1.06-.397-.393-.14-.787-.264-1.18-.394-.355-.117-.707-.24-1.063-.353-.394-.122-.79-.23-1.185-.344-.36-.105-.72-.217-1.08-.313-.395-.107-.794-.2-1.192-.3-.36-.09-.723-.187-1.087-.27-.397-.09-.796-.168-1.194-.25-.368-.078-.735-.16-1.104-.23-.4-.077-.804-.14-1.206-.208-.366-.063-.732-.132-1.1-.188-.404-.062-.81-.108-1.215-.162-.368-.048-.735-.103-1.104-.145-.398-.045-.8-.076-1.2-.114-.373-.033-.747-.075-1.122-.103-.4-.03-.802-.047-1.204-.068-.374-.022-.748-.05-1.12-.063-.403-.016-.806-.017-1.208-.023-.4-.008-.8-.02-1.2-.02-.514 0-1.028.02-1.544.033-.493.012-.987.013-1.48.036-.518.023-1.034.07-1.552.11-.47.033-.942.056-1.412.102-.543.052-1.083.127-1.625.193-.442.055-.888.098-1.332.16-.563.083-1.124.19-1.686.286-.42.074-.84.134-1.258.215-.583.113-1.16.25-1.74.38-.396.09-.79.165-1.186.262-.596.146-1.187.316-1.777.48-.374.103-.75.193-1.123.304-.61.18-1.217.39-1.823.59-.347.114-.697.216-1.043.337-.622.22-1.237.462-1.854.7-.326.125-.654.237-.977.368-.612.25-1.217.523-1.822.79-.32.144-.646.274-.965.422-.618.286-1.226.6-1.836.905-.3.15-.604.29-.9.446-.62.326-1.23.677-1.84 1.025-.28.16-.564.305-.84.468-.602.355-1.19.736-1.78 1.11-.28.18-.563.345-.84.526-.285.19-.56.395-.844.588-.304.208-.607.42-.91.633-.264.19-.535.364-.797.558-.585.43-1.156.884-1.73 1.336-.247.197-.502.38-.747.58-.578.47-1.14.97-1.704 1.463-.23.2-.466.39-.693.595-.784.71-1.555 1.44-2.31 2.196l-44.604 44.603c-12.07 12.07-18.227 28.05-18.21 43.908-.03 15.86 6.078 31.9 18.21 44.027l1.91 1.91c.748.75 1.512 1.476 2.29 2.18.298.27.608.52.91.783.487.425.97.855 1.468 1.263.334.274.68.527 1.02.794.478.374.95.756 1.437 1.114.387.284.783.547 1.175.82.45.318.897.647 1.356.95.435.287.88.552 1.32.828.426.268.85.547 1.28.804.456.27.922.52 1.383.777.428.238.85.488 1.28.717.474.25.957.48 1.436.716.43.212.85.437 1.282.638.487.228.98.432 1.473.646.433.19.862.39 1.3.57.49.2.987.377 1.482.565.444.168.886.348 1.334.507.49.174.99.324 1.484.485.457.147.912.31 1.372.445.496.15.997.274 1.496.41.465.127.928.265 1.395.38.505.126 1.015.228 1.52.34.466.103.93.216 1.397.31.506.1 1.014.174 1.52.26.476.082.947.174 1.422.243.503.075 1.007.126 1.51.187.482.06.965.128 1.448.175.5.05 1.005.074 1.508.11.487.036.973.082 1.46.105.5.023 1 .024 1.5.036.512.014 1.022.037 1.532.036h.106c15.782 0 31.868-6.034 44.026-18.193l19.226-19.224c7.52-7.518 7.52-19.676 0-27.196z" fill="#595959"/></svg>