<svg xmlns="http://www.w3.org/2000/svg" width="768" height="768" viewBox="0 0 768 768"><path stroke="#449FDB" d="M0 0"/><path d="M63.656 729.437c-7.843-14.407-10.063-28.328-7.125-42.297 1.4-6.854 4.077-13.28 7.47-19.36V96h416c35.29 0 64 28.71 64 64v334.328c11.93.543 22.56 1.727 32 3.502V160c0-53.02-42.98-96-96-96H32v672h36.595c-2.642-3.197-4.39-5.637-4.94-6.563zM544 630.147V704H214.52c-9.957 13.134-20.025 23.82-28.98 32H576V632.353c-10.11.262-20.926-.527-32-2.21zm62.542-60.557c-.067.278-.172.536-.312.77.166.356.26.754.26 1.174 0 .254-.035.498-.1.73-.565 2.57-3.098 13.69-5.272 17.132-.034.058-.076.112-.115.168-2.67 3.602-8.26 8.196-14.22 9.766-4.165 1.113-9.35 1.677-15.398 1.677-16.37 0-38.57-4.097-62.51-11.535-25.723-7.99-51.593-19.202-74.875-32.444-60.728 9.022-130.756 25.743-192.482 45.96-7.757 13.592-15.16 26.006-22.25 37.33h.004c-11.12 17.922-20.81 31.818-28.888 42.708-14.948 20.153-31.868 35.357-45.452 44.503-5.02 3.38-9.637 5.806-13.714 7.21-5.82 2.026-13.02 1.34-17.24-.16-.064-.022-.13-.046-.19-.073-3.72-1.642-12.018-9.456-13.92-11.272-.182-.157-.346-.34-.488-.55-.233-.35-.378-.732-.438-1.12-.248-.114-.477-.27-.687-.462-.05-.05-5.28-4.935-6.953-7.77-.017-.032-.035-.063-.05-.092-3.684-6.79-4.77-12.973-3.422-19.453 3.47-17.018 22.42-33.466 42.08-47.08 1.02-.706 29.993-22.293 63.757-38.605 0 0 3.01-1.525 4.287.256.213.297.76.927.904 1.753.314 1.81-2.93 4.273-2.93 4.273-20.145 18.88-66.938 59.995-78.09 77.194-11.774 18.164-12.563 24.49-11.095 25.95.428.428 8.413 3.89 11.345 3.483 2.974-.453 6.718-2.18 11.097-5.128 12.977-8.737 27.583-33.413 48.473-65.236 0 0 4.842-7.328 5.49-8.296 20.917-31.54 44.295-72.57 69.924-122.8l1.98-3.883c15.104-29.61 32.22-63.18 45.907-96.59l5.303-12.865c-19.076-72.824-29.688-128.924-19.66-165.966 2.807-10.024 13.7-16.25 28.435-16.25.21 0 27.516-.2 36.235 31.215 9.698 34.944-7.896 105.53-12.29 125.298-.89 3.98-1.882 7.933-2.908 11.957 15.66 43.46 41.017 83.036 71.464 111.512 11.64 10.89 26.382 19.797 40.572 27.973 29.115-4.127 56.834-6.31 80.218-6.31 1.45 0 2.88.008 4.3.026 23.9.314 54.987 3.246 67.347 15.43 4.73 4.623 7.27 10.362 7.998 18.055.003.035.005.07.008.106.19 3.284-1.43 10.26-1.442 10.33zm-293.82-295.87c0 23.375 4.382 53.11 12.125 82.766.686-2.224 22.29-54.85 13.03-104.85-3.348-18.08-11.842-15-15.148-14.494-9.18 1.403-10.01 30.15-10.01 36.58zm93.32 265.384c-5.908-4.268-11.407-8.563-16.402-12.812-27.437-23.246-50.51-52.693-68.653-87.6-9.155 24.3-21.528 54.33-42.437 93.936-9.437 17.798-18.667 34.434-27.425 50.07 44.127-17.81 94.956-32.112 154.92-43.595zm195.33 31.003c-.235-.512-.318-1.098-.2-1.69.403-2.036-3.063-8.756-23.665-15.34-10.117-3.234-25.163-4.873-44.72-4.873-14.165 0-30.494.864-48.65 2.572 38.02 17.648 75.544 28.814 97.495 28.814 5.275 0 9.345-.66 12.065-1.946 2.66-1.3 6.302-5.698 7.676-7.538z" fill="#595959"/></svg>