<svg xmlns="http://www.w3.org/2000/svg" width="768" height="768" viewBox="0 0 768 768"><path stroke="#449FDB" d="M0 0"/><path d="M64 640V512h160v-32H64V352h160v-32H64V192h160v128h32V192h160v128h32V192h160v128h32V96H32v576h192v-32zm577.34-224.342c5.166-1.842 10.63-2.797 16.144-2.797 14.28 0 27.754 6.404 36.793 17.117 3.164-.648 6.398-.98 9.646-.98 12.04 0 23.357 4.744 32.076 12.592V384H604.85c.114.314.346.56.456.875 16.697 3.23 30.336 15.12 36.033 30.783zm-271.7 214.926c1.958-7.307 5.526-13.904 10.405-19.404-3.338-9.162-3.79-19.108-1.215-28.723 2.334-8.715 6.96-16.42 13.367-22.46-6.408-6.036-11.033-13.743-13.367-22.458-2.576-9.617-2.12-19.564 1.215-28.725-4.88-5.5-8.45-12.098-10.41-19.404-3.32-12.397-1.606-25.345 4.833-36.46 8.564-14.78 24.51-23.957 41.614-23.955 3.31 0 6.605.346 9.828 1.02 9.033-10.27 22.213-16.374 36.16-16.374 5.156 0 10.27.837 15.14 2.454 5.722-16.228 19.942-28.488 37.298-31.422.082-.245.266-.432.352-.674H256v288h122.3c-1.28-1.657-2.77-3.124-3.834-4.962-6.436-11.112-8.15-24.06-4.824-36.456zm287.842 44.053c5.55 0 10.947-2.87 13.922-8.002 2.07-3.566 2.463-7.578 1.664-11.313l.314-.084-3.766-14.004 26.29 15.12c2.528 1.454 5.29 2.148 8.015 2.148 5.553 0 10.95-2.87 13.926-8.002 4.435-7.652 1.803-17.438-5.88-21.857l-25.71-14.79 12.5-3.335-.016-.06c3.84-1.11 7.3-3.587 9.458-7.31 4.436-7.655 1.804-17.44-5.88-21.858-2.495-1.438-5.218-2.103-7.905-2.103-1.338 0-2.668.166-3.957.482l-.016-.06-.308.082-43.215 11.535-40.006-22.907c.478-2.712.84-5.47.84-8.32 0-2.893-.36-5.696-.85-8.447l40.22-23.4 42.223 11.27c1.688.55 3.453.844 5.23.844 2.636 0 5.292-.646 7.75-2.06 7.68-4.417 10.314-14.202 5.878-21.854-2.067-3.566-5.355-5.912-9-7.09l.083-.314-12.823-3.424 25.506-14.672c7.682-4.418 10.315-14.204 5.88-21.855-2.976-5.136-8.374-8.005-13.925-8.005-2.723 0-5.484.692-8.014 2.146l-26.494 15.24 3.68-13.682-.06-.017c.956-3.87.53-8.093-1.628-11.82-2.975-5.133-8.373-8.002-13.922-8.002-2.725 0-5.486.692-8.016 2.147-3.74 2.15-6.226 5.596-7.34 9.424l-.063-.016-11.92 44.326.268.073-39.48 22.965c-4.65-4.004-9.008-7.088-14.95-9.086v-39.195l30.803-31.7c3.275-2.93 5.424-7.068 5.424-11.798 0-8.84-7.19-16-16.06-16-4.135 0-7.818 1.662-10.666 4.22l-.23-.23-9.27 9.584v-28.557c0-8.838-7.11-17.02-15.98-17.02s-16 7.163-16 16v29.576l-10.31-9.115-.042.042c-2.885-2.762-6.77-4.504-11.088-4.504-8.87 0-16.06 7.162-16.06 16 0 4.303 1.752 8.17 4.525 11.044l-.045.045L544 474.827v40.388c-5.144 1.946-10.946 4.778-15.073 8.266l-39.987-23.04-11.315-42.062c-.906-4.295-3.43-8.223-7.545-10.59-2.53-1.455-5.29-2.146-8.014-2.146-5.55 0-10.95 2.87-13.926 8.004-2.066 3.566-2.46 7.578-1.662 11.313l-.314.082 3.436 12.772-25.507-14.672c-2.53-1.455-5.29-2.147-8.016-2.147-5.55 0-10.95 2.87-13.924 8.004-4.433 7.65-1.803 17.437 5.88 21.854l26.495 15.24-13.736 3.666.016.062c-3.842 1.11-7.3 3.588-9.46 7.313-4.435 7.652-1.802 17.438 5.878 21.855 2.498 1.436 5.22 2.1 7.908 2.1 1.338 0 2.666-.163 3.957-.48l.018.062 44.492-11.877-.073-.268 39.12 22.547c-.546 2.9-.898 5.87-.898 8.926s.35 6.027.897 8.926l-38.986 22.468-43.464-11.603c-1.685-.547-3.45-.84-5.223-.84-2.635 0-5.29.644-7.748 2.06-7.68 4.417-10.313 14.202-5.877 21.856 2.065 3.566 5.355 5.912 9 7.09l-.083.314 14.055 3.75-26.29 15.122c-7.68 4.418-10.312 14.203-5.878 21.857 2.975 5.13 8.373 8 13.924 8 2.725 0 5.485-.69 8.016-2.147l25.71-14.79-3.346 12.454.058.016c-.957 3.87-.53 8.094 1.627 11.82 2.975 5.132 8.374 8 13.925 8 2.725 0 5.486-.69 8.016-2.145 3.74-2.15 6.227-5.595 7.343-9.425l.058.016.08-.3.003-.01 11.582-43.052 39.777-22.93c4.127 3.49 9.932 6.322 15.077 8.27V645.4l-32.076 30.8c-3.275 2.928-5.426 7.066-5.426 11.798 0 8.836 7.19 16 16.06 16 4.134 0 7.82-1.666 10.667-4.222l.23.23 10.544-9.35V720c0 8.836 7.13 16 16 16s15.98-7.164 15.98-16v-30.48l9.035 10.017.045-.046c2.886 2.76 6.77 4.508 11.087 4.508 8.87 0 16.06-7.163 16.06-16 0-4.302-1.748-8.17-4.522-11.046l.043-.043-32.57-32.45.823.196v-39.35c5.988-2.01 10.385-5.124 15.055-9.17l39.242 22.47 11.647 43.303c.91 4.29 3.432 8.216 7.545 10.58 2.53 1.454 5.29 2.148 8.015 2.148z" fill="#595959"/></svg>