<svg xmlns="http://www.w3.org/2000/svg" width="768" height="768" viewBox="0 0 768 768"><path stroke="#449FDB" d="M0 0"/><path d="M717.846 469c-2.975-5.135-8.373-8.004-13.924-8.004-2.725 0-5.486.692-8.016 2.147l-26.494 15.238 3.68-13.68-.062-.014c.957-3.87.53-8.094-1.627-11.82-2.974-5.134-8.373-8.003-13.922-8.003-2.722 0-5.483.693-8.013 2.148-3.74 2.15-6.226 5.597-7.34 9.425l-.062-.016-11.922 44.325.27.072-39.482 22.965c-4.65-4.003-9.006-7.09-14.95-9.086V475.5l30.805-31.7c3.275-2.93 5.424-7.07 5.424-11.8 0-8.837-7.19-16-16.06-16-4.137 0-7.82 1.665-10.668 4.22l-.23-.227-9.27 9.584V401.02c0-8.84-7.11-17.02-15.98-17.02s-16 7.16-16 16v29.575l-10.31-9.115-.043.043c-2.886-2.762-6.77-4.504-11.09-4.504-8.87 0-16.06 7.16-16.06 16 0 4.3 1.75 8.17 4.525 11.04l-.045.046L544 474.83v40.39c-5.145 1.944-10.947 4.776-15.074 8.264L488.94 500.44l-11.314-42.06c-.906-4.296-3.43-8.224-7.545-10.59-2.526-1.456-5.29-2.147-8.01-2.147-5.55 0-10.95 2.87-13.927 8.004-2.065 3.566-2.46 7.578-1.66 11.313l-.315.084 3.436 12.772-25.507-14.672c-2.53-1.455-5.29-2.147-8.016-2.147-5.55 0-10.95 2.87-13.923 8.004-4.433 7.655-1.803 17.44 5.88 21.858l26.495 15.24-13.735 3.666.016.06c-3.84 1.11-7.3 3.59-9.46 7.314-4.433 7.652-1.8 17.438 5.88 21.855 2.497 1.437 5.22 2.102 7.907 2.102 1.338 0 2.666-.164 3.957-.48l.017.06 44.493-11.876-.073-.27 39.12 22.548c-.546 2.9-.897 5.87-.897 8.926s.352 6.028.898 8.927L473.67 591.4l-43.465-11.604c-1.685-.55-3.45-.842-5.223-.842-2.635 0-5.29.644-7.748 2.06-7.68 4.417-10.314 14.202-5.878 21.856 2.065 3.565 5.355 5.91 9 7.09l-.083.313 14.054 3.752-26.29 15.12c-7.68 4.42-10.312 14.204-5.878 21.858 2.973 5.13 8.372 8.002 13.923 8.002 2.725 0 5.485-.692 8.016-2.147l25.71-14.79-3.347 12.454.058.015c-.956 3.87-.53 8.094 1.628 11.82 2.975 5.132 8.373 8 13.924 8 2.724 0 5.485-.69 8.015-2.145 3.74-2.15 6.227-5.594 7.342-9.424l.057.016.08-.3.002-.01 11.58-43.052 39.777-22.928c4.127 3.49 9.932 6.32 15.077 8.268v40.623l-32.075 30.8c-3.276 2.928-5.427 7.066-5.427 11.798 0 8.837 7.19 16 16.06 16 4.134 0 7.82-1.665 10.667-4.22l.23.228 10.543-9.35v29.347c0 8.836 7.132 16 16 16s15.98-7.164 15.98-16v-30.48l9.036 10.017.043-.045c2.886 2.76 6.77 4.506 11.087 4.506 8.87 0 16.06-7.164 16.06-16 0-4.303-1.746-8.172-4.52-11.047l.043-.044-32.57-32.45.822.196v-39.35c5.986-2.01 10.383-5.123 15.053-9.17l39.242 22.47 11.647 43.304c.91 4.292 3.432 8.218 7.545 10.583 2.528 1.452 5.29 2.146 8.015 2.146 5.55 0 10.947-2.87 13.922-8.002 2.07-3.566 2.46-7.578 1.662-11.313l.315-.084-3.766-14.003 26.29 15.12c2.53 1.454 5.29 2.147 8.015 2.147 5.55 0 10.95-2.87 13.924-8.003 4.434-7.652 1.802-17.438-5.88-21.857l-25.71-14.79 12.5-3.335-.017-.06c3.842-1.11 7.3-3.587 9.46-7.31 4.435-7.656 1.803-17.44-5.88-21.858-2.496-1.438-5.22-2.103-7.906-2.103-1.338 0-2.668.165-3.957.48l-.016-.057-.308.082-43.215 11.533-40.004-22.907c.476-2.713.838-5.47.838-8.32 0-2.894-.36-5.697-.85-8.448l40.22-23.4 42.223 11.27c1.688.55 3.453.843 5.23.843 2.636 0 5.292-.646 7.75-2.06 7.68-4.417 10.314-14.203 5.878-21.854-2.07-3.566-5.356-5.912-9.002-7.09l.085-.314-12.823-3.42 25.507-14.672c7.68-4.418 10.315-14.203 5.88-21.855zM477.26 704h-.655c-4.695 1.492-9.588 2.356-14.54 2.356-4.83 0-9.475-.973-13.98-2.356H64V96h416c35.29 0 64 28.71 64 64v194.894c5.025-1.79 10.365-2.894 16-2.894 5.637 0 10.97 1.145 16 2.977V160c0-53.02-42.98-96-96-96H32v672h482.86c-.086-.242-.27-.43-.352-.674-17.318-2.93-31.5-15.15-37.248-31.326zM160 256h288v32H160v-32zm0 96h288v32H160v-32zm0 128h208.086c-.608-9.377 1.56-18.727 6.382-27.047 1.063-1.834 2.55-3.3 3.828-4.953H160v32z" fill="#595959"/></svg>