<svg xmlns="http://www.w3.org/2000/svg" width="768" height="768" viewBox="0 0 768 768"><path d="M672 382.3V128H160l-32 32h512v205.6c6.5 4.3 12.7 9.2 17.7 15.3 4.8 0 9.6.5 14.3 1.4zM338.7 622.3c1.7-6.2 4-12.1 7-17.6-1.2-10.1-.5-20.4 2.2-30.5 1-3.8 2.5-7.4 4.1-11v-6.3c-1.5-3.6-3.1-7.2-4.1-11-2.7-10.1-3.4-20.4-2.2-30.5-3-5.5-5.4-11.4-7-17.6-5.5-20.7-2.7-42.3 8-60.8 4.8-8.3 11.3-15 18.5-20.9H352v-160h192v66.1c5.2-1.1 10.5-2.1 16-2.1s10.8 1.1 16 2.1V224H96v416h240.2c.2-5.9 1-11.8 2.5-17.7zM320 608H128V448h192v160zm0-192H128V256h192v160zM717.8 469c-3-5.1-8.4-8-13.9-8-2.7 0-5.5.7-8 2.1l-26.5 15.2L673 465l.1-.3h-.1c1-3.9.5-8.1-1.6-11.8-3-5.1-8.4-8-13.9-8-2.7 0-5.5.7-8 2.1-3.7 2.2-6.2 5.6-7.3 9.4h-.1l-11.9 44.3.3.1-39.5 23c-4.6-4-9-7.1-14.9-9.1v-39.2l30.8-31.7c3.3-2.9 5.4-7.1 5.4-11.8 0-8.8-7.2-16-16.1-16-4.1 0-7.8 1.7-10.7 4.2l-.2-.2-9.3 9.6V401c0-8.8-7.1-17-16-17s-16 7.2-16 16v29.6l-10.3-9.1c-2.9-2.8-6.8-4.5-11.1-4.5-8.9 0-16.1 7.2-16.1 16 0 4.3 1.8 8.2 4.5 11l33 31.7v40.4c-5.1 1.9-10.9 4.8-15.1 8.3l-40-23-11.3-42.1c-.9-4.3-3.4-8.2-7.5-10.6-2.5-1.5-5.3-2.1-8-2.1-5.6 0-10.9 2.9-13.9 8-2.1 3.6-2.5 7.6-1.7 11.3l-.3.1 3.4 12.8-25.5-14.7c-2.5-1.5-5.3-2.1-8-2.1-5.6 0-10.9 2.9-13.9 8-4.4 7.7-1.8 17.4 5.9 21.9l26.5 15.2-13.7 3.7v.1c-3.8 1.1-7.3 3.6-9.5 7.3-4.4 7.7-1.8 17.4 5.9 21.9 2.5 1.4 5.2 2.1 7.9 2.1 1.3 0 2.7-.2 4-.5v.1l44.5-11.9-.1-.3 39.1 22.5c-.5 2.9-.9 5.9-.9 8.9s.4 6 .9 8.9l-39 22.5-43.5-11.6c-1.7-.5-3.4-.8-5.2-.8-2.6 0-5.3.6-7.7 2.1-7.7 4.4-10.3 14.2-5.9 21.9 2.1 3.6 5.4 5.9 9 7.1l-.1.3 14.1 3.8-26.4 14.9c-7.7 4.4-10.3 14.2-5.9 21.9 3 5.1 8.4 8 13.9 8 2.7 0 5.5-.7 8-2.1l25.7-14.8-3.3 12.1-.1.3h.1c-1 3.9-.5 8.1 1.6 11.8 3 5.1 8.4 8 13.9 8 2.7 0 5.5-.7 8-2.1 3.7-2.2 6.2-5.6 7.3-9.4h.1l.1-.3 11.6-43.1 39.8-22.9c4.1 3.5 9.9 6.3 15.1 8.3v40.6l-32.1 30.8c-3.3 2.9-5.4 7.1-5.4 11.8 0 8.8 7.2 16 16.1 16 4.1 0 7.8-1.7 10.7-4.2l.2.2 10.5-9.3V720c0 8.8 7.1 16 16 16s16-7.2 16-16v-30.5l9 10c2.9 2.8 6.8 4.5 11.1 4.5 8.9 0 16.1-7.2 16.1-16 0-4.3-1.7-8.2-4.5-11L575 644.6l.8.2v-39.3c6-2 10.4-5.1 15.1-9.2l39.2 22.5 11.6 43.3c.9 4.3 3.4 8.2 7.5 10.6 2.5 1.5 5.3 2.1 8 2.1 5.6 0 10.9-2.9 13.9-8 2.1-3.6 2.5-7.6 1.7-11.3l.3-.1-3.8-14 26.3 15.1c2.5 1.5 5.3 2.1 8 2.1 5.6 0 10.9-2.9 13.9-8 4.4-7.7 1.8-17.4-5.9-21.9l-25.7-14.8 12.5-3.3v-.1c3.8-1.1 7.3-3.6 9.5-7.3 4.4-7.7 1.8-17.4-5.9-21.9-2.5-1.4-5.2-2.1-7.9-2.1-1.3 0-2.7.2-4 .5v-.1l-.3.1-43.2 11.5-40-22.9c.5-2.7.8-5.5.8-8.3 0-2.9-.4-5.7-.9-8.4l40.2-23.4 42.2 11.3c1.7.5 3.5.8 5.2.8 2.6 0 5.3-.6 7.7-2.1 7.7-4.4 10.3-14.2 5.9-21.9-2.1-3.6-5.4-5.9-9-7.1l.1-.3-12.8-3.4 25.5-14.7c8.1-4.4 10.8-14.1 6.3-21.8z" fill="#595959"/></svg>