<svg xmlns="http://www.w3.org/2000/svg" width="768" height="768" viewBox="0 0 768 768"><path stroke="#449FDB" d="M0 0"/><path d="M256 640V512h160v13.936L461.938 480H448V352l160 .033c11.44.043 22.197 4.467 30.345 12.578l1.655 1.66V96H32v576h272.58l9.915-32H256zm192-448h160v128H448V192zm-192 0h160v128H256V192zm0 160h160v128H256V352zm-32 288H64V512h160v128zm0-160H64V352h160v128zm0-160H64V192h160v128zm194.645 386.12c-1.394-5.43-4.205-10.568-8.446-14.807-5.59-5.588-13.017-8.936-20.91-9.428l-14.295-.89-.887-14.29c-.49-7.894-3.84-15.32-9.427-20.906-4.24-4.245-9.38-7.056-14.806-8.45-.865.945-1.61 2.14-2.18 3.603l-26.82 86.572c-2.607 6.808.783 10.197 7.617 7.59l86.546-26.82c1.464-.567 2.658-1.315 3.603-2.178zm242.25-242.213l7.857-7.856c4.33-4.35 4.33-11.423 0-15.753l-53.04-53.06c-2.165-2.154-5.015-3.232-7.868-3.232s-5.71 1.078-7.887 3.232l-7.857 7.88-30.125 30.124 68.794 68.793 30.122-30.125zm-120.77-16.84L372.85 614.342c4.946 2.328 9.585 5.53 13.674 9.62 8.727 8.727 13.433 19.946 14.143 31.367 11.422.706 22.64 5.413 31.37 14.14 4.088 4.092 7.29 8.73 9.617 13.68L608.93 515.87l-68.806-68.805zm90.645 92.22L608 562.055V640h-77.943l-32 32H640V530.056l-9.23 9.23z" fill="#595959"/></svg>