<svg xmlns="http://www.w3.org/2000/svg" width="768" height="768" viewBox="0 0 768 768"><path stroke="#449FDB" d="M0 0"/><path d="M640 96l-32-32H96v64.084c-53 .458-96 43.636-96 96.73 0 32.737 16.787 62.208 42.62 79.835C16.925 322.074 0 351.5 0 384.81c0 32.738 16.787 62.21 42.62 79.836C16.925 482.076 0 511.504 0 544.813 0 590.673 32.593 630.89 77.47 640c5.23 0 11.837 0 18.53 0v64l32 32h480l32-32.01V96zM83.844 288.328C53.797 282.234 32 255.515 32 224.813c0-35.45 28.64-64.273 64-64.73v128c-3.51.032-6.86.644-10.27 1.04-.656-.224-1.188-.654-1.886-.794zm0 160C53.797 442.234 32 415.515 32 384.813c0-35.45 28.64-64.274 64-64.73v128c-3.51.033-6.86.644-10.27 1.04-.656-.224-1.188-.654-1.886-.795zm-.645 159.81c-30.21-3.15-51.2-32.85-51.2-63.325 0-35.45 28.64-64.274 64-64.73v127.973c-4.954.02-9.517.045-12.804.08zM608 672H128V488.103c16.222 8.94 28.44 24.592 32.328 43.615 1.766 8.657 10.297 14.282 18.875 12.47 8.656-1.766 14.234-10.22 12.47-18.876-7-34.186-31.93-61.092-63.673-71.983V328.1c16.222 8.94 28.44 24.592 32.328 43.615 1.766 8.656 10.297 14.28 18.875 12.47 8.656-1.766 14.234-10.22 12.47-18.876-7-34.187-31.93-61.09-63.673-71.984V168.1c16.222 8.94 28.44 24.593 32.328 43.616 1.766 8.656 10.297 14.28 18.875 12.47 8.656-1.767 14.234-10.22 12.47-18.876-7-34.186-31.93-61.092-63.673-71.983v-37.33h480v576z" fill="#595959"/></svg>