<svg xmlns="http://www.w3.org/2000/svg" width="768" height="768" viewBox="0 0 768 768"><path d="M377.053 704H96V96h416c35.29 0 64 28.71 64 64v98.606c11.016 1.756 21.703 4.41 32 7.973V160c0-53.02-42.98-96-96-96H64v672h336.106c-8.732-9.825-16.486-20.51-23.053-32zM545.125 736C472.905 736 416 678.993 416 608.9V415.372C416 362.78 458.688 320 511.188 320 565.313 320 608 362.78 608 415.373V576.34c0 35-28.438 63.49-63.375 63.49-36.187 0-64.625-28.49-64.625-63.49V431.4c0-8.86 7.156-16.027 16-16.027s16 7.17 16 16.028v144.94c0 17.345 14.063 31.432 31.375 31.432 18.563 0 32.625-14.087 32.625-31.43V415.37c0-34.905-28.344-63.315-63.188-63.315-36.47 0-64.813 28.41-64.813 63.316V608.9c0 52.404 42.562 95.043 94.874 95.043 54.563 0 97.125-42.638 97.125-95.044V432c0-8.86 7.156-16.028 16-16.028s16 7.17 16 16.028v176.9C672 678.99 615.092 736 545.123 736z" fill="#595959"/></svg>