<svg xmlns="http://www.w3.org/2000/svg" width="768" height="768" viewBox="0 0 768 768"><path stroke="#449FDB" d="M0 0"/><path d="M427.37 735.635l-15.43-11.383c-18.406-13.58-34.62-29.795-48.19-48.195L360.755 672H128V488.103c16.222 8.94 28.44 24.592 32.328 43.615 1.766 8.656 10.297 14.28 18.875 12.47 8.656-1.767 14.234-10.22 12.47-18.876-7-34.186-31.93-61.092-63.673-71.983V328.1c16.222 8.94 28.44 24.592 32.328 43.615 1.766 8.656 10.297 14.28 18.875 12.47 8.656-1.766 14.234-10.22 12.47-18.876-7-34.187-31.93-61.09-63.673-71.984V168.1c16.222 8.94 28.44 24.593 32.328 43.616 1.766 8.656 10.297 14.28 18.875 12.47 8.656-1.767 14.234-10.22 12.47-18.876-7-34.186-31.93-61.092-63.673-71.983v-37.33h480v261.016l6.2 17.44 25.8-12.276V95.997l-32-32H96v64.084c-53 .46-96 43.64-96 96.73 0 32.74 16.787 62.21 42.62 79.838C16.925 322.074 0 351.502 0 384.81c0 32.738 16.787 62.21 42.62 79.836C16.925 482.074 0 511.502 0 544.81c0 45.86 32.593 86.078 77.47 95.188 5.23 0 11.837 0 18.53 0v64l32 32 299.37-.365zM96 608.055c-4.95.02-9.514.046-12.8.08C52.99 604.99 32 575.288 32 544.813c0-35.45 28.64-64.274 64-64.73v127.974zm0-159.97c-3.51.03-6.86.642-10.27 1.038-.656-.225-1.188-.655-1.886-.795C53.797 442.234 32 415.515 32 384.813c0-35.45 28.64-64.274 64-64.73v128zm0-160c-3.51.03-6.86.642-10.27 1.04-.656-.226-1.188-.656-1.886-.796C53.797 282.232 32 255.513 32 224.81c0-35.45 28.64-64.274 64-64.73v128zm582.998 207.35c-1.553-4.34-3.187-8.57-5.14-12.693l24.642-51.83c-11.68-15.828-25.608-29.784-41.44-41.41l-51.802 24.644c-4.152-1.956-8.383-3.59-12.75-5.17l-19.204-54.03C563.687 353.474 554.016 352 544 352s-19.687 1.473-29.305 2.947l-19.205 54.028c-4.366 1.58-8.596 3.214-12.75 5.17l-51.803-24.642c-15.83 11.625-29.758 25.58-41.438 41.41l24.64 51.83c-1.956 4.123-3.59 8.353-5.143 12.69l-54.054 19.206C353.448 524.28 352 533.952 352 544c0 10.018 1.448 19.687 2.948 29.332L409 592.51c1.554 4.368 3.188 8.6 5.144 12.75L389.5 657.065c11.68 15.83 25.61 29.76 41.44 41.44l51.803-24.644c4.154 1.957 8.383 3.59 12.75 5.14l19.204 54.058C524.314 734.553 533.985 736 544 736s19.688-1.448 29.306-2.946L592.51 679c4.368-1.552 8.598-3.188 12.75-5.142l51.803 24.643c15.83-11.675 29.758-25.605 41.44-41.436L673.86 605.26c1.953-4.15 3.586-8.382 5.14-12.75l54.054-19.18C734.552 563.69 736 554.02 736 544c0-10.043-1.45-19.715-2.947-29.36l-54.055-19.205zM544 608c-35.38 0-64-28.666-64-64s28.62-64 64-64 64 28.666 64 64-28.618 64-64 64z" fill="#595959"/></svg>