<svg xmlns="http://www.w3.org/2000/svg" width="768" height="768" viewBox="0 0 768 768"><path stroke="#449FDB" d="M0 0"/><path d="M256 192h160v128h32V192h160v128h32V96H32v576h192v-32H64V512h160v-32H64V352h160v-32H64V192h160v128h32zm125.463 438.422l.402-1.04c.625-1.61 1.856-2.792 2.644-4.294l-2.49-1.172 9.107-9.11 12.08-13.242.924.24L621.957 384H256v288h112.58l12.882-41.577zM717.397 516.66L562.057 672H736V498.057l-4.19 4.19zM482.644 706.12c-1.394-5.43-4.205-10.568-8.446-14.807-5.588-5.588-13.014-8.936-20.91-9.428l-14.292-.89-.887-14.29c-.49-7.894-3.84-15.32-9.428-20.906-4.242-4.244-9.38-7.055-14.806-8.45-.865.946-1.61 2.142-2.18 3.604l-26.82 86.572c-2.606 6.808.784 10.197 7.618 7.59l86.545-26.82c1.464-.567 2.66-1.315 3.603-2.178zm250.108-265.825l-53.04-53.06c-2.165-2.154-5.015-3.232-7.868-3.232s-5.71 1.078-7.887 3.232l-7.857 7.88-30.125 30.124 68.794 68.79 37.98-37.98c4.33-4.354 4.33-11.426 0-15.756zM436.85 614.34c4.947 2.33 9.586 5.53 13.675 9.62 8.727 8.728 13.433 19.947 14.143 31.368 11.422.71 22.64 5.416 31.37 14.143 4.088 4.094 7.29 8.73 9.617 13.68L672.93 515.87l-68.804-68.804L436.85 614.34z" fill="#595959"/></svg>