<?xml version="1.0" encoding="utf-8"?>
<!-- Generator: Adobe Illustrator 16.2.1, SVG Export Plug-In . SVG Version: 6.00 Build 0)  -->
<!DOCTYPE svg PUBLIC "-//W3C//DTD SVG 1.1//EN" "http://www.w3.org/Graphics/SVG/1.1/DTD/svg11.dtd">
<svg version="1.1" id="Layer_1" xmlns="http://www.w3.org/2000/svg" xmlns:xlink="http://www.w3.org/1999/xlink" x="0px" y="0px"
	 width="192px" height="192px" viewBox="160 160 192 192" enable-background="new 160 160 192 192" xml:space="preserve">
<path opacity="0.25" fill="#595959" d="M352,256c0,53.02-42.98,96-96,96s-96-42.98-96-96s42.98-96,96-96S352,202.98,352,256z
	 M256,180c-41.974,0-76,34.026-76,76s34.026,76,76,76s76-34.026,76-76S297.974,180,256,180z"/>
<g>
	<path fill="#595959" d="M256,180c41.974,0,76,34.026,76,76h20c0-53.02-42.98-96-96-96s-96,42.98-96,96h20
		C180,214.026,214.026,180,256,180z"/>
	<path opacity="0" fill="#595959" d="M256,332c-41.974,0-76-34.026-76-76h-20c0,53.02,42.98,96,96,96s96-42.98,96-96h-20
		C332,297.974,297.974,332,256,332z"/>
</g>
</svg>
