<?xml version="1.0" encoding="utf-8"?>
<!-- Generator: Adobe Illustrator 17.1.0, SVG Export Plug-In . SVG Version: 6.00 Build 0)  -->
<!DOCTYPE svg PUBLIC "-//W3C//DTD SVG 1.1//EN" "http://www.w3.org/Graphics/SVG/1.1/DTD/svg11.dtd">
<svg version="1.1" id="Layer_1" xmlns="http://www.w3.org/2000/svg" xmlns:xlink="http://www.w3.org/1999/xlink" x="0px" y="0px"
	 width="90px" height="30px" viewBox="0 0 90 30" enable-background="new 0 0 90 30" xml:space="preserve">
<g>
	<path fill="#FFFFFF" d="M22.954102,9.415527l-3.185547,11.060547h-1.520508l-2.656738-8.931641l-2.641113,8.931641h-1.520996
		L8.244141,9.415527h1.632812l2.384766,8.70752l2.544922-8.70752h1.584961l2.544922,8.70752l2.384766-8.70752H22.954102z"/>
	<path fill="#FFFFFF" d="M29.670898,17.018555H23.8125c0.080078,1.504395,1.040527,2.416992,2.449219,2.416992
		c1.424316,0,2.336914-0.768066,2.513184-0.880371l0.640137,0.880371c-0.096191,0.080078-1.072754,1.200684-3.345215,1.200684
		c-2.257324,0-3.80957-1.568848-3.80957-3.98584c0-2.400879,1.744629-3.9375,3.857422-3.9375s3.601562,1.504395,3.601562,3.633301
		C29.719238,16.634277,29.670898,17.018555,29.670898,17.018555z M28.262695,15.994141
		c-0.016113-0.848145-0.656738-2.176758-2.192871-2.176758c-1.520996,0-2.193359,1.26416-2.241211,2.176758H28.262695z"/>
	<path fill="#FFFFFF" d="M35.269531,20.63623c-1.104492,0-2.048828-0.448242-2.672852-1.376953h-0.032227v1.200684h-1.472656
		V9.415527h1.520996v4.625977h0.031738c0.576172-0.816406,1.456543-1.328613,2.657227-1.328613
		c2.225098,0,3.665527,1.696777,3.665527,3.9375C38.967285,18.907227,37.526855,20.63623,35.269531,20.63623z M34.981445,13.961426
		c-1.520508,0-2.432617,1.152344-2.432617,2.672852s0.912109,2.689453,2.432617,2.689453
		c1.520996,0,2.416992-1.168945,2.416992-2.689453S36.502441,13.961426,34.981445,13.961426z"/>
	<path fill="#FFFFFF" d="M46.694824,10.711914h-4.578125v3.681641h4.305664v1.296387h-4.305664v4.77002h-1.552734V9.415527h6.130859
		V10.711914z"/>
	<path fill="#FFFFFF" d="M48.799316,11.304199c-0.592285,0-1.008301-0.399902-1.008301-0.944336
		s0.416016-0.944336,1.008301-0.944336c0.576172,0,0.992676,0.399902,0.992676,0.944336S49.375488,11.304199,48.799316,11.304199z
		 M49.567871,20.459961H48.03125v-7.603027h1.536621V20.459961z"/>
	<path fill="#FFFFFF" d="M52.991699,20.459961h-1.520996V9.415527h1.520996V20.459961z"/>
	<path fill="#FFFFFF" d="M55.670898,11.304199c-0.592285,0-1.008301-0.399902-1.008301-0.944336
		s0.416016-0.944336,1.008301-0.944336c0.576172,0,0.992676,0.399902,0.992676,0.944336S56.24707,11.304199,55.670898,11.304199z
		 M56.439453,20.459961h-1.536621v-7.603027h1.536621V20.459961z"/>
	<path fill="#FFFFFF" d="M64.922852,20.459961H63.38623v-4.241699c0-1.280762-0.224121-2.240723-1.584473-2.240723
		c-1.424805,0-1.952637,1.200195-1.952637,2.656738v3.825684H58.3125v-7.603027h1.536621l-0.016113,1.200195h0.047852
		c0.400391-0.751953,1.216309-1.344238,2.320801-1.344238c2.161133,0,2.721191,1.424316,2.721191,3.249023V20.459961z"/>
	<path fill="#FFFFFF" d="M73.770996,18.859375c0,1.680664-0.271973,2.608887-0.83252,3.28125
		c-0.560059,0.688477-1.504395,1.456543-3.393066,1.456543c-1.873047,0-3.169434-0.976562-3.393555-1.13623l0.720215-1.072754
		c0.400391,0.352539,1.584961,0.960449,2.721191,0.960449c1.136719,0,1.776855-0.448242,2.081055-0.832031
		c0.303711-0.368164,0.576172-1.088867,0.576172-2.128906v-0.384277h-0.032227
		c-0.512207,0.768066-1.376465,1.360352-2.657227,1.360352c-1.952637,0-3.665039-1.408203-3.665039-3.825195
		s1.712402-3.825684,3.665039-3.825684c1.328613,0,2.208984,0.640137,2.657227,1.344238h0.047852l-0.015625-1.200195h1.520508
		V18.859375z M69.881348,13.945312c-1.552734,0-2.416992,1.152344-2.416992,2.593262c0,1.44043,0.864258,2.57666,2.416992,2.57666
		c1.568848,0,2.416992-1.13623,2.416992-2.57666C72.29834,15.097656,71.450195,13.945312,69.881348,13.945312z"/>
	<path fill="#FFFFFF" d="M79.971191,19.963867c-0.52832,0.432129-1.232422,0.672363-2.112793,0.672363
		c-1.280273,0-2.320801-0.52832-2.960938-1.36084l0.736328-0.896484c0.576172,0.70459,1.536621,1.088867,2.240723,1.088867
		s1.456543-0.256348,1.456543-1.088867c0-0.832031-1.200684-1.088379-1.712891-1.26416
		c-0.512207-0.17627-0.687988-0.208008-1.040039-0.400391c-0.480469-0.240234-1.200684-0.736328-1.200684-1.824707
		c0-1.408691,1.216309-2.176758,2.561035-2.176758s2.112793,0.47998,2.593262,0.992188l-0.640625,0.944336
		c-0.448242-0.463867-1.184082-0.815918-1.92041-0.815918s-1.216797,0.319824-1.216797,0.944336
		c0,0.624023,0.736328,0.895996,1.48877,1.13623c0.416016,0.144043,0.704102,0.240234,1.024414,0.368164
		c0.304199,0.12793,0.65625,0.320312,0.880371,0.544434c0.288086,0.271973,0.608398,0.720215,0.608398,1.408203
		C80.755859,18.971191,80.467285,19.547363,79.971191,19.963867z"/>
</g>
</svg>
