<?xml version="1.0" encoding="utf-8"?>
<!-- Generator: Adobe Illustrator 17.1.0, SVG Export Plug-In . SVG Version: 6.00 Build 0)  -->
<!DOCTYPE svg PUBLIC "-//W3C//DTD SVG 1.1//EN" "http://www.w3.org/Graphics/SVG/1.1/DTD/svg11.dtd">
<svg version="1.1" id="Layer_1" xmlns="http://www.w3.org/2000/svg" xmlns:xlink="http://www.w3.org/1999/xlink" x="0px" y="0px"
	 width="220px" height="50px" viewBox="0 0 220 50" enable-background="new 0 0 220 50" xml:space="preserve">
<g>
	<path fill="#FFFFFF" d="M45.2,7.5l-8.7,30.3h-4.2l-7.3-24.5l-7.2,24.5h-4.2L5,7.5h4.5L16,31.4l7-23.8h4.3l7,23.8l6.5-23.8H45.2z"/>
	<path fill="#FFFFFF" d="M65.1,28.4H49c0.2,4.1,2.8,6.6,6.7,6.6c3.9,0,6.4-2.1,6.9-2.4l1.8,2.4c-0.3,0.2-2.9,3.3-9.2,3.3
		c-6.2,0-10.4-4.3-10.4-10.9c0-6.6,4.8-10.8,10.6-10.8s9.9,4.1,9.9,9.9C65.2,27.3,65.1,28.4,65.1,28.4z M61.2,25.6c0-2.3-1.8-6-6-6
		c-4.2,0-6,3.5-6.1,6H61.2z"/>
	<path fill="#FFFFFF" d="M81,38.3c-3,0-5.6-1.2-7.3-3.8h-0.1v3.3h-4V7.5h4.2v12.7h0.1c1.6-2.2,4-3.6,7.3-3.6c6.1,0,10,4.6,10,10.8
		C91.1,33.5,87.2,38.3,81,38.3z M80.2,20c-4.2,0-6.7,3.2-6.7,7.3s2.5,7.4,6.7,7.4c4.2,0,6.6-3.2,6.6-7.4S84.4,20,80.2,20z"/>
	<path fill="#FFFFFF" d="M112.7,11.1h-12.5v10.1H112v3.5h-11.8v13.1h-4.3V7.5h16.8V11.1z"/>
	<path fill="#FFFFFF" d="M119.4,12.7c-1.6,0-2.8-1.1-2.8-2.6c0-1.5,1.1-2.6,2.8-2.6c1.6,0,2.7,1.1,2.7,2.6
		C122.2,11.6,121,12.7,119.4,12.7z M121.5,37.8h-4.2V17h4.2V37.8z"/>
	<path fill="#FFFFFF" d="M131.9,37.8h-4.2V7.5h4.2V37.8z"/>
	<path fill="#FFFFFF" d="M140.2,12.7c-1.6,0-2.8-1.1-2.8-2.6c0-1.5,1.1-2.6,2.8-2.6c1.6,0,2.7,1.1,2.7,2.6
		C142.9,11.6,141.7,12.7,140.2,12.7z M142.3,37.8h-4.2V17h4.2V37.8z"/>
	<path fill="#FFFFFF" d="M166.3,37.8h-4.2V26.2c0-3.5-0.6-6.1-4.3-6.1c-3.9,0-5.3,3.3-5.3,7.3v10.5h-4.2V17h4.2l0,3.3h0.1
		c1.1-2.1,3.3-3.7,6.4-3.7c5.9,0,7.5,3.9,7.5,8.9V37.8z"/>
	<path fill="#FFFFFF" d="M192.1,33.4c0,4.6-0.7,7.1-2.3,9c-1.5,1.9-4.1,4-9.3,4c-5.1,0-8.7-2.7-9.3-3.1l2-2.9c1.1,1,4.3,2.6,7.5,2.6
		s4.9-1.2,5.7-2.3c0.8-1,1.6-3,1.6-5.8v-1.1h-0.1c-1.4,2.1-3.8,3.7-7.3,3.7c-5.3,0-10-3.9-10-10.5c0-6.6,4.7-10.5,10-10.5
		c3.6,0,6,1.8,7.3,3.7h0.1l0-3.3h4.2V33.4z M181.5,20c-4.3,0-6.6,3.2-6.6,7.1c0,3.9,2.4,7.1,6.6,7.1c4.3,0,6.6-3.1,6.6-7.1
		C188.1,23.1,185.7,20,181.5,20z"/>
	<path fill="#FFFFFF" d="M209.8,36.4c-1.4,1.2-3.4,1.8-5.8,1.8c-3.5,0-6.4-1.4-8.1-3.7l2-2.5c1.6,1.9,4.2,3,6.1,3c1.9,0,4-0.7,4-3
		c0-2.3-3.3-3-4.7-3.5s-1.9-0.6-2.8-1.1c-1.3-0.7-3.3-2-3.3-5c0-3.9,3.3-6,7-6c3.7,0,5.8,1.3,7.1,2.7l-1.8,2.6
		c-1.2-1.3-3.2-2.2-5.3-2.2c-2,0-3.3,0.9-3.3,2.6c0,1.7,2,2.5,4.1,3.1c1.1,0.4,1.9,0.7,2.8,1c0.8,0.4,1.8,0.9,2.4,1.5
		c0.8,0.7,1.7,2,1.7,3.9C212,33.7,211.2,35.3,209.8,36.4z"/>
</g>
</svg>
