<svg xmlns="http://www.w3.org/2000/svg" width="512" height="512" viewBox="0 0 512 512"><path stroke="#449FDB" d="M0 0"/><path d="M194.29 288h-49.618v32h39.817c5.642-9.47 9.136-20.36 9.8-32zm-33.203-64h-16.415v32h43.972c-5.733-13.26-15.416-24.42-27.557-32zm-32.415-4.642c-3.11-.453-6.28-.703-9.5-.703-34.703 0-63.172 27.22-65.172 61.422v7.734c.375 6.415 1.68 12.58 3.783 18.37.35.965.723 1.92 1.117 2.86.788 1.888 1.663 3.73 2.618 5.52 10.988 20.606 32.71 34.66 57.653 34.66 3.22 0 6.393-.237 9.5-.705V219.358z" fill="#595959"/></svg>