<svg xmlns="http://www.w3.org/2000/svg" width="768" height="768" viewBox="0 0 768 768"><path stroke="#449FDB" d="M0 0"/><path d="M366.077 736h1.078l-.242-.515c-.293.154-.54.367-.836.515zm-11.433-29.88c-1.394-5.43-4.205-10.568-8.446-14.807-5.587-5.588-13.014-8.936-20.91-9.428l-14.292-.89-.887-14.29c-.49-7.894-3.84-15.32-9.428-20.906-4.242-4.244-9.38-7.055-14.806-8.45-.865.946-1.61 2.142-2.18 3.604l-26.82 86.572c-2.607 6.81.784 10.198 7.618 7.592l86.545-26.823c1.464-.566 2.657-1.314 3.603-2.177zm242.25-242.213l7.857-7.856c4.33-4.352 4.33-11.424 0-15.754l-53.037-53.06c-2.166-2.154-5.016-3.232-7.87-3.232s-5.71 1.078-7.886 3.232l-7.857 7.88-30.126 30.124 68.795 68.792 30.123-30.125zm-120.77-16.84L308.85 614.342c4.947 2.328 9.586 5.53 13.675 9.62 8.727 8.727 13.433 19.946 14.143 31.367 11.422.707 22.64 5.414 31.37 14.14 4.088 4.093 7.29 8.73 9.617 13.68L544.93 515.87l-68.804-68.805z" fill="#595959"/></svg>