<svg xmlns="http://www.w3.org/2000/svg" width="512" height="512" viewBox="0 0 512 512"><path d="M257.125 480C184.905 480 128 422.993 128 352.9V127.372C128 74.78 170.688 32 223.188 32 277.313 32 320 74.78 320 127.373V320.34c0 35-28.437 63.49-63.374 63.49-36.188 0-64.625-28.49-64.625-63.49V143.4c0-8.858 7.158-16.028 16-16.028s16 7.17 16 16.03v176.94c0 17.343 14.065 31.43 31.377 31.43 18.563 0 32.625-14.087 32.625-31.43V127.37c0-34.905-28.343-63.315-63.187-63.315-36.47 0-64.813 28.41-64.813 63.316V352.9c0 52.405 42.563 95.043 94.875 95.043 54.563 0 97.125-42.64 97.125-95.044V144c0-8.86 7.156-16.03 16-16.03s16 7.17 16 16.03v208.9c0 70.093-56.906 127.1-126.875 127.1z" fill="#595959"/></svg>