<svg xmlns="http://www.w3.org/2000/svg" width="512" height="512" viewBox="0 0 512 512"><path stroke="#449FDB" d="M0 0"/><path d="M128 384h224v32H128v-32zm0-64h224v32H128v-32zm0-64h224v32H128v-32zM368 96h-49.5c-7.414-36.516-39.797-64-78.5-64s-70.987 27.484-78.4 64H112c-26.51 0-48 21.49-48 48v320c0 26.51 21.49 48 48 48h256c26.51 0 48-21.49 48-48V144c0-26.51-21.49-48-48-48zm16 368c0 8.822-7.178 16-16 16H112c-8.823 0-16-7.178-16-16V192h288v272zm0-304H96v-16c0-8.857 7.142-16 16-16h96.75c-5.205-6.752-8.75-14.817-8.75-24 0-22.092 17.908-40 40-40s40 17.908 40 40c0 9.183-3.545 17.248-8.75 24H368c8.822 0 16 7.178 16 16v16z" fill="#595959"/></svg>