<svg xmlns="http://www.w3.org/2000/svg" width="512" height="512" viewBox="0 0 512 512"><path stroke="#449FDB" d="M0 0"/><path d="M445.502 180.03C443.882 115.68 391.272 64 326.572 64c-37.897 0-71.634 17.747-93.428 45.366-12.22-15.8-31.345-25.98-52.854-25.98-36.905 0-66.82 29.937-66.82 66.86 0 3.22.24 6.38.68 9.478-5.61-1.012-11.382-1.57-17.284-1.57C43.366 158.154 0 201.55 0 255.077 0 308.607 43.367 352 96.865 352h49.88L256 461.255 365.255 352l59.74-.006c48.07-.092 87.005-39.106 87.005-87.223 0-41.042-28.34-75.45-66.498-84.74zM256 416l-96-96h64v-96h64v96h64l-96 96z" fill="#595959"/></svg>