<svg xmlns="http://www.w3.org/2000/svg" width="512" height="512" viewBox="0 0 512 512"><path d="M255.97 175c-44.704 0-80.97 36.266-80.97 81 0 44.688 36.266 81.03 80.97 81.03 44.718 0 80.718-36.343 80.718-81.03 0-44.734-36-81-80.72-81zm162.343 127.53l-14.594 35.157 29.467 57.875-36.094 36.094-59.218-27.97-35.156 14.44-17.845 54.624-2.28 7.25h-51.017l-22.08-61.656-35.155-14.5-57.952 29.344-36.077-36.063 27.938-59.25-14.48-35.125L32 282.594V231.61l61.703-22.11 14.485-35.093-25.953-51.234-3.422-6.72 36.03-36.03 59.298 27.922 35.11-14.516 17.828-54.596 2.3-7.234h51l22.093 61.735 35.065 14.516 58.03-29.404 36.064 36.03-27.94 59.204 14.44 35.17 61.874 20.126v50.97l-61.688 22.186z" fill="#595959"/></svg>