<svg xmlns="http://www.w3.org/2000/svg" width="640" height="512" viewBox="0 0 640 512"><path stroke="#449FDB" d="M0 0"/><path d="M320 288c52.935 0 100.935 21.533 135.7 56.3l-45.233 45.233C387.29 366.355 355.29 352 320 352s-67.29 14.355-90.467 37.533L184.3 344.3C219.064 309.532 267.064 288 320 288zM93.726 253.726C154.166 193.286 234.526 160 320 160s165.834 33.286 226.275 93.726L501.02 298.98C452.667 250.628 388.38 224 320 224c-68.38 0-132.667 26.628-181.02 74.98l-45.254-45.254zM494.392 67.22c53.35 22.565 101.258 54.863 142.39 95.997L591.53 208.47C519 135.944 422.57 96 320 96c-102.57 0-199 39.943-271.53 112.47L3.217 163.217c41.134-41.133 89.04-73.43 142.392-95.997C200.86 43.85 259.533 32 320 32s119.14 11.85 174.392 35.22zM288 448c0-17.673 14.327-32 32-32s32 14.327 32 32c0 17.673-14.327 32-32 32s-32-14.327-32-32z" fill="#595959"/></svg>