<svg xmlns="http://www.w3.org/2000/svg" width="512" height="512" viewBox="0 0 512 512"><path d="M96 288l160 96-160 96zM320.55 106.656c.354-7.466 1.26-14.736 2.715-21.854 1.435-7.118 3.51-13.868 6.224-20.27s6.42-12.002 11.122-16.797c4.7-4.796 10.615-8.616 17.765-11.48C365.505 33.412 374.047 32 384 32c9.93 0 18.493 1.41 25.62 4.255 7.152 2.864 13.066 6.684 17.766 11.48s8.41 10.395 11.123 16.797 4.788 13.15 6.244 20.27c1.435 7.118 2.34 14.39 2.692 21.854.375 7.487.55 14.67.55 21.615 0 6.924-.175 14.13-.55 21.595-.353 7.465-1.258 14.757-2.692 21.876-1.457 7.097-3.53 13.826-6.245 20.12-2.715 6.315-6.423 11.87-11.124 16.666-4.7 4.818-10.57 8.594-17.633 11.35-7.04 2.757-15.625 4.125-25.755 4.125-9.953 0-18.494-1.366-25.622-4.123-7.15-2.756-13.065-6.532-17.765-11.35-4.7-4.797-8.408-10.353-11.122-16.668-2.714-6.294-4.79-13.023-6.224-20.12-1.457-7.118-2.36-14.41-2.714-21.875-.375-7.465-.55-14.67-.55-21.594 0-6.944.175-14.127.55-21.614zm24.542 45.206c.442 8.81 1.898 17.08 4.325 24.805 2.45 7.726 6.378 14.258 11.807 19.597s13.02 8.008 22.775 8.008 17.345-2.67 22.774-8.008c5.43-5.34 9.357-11.87 11.807-19.597 2.43-7.726 3.885-15.994 4.326-24.805.464-8.79.684-16.754.684-23.873 0-4.602-.044-9.723-.132-15.323s-.55-11.198-1.346-16.797c-.817-5.6-2.01-11.068-3.53-16.407-1.546-5.34-3.797-10.005-6.776-13.998-3.002-3.993-6.753-7.248-11.255-9.745-4.523-2.474-10.04-3.733-16.55-3.733s-12.027 1.258-16.55 3.733c-4.503 2.496-8.255 5.75-11.234 9.745-3.002 3.993-5.252 8.66-6.797 13.998-1.524 5.34-2.715 10.808-3.51 16.407-.817 5.6-1.28 11.198-1.368 16.797s-.132 10.72-.132 15.322c0 7.118.22 15.082.684 23.872zM160.552 106.656c.353-7.466 1.258-14.736 2.714-21.854 1.435-7.118 3.51-13.868 6.224-20.27s6.422-12.002 11.123-16.797c4.7-4.796 10.615-8.616 17.766-11.48C205.507 33.412 214.047 32 224 32c9.932 0 18.495 1.41 25.623 4.255 7.15 2.864 13.065 6.684 17.765 11.48s8.41 10.395 11.123 16.797 4.79 13.15 6.246 20.27c1.435 7.118 2.34 14.39 2.692 21.854.375 7.487.55 14.67.55 21.615 0 6.924-.175 14.13-.55 21.595-.353 7.465-1.258 14.757-2.692 21.876-1.457 7.097-3.53 13.826-6.245 20.12-2.713 6.315-6.42 11.87-11.122 16.666-4.7 4.818-10.57 8.594-17.633 11.35-7.04 2.757-15.625 4.125-25.755 4.125-9.953 0-18.494-1.366-25.622-4.123-7.15-2.756-13.065-6.532-17.766-11.35-4.7-4.797-8.41-10.353-11.123-16.668-2.715-6.294-4.79-13.023-6.225-20.12-1.457-7.118-2.362-14.41-2.714-21.875-.374-7.465-.55-14.67-.55-21.594 0-6.944.176-14.127.55-21.614zm24.54 45.206c.442 8.81 1.9 17.08 4.327 24.805 2.45 7.726 6.377 14.258 11.806 19.597s13.02 8.008 22.775 8.008 17.347-2.67 22.776-8.008c5.43-5.34 9.357-11.87 11.807-19.597 2.428-7.726 3.884-15.994 4.325-24.805.464-8.79.684-16.754.684-23.873 0-4.602-.044-9.723-.132-15.323s-.55-11.198-1.346-16.797c-.817-5.6-2.01-11.068-3.53-16.407-1.546-5.34-3.797-10.005-6.776-13.998-3-3.993-6.753-7.248-11.255-9.745-4.524-2.474-10.042-3.733-16.552-3.733s-12.027 1.258-16.55 3.733c-4.503 2.496-8.255 5.75-11.234 9.745-3 3.993-5.252 8.66-6.797 13.998-1.524 5.34-2.715 10.808-3.51 16.407-.816 5.6-1.28 11.198-1.37 16.797s-.13 10.72-.13 15.322c0 7.118.22 15.082.683 23.872zM128 208c0 8.837-7.163 16-16 16s-16-7.163-16-16 7.163-16 16-16 16 7.163 16 16zM320.55 362.656c.354-7.466 1.26-14.736 2.715-21.854 1.435-7.118 3.51-13.868 6.224-20.27s6.42-12.002 11.122-16.798c4.7-4.796 10.615-8.616 17.765-11.48C365.505 289.41 374.047 288 384 288c9.93 0 18.493 1.41 25.62 4.253 7.152 2.865 13.066 6.685 17.766 11.48s8.41 10.397 11.123 16.8 4.788 13.15 6.244 20.27c1.435 7.117 2.34 14.388 2.692 21.853.375 7.488.55 14.67.55 21.615 0 6.924-.175 14.13-.55 21.595-.353 7.466-1.258 14.757-2.692 21.876-1.457 7.097-3.53 13.826-6.245 20.12-2.715 6.314-6.423 11.87-11.124 16.667-4.7 4.818-10.57 8.594-17.633 11.35-7.04 2.757-15.625 4.124-25.755 4.124-9.953 0-18.494-1.366-25.622-4.122-7.15-2.756-13.065-6.533-17.765-11.35-4.7-4.797-8.408-10.353-11.122-16.67-2.714-6.292-4.79-13.02-6.224-20.117-1.457-7.117-2.36-14.41-2.714-21.875-.375-7.466-.55-14.67-.55-21.594 0-6.944.175-14.127.55-21.614zm24.542 45.205c.442 8.812 1.898 17.08 4.325 24.806 2.45 7.726 6.378 14.26 11.807 19.597s13.02 8.008 22.775 8.008 17.345-2.67 22.774-8.007c5.43-5.34 9.357-11.87 11.807-19.597 2.43-7.726 3.885-15.995 4.326-24.805.464-8.788.684-16.753.684-23.872 0-4.6-.044-9.723-.132-15.322s-.55-11.2-1.346-16.798c-.817-5.6-2.01-11.068-3.53-16.407-1.546-5.338-3.797-10.004-6.776-13.997-3.002-3.993-6.753-7.248-11.255-9.745-4.523-2.474-10.04-3.733-16.55-3.733s-12.027 1.26-16.55 3.733c-4.503 2.496-8.255 5.75-11.234 9.745-3.002 3.993-5.252 8.66-6.797 13.998-1.524 5.34-2.715 10.81-3.51 16.408-.817 5.6-1.28 11.2-1.368 16.798s-.132 10.72-.132 15.322c0 7.118.22 15.083.684 23.873zM288 464c0 8.837-7.163 16-16 16s-16-7.163-16-16 7.163-16 16-16 16 7.163 16 16z" fill="#595959"/></svg>