<svg xmlns="http://www.w3.org/2000/svg" width="512" height="512" viewBox="0 0 512 512"><path stroke="#449FDB" d="M0 0"/><path d="M192 96h288v32H192V96zM320 256h160v32H320v-32zM288 416c0 35.346-28.654 64-64 64s-64-28.654-64-64c0-35.346 28.654-64 64-64s64 28.654 64 64zM320 384h160v32H320v-32zM224 192c-35.346 0-64 28.653-64 64H96v-96c35.346 0 64-28.654 64-64 0-35.347-28.654-64-64-64S32 60.653 32 96c0 23.63 12.95 44.037 32 55.123V288h104.877c11.086 19.05 31.494 32 55.123 32 35.346 0 64-28.654 64-64 0-35.347-28.654-64-64-64z" visibility="false" fill="#595959"/></svg>