<svg xmlns="http://www.w3.org/2000/svg" width="512" height="512" viewBox="0 0 512 512"><path d="M181.333 256C222.505 256 256 289.495 256 330.666s-33.495 74.666-74.666 74.666H55.986c14.607-28.5 36.58-70.145 52.63-95.137 30.48-47.45 42.89-54.196 72.718-54.196zm0-21.333c-41.953 0-59.918 16.13-90.666 64-27.03 42.084-69.334 128-69.334 128s128 0 160 0c53.02 0 96-42.98 96-96s-42.98-96-96-96zM336.588 227.755l136.45-121.308c21.914-17.673 23.664-50.447 3.757-70.355l-.887-.888C456 15.297 423.226 17.047 405.553 38.962l-121.308 136.45 52.342 52.343zM270.046 191.383l-28.398 31.942 47.026 47.026 31.942-28.397zM21.334 448h469.334v42.666H21.334V448z" fill="#595959"/></svg>