<svg xmlns="http://www.w3.org/2000/svg" width="512" height="512" viewBox="0 0 512 512"><path stroke="#449FDB" d="M0 0"/><path d="M419.66 148.208C458.484 175.723 490.347 212.754 512 256c-47.56 94.98-144.343 160-256 160-31.283 0-61.396-5.106-89.59-14.542l38.98-38.978c16.528 3.65 33.485 5.52 50.61 5.52 44.78 0 88.427-12.743 126.223-36.852 30.08-19.188 55.572-44.888 74.718-75.15-18.523-29.282-43.004-54.274-71.822-73.246l34.545-34.544zM256 349c-11.362 0-22.376-1.488-32.864-4.267L379.73 188.14c2.78 10.488 4.27 21.5 4.27 32.86 0 70.692-57.308 128-128 128zM480 0h-26.87L343.326 109.806C315.786 100.844 286.448 96 256 96 144.34 96 47.56 161.02 0 256c21.33 42.596 52.564 79.154 90.597 106.534L0 453.13V480h26.87L480 26.87V0zM208 157c24.022 0 43.923 17.647 47.446 40.685l-54.762 54.762C177.647 248.923 160 229.022 160 205c0-26.51 21.49-48 48-48zM55.058 256c19.146-30.262 44.637-55.962 74.717-75.148 1.96-1.25 3.938-2.46 5.93-3.65C130.725 190.866 128 205.612 128 221c0 29.262 9.825 56.224 26.35 77.78l-29.276 29.276C97.038 309.236 73.197 284.67 55.058 256z" fill="#595959"/></svg>