<svg xmlns="http://www.w3.org/2000/svg" width="512" height="512" viewBox="0 0 512 512"><path stroke="#449FDB" d="M0 0"/><path d="M256 8C119.033 8 8 119.033 8 256s111.033 248 248 248 248-111.033 248-248S392.967 8 256 8zm-66.24 369.335l-70.81 21.945c-5.59 2.132-8.364-.643-6.23-6.212l21.944-70.832c.464-1.197 1.076-2.176 1.782-2.95 4.442 1.144 8.644 3.442 12.115 6.914 4.574 4.57 7.314 10.646 7.714 17.104l.727 11.692 11.694.728c6.46.4 12.534 3.14 17.106 7.713 3.47 3.47 5.77 7.672 6.91 12.113-.775.71-1.75 1.32-2.95 1.785zm21.775-20.576c-1.905-4.05-4.523-7.847-7.868-11.19-7.142-7.144-16.32-10.994-25.666-11.574-.58-9.345-4.43-18.522-11.57-25.664-3.345-3.347-7.14-5.965-11.19-7.87l136.86-136.86 56.298 56.293-136.86 136.862zm185.808-185.81l-31.077 31.074-56.287-56.287 31.07-31.093c3.563-3.528 9.35-3.528 12.895 0l43.396 43.412c3.545 3.544 3.543 9.33 0 12.89z" fill="#595959"/></svg>