<svg xmlns="http://www.w3.org/2000/svg" width="512" height="512" viewBox="0 0 512 512"><path stroke="#449FDB" d="M0 0"/><path d="M.24 334.917c2.68 47.05 39.488 88.803 91.28 98.567 60.23 11.338 110.09-26.223 120.613-82.178 10.537-55.972-22.22-109.096-82.44-120.438-4.813-.906-9.543-1.012-14.272-1.328.175-25.458 72.885-109.237 120.21-153.047h-34.005C20.17 168.043-2.765 307.876.24 334.917zM512 76.494h-34c-181.45 91.55-204.392 231.382-201.38 258.423 2.664 47.05 39.48 88.803 91.273 98.567 60.233 11.338 110.072-26.223 120.613-82.178 10.54-55.972-22.227-109.096-82.45-120.438-4.798-.906-9.528-1.012-14.27-1.328.182-25.458 72.896-109.236 120.214-153.046z" fill="#595959"/></svg>