<svg xmlns="http://www.w3.org/2000/svg" width="512" height="512" viewBox="0 0 512 512"><path d="M384 21.334c58.816 0 106.666 47.85 106.666 106.666S442.816 234.666 384 234.666 277.334 186.816 277.334 128 325.184 21.334 384 21.334zM384 0c-70.692 0-128 57.307-128 128s57.308 128 128 128 128-57.308 128-128S454.692 0 384 0zM374.47 64h23.83l49.314 128H423.59l-12.022-33.887h-51.084L348.462 192h-23.13L374.47 64zm-7.896 77.082h39.08l-19.18-55.032h-.544l-19.356 55.032zM213.333 269.873c16.044-7.66 28.916-20.822 36.18-37.043-21.113-27.05-34.162-60.586-35.792-97.157-9.83-4.767-20.727-7.672-32.387-7.672-41.237 0-74.666 33.43-74.666 74.667 0 29.734 17.51 55.195 42.666 67.205v92.794H0v128h42.666L64 512h234.667L320 490.666h42.667v-128H213.334v-92.794z" fill="#595959"/></svg>