<svg xmlns="http://www.w3.org/2000/svg" width="512" height="512" viewBox="0 0 512 512"><path stroke="#449FDB" d="M0 0"/><path d="M416.443 144l-180.59 180.59-76.298-76.295L96 311.85l139.852 139.853L480 207.553zm-279.106 25.797H110.39l-7.5-21.282H65.223l-7.502 21.282H32L71.808 64H97.53l39.807 105.797zm-40.113-40.573l-13.167-37.97-13.168 37.97H97.22zm126.39 33.53c-6.738 4.9-16.23 6.89-27.1 6.89h-43.178V64h35.98c9.646 0 18.985.766 26.028 4.44 7.043 3.675 13.473 10.564 13.473 22.2s-7.502 20.517-15.464 23.273v.306c13.168 3.212 21.895 12.093 21.895 25.11 0 11.632-4.898 18.522-11.635 23.422zM199.27 84.516c-2.91-1.837-5.665-2.144-11.024-2.144h-10.258v24.344h9.646c5.512 0 8.728-.306 11.637-2.297 3.065-2.146 5.208-4.9 5.208-10.108 0-5.05-2.145-7.96-5.206-9.798zm5.51 42.258c-3.674-2.603-7.808-2.91-13.166-2.91h-13.627v26.948h13.627c5.358 0 9.492-.306 13.167-2.91 3.677-2.45 5.36-5.97 5.36-10.563 0-4.75-1.683-7.966-5.36-10.568zm138.105 31.846c-5.358 5.512-16.535 14.392-38.123 14.392-31.08 0-55.425-20.517-55.425-54.506 0-34.143 24.65-54.506 55.425-54.506 21.74 0 33.53 9.033 36.286 11.942l-7.655 20.516c-1.99-2.603-13.32-11.023-27.253-11.023-17.914 0-31.693 11.942-31.693 32.612s14.392 32.458 31.693 32.458c13.167 0 22.66-5.206 28.478-11.177l8.267 19.292z" fill="#595959"/></svg>