<svg xmlns="http://www.w3.org/2000/svg" width="512" height="512" viewBox="0 0 512 512"><path stroke="#449FDB" d="M0 0"/><path d="M274.688 186.46c2.594 4.53 3.875 10.063 3.875 16.626 0 14.877-3.22 30.41-9.688 46.694-6.438 16.252-13.97 30.16-22.78 41.693-8.813 11.47-16.032 17.347-21.626 17.347-2.97 0-5.534-1.72-7.628-5.032-2.094-3.345-3.03-7.22-3.03-11.783 0-7.438 1.56-17.377 4.718-29.973 3.126-12.69 7.407-25.598 12.845-38.724 5.5-13.064 11.188-23.628 17.125-31.66 5.97-7.97 11.72-12.034 17.345-12.034 3.374 0 6.31 2.344 8.843 6.845zM480 256.03C480 379.737 379.75 480 256.062 480 132.344 480 32 379.736 32 256.03 32 132.296 132.344 32 256.062 32 379.75 32 480 132.295 480 256.03zm-63.125 55.665h-11.188c-8.938 23.41-21.625 42.725-38.125 57.758-16.47 15.158-34.5 26.098-54.094 32.817-19.53 6.75-38.47 10.063-56.906 10.063-19.688 0-38.125-3.28-55.375-9.845-17.188-6.595-32.406-16.346-45.656-29.316-13.216-12.72-23.466-28.004-30.56-45.538-7.155-17.502-10.78-37.16-10.78-58.695 0-28.444 6.406-55.698 19.156-81.608 12.72-26.035 31.375-46.944 55.844-62.915 24.53-15.847 53.187-23.848 86.093-23.848 18.5 0 35.125 3.03 49.906 9.187 14.686 6.126 26.904 14.627 36.842 25.378 9.97 10.69 17.344 23.035 22.312 36.943 5.094 13.94 7.594 28.38 7.594 43.475 0 16.72-2.657 32.036-8.126 46.1-5.47 14.128-12.47 26.036-21.062 36.225-8.593 10.064-17.343 17.754-26.374 23.004-9.062 5.25-16.812 7.876-23.375 7.876-4 0-7.404-1.344-10.123-4.188-2.72-2.813-4.126-6.095-4.126-9.752 0-6.657 1.72-16.283 5.096-28.816l33.687-114.578-44.375 1.78-6.375 22.754c-1.47-19.472-10-29.317-25.688-29.317-8.376 0-17.94 3.564-28.595 10.69-10.687 7.03-21.06 16.783-31.187 29.535-10.188 12.72-18.438 27.16-24.812 43.35-6.404 16.41-9.686 33.474-9.686 51.477 0 9.782 2.405 18.97 7.25 27.503 4.843 8.502 12.655 12.69 23.31 12.69 13.44 0 24.72-5.25 33.78-15.972 9.033-10.533 19-25.316 29.94-44.193-3.5 13.19-5.25 22.815-5.25 28.88 0 5.875 2.31 12.47 7 20.033 4.656 7.532 14.625 11.25 29.906 11.25 16.344 0 31.375-3.5 45.062-10.75 13.688-7.22 25.25-17.034 34.72-29.285 9.593-12.252 16.843-26.254 21.843-42.006 5.063-15.752 7.595-31.6 7.595-47.726 0-16.033-2.626-31.19-7.94-45.694-5.31-14.533-13.218-27.503-23.78-39.1-10.688-11.47-24.28-20.72-40.812-27.565-16.562-6.878-35.97-10.347-58.375-10.347-25.875 0-49.78 4.563-71.625 13.346-21.78 8.875-40.406 21.283-56.03 37.317-15.532 15.908-27.563 34.41-35.845 55.445-8.312 21.128-12.47 43.443-12.47 66.947 0 23.596 4.126 45.286 12.407 64.977 8.22 19.91 19.594 36.755 34.125 50.882 14.47 14.095 31.562 25.003 51.375 32.69 19.812 7.658 40.844 11.565 63.22 11.565 15.437 0 30.905-1.94 46.093-5.69 15.22-3.906 29.97-10.062 44.406-18.502 14.436-8.532 27.342-19.627 38.904-33.316 7.905-9.628 14.437-18.816 19.25-27.786 4.812-8.972 8.905-17.504 12-25.6z" fill="#595959"/></svg>