<svg xmlns="http://www.w3.org/2000/svg" width="768" height="768" viewBox="0 0 768 768"><path d="M608 320h-64v-96c0-88.365-71.635-160-160-160h-32c-88.365 0-160 71.635-160 160v96h-64c-17.672 0-32 14.326-32 32v320c0 17.672 14.328 32 32 32h480c17.674 0 32-14.328 32-32V352c0-17.674-14.327-32-32-32zM384 509.063V576c0 8.837-7.162 16-16 16-8.836 0-16-7.163-16-16v-66.937c-18.6-6.61-32-24.194-32-45.062 0-26.51 21.49-48 48-48s48 21.49 48 48c0 20.87-13.4 38.453-32 45.064zM512 320H224v-96c0-70.58 57.422-128 128-128h32c70.58 0 128 57.42 128 128v96z" fill="#595959"/></svg>