<svg xmlns="http://www.w3.org/2000/svg" width="768" height="768" viewBox="0 0 768 768"><path d="M384 64c9.856 0 19.808.96 30.048 2.304l33.792 95.072 48.576 19.936 90.784-43.2c15.488 12.864 29.76 27.136 42.656 42.656l-43.2 90.88 19.936 48.416 14.176 5.056 80.96 28.768C703.072 364.064 704 374.016 704 384c0 9.952-.928 19.904-2.272 30.08l-95.168 33.76-19.904 48.512 43.2 90.784c-12.896 15.52-27.168 29.824-42.688 42.72l-90.752-43.168-48.544 19.744-33.824 95.296C403.52 703.104 393.76 704 384 704s-19.52-.896-30.048-2.272l-33.824-95.296-48.544-19.744-90.752 43.168c-15.52-12.896-29.792-27.2-42.688-42.72l43.2-90.784-19.744-48.448-95.328-33.824C64.928 403.904 64 393.952 64 384c0-9.984.928-19.936 2.272-30.112L161.568 320l19.776-48.352-43.2-90.88c12.896-15.52 27.168-29.792 42.656-42.656l90.784 43.2 48.576-19.936 33.792-95.072C364.128 64.96 374.112 64 384 64zm0-32c-18.336 0-36.064 2.72-53.76 5.408l-35.168 99.04c-8.032 2.88-15.744 5.92-23.36 9.472l-95.008-45.184c-28.992 21.312-54.56 46.88-75.968 75.936l45.184 95.008c-3.584 7.584-6.592 15.328-9.408 23.264l-99.136 35.232C34.688 347.872 32 365.6 32 384c0 18.368 2.688 36.096 5.376 53.792l99.136 35.168c2.816 7.968 5.824 15.712 9.408 23.328l-45.184 94.976c21.408 29.024 46.976 54.592 75.968 76l95.008-45.184c7.616 3.552 15.328 6.592 23.36 9.408l35.168 99.104C347.936 733.344 365.664 736 384 736s36.064-2.656 53.76-5.408l35.168-99.104c8.032-2.816 15.744-5.856 23.36-9.408l95.008 45.184c28.992-21.408 54.56-46.976 75.968-76l-45.184-94.976c3.584-7.616 6.528-15.36 9.408-23.328l99.136-35.168C733.312 420.096 736 402.368 736 384c0-18.4-2.688-36.128-5.376-53.824l-99.136-35.232c-2.88-7.936-5.824-15.68-9.408-23.264l45.184-95.008c-21.408-29.056-46.976-54.624-75.968-75.936l-95.008 45.184c-7.616-3.552-15.328-6.592-23.36-9.472l-35.168-99.04C420.064 34.72 402.336 32 384 32zM384 288.003c52.937 0 96.003 43.064 96.003 95.997 0 52.937-43.067 96.003-96.003 96.003-52.933 0-95.997-43.067-95.997-96.003 0-52.933 43.064-95.997 95.997-95.997zm0-32c-70.796 0-127.997 57.332-127.997 127.997S313.203 512.003 384 512.003 512.003 454.666 512.003 384c0-70.666-57.207-127.997-128.003-127.997z" fill="#595959"/></svg>