<svg xmlns="http://www.w3.org/2000/svg" width="768" height="768" viewBox="0 0 768 768"><path stroke="#449FDB" d="M0 0"/><path d="M384 64C207.27 64 64 207.267 64 384c0 176.73 143.27 320 320 320s320-143.27 320-320c0-176.732-143.27-320-320-320zm60.9 398.85c.757 13.468-22.696 41.34-30.206 48.847l-67.88-67.883L249.977 528 240 518.02l84.185-96.836-67.88-67.883c7.506-7.505 35.376-30.96 48.845-30.203 5.353.3 19.135 10.04 33.973 21.97L459.95 194.91l113.14 113.14-150.15 120.826c11.96 14.844 21.66 28.565 21.964 33.975z" fill="#595959"/></svg>