<svg xmlns="http://www.w3.org/2000/svg" width="768" height="768" viewBox="0 0 768 768"><path d="M384 64c176.45 0 320 143.552 320 320S560.448 704 384 704 64 560.448 64 384 207.552 64 384 64zm0-32C189.595 32 32 189.596 32 384s157.596 352 352 352 352-157.596 352-352S578.404 32 384 32zM242.914 317.43c-8.158-5.915-18.574-8.863-31.25-8.863-5.146 0-10.197.517-15.154 1.538-4.99 1.036-9.38 2.745-13.24 5.146s-6.934 5.617-9.256 9.633c-2.322 4.032-3.45 9.052-3.45 15.044 0 5.647 1.662 10.244 4.988 13.742 3.357 3.513 7.813 6.384 13.366 8.61 5.584 2.23 11.86 4.08 18.888 5.54 7.028 1.442 14.182 3.042 21.46 4.753 7.31 1.71 14.432 3.718 21.46 6.04 7.028 2.306 13.334 5.443 18.92 9.38 5.553 3.94 10.008 8.912 13.365 14.904 3.327 5.993 4.99 13.538 4.99 22.606 0 9.79-2.165 18.135-6.557 25.07-4.36 6.933-9.977 12.58-16.817 16.973-6.872 4.36-14.527 7.53-22.998 9.507-8.503 1.976-16.942 2.95-25.32 2.95-10.29 0-20.018-1.287-29.18-3.86s-17.224-6.464-24.158-11.672c-6.934-5.238-12.425-11.922-16.44-20.08-4.05-8.125-6.057-17.758-6.057-28.896h23.123c0 7.687 1.506 14.34 4.518 19.923 2.98 5.584 6.934 10.165 11.828 13.742 4.863 3.576 10.574 6.274 17.068 7.968 6.526 1.694 13.21 2.572 20.05 2.572 5.49 0 11.012-.502 16.596-1.538 5.554-1.036 10.574-2.792 15.03-5.27s8.062-5.868 10.792-10.167c2.73-4.267 4.11-9.757 4.11-16.44 0-6.34-1.663-11.484-5.02-15.422-3.326-3.938-7.78-7.154-13.366-9.648-5.554-2.48-11.86-4.486-18.888-6.04-7.028-1.537-14.182-3.122-21.46-4.753-7.28-1.615-14.432-3.498-21.46-5.647s-13.335-4.973-18.89-8.487c-5.553-3.514-10.008-8.048-13.365-13.617-3.327-5.568-5.02-12.55-5.02-20.942 0-9.256 1.88-17.272 5.678-24.033 3.765-6.777 8.754-12.346 15.03-16.707 6.243-4.377 13.365-7.624 21.334-9.773 7.97-2.134 16.127-3.216 24.536-3.216 9.413 0 18.166 1.113 26.23 3.34 8.032 2.228 15.123 5.742 21.178 10.542 6.087 4.8 10.887 10.84 14.4 18.12s5.46 15.985 5.805 26.088h-23.154c-1.38-13.193-6.12-22.747-14.244-28.66zM446.724 288v20.567H344.41v58.342h95.35v20.55h-95.35v63.472h103.067v20.582H320V288h126.724zM595.667 318.34c-9.35-6.51-20.426-9.773-33.29-9.773-10.98 0-20.362 2.055-28.143 6.165-7.813 4.11-14.213 9.648-19.264 16.582-5.083 6.934-8.785 14.872-11.2 23.782-2.385 8.91-3.61 18.15-3.61 27.752 0 10.448 1.225 20.347 3.61 29.666 2.415 9.35 6.118 17.507 11.2 24.44 5.05 6.935 11.515 12.457 19.39 16.6 7.875 4.078 17.32 6.148 28.27 6.148 8.062 0 15.216-1.318 21.46-3.985s11.672-6.338 16.19-11.075c4.55-4.706 8.095-10.29 10.667-16.817s4.11-13.554 4.643-21.068H640c-2.416 23.14-10.385 41.117-23.908 53.95-13.523 12.864-32.034 19.296-55.502 19.296-14.244 0-26.668-2.447-37.273-7.31-10.637-4.894-19.453-11.608-26.48-20.206-7.028-8.534-12.3-18.637-15.813-30.308-3.514-11.657-5.27-24.16-5.27-37.526s1.88-25.916 5.646-37.666c3.796-11.735 9.32-21.962 16.598-30.7 7.28-8.755 16.346-15.64 27.233-20.693s23.344-7.593 37.4-7.593c9.6 0 18.668 1.286 27.265 3.86 8.566 2.572 16.19 6.337 22.873 11.31s12.236 11.185 16.69 18.637c4.456 7.45 7.374 16.063 8.755 25.82h-24.44c-2.73-13.02-8.786-22.777-18.104-29.288z" fill="#595959"/></svg>