<svg xmlns="http://www.w3.org/2000/svg" width="768" height="768" viewBox="0 0 768 768"><path d="M640 437.49l-22.627-22.627-90.51 90.51-90.51-90.51-22.627 22.627 90.51 90.51-90.51 90.51 22.627 22.627 90.51-90.51 90.51 90.51L640 618.51 549.49 528zM459.523 117.07c-12.25-8.167-28.585-13.878-48.987-13.878-49.003 0-57.154 46.546-65.32 89.806l-22.875 127h95.296l-5.71 32h-96.11l-50.63 263.153C255.393 670.696 234.976 736 157.404 736c-36.736 0-63.678-18.792-63.678-18.792l16.334-34.295c10.607 5.743 26.94 12.25 47.343 12.25 20.418 0 32.668-6.508 44.92-20.386 12.25-14.707 18.774-43.292 24.484-75.96l45.733-246.82h-78.905l5.71-32h80.548l28.57-153.942c4.896-24.485 16.333-53.07 32.667-71.032 16.318-18.775 40.82-31.025 69.404-31.025 28.57 0 57.154 12.25 65.32 18.775l-16.333 34.295z" fill="#595959"/></svg>