<svg xmlns="http://www.w3.org/2000/svg" width="768" height="768" viewBox="0 0 768 768"><path d="M393.025 468.98c-28.602 0-57.19-10.936-78.967-32.84l-66.427-66.806c-6.23-6.267-6.23-16.42 0-22.687s16.328-6.267 22.56 0l66.427 66.806c31.048 31.24 81.678 31.304 112.805 0l135.38-136.12c31.062-31.288 31.062-82.177 0-113.45l-45.148-45.388c-30.067-30.27-82.598-30.332-112.79 0L329.11 216.81c-6.233 6.265-16.327 6.265-22.56 0s-6.232-16.42 0-22.69l97.756-98.313c42.218-42.443 115.81-42.38 157.904 0l45.145 45.39c43.526 43.774 43.526 115.03 0 158.82L471.977 436.14c-21.78 21.904-50.38 32.84-78.952 32.84zM188.728 672c-29.833 0-57.875-11.688-78.953-32.902l-45.13-45.374c-43.527-43.807-43.527-115.03 0-158.838l135.36-136.12c42.188-42.428 115.765-42.428 157.92 0l68.936 69.314c6.234 6.267 6.234 16.42 0 22.687s-16.324 6.267-22.556 0l-68.935-69.314c-30.13-30.317-82.676-30.286-112.806 0L87.2 457.573c-31.094 31.273-31.094 82.192 0 113.465l45.132 45.374c30.145 30.332 82.69 30.332 112.804 0l97.74-98.33c6.232-6.266 16.326-6.266 22.558 0 6.216 6.268 6.247 16.42 0 22.688l-97.74 98.33C246.6 660.312 218.56 672 188.727 672zM480 544h256v64H480v-64z" fill="#595959"/></svg>