<svg xmlns="http://www.w3.org/2000/svg" width="768" height="768" viewBox="0 0 768 768"><path d="M368 624c-8.844 0-16-7.157-16-16V447.11c0-42.704-23.72-81.095-61.907-100.173l-121.25-60.625c-7.906-3.953-11.11-13.562-7.156-21.47 3.97-7.92 13.546-11.093 21.47-7.155l121.25 60.625C353.5 342.86 384 392.202 384 447.11V608c0 8.844-7.156 16-16 16zM437.922 81.79c-42.656-23.72-97.187-23.72-139.844 0L64 198.577v371.547L369.204 720 606.22 579.265C647.408 552.61 672 507.405 672 458.36V198.577L437.924 81.788zm150.922 470.6L366.797 683.44 96 549.876V217.423L313.61 109.76c33.188-18.438 75.594-18.438 108.78 0L637.7 216.145 455.936 322.173c-7.625 4.454-10.203 14.25-5.766 21.89 2.985 5.094 8.345 7.937 13.844 7.937 2.734 0 5.516-.703 8.047-2.172L640 251.865V458.36c0 38.14-19.126 73.296-51.157 94.03z" fill="#595959"/></svg>