<svg xmlns="http://www.w3.org/2000/svg" width="768" height="768" viewBox="0 0 768 768"><path stroke="#449FDB" d="M0 0"/><path d="M656 160H112c-7.39 0-14.307 1.816-20.564 4.81l-.123-.123-.414.414c-9.47 4.68-17.12 12.33-21.8 21.8l-.415.415.123.123C65.818 193.693 64 200.61 64 208v416c0 26.468 21.53 48 48 48h544c26.47 0 48-21.532 48-48V208c0-26.47-21.53-48-48-48zm-21.203 32l-251.11 265.063L118.624 192h516.172zM112 640c-2.816 0-5.328-.93-7.63-2.217L251.873 474.75c5.906-6.563 5.406-16.688-1.125-22.625-6.5-5.844-16.69-5.406-22.626 1.125L96 599.283v-384.66l288.31 288.315L670.276 201.09c1.03 2.112 1.723 4.405 1.723 6.91v391.283L539.87 453.25c-5.938-6.53-16.093-6.97-22.625-1.125-6.532 5.938-7.032 16.063-1.126 22.625l147.51 163.034c-2.3 1.286-4.816 2.216-7.63 2.216H112z" fill="#595959"/></svg>