<svg xmlns="http://www.w3.org/2000/svg" width="768" height="768" viewBox="0 0 768 768"><path d="M320 160v-32c0-35.36-28.64-64-64-64H64c-17.664 0-32 15.807-32 33.47V608h416v-32H64V96h192c8.543 0 16.576 4.8 22.623 10.85 6.05 6.046 9.377 12.607 9.377 21.15v64h416v384h-64v32h96V160H320zM608 208c0-8.838-7.164-16-16-16h-48v32h48c8.836 0 16-7.164 16-16zM592 256h-48v32h48c8.836 0 16-7.164 16-16 0-8.838-7.164-16-16-16zM592 320h-48v32h48c8.836 0 16-7.164 16-16 0-8.838-7.164-16-16-16zM592 384h-48v32h48c8.836 0 16-7.164 16-16 0-8.838-7.164-16-16-16zM592 448h-48v32h48c8.836 0 16-7.164 16-16 0-8.838-7.164-16-16-16zM496 224c-8.836 0-16 7.162-16 16 0 8.836 7.164 16 16 16h48v-32h-48zM480 304c0 8.836 7.164 16 16 16h48v-32h-48c-8.836 0-16 7.162-16 16zM480 368c0 8.836 7.164 16 16 16h48v-32h-48c-8.836 0-16 7.162-16 16zM480 432c0 8.836 7.164 16 16 16h48v-32h-48c-8.836 0-16 7.162-16 16zM576 544v128h-64V544h64zm0-32h-64c-17.673 0-32 14.327-32 32v128c0 17.673 14.327 32 32 32h64c17.673 0 32-14.327 32-32V544c0-17.673-14.327-32-32-32z" fill="#595959"/></svg>