<svg xmlns="http://www.w3.org/2000/svg" width="768" height="768" viewBox="0 0 768 768"><path d="M352 672H96V64h416c35.29 0 64 28.71 64 64v96c11.24 0 21.967 2.076 32 5.642V128c0-53.02-42.98-96-96-96H64v672h297.615c-4.772-9.964-7.975-20.683-9.615-32zm320-320h-64v-32c0-17.674-14.327-32-32-32h-64c-17.674 0-32 14.326-32 32v32h-64c-17.674 0-32 14.327-32 32v32c0 17.672 14.327 32 32 32v208c0 26.51 21.49 48 48 48h160c26.51 0 48-21.49 48-48V448c17.674 0 32-14.328 32-32v-32c0-17.674-14.327-32-32-32zm-160-32h64v32h-64v-32zm128 336c0 8.822-7.178 16-16 16H464c-8.822 0-16-7.178-16-16V448h192v208zm32-272v32H416v-32h256z" fill="#595959"/></svg>