<svg xmlns="http://www.w3.org/2000/svg" width="512" height="512" viewBox="0 0 512 512"><path stroke="#449FDB" d="M0 0"/><path d="M423.55 232.707c-5.628-5.805-12.37-8.707-20.222-8.707h-3.226v-39.258h-.048l-.188-24.776c-.002-19.41-3.814-38.267-11.333-56.04-7.254-17.152-17.63-32.545-30.84-45.754s-28.6-23.584-45.753-30.84C294.16 19.812 275.3 16 255.882 16s-38.28 3.812-56.06 11.333c-17.15 7.255-32.544 17.63-45.753 30.84s-23.587 28.602-30.84 45.753c-7.52 17.78-11.335 36.64-11.335 56.06v31.09h45v-31.09c0-54.67 44.316-98.985 98.984-98.985s98.984 44.32 98.984 98.987l.18 24.758V224H108.67c-7.852 0-14.594 2.902-20.223 8.707-5.634 5.8-8.45 12.63-8.45 20.477V467.33c0 7.85 2.816 14.593 8.45 20.222 5.628 5.633 12.37 8.45 20.222 8.45h294.654c7.852 0 14.594-2.817 20.223-8.45 5.634-5.63 8.45-12.37 8.45-20.223V253.18c0-7.848-2.816-14.676-8.45-20.477zM269.695 366l7.213 67.493H234.08l7.958-67.616c-10.9-5.215-18.43-16.344-18.43-29.234 0-17.89 14.5-32.393 32.392-32.393s32.393 14.503 32.393 32.393c0 12.994-7.656 24.196-18.7 29.356z" fill="#595959"/></svg>