<svg xmlns="http://www.w3.org/2000/svg" width="512" height="512" viewBox="0 0 512 512"><path stroke="#449FDB" d="M0 0"/><path d="M429.793 253.43c12.082 12.098 18.237 28.107 18.207 43.97.03 15.828-6.08 31.867-18.207 43.996l-44.606 44.607c-12.16 12.158-28.246 18.192-44.027 18.192h-.108c-.516 0-1.03-.023-1.545-.035-.496-.012-.992-.013-1.488-.036-.49-.023-.984-.07-1.474-.105-.5-.04-1-.065-1.5-.11-.48-.05-.957-.118-1.436-.177-.507-.062-1.016-.112-1.522-.187-.474-.068-.944-.16-1.416-.24-.51-.088-1.02-.164-1.527-.264-.457-.09-.91-.2-1.364-.302-.52-.113-1.04-.22-1.555-.345-.438-.11-.872-.24-1.31-.357-.527-.144-1.058-.277-1.582-.435-.423-.126-.84-.274-1.26-.41-.532-.173-1.068-.336-1.598-.522-.41-.143-.812-.31-1.218-.462-.534-.202-1.07-.395-1.6-.61-.397-.163-.788-.347-1.183-.52-.53-.228-1.064-.45-1.59-.695-.394-.185-.78-.39-1.173-.584-.515-.255-1.035-.5-1.544-.77-.4-.213-.793-.445-1.19-.667-.49-.274-.987-.538-1.474-.827-.4-.238-.792-.498-1.19-.747-.47-.294-.943-.58-1.407-.886-.414-.275-.817-.57-1.226-.857-.438-.304-.88-.597-1.308-.913-.436-.32-.858-.665-1.286-.998-.39-.304-.786-.595-1.17-.91-.518-.42-1.02-.868-1.524-1.31-.283-.247-.573-.48-.853-.733-.78-.704-1.544-1.432-2.29-2.18l-1.897-1.91 27.215-27.204 1.896 1.88c4.686 4.67 10.6 6.942 16.586 6.973 6.276-.06 12.265-2.305 16.935-6.974l44.59-44.573c4.67-4.7 6.93-10.644 6.944-16.798-.016-6.126-2.274-12.07-6.93-16.743l-1.895-1.91c-4.685-4.67-10.644-6.913-16.768-6.943-6.126.03-12.085 2.272-16.77 6.943l-18.33 18.35c-.47.47-.958.91-1.462 1.32-3.53 2.88-7.837 4.318-12.146 4.318-4.31 0-8.617-1.44-12.147-4.317-.504-.413-.992-.854-1.463-1.323-7.505-7.52-7.505-19.684 0-27.203l18.33-18.343c12.1-12.1 28.124-18.225 43.984-18.225 15.842 0 31.867 6.125 43.97 18.224l1.9 1.88zM346.21 415.385c-.937-.94-1.948-1.762-3.015-2.467s-2.188-1.293-3.345-1.763c-2.315-.94-4.777-1.41-7.24-1.41-3.692 0-7.386 1.058-10.585 3.173-1.065.705-2.077 1.526-3.016 2.467l-19.226 19.224c-4.67 4.64-10.658 6.91-16.935 6.94-5.99-.03-11.904-2.273-16.59-6.943l-1.894-1.91c-4.654-4.67-6.928-10.643-6.943-16.83.016-6.063 2.273-12.006 6.943-16.706l44.59-44.606c4.685-4.64 10.644-6.913 16.768-6.913 6.128 0 12.086 2.274 16.77 6.914l1.896 1.91 27.2-27.198-1.895-1.91-3.44-3.427c-1.486-1.488-3.14-2.67-4.897-3.58-.664-.465-1.337-.915-2.016-1.353-.257-.164-.52-.317-.78-.48-.425-.263-.847-.53-1.275-.784-.305-.18-.615-.345-.923-.52-.39-.22-.777-.447-1.172-.66-.345-.184-.693-.354-1.04-.532-.363-.187-.724-.38-1.09-.56-.367-.18-.74-.343-1.11-.515-.35-.163-.698-.333-1.052-.49-.376-.165-.756-.317-1.135-.476-.353-.148-.702-.303-1.057-.443-.383-.152-.77-.29-1.155-.434-.353-.133-.706-.27-1.06-.397-.393-.14-.787-.264-1.18-.394-.355-.117-.707-.24-1.063-.353-.394-.123-.79-.23-1.185-.345-.36-.105-.72-.217-1.08-.313-.395-.107-.794-.2-1.192-.3-.36-.09-.723-.187-1.087-.27-.397-.09-.796-.168-1.194-.25-.368-.078-.735-.16-1.104-.23-.4-.077-.804-.14-1.206-.208-.366-.063-.732-.132-1.1-.188-.404-.062-.81-.108-1.215-.162-.368-.048-.735-.103-1.104-.145-.398-.046-.8-.077-1.2-.115-.373-.033-.747-.075-1.122-.103-.4-.03-.8-.047-1.203-.068-.374-.022-.748-.05-1.12-.063-.403-.015-.806-.016-1.208-.022-.4-.008-.8-.02-1.2-.02-.515 0-1.03.02-1.545.033-.493.013-.987.014-1.48.037-.518.023-1.034.07-1.552.11-.47.033-.942.056-1.412.102-.542.05-1.082.126-1.624.192-.442.055-.888.098-1.332.16-.563.083-1.124.19-1.686.286-.42.074-.84.134-1.258.215-.583.113-1.16.25-1.74.38-.396.09-.79.165-1.186.262-.596.146-1.187.316-1.777.48-.374.103-.75.193-1.123.304-.61.18-1.217.39-1.823.59-.346.113-.696.215-1.042.336-.622.22-1.237.462-1.854.7-.326.125-.654.237-.977.368-.612.25-1.217.523-1.822.79-.32.144-.646.274-.965.422-.618.286-1.226.6-1.836.905-.3.15-.604.29-.9.447-.62.326-1.23.677-1.84 1.025-.28.16-.564.305-.84.468-.602.355-1.19.736-1.78 1.11-.28.18-.563.345-.84.526-.285.19-.56.395-.844.588-.304.208-.607.42-.91.633-.264.19-.535.364-.797.558-.585.43-1.156.884-1.73 1.336-.247.198-.502.38-.747.58-.578.47-1.14.97-1.704 1.464-.23.2-.466.39-.693.595-.785.71-1.556 1.44-2.31 2.195l-44.605 44.603c-12.07 12.07-18.227 28.05-18.21 43.908-.03 15.86 6.078 31.9 18.21 44.027l1.91 1.91c.748.75 1.512 1.476 2.29 2.18.298.27.608.52.91.783.487.425.97.855 1.468 1.263.334.273.68.526 1.02.793.478.374.95.756 1.437 1.114.387.284.783.547 1.175.82.45.318.897.647 1.356.95.436.287.88.552 1.32.828.427.268.85.547 1.28.804.457.27.923.52 1.384.776.428.238.85.488 1.28.717.474.25.957.48 1.436.716.43.21.85.436 1.282.637.487.228.98.432 1.473.646.433.19.862.39 1.3.57.49.2.987.377 1.482.565.444.168.886.348 1.334.507.49.174.99.324 1.485.485.457.147.912.31 1.372.445.496.15.997.274 1.496.41.465.127.928.265 1.395.38.505.126 1.015.228 1.52.34.466.103.93.216 1.397.31.506.1 1.014.174 1.52.26.476.082.947.174 1.422.243.503.075 1.007.126 1.51.187.482.06.965.128 1.448.175.5.05 1.005.074 1.508.11.487.036.973.082 1.46.105.5.023 1 .024 1.5.036.512.015 1.022.038 1.532.037h.106c15.783 0 31.87-6.034 44.027-18.193l19.226-19.224c7.52-7.518 7.52-19.676 0-27.196z" fill="#595959"/></svg>