<svg xmlns="http://www.w3.org/2000/svg" width="768" height="768" viewBox="0 0 768 768"><path d="M562.75 622.843c-24.594 0-49.187-9.343-67.906-28.063l-22.625-22.625c-6.25-6.25-6.25-16.375 0-22.625s16.372-6.25 22.622 0l22.625 22.625c24.187 24.188 66.342 24.125 90.53 0l45.25-45.25C665.344 514.81 672 498.75 672 481.655s-6.656-33.188-18.75-45.265l-22.625-22.625c-24.97-24.97-65.625-24.906-90.53 0l-34.064 34.078c-6.25 6.25-16.372 6.28-22.622.03s-6.25-16.374 0-22.64l34.063-34.093c37.406-37.406 98.31-37.47 135.78 0l22.627 22.625C694 431.89 704 456 704 481.655c0 25.626-10 49.75-28.124 67.876l-45.25 45.25c-18.718 18.72-43.313 28.066-67.875 28.066zM449.593 736c-24.563 0-49.156-9.343-67.875-28.063l-22.625-22.656c-18.125-18.122-28.125-42.216-28.125-67.872 0-25.625 10-49.75 28.125-67.875l45.25-45.25c36.25-36.25 99.5-36.218 135.75 0l22.656 22.595c6.25 6.25 6.25 16.375.03 22.656-6.25 6.25-16.407 6.22-22.657.033l-22.656-22.656c-24.19-24.187-66.314-24.187-90.5 0l-45.25 45.25c-12.095 12.095-18.75 28.158-18.75 45.25s6.655 33.157 18.75 45.25l22.624 22.657c24.94 24.938 65.564 24.938 90.5 0l34.094-34.094c6.25-6.25 16.375-6.25 22.625 0s6.25 16.374 0 22.624l-34.094 34.093C498.78 726.656 474.186 736 449.593 736z" fill="#595959"/></svg>