<svg xmlns="http://www.w3.org/2000/svg" width="768" height="768" viewBox="0 0 768 768"><path stroke="#449FDB" d="M0 0"/><path d="M711.967 628.643l-25.71-14.79 12.5-3.335-.017-.06c3.842-1.11 7.3-3.587 9.46-7.31 4.435-7.655 1.803-17.44-5.88-21.858-2.496-1.438-5.22-2.103-7.907-2.103-1.338 0-2.668.166-3.957.482l-.016-.06-.308.08-43.215 11.536-40.006-22.907c.48-2.713.84-5.47.84-8.32 0-2.894-.36-5.697-.85-8.448l40.22-23.398 42.224 11.27c1.688.548 3.453.843 5.23.843 2.636 0 5.292-.647 7.75-2.06 7.68-4.417 10.314-14.202 5.878-21.854-2.067-3.566-5.355-5.912-9-7.09l.083-.314-12.823-3.42 25.506-14.674c7.682-4.418 10.315-14.203 5.88-21.855-2.975-5.134-8.374-8.003-13.925-8.003-2.723 0-5.484.692-8.014 2.147l-26.495 15.238 3.68-13.68-.06-.017c.956-3.87.53-8.094-1.628-11.818-2.975-5.135-8.373-8.004-13.922-8.004-2.725 0-5.486.692-8.016 2.146-3.74 2.15-6.227 5.595-7.34 9.423l-.063-.016-11.922 44.326.27.072-39.483 22.965c-4.65-4-9.008-7.086-14.95-9.084V475.5l30.803-31.7c3.276-2.93 5.425-7.068 5.425-11.798 0-8.838-7.19-16-16.06-16-4.135 0-7.818 1.664-10.666 4.22l-.23-.228-9.27 9.584V401.02c0-8.837-7.112-17.02-15.98-17.02s-16 7.163-16 16v29.577l-10.31-9.115-.044.043c-2.885-2.762-6.77-4.504-11.088-4.504-8.87 0-16.06 7.166-16.06 16 0 4.306 1.75 8.17 4.525 11.048l-.045.045L544 474.835v40.39c-5.144 1.945-10.946 4.777-15.073 8.265l-39.984-23.045-11.314-42.062c-.908-4.294-3.43-8.222-7.547-10.59-2.528-1.454-5.29-2.146-8.013-2.146-5.55 0-10.95 2.87-13.925 8.004-2.065 3.568-2.46 7.58-1.66 11.315l-.315.085 3.436 12.77-25.507-14.67c-2.53-1.456-5.29-2.147-8.018-2.147-5.55 0-10.95 2.868-13.924 8.003-4.434 7.652-1.804 17.438 5.88 21.855l26.494 15.24-13.736 3.668.016.06c-3.842 1.11-7.3 3.59-9.46 7.314-4.434 7.653-1.802 17.44 5.878 21.856 2.498 1.436 5.22 2.102 7.908 2.102 1.338 0 2.666-.164 3.957-.48l.017.06L473.6 528.8l-.073-.27 39.12 22.548c-.546 2.9-.898 5.87-.898 8.926s.35 6.027.896 8.926L473.66 591.4l-43.464-11.604c-1.685-.55-3.45-.842-5.223-.842-2.635 0-5.29.644-7.748 2.06-7.68 4.417-10.313 14.202-5.877 21.856 2.066 3.566 5.356 5.912 9.002 7.09l-.084.314 14.055 3.752-26.286 15.12c-7.68 4.42-10.313 14.204-5.88 21.858 2.975 5.13 8.374 8.002 13.925 8.002 2.724 0 5.484-.692 8.015-2.146l25.71-14.79-3.346 12.454.057.016c-.957 3.87-.53 8.094 1.627 11.818 2.975 5.133 8.373 8.002 13.924 8.002 2.725 0 5.486-.692 8.016-2.146 3.74-2.15 6.227-5.593 7.342-9.424l.058.016.08-.3.002-.01 11.582-43.052 39.777-22.928c4.127 3.49 9.93 6.32 15.076 8.268v40.623l-32.076 30.8c-3.275 2.928-5.426 7.066-5.426 11.798 0 8.836 7.19 16 16.06 16 4.136 0 7.82-1.666 10.67-4.222l.228.23 10.545-9.35v29.344c0 8.836 7.13 16 16 16s15.98-7.164 15.98-16V689.53l9.036 10.014.045-.045c2.886 2.76 6.77 4.505 11.087 4.505 8.87 0 16.06-7.164 16.06-16 0-4.303-1.747-8.172-4.52-11.047l.042-.044-32.57-32.45.822.195v-39.35c5.988-2.01 10.385-5.125 15.055-9.17l39.242 22.47 11.646 43.302c.91 4.29 3.432 8.217 7.545 10.582 2.53 1.453 5.29 2.146 8.016 2.146 5.55 0 10.947-2.87 13.922-8 2.068-3.567 2.463-7.58 1.664-11.314l.315-.084-3.766-14.004 26.29 15.12c2.528 1.453 5.29 2.147 8.015 2.147 5.55 0 10.95-2.87 13.924-8.002 4.434-7.652 1.8-17.438-5.88-21.857z" fill="#595959"/></svg>