<svg xmlns="http://www.w3.org/2000/svg" width="768" height="768" viewBox="0 0 768 768"><path stroke="#449FDB" d="M0 0"/><path d="M444.9 462.85c.757 13.468-22.696 41.34-30.206 48.847l-67.88-67.883L249.977 528 240 518.02l84.185-96.836-67.88-67.883c7.506-7.505 35.376-30.96 48.845-30.203 5.353.3 19.135 10.04 33.973 21.97L459.95 194.91l113.14 113.14-150.15 120.826c11.96 14.844 21.66 28.565 21.964 33.975zM249.977 528l96.835-84.185 67.88 67.883c7.51-7.507 30.964-35.38 30.208-48.846-.303-5.41-10.003-19.13-21.963-33.975l150.15-120.826L459.95 194.917 339.12 345.07c-14.838-11.93-28.62-21.67-33.973-21.97-13.468-.757-41.338 22.697-48.846 30.205l67.88 67.883L240 518.023l9.976 9.977z" fill="#595959"/></svg>