<svg xmlns="http://www.w3.org/2000/svg" width="512" height="512" viewBox="0 0 512 512"><path stroke="#449FDB" d="M0 0"/><path d="M416 0H64v33.62C27.53 41.052 0 73.37 0 112c0 26.27 12.89 49.41 32.492 64.002C12.89 190.598 0 213.74 0 240c0 26.27 12.89 49.41 32.492 64.002C12.89 318.598 0 341.74 0 368c0 38.644 27.53 70.95 64 78.382V480l32 32h320l32-32V32L416 0zM64 66.947v90.106c-18.584-6.627-32-24.22-32-45.053s13.416-38.426 32-45.053zm0 128v90.106c-18.584-6.627-32-24.22-32-45.053s13.416-38.426 32-45.053zM32 368c0-20.832 13.416-38.426 32-45.053v90.106c-18.584-6.627-32-24.22-32-45.053zm384 80H96V322.832c14.53 5.166 26.147 17.11 30.344 32.59 2.313 8.515 11.03 13.64 19.625 11.25 8.53-2.313 13.56-11.094 11.25-19.625-7.98-29.486-32.105-51.257-61.22-57.242v-94.973c14.53 5.166 26.146 17.112 30.343 32.59 2.313 8.516 11.03 13.64 19.625 11.25 8.53-2.313 13.562-11.094 11.25-19.625-7.98-29.487-32.104-51.258-61.22-57.242V66.832c14.53 5.166 26.147 17.11 30.344 32.59 2.313 8.516 11.03 13.64 19.625 11.25 8.53-2.313 13.562-11.094 11.25-19.625C149.24 61.56 125.115 39.79 96 33.805V32h320v416z" fill="#595959"/></svg>