<svg xmlns="http://www.w3.org/2000/svg" width="512" height="512" viewBox="0 0 512 512"><path stroke="#449FDB" d="M0 0"/><path d="M320 256h-75.555c-2.596-11.208-6.742-21.974-12.293-32H320v32zm0-96H128v.2c29.383.97 56.99 12.13 78.738 31.8H320v-32zm0 128h-72.447c-.355 10.903-2.14 21.66-5.277 32H320v-32zm-125.71 0h-49.618v32h39.817c5.642-9.47 9.136-20.36 9.8-32zM416 99.2c0-37.114-30.086-67.2-67.2-67.2H32v168.888c1.38-1.52 2.802-3.014 4.265-4.476 8.345-8.356 17.68-15.365 27.735-20.932V64h284.8c19.41 0 35.2 15.79 35.2 35.2V448h-51.69l10.174 10.17-21.78 21.83H416V99.2zM161.087 224h-16.415v32h43.972c-5.733-13.26-15.416-24.42-27.557-32zM64 448v-55.593c-10.05-5.562-19.38-12.56-27.726-20.907-1.466-1.466-2.89-2.963-4.274-4.488V480h243.478l-31.996-32H64zm64.672-228.642c-3.11-.453-6.28-.703-9.5-.703-34.703 0-63.172 27.22-65.172 61.422v7.734c.375 6.415 1.68 12.58 3.783 18.37.35.965.723 1.92 1.117 2.86.788 1.888 1.663 3.73 2.618 5.52 10.988 20.606 32.71 34.66 57.653 34.66 3.22 0 6.393-.237 9.5-.705V219.358zM298.104 480L188.416 370.298c-19.094 14.31-41.844 21.47-64.578 21.47-27.594 0-55.188-10.52-76.25-31.582-42.11-42.11-42.125-110.374 0-152.468 21.03-21.063 48.625-31.594 76.234-31.594 27.593 0 55.187 10.532 76.234 31.594 38.407 38.39 41.782 98.578 10.14 140.812L319.87 458.185 298.103 480zM123.838 370.563c47.78 0 86.578-38.785 86.578-86.627 0-47.812-38.797-86.61-86.578-86.61-47.844 0-86.625 38.798-86.625 86.61 0 47.842 38.78 86.627 86.625 86.627z" fill="#595959"/></svg>