<svg xmlns="http://www.w3.org/2000/svg" width="512" height="512" viewBox="0 0 512 512"><path stroke="#449FDB" d="M0 0"/><path d="M96 224v192h352V224H96zm117.54 130.056c-1.825 4.032-4.536 7.513-8.136 10.44-3.6 2.93-8.064 5.208-13.392 6.84-5.328 1.63-11.498 2.447-18.504 2.447-5.666 0-11.16-.697-16.488-2.088s-10.033-3.575-14.112-6.552c-4.082-2.975-7.32-6.768-9.72-11.376-2.4-4.608-3.553-10.08-3.456-16.416h21.888c0 3.458.623 6.388 1.872 8.786 1.247 2.4 2.903 4.345 4.968 5.832 2.063 1.49 4.486 2.592 7.272 3.312 2.783.72 5.663 1.08 8.64 1.08 2.016 0 4.176-.167 6.48-.505 2.304-.335 4.464-.983 6.48-1.944 2.016-.956 3.694-2.277 5.04-3.96 1.343-1.676 2.016-3.813 2.016-6.405 0-2.784-.89-5.04-2.664-6.77-1.778-1.727-4.104-3.167-6.984-4.32s-6.145-2.158-9.792-3.022c-3.65-.864-7.344-1.822-11.088-2.88-3.84-.96-7.585-2.136-11.232-3.528-3.65-1.39-6.912-3.19-9.792-5.4-2.88-2.207-5.21-4.968-6.984-8.28-1.778-3.31-2.664-7.318-2.664-12.023 0-5.277 1.127-9.863 3.384-13.75 2.254-3.89 5.207-7.13 8.856-9.72 3.647-2.593 7.776-4.513 12.384-5.76s9.216-1.873 13.824-1.873c5.375 0 10.535.6 15.48 1.8 4.943 1.2 9.335 3.145 13.176 5.83 3.838 2.688 6.887 6.12 9.144 10.296 2.254 4.176 3.384 9.24 3.384 15.192h-21.888c-.193-3.07-.84-5.616-1.944-7.633-1.104-2.016-2.57-3.6-4.392-4.752-1.825-1.15-3.913-1.966-6.264-2.447-2.354-.48-4.92-.72-7.704-.72-1.825 0-3.65.192-5.472.575-1.825.386-3.48 1.06-4.968 2.018-1.49.96-2.713 2.16-3.672 3.6-.96 1.44-1.44 3.265-1.44 5.472 0 2.016.383 3.648 1.152 4.895.767 1.248 2.28 2.4 4.536 3.456 2.255 1.06 5.375 2.114 9.36 3.17 3.982 1.058 9.19 2.4 15.624 4.03 1.92.386 4.583 1.08 7.992 2.09 3.407 1.008 6.79 2.616 10.152 4.823 3.36 2.21 6.264 5.162 8.712 8.856 2.448 3.695 3.672 8.423 3.672 14.183 0 4.705-.914 9.072-2.736 13.104zm94.174 17.424h-78.05V268.664h76.897v19.01h-54.286v22.03h49.824v17.568h-49.824v25.2h55.44v19.008zm102.095-22.176c-2.4 5.184-5.57 9.6-9.506 13.248-3.938 3.65-8.545 6.433-13.823 8.352-5.28 1.92-11.09 2.88-17.424 2.88-7.872 0-14.953-1.368-21.24-4.104-6.288-2.736-11.592-6.503-15.91-11.304-4.32-4.8-7.633-10.44-9.938-16.92-2.305-6.48-3.457-13.465-3.457-20.952 0-7.68 1.153-14.808 3.457-21.385 2.304-6.576 5.615-12.314 9.936-17.21 4.32-4.896 9.623-8.734 15.912-11.52 6.286-2.783 13.367-4.176 21.24-4.176 5.663 0 11.016.816 16.056 2.447 5.04 1.635 9.55 4.01 13.537 7.13 3.982 3.12 7.27 6.983 9.863 11.592 2.593 4.607 4.224 9.89 4.896 15.84h-21.89c-.384-2.592-1.248-4.968-2.592-7.128-1.345-2.16-3.023-4.055-5.04-5.688-2.016-1.63-4.297-2.902-6.84-3.815-2.545-.91-5.21-1.367-7.992-1.367-5.09 0-9.41.985-12.96 2.952-3.553 1.97-6.433 4.607-8.64 7.92-2.21 3.312-3.816 7.08-4.824 11.304-1.008 4.225-1.512 8.592-1.512 13.103 0 4.32.504 8.52 1.512 12.6s2.614 7.754 4.824 11.016c2.207 3.264 5.087 5.88 8.64 7.85 3.55 1.967 7.87 2.95 12.96 2.95 6.912 0 12.312-2.11 16.2-6.337 3.888-4.223 6.265-9.792 7.128-16.703h21.89c-.576 6.433-2.067 12.24-4.465 17.424zM416 224V99.51C416 62.394 386.326 32 349.212 32H32v448h384v-64h-32v32H64V64h285.212C368.622 64 384 80.1 384 99.51V224h32zm-96-31v-32H128v32h192z" fill="#595959"/></svg>