<svg xmlns="http://www.w3.org/2000/svg" width="512" height="512" viewBox="0 0 512 512"><path stroke="#449FDB" d="M0 0"/><path d="M448 384h64v64h-64v64h-64v-64h-64v-64h64v-64h64v64zm64-352v288h-32V32H160v32h256l32 32v192h-32V96H143.05c6.17 8.025 11.407 16.836 14.17 27.047 2.312 8.53-2.72 17.313-11.25 19.625-8.595 2.39-17.314-2.734-19.626-11.25-4.197-15.478-15.813-27.424-30.344-32.59v94.972c29.115 5.984 53.24 27.756 61.22 57.242 2.312 8.53-2.72 17.313-11.25 19.625-8.595 2.39-17.314-2.732-19.626-11.25C122.147 243.946 110.53 232 96 226.83v94.974c29.115 5.985 53.24 27.756 61.22 57.242 2.312 8.53-2.72 17.313-11.25 19.625-8.595 2.39-17.314-2.733-19.626-11.25C122.146 371.945 110.53 360 96 354.83V480h256v32H96l-32-32v-1.618C27.53 470.95 0 438.644 0 400c0-26.26 12.89-49.403 32.492-63.998C12.89 321.408 0 298.267 0 271.998c0-26.26 12.89-49.403 32.492-63.998C12.89 193.408 0 170.267 0 143.998c0-38.63 27.53-70.948 64-78.38v-1.62h64v-64h352l32 32zM64 354.947c-18.584 6.627-32 24.22-32 45.053s13.416 38.426 32 45.053v-90.106zm0-128c-18.584 6.627-32 24.22-32 45.053s13.416 38.426 32 45.053v-90.106zm0-128C45.416 105.577 32 123.17 32 144s13.416 38.426 32 45.053V98.947z" fill="#595959"/></svg>