<svg xmlns="http://www.w3.org/2000/svg" width="768" height="768" viewBox="0 0 768 768"><path stroke="#449FDB" d="M0 0"/><path d="M368.088 640H256V512h123.412c.3-1.045.258-2.156.633-3.184-4.88-5.5-8.45-12.098-10.41-19.404-.833-3.115-1.347-6.266-1.55-9.412H256V352h160v77.008c.026 0 .054-.012.08-.012 3.312 0 6.606.346 9.83 1.02 5.884-6.69 13.618-11.37 22.09-13.99V352h160v33.774c14.443 3.71 26.15 13.853 32 27.3V95.997H32v576h346.296c-1.28-1.656-2.77-3.123-3.834-4.96-4.82-8.32-6.983-17.667-6.375-27.04zM448 192h160v128H448V192zm-192 0h160v128H256V192zm-32 448H64V512h160v128zm0-160H64V352h160v128zm0-160H64V192h160v128zm493.846 149c-2.975-5.135-8.373-8.004-13.924-8.004-2.725 0-5.486.692-8.016 2.147l-26.494 15.238 3.68-13.68-.062-.015c.957-3.87.53-8.094-1.627-11.82-2.974-5.134-8.373-8.003-13.922-8.003-2.723 0-5.484.693-8.014 2.148-3.74 2.15-6.226 5.596-7.34 9.424l-.062-.016-11.922 44.326.27.072-39.482 22.965c-4.65-4.003-9.007-7.09-14.95-9.086V475.5l30.804-31.7c3.275-2.93 5.424-7.07 5.424-11.8 0-8.837-7.19-16-16.06-16-4.136 0-7.82 1.665-10.667 4.22l-.23-.227-9.27 9.584V401.02c0-8.84-7.11-17.02-15.98-17.02s-16 7.16-16 16v29.575l-10.31-9.115-.043.043c-2.885-2.762-6.77-4.504-11.088-4.504-8.87 0-16.06 7.16-16.06 16 0 4.3 1.75 8.17 4.524 11.042l-.045.045L544 474.83v40.39c-5.145 1.944-10.947 4.776-15.074 8.264L488.94 500.44l-11.314-42.06c-.906-4.296-3.43-8.224-7.545-10.59-2.527-1.456-5.29-2.147-8.012-2.147-5.55 0-10.95 2.87-13.926 8.004-2.065 3.566-2.46 7.578-1.66 11.313l-.315.084 3.436 12.772-25.507-14.672c-2.53-1.455-5.29-2.147-8.016-2.147-5.55 0-10.95 2.87-13.924 8.004-4.433 7.654-1.803 17.44 5.88 21.857l26.495 15.24-13.735 3.666.016.06c-3.84 1.11-7.3 3.59-9.46 7.314-4.433 7.652-1.8 17.438 5.88 21.855 2.497 1.437 5.22 2.102 7.907 2.102 1.338 0 2.666-.164 3.957-.48l.017.06 44.493-11.876-.073-.268 39.12 22.547c-.546 2.9-.897 5.87-.897 8.926s.352 6.028.898 8.927l-38.985 22.468-43.465-11.603c-1.685-.55-3.45-.842-5.223-.842-2.635 0-5.29.644-7.748 2.06-7.68 4.417-10.314 14.202-5.878 21.856 2.065 3.565 5.355 5.91 9 7.09l-.083.313 14.054 3.752-26.29 15.12c-7.68 4.42-10.312 14.204-5.878 21.858 2.974 5.13 8.373 8.002 13.924 8.002 2.725 0 5.485-.692 8.016-2.147l25.71-14.79-3.346 12.454.058.015c-.957 3.87-.53 8.094 1.627 11.82 2.975 5.132 8.373 8 13.924 8 2.724 0 5.485-.69 8.015-2.145 3.74-2.15 6.227-5.594 7.342-9.424l.058.016.08-.3.002-.01 11.582-43.052 39.776-22.928c4.127 3.49 9.932 6.32 15.077 8.268v40.623l-32.075 30.8c-3.275 2.928-5.426 7.066-5.426 11.798 0 8.837 7.19 16 16.06 16 4.134 0 7.82-1.665 10.667-4.22l.23.228 10.543-9.35v29.346c0 8.836 7.132 16 16 16s15.98-7.164 15.98-16v-30.48l9.036 10.017.044-.045c2.886 2.76 6.77 4.507 11.087 4.507 8.87 0 16.06-7.164 16.06-16 0-4.303-1.746-8.172-4.52-11.047l.043-.043-32.57-32.45.822.196v-39.35c5.986-2.01 10.383-5.123 15.053-9.17l39.242 22.47 11.647 43.304c.91 4.292 3.432 8.218 7.545 10.583 2.528 1.453 5.29 2.147 8.015 2.147 5.55 0 10.947-2.87 13.922-8.002 2.07-3.566 2.462-7.578 1.663-11.313l.315-.085-3.766-14.003 26.288 15.12c2.53 1.454 5.29 2.147 8.016 2.147 5.55 0 10.95-2.87 13.924-8.003 4.435-7.652 1.803-17.438-5.88-21.857l-25.71-14.79 12.5-3.335-.016-.06c3.842-1.11 7.3-3.587 9.46-7.31 4.435-7.656 1.803-17.44-5.88-21.858-2.496-1.438-5.22-2.103-7.906-2.103-1.338 0-2.668.165-3.957.48l-.016-.057-.308.082-43.215 11.534-40.005-22.907c.476-2.713.838-5.47.838-8.32 0-2.894-.36-5.697-.85-8.448l40.22-23.4 42.223 11.27c1.688.55 3.453.843 5.23.843 2.636 0 5.292-.647 7.75-2.06 7.68-4.418 10.314-14.204 5.878-21.855-2.07-3.566-5.356-5.912-9.002-7.09l.085-.314-12.823-3.42 25.507-14.672c7.68-4.418 10.315-14.203 5.88-21.855z" fill="#595959"/></svg>