<svg xmlns="http://www.w3.org/2000/svg" width="768" height="768" viewBox="0 0 768 768"><path stroke="#449FDB" d="M0 0"/><path d="M576 384H380.8c-3.2-9.6-3.2-22.4-9.6-32H576v32zm0 64H380.8c-3.2 9.6-3.2 22.4-9.6 32H576v-32zm32-384H160v163.2c9.6-3.2 22.4-3.2 32-3.2V96h416c35.2 0 64 28.8 64 64v544H192v-96c-9.6 0-22.4 0-32-3.2V736h544V160c0-54.4-41.6-96-96-96zm-32 192H297.6c12.8 9.6 25.6 19.2 38.4 32h240v-32zM96 416c0 54.4 41.6 96 96 96V320c-54.4 0-96 41.6-96 96zm192-32v-32h-64v48h64v-16zm0 64v-16h-64v48h64v-32zm150.4 227.2L297.6 534.4C268.8 560 233.6 576 192 576c-89.6 0-160-70.4-160-160s70.4-160 160-160 160 70.4 160 160c0 35.2-12.8 70.4-32 96l140.8 140.8-22.4 22.4zM192 544c70.4 0 128-57.6 128-128s-57.6-128-128-128S64 345.6 64 416s57.6 128 128 128z" visibility="false" fill="#595959"/></svg>