<svg xmlns="http://www.w3.org/2000/svg" width="768" height="768" viewBox="0 0 768 768"><path d="M192 256h288v32H192v-32zm274.106 96H192v32h242.74c1.153-1.322 2.134-2.738 3.392-4l27.974-28zm-93.012 96H192v32h146.115l20.974-20.975c4.215-4.216 9.297-7.385 14.002-11.026zM96 704V96h416c35.29 0 64 28.71 64 64v139.976c3.15-.184 6.185-.914 9.368-.914h.004c7.688 0 15.152 1.15 22.63 2.207V160c0-53.02-42.98-96-96-96H64v672h255.296l-5.457-5.464c-8.14-8.14-15.1-17.098-21.21-26.535H96.003zm480-404.023c3.15-.184 6.185-.914 9.368-.914-3.182 0-6.217.73-9.368.914zM292.63 704c6.11 9.437 13.07 18.397 21.21 26.535-8.14-8.14-15.1-17.098-21.21-26.535zm270.12-81.157c-24.594 0-49.187-9.343-67.906-28.063l-22.625-22.625c-6.25-6.25-6.25-16.375 0-22.625s16.373-6.25 22.623 0l22.625 22.625c24.187 24.188 66.342 24.125 90.53 0l45.25-45.25C665.344 514.81 672 498.75 672 481.655s-6.656-33.188-18.75-45.265l-22.625-22.625c-24.97-24.97-65.625-24.906-90.53 0l-34.064 34.078c-6.25 6.25-16.373 6.28-22.623.03s-6.25-16.374 0-22.64l34.063-34.093c37.405-37.406 98.31-37.47 135.78 0l22.626 22.625C694 431.89 704 456 704 481.655c0 25.626-10 49.75-28.124 67.876l-45.25 45.25c-18.718 18.72-43.313 28.065-67.875 28.065zM449.593 736c-24.563 0-49.156-9.343-67.875-28.063l-22.625-22.656c-18.125-18.123-28.125-42.217-28.125-67.873 0-25.625 10-49.75 28.125-67.875l45.25-45.25c36.25-36.25 99.5-36.218 135.75 0l22.656 22.595c6.25 6.25 6.25 16.375.03 22.656-6.25 6.25-16.406 6.22-22.656.033l-22.656-22.656c-24.19-24.188-66.314-24.188-90.5 0l-45.25 45.25c-12.095 12.094-18.75 28.157-18.75 45.25s6.655 33.156 18.75 45.25l22.624 22.656c24.938 24.938 65.563 24.938 90.5 0l34.093-34.094c6.25-6.25 16.375-6.25 22.625 0s6.25 16.374 0 22.624l-34.093 34.093C498.78 726.656 474.187 736 449.593 736z" fill="#595959"/></svg>