<svg xmlns="http://www.w3.org/2000/svg" width="512" height="512" viewBox="0 0 512 512"><path stroke="#449FDB" d="M0 0"/><path d="M192 0H32C14.4 0 0 14.4 0 32v160c0 17.6 14.397 32 32 32h160c17.6 0 32-14.4 32-32V32c0-17.6-14.4-32-32-32zm0 128H32V96h160v32zM480 0H320c-17.603 0-32 14.4-32 32v448c0 17.6 14.397 32 32 32h160c17.6 0 32-14.4 32-32V32c0-17.6-14.4-32-32-32zm0 320H320v-32h160v32zm0-96H320v-32h160v32zm-288 64H32c-17.6 0-32 14.4-32 32v160c0 17.6 14.397 32 32 32h160c17.6 0 32-14.4 32-32V320c0-17.6-14.4-32-32-32zm0 128h-64v64H96v-64H32v-32h64v-64h32v64h64v32z" fill="#595959"/></svg>