<svg xmlns="http://www.w3.org/2000/svg" width="512" height="512" viewBox="0 0 512 512"><path stroke="#449FDB" d="M0 0"/><path d="M129.14 223.27L55.872 96.37C102.782 37.638 174.99 0 256 0c93.716 0 175.655 50.368 220.266 125.5H267.38c-3.75-.325-7.545-.5-11.38-.5-60.937 0-112.29 41.822-126.86 98.27zm218.513-60.77h146.73C505.753 191.465 512 223.002 512 256c0 140.413-113.05 254.402-253.093 255.963l104.697-181.34C378.344 309.436 387 283.713 387 256c0-36.585-15.082-69.71-39.347-93.5zM163 256c0-51.28 41.72-93 93-93s93 41.72 93 93-41.72 93-93 93-93-41.72-93-93zm128.09 126.22l-73.288 126.94C94.536 490.718 0 384.402 0 256c0-45.61 11.942-88.423 32.848-125.512l104.515 181.027C158.297 356.07 203.6 387 256 387c12.15 0 23.918-1.67 35.09-4.78z" fill="#595959"/></svg>