<svg xmlns="http://www.w3.org/2000/svg" width="512" height="512" viewBox="0 0 512 512"><path stroke="#449FDB" d="M0 0"/><path d="M341.1 221L288 273.9V128h-64v145.9L171 221l-42.7 42.7 114.2 114.6c3.7 3.6 8.5 5.6 13.6 5.6 5.2 0 10-2 13.6-5.7l114.1-114.5-42.7-42.7zM254.7 16c13.3 0 24 10.7 24 24s-10.7 24-24 24-24-10.7-24-24 10.7-24 24-24zm108.6 28.8c14 0 25.3 11.3 25.3 25.3s-11.3 25.3-25.3 25.3S338 84.1 338 70.1s11.4-25.3 25.3-25.3zm78.6 78.5c14 0 25.3 11.3 25.3 25.3s-11.3 25.3-25.3 25.3-25.3-11.3-25.3-25.3c0-13.9 11.4-25.3 25.3-25.3zM472 232c13.3 0 24 10.7 24 24s-10.7 24-24 24-24-10.7-24-24 10.7-24 24-24zm-30.1 107.3c13.3 0 24 10.7 24 24s-10.7 24-24 24-24-10.7-24-24c0-13.2 10.8-24 24-24zm-78.6 78.6c13.3 0 24 10.7 24 24s-10.7 24-24 24-24-10.7-24-24c0-13.2 10.8-24 24-24zM256 448c13.3 0 24 10.7 24 24s-10.7 24-24 24-24-10.7-24-24 10.7-24 24-24zm-107.3-30.1c13.3 0 24 10.7 24 24s-10.7 24-24 24-24-10.7-24-24c0-13.2 10.7-24 24-24zm-78.6-78.6c13.3 0 24 10.7 24 24s-10.7 24-24 24-24-10.7-24-24c0-13.2 10.7-24 24-24zM40 232c13.3 0 24 10.7 24 24s-10.7 24-24 24-24-10.7-24-24 10.7-24 24-24zm30.1-107.4c13.3 0 24 10.7 24 24s-10.7 24-24 24-24-10.7-24-24c0-13.2 10.7-24 24-24zm78.6-78.5c13.3 0 24 10.7 24 24s-10.7 24-24 24-24-10.7-24-24 10.7-24 24-24z" fill="#595959"/></svg>