<svg xmlns="http://www.w3.org/2000/svg" width="512" height="512" viewBox="0 0 512 512"><path stroke="#449FDB" d="M0 0"/><path d="M241.718 150.17c4.6 4.598 10.72 7.135 17.225 7.135s12.622-2.536 17.23-7.142l30.822-30.856c9.013-8.984 21.02-13.96 33.824-14.024 12.877.063 24.884 5.04 33.885 14.012l3.22 3.243c8.976 9.016 13.94 21.014 13.972 33.773-.03 12.825-5.003 24.854-14.002 33.91l-75.01 74.983c-9.078 9.076-20.856 13.942-34.06 14.07h-.12c-11.415-.058-22.274-4.182-30.94-11.682l-34.526 34.515c14.58 13.57 33.202 22.316 52.76 24.97V320h51.236c11.167-4.8 21.434-11.665 30.082-20.312l75.016-75.02c18.02-18.023 28.33-42.925 28.28-68.323.048-25.38-10.26-50.266-28.283-68.312l-3.16-3.137c-18.014-18.01-42.905-28.327-68.312-28.327-25.427 0-50.327 10.315-68.315 28.303l-30.828 30.85c-9.478 9.494-9.478 24.947 0 34.445zM256 353.32c-.48-.027-.963-.046-1.45-.046-6.505 0-12.617 2.534-17.21 7.136l-32.336 32.336c-9.044 8.986-21.148 13.96-34.1 14.02-12.685-.062-24.583-5.038-33.584-14.01l-3.22-3.246c-8.99-9.02-13.966-21.07-13.997-33.917.03-12.725 5.004-24.7 14-33.756l75.01-75.038c9.108-9.02 21.123-13.973 33.86-13.973 11.59 0 22.582 4.1 31.307 11.61l34.52-34.52-3.312-3.3c-1.845-1.845-3.95-3.382-6.268-4.582l-.474-.245-.437-.304c-16.243-11.365-35.293-17.373-55.094-17.373h-.438c-25.34 0-50.16 10.297-68.092 28.252l-75.02 75.016c-17.998 18.004-28.308 42.855-28.283 68.186-.05 25.456 10.26 50.377 28.282 68.396l3.213 3.215c17.936 17.957 42.643 28.254 67.79 28.254h.373c25.507 0 50.433-10.3 68.39-28.254L256 410.61v-57.29zm32-1.32h192v64H288z" fill="#595959"/></svg>