<svg xmlns="http://www.w3.org/2000/svg" width="512" height="512" viewBox="0 0 512 512"><path stroke="#449FDB" d="M0 0"/><path d="M112 64h240c29.607 0 48 17.166 48 44.8V192h32v-83.2C432 64 400 32 352 32H80v160h32V64zm288 304v80H112V320H80v160h352V320h-32v32zM32 224h448v48H32zm308.687-64L320 180.687l-32-32-32 32-32-32-32 32-32-32-37.657 37.656 11.314 11.314L160 171.313l32 32 32-32 32 32 32-32 32 32 32-32 26.344 26.344 11.312-11.314L352 148.687zm-207.03 181.656L160 315.313l32 32 32-32 32 32 32-32 32 32 32-32 26.344 26.343 11.312-11.312L352 292.687l-32 32-32-32-32 32-32-32-32 32-32-32-37.657 37.657z" fill="#595959"/></svg>