<svg xmlns="http://www.w3.org/2000/svg" width="512" height="512" viewBox="0 0 512 512"><path stroke="#449FDB" d="M0 0"/><path d="M139.59 388.966l-15.59-.97-.97-15.59c-.535-8.612-4.188-16.71-10.282-22.807-4.628-4.63-10.23-7.695-16.153-9.22-.942 1.034-1.758 2.337-2.377 3.933l-29.26 94.443c-2.844 7.427.854 11.125 8.31 8.282l94.414-29.262c1.597-.62 2.9-1.435 3.932-2.377-1.52-5.92-4.588-11.525-9.215-16.15-6.098-6.097-14.2-9.75-22.81-10.285zM386.597 67.53c-4.725-4.704-12.44-4.704-17.188 0l-8.57 8.593-32.866 32.865 75.048 75.047L444.46 142.6c4.723-4.75 4.724-12.462 0-17.187L386.6 67.53zM121.653 315.282c5.397 2.54 10.457 6.03 14.92 10.492 9.52 9.52 14.655 21.76 15.43 34.22 12.46.773 24.697 5.908 34.22 15.43 4.46 4.462 7.95 9.52 10.49 14.92L379.197 207.86l-75.06-75.06-182.483 182.483z" fill="#595959"/></svg>