<svg xmlns="http://www.w3.org/2000/svg" width="512" height="512" viewBox="0 0 512 512"><path stroke="#449FDB" d="M0 0"/><path d="M433.09 442.48c3.183 3.063 3.28 8.128.217 11.312-7.724 8.028-24.865 21.572-52.877 22.086-9.177.194-20.64-6.206-31.687-12.372-6.533-3.646-13.938-7.78-17.503-8.367-4.977-.82-12.808 2.14-19.1 4.516-9.378 3.546-19.076 7.212-25.294.147-15.963-18.13-37.43-34.583-90.442-.096-22 14.312-43.695 21.296-66.215 21.296-1.03 0-2.058-.015-3.09-.044-21.316-.6-43.1-7.48-66.6-21.028-3.826-2.207-5.14-7.1-2.932-10.927 1.436-2.492 4.012-3.91 6.69-3.992-.473-1.562-.29-3.678.697-6.255l29.26-94.443c.62-1.596 1.435-2.898 2.377-3.932 5.922 1.523 11.525 4.59 16.153 9.217 6.095 6.095 9.747 14.194 10.282 22.807l.968 15.59 15.592.97c8.61.534 16.712 4.187 22.808 10.282 4.627 4.626 7.693 10.23 9.215 16.152-1.032.942-2.335 1.758-3.932 2.377l-94.412 29.26c-.692.264-1.34.453-1.964.606 42.59 23.67 78.6 23.224 116.375-1.354 59.792-38.9 90.154-20.25 109.812 1.41 2.2-.45 6.187-1.957 8.987-3.016 8.084-3.056 18.143-6.855 27.363-5.34 6.32 1.044 13.91 5.28 22.697 10.185 7.83 4.37 18.535 10.347 23.485 10.347.037 0 .073 0 .11 0 21.124-.387 34.304-9.557 41.64-17.182 3.065-3.183 8.13-3.28 11.314-.218zm11.367-317.067l-57.86-57.882c-4.726-4.7-12.44-4.7-17.19 0l-8.57 8.596-32.864 32.865 75.048 75.048 41.438-41.434c4.724-4.75 4.725-12.463 0-17.19zM152.002 359.996c12.46.774 24.698 5.91 34.22 15.43 4.46 4.462 7.952 9.52 10.492 14.92l182.482-182.484-75.06-75.06-182.483 182.483c5.397 2.54 10.457 6.03 14.92 10.492 9.52 9.52 14.656 21.76 15.43 34.22z" fill="#595959"/></svg>