<svg xmlns="http://www.w3.org/2000/svg" width="512" height="512" viewBox="0 0 512 512"><path stroke="#449FDB" d="M0 0"/><path d="M362.996 304.208c.044-.025.05-.024.01 0 .226-.003.45-.014.68-.014.293 0 .59.002.887.008 16.412.31 34.96 9.22 58.374 28.04 16.44 13.216 26.198 26.264 29.835 39.89 1.985 7.44 2.08 14.954.29 22.442 7.543-10.434 12.79-22.966 8.952-37.35-3.184-11.924-12.056-23.606-27.118-35.72-21.96-17.65-38.966-26-53.514-26.274-.246-.006-.49-.007-.737-.007-10.312 0-18.47 3.95-26.1 9.895 2.68-.554 5.49-.866 8.44-.91zM124.093 53.662c.31 0 .62.004.932.01 17.455.366 34.05 10.635 50.73 31.39 13.71 17.052 22.157 31.546 25.827 44.31 2.436 8.473 2.88 16.425 1.316 24.03 1.895-2.444 3.592-4.946 5.018-7.555 5.333-9.76 6.27-19.685 2.948-31.236-3.37-11.722-11.344-25.3-24.374-41.506-15.108-18.8-29.718-28.09-44.662-28.403-.255-.005-.51-.01-.764-.01-10.44 0-19.722 4.51-27.65 10.25 3.037-.726 6.91-1.277 10.68-1.277zm315.303 326.19c-3.184-11.922-12.053-23.605-27.117-35.718-21.963-17.652-38.97-26-53.516-26.276-.246-.005-.492-.007-.737-.007-17.6 0-28.932 11.5-42.05 24.81-1.373 1.394-2.767 2.808-4.192 4.23-.85.853-1.778 1.52-2.84 2.05-1.67.83-3.656 1.25-5.904 1.253-2.33 0-4.997-.448-7.923-1.332-7.09-2.142-15.798-6.847-25.884-13.985-14.26-10.092-31.483-25.202-51.192-44.91-18.644-18.65-33.19-35.09-43.235-48.866-11.266-15.455-22.788-35.785-13.695-44.88 1.42-1.42 2.832-2.81 4.22-4.176 7.89-7.773 15.342-15.115 19.96-23.566 5.332-9.76 6.268-19.685 2.947-31.236-3.37-11.722-11.343-25.3-24.374-41.507-15.11-18.8-29.718-28.093-44.663-28.405-.254-.006-.51-.01-.764-.01-16.22 0-29.646 10.877-39.532 20.353-3.947 3.784-7.706 7.735-11.34 11.556-2.542 2.67-4.94 5.194-7.31 7.56-15.677 15.67-15.405 50.557.726 93.32 18.03 47.796 53.678 99.84 100.376 146.544 36.018 36.018 75.287 65.59 113.565 85.52 33.616 17.5 65.766 27.14 90.528 27.14 15.842 0 28.208-3.993 35.766-11.55 2.37-2.37 4.893-4.77 7.564-7.313 3.822-3.636 7.773-7.395 11.56-11.344 11.728-12.235 24.494-28.89 19.06-49.25z" fill="#595959"/></svg>