<svg xmlns="http://www.w3.org/2000/svg" width="512" height="512" viewBox="0 0 512 512"><path stroke="#449FDB" d="M0 0"/><path d="M400 32H80c-26.5 0-48 21.5-48 48 0 0 0 216 0 288 0 32 24 40 48 56s144 88 144 88v-64c0-17.7 14.3-32 32-32h144c26.5 0 48-21.5 48-48V80c0-26.5-21.5-48-48-48zM239.2 384c-17.7 0-32-14.3-32-32s14.3-32 32-32 32 14.3 32 32-14.3 32-32 32zm70-163.7c-7.1 6.3-14.6 11.6-21.3 16.4-6.4 4.6-12 8.5-14.7 11.6-2.8 3.5-2.2 5.7-2.2 12.2V288h-64v-34.7c-.2-12.8 1.5-22.8 6.2-31.4 4.2-7.6 10.4-14.1 20.2-21.1l24.4-17.6c8.5-6.1 16-12.4 16-21.6 0-8.2-4.5-22-34.4-22-26.1 0-44.8 14.4-53.6 22.9l-4.2 4.1L160 114l1.7-1.9c8.9-9.7 35.1-32.1 88.6-32.1 25.2 0 48.1 7.8 64.6 22 16.2 13.8 25 32.6 24.8 53 0 34.4-13.8 49.9-30.5 65.3z" fill="#595959"/></svg>