<svg xmlns="http://www.w3.org/2000/svg" width="544" height="512" viewBox="0 0 544 512"><path stroke="#449FDB" d="M0 0"/><path d="M445.02 461.02c-6.143 0-12.284-2.343-16.97-7.03-9.373-9.372-9.373-24.567 0-33.94C471.867 376.23 496 317.97 496 256c0-61.97-24.132-120.23-67.95-164.05-9.373-9.372-9.373-24.568 0-33.94s24.568-9.372 33.94 0C514.875 110.896 544 181.21 544 256s-29.125 145.104-82.01 197.99c-4.686 4.687-10.828 7.03-16.97 7.03zm-85.255-45.255c-6.143 0-12.284-2.343-16.97-7.03-9.373-9.37-9.373-24.567 0-33.94 65.502-65.503 65.502-172.085 0-237.588-9.373-9.373-9.373-24.57 0-33.94 9.37-9.372 24.568-9.373 33.94 0C417.532 144.06 440 198.303 440 256s-22.468 111.938-63.265 152.735c-4.686 4.687-10.828 7.03-16.97 7.03zM274.51 370.51c-6.143 0-12.284-2.343-16.97-7.03-9.374-9.372-9.374-24.567 0-33.94 40.55-40.55 40.55-106.53 0-147.078-9.374-9.373-9.374-24.57 0-33.94s24.567-9.373 33.94 0c59.265 59.264 59.265 155.695 0 214.96-4.686 4.685-10.828 7.028-16.97 7.028zM200.666 39.334C213.5 26.5 224 30.85 224 49v414c0 18.15-10.5 22.5-23.334 9.665L80 352H0V160h80L200.666 39.334z" fill="#595959"/></svg>