<svg xmlns="http://www.w3.org/2000/svg" width="512" height="512" viewBox="0 0 512 512"><path d="M408.3 400c0 22.3-18 40.5-40.4 40.5s-40.5-18.2-40.5-40.5c0-22.4 18.1-40.5 40.5-40.5s40.4 18.1 40.4 40.5zm40.9 23.3l30.8-11.1v-25.5l-30.9-10.1-7.2-17.6 14-29.6-18-18-29 14.7-17.5-7.3-11-30.9h-25.5l-1.1 3.6-8.9 27.3-17.6 7.3-29.6-14-18 18 1.7 3.4 13 25.6-7.2 17.5-31.2 11.2v25.5l30.9 10.1 7.2 17.6-14 29.6 18 18 29-14.7 17.6 7.2 11 30.8h25.5l1.1-3.6 8.9-27.3 17.6-7.2 29.6 14 18-18-14.7-28.9 7.5-17.6z" fill="#595959"/></svg>