<svg xmlns="http://www.w3.org/2000/svg" width="512" height="512" viewBox="0 0 512 512"><path stroke="#449FDB" d="M0 0"/><path d="M311.653 216.987l6.94-11.523-12.38-5.234 3.022-13.106-13.398-1.16-1.154-13.397-13.102 3.018-5.24-12.38-11.52 6.938L256 160l-8.833 10.146-11.516-6.94-5.235 12.38-13.103-3.02-1.153 13.393-13.4 1.16 3.022 13.1-12.386 5.242 6.937 11.523-10.137 8.82 10.14 8.818-6.938 11.52 12.385 5.247-3.024 13.098 13.394 1.16 1.275 13.394 5.575-1.26V352l33-29.366L289 352v-74.21l5.565 1.258 1.213-13.4 13.43-1.158-3.007-13.102 12.386-5.238-6.93-11.526 10.153-8.818-10.155-8.82zM256 264.203c-21.212 0-38.4-17.193-38.4-38.396 0-21.206 17.188-38.4 38.4-38.403 21.2 0 38.4 17.197 38.4 38.403 0 21.203-17.2 38.396-38.4 38.396z" fill="#595959"/></svg>