<svg xmlns="http://www.w3.org/2000/svg" width="512" height="512" viewBox="0 0 512 512"><path d="M384 21.334c58.816 0 106.666 47.85 106.666 106.666S442.816 234.666 384 234.666 277.334 186.816 277.334 128 325.184 21.334 384 21.334zM384 0c-70.692 0-128 57.307-128 128s57.308 128 128 128 128-57.308 128-128S454.692 0 384 0zM352.058 148.364c0 4.68.798 8.672 2.396 11.976 1.597 3.315 3.825 6.025 6.685 8.133 2.84 2.107 6.126 3.65 9.82 4.624 3.715.965 7.744 1.448 12.07 1.448 4.68 0 8.672-.538 11.977-1.625 3.305-1.077 5.998-2.48 8.04-4.187 2.06-1.718 3.546-3.686 4.457-5.905.91-2.228 1.374-4.475 1.374-6.76 0-4.678-1.058-8.132-3.175-10.36-2.098-2.22-4.42-3.788-6.926-4.698-4.327-1.597-9.377-3.11-15.15-4.54-5.757-1.42-12.85-3.278-21.3-5.56-5.254-1.366-9.617-3.167-13.09-5.386-3.473-2.228-6.24-4.707-8.3-7.446s-3.51-5.654-4.363-8.727c-.854-3.08-1.28-6.22-1.28-9.413 0-6.165 1.28-11.493 3.843-15.996 2.58-4.51 5.96-8.244 10.194-11.214 4.216-2.962 9.006-5.162 14.373-6.582C369.07 64.714 374.473 64 379.95 64c6.387 0 12.404.826 18.067 2.48 5.644 1.66 10.603 4.14 14.873 7.445 4.29 3.314 7.688 7.39 10.194 12.237 2.507 4.856 3.77 10.472 3.77 16.86h-21.39c-.576-7.873-3.27-13.434-8.06-16.683-4.79-3.26-10.88-4.884-18.307-4.884-2.507 0-5.07.26-7.687.77-2.637.52-5.032 1.374-7.204 2.572-2.154 1.198-3.955 2.823-5.385 4.874s-2.134 4.623-2.134 7.697c0 4.344 1.337 7.733 4.03 10.183 2.673 2.46 6.182 4.308 10.51 5.56.463.122 2.264.604 5.403 1.458s6.628 1.793 10.51 2.824c3.88 1.03 7.687 2.024 11.38 3 3.715.965 6.37 1.68 7.967 2.134 3.992 1.254 7.464 2.97 10.435 5.134s5.44 4.65 7.446 7.446c1.987 2.794 3.472 5.793 4.457 8.977.966 3.203 1.45 6.397 1.45 9.59 0 6.843-1.393 12.69-4.198 17.537s-6.48 8.81-11.03 11.893c-4.567 3.083-9.766 5.33-15.578 6.76-5.813 1.42-11.754 2.135-17.808 2.135-6.945 0-13.517-.854-19.663-2.563-6.165-1.708-11.532-4.335-16.1-7.873-4.55-3.537-8.207-8.068-10.937-13.6-2.748-5.535-4.178-12.07-4.29-19.6h21.39z" fill="#595959"/></svg>