<svg xmlns="http://www.w3.org/2000/svg" width="512" height="512" viewBox="0 0 512 512"><path d="M384 21.334c58.816 0 106.666 47.85 106.666 106.666S442.816 234.666 384 234.666 277.334 186.816 277.334 128 325.184 21.334 384 21.334zM384 0c-70.692 0-128 57.307-128 128s57.308 128 128 128 128-57.308 128-128S454.692 0 384 0zM330.666 64h60.22c13.893 0 24.316 3.044 31.252 9.143 6.955 6.09 10.423 14.58 10.423 25.454 0 6.1-.88 11.147-2.643 15.144-1.763 4.008-3.832 7.238-6.19 9.69s-4.674 4.21-6.973 5.29c-2.3 1.07-3.966 1.79-5.02 2.15v.36c1.877.232 3.91.836 6.093 1.79 2.165.952 4.196 2.48 6.074 4.57 1.898 2.092 3.45 4.816 4.696 8.162 1.226 3.346 1.84 7.53 1.84 12.547 0 7.528.574 14.374 1.685 20.522 1.112 6.157 2.856 10.553 5.213 13.18H413.67c-1.648-2.753-2.625-5.798-2.913-9.144-.307-3.346-.44-6.575-.44-9.678 0-5.856-.364-10.913-1.054-15.154-.71-4.24-2.012-7.762-3.89-10.572-1.896-2.81-4.444-4.873-7.682-6.186s-7.395-1.975-12.453-1.975H352.74V192H330.67V64zm22.074 58.26h36.214c7.05 0 12.416-1.7 16.056-5.105 3.66-3.414 5.48-8.52 5.48-15.33 0-4.065-.594-7.38-1.762-9.95-1.188-2.567-2.798-4.57-4.867-6.01-2.05-1.43-4.406-2.383-7.05-2.87-2.644-.477-5.384-.71-8.22-.71h-35.85v39.975z" fill="#595959"/></svg>