<svg xmlns="http://www.w3.org/2000/svg" width="16" height="16" viewBox="0 0 16 16"><path d="M11.204 6.306c-.382.34-.828.59-.993.776-.097.12-.12.207-.12.404L10.08 8H8.597l-.012-.71c-.01-.68.23-1.017.687-1.345l.665-.48c.24-.176.48-.373.48-.68 0-.458-.392-.71-1.047-.71-.665 0-1.2.33-1.538.657L7.33 3.508c.23-.25.927-.842 2.333-.842 1.396 0 2.333.885 2.333 1.935 0 .908-.37 1.312-.796 1.706zM9.334 10.7c-.695 0-1.167-.373-1.167-1s.472-1 1.167-1 1.166.37 1.166 1c0 .627-.47 1-1.166 1z" fill="#595959"/></svg>