<svg xmlns="http://www.w3.org/2000/svg" width="768" height="768" viewBox="0 0 768 768"><path d="M643.357 572.414c-9.545 7.64-19.79 14.303-30.935 19.62 44.71 21.22 78.223 62.212 88.364 111.966h-313.57c10.14-49.754 43.652-90.746 88.363-111.965-11.146-5.318-21.393-11.983-30.937-19.62C389.283 606.078 352 666.468 352 736h384c0-69.533-37.282-129.92-92.64-163.586zM544 352c52.935 0 96 43.065 96 96s-43.065 96-96 96-96-43.065-96-96 43.065-96 96-96zm0-32c-70.693 0-128 57.308-128 128s57.307 128 128 128 128-57.307 128-128-57.308-128-128-128z" fill="#595959"/></svg>