<?xml version="1.0" encoding="utf-8"?>
<!-- Generator: Adobe Illustrator 17.1.0, SVG Export Plug-In . SVG Version: 6.00 Build 0)  -->
<!DOCTYPE svg PUBLIC "-//W3C//DTD SVG 1.1//EN" "http://www.w3.org/Graphics/SVG/1.1/DTD/svg11.dtd">
<svg version="1.1" id="Layer_1" xmlns="http://www.w3.org/2000/svg" xmlns:xlink="http://www.w3.org/1999/xlink" x="0px" y="0px"
	 width="220px" height="50px" viewBox="0 0 220 50" enable-background="new 0 0 220 50" xml:space="preserve">
<path fill="#7BCE05" d="M7.7,15.9l4.5,12.7l3.2-9.8l3.8,10.8l-2.9,8.6H8.2L0.4,15.9H7.7z M36.9,0l-9.4,28.9l-3.8-13h-7.3l7.8,22.4
	h7.5L45.1,0H36.9z M61.8,26.4c0-6.5-4.6-11-11.2-11s-12.1,4.2-12.1,11.6c0,7.4,5,11.7,12,11.7c7,0,9.9-3.1,10.6-3.6l-2.9-3.8
	c-1.3,0.9-3.8,2.1-6.7,2.1c-3,0-5.4-1.5-5.7-4.7h16C61.7,28.9,61.8,27.5,61.8,26.4z M45.8,24.7c0.1-2.1,1.6-4.5,4.6-4.5
	c3,0,4.5,2.5,4.6,4.5H45.8z M88.6,27.1c0-6.6-4.1-11.6-10.5-11.6c-3.8,0-6.1,1.8-7,3.1h-0.1c0,0,0.1-2.1,0.1-4.1V6.9h-7.3v31.4h6.9
	l0-3h0c1.7,2.4,4.4,3.5,7.4,3.5C84.5,38.8,88.6,33.7,88.6,27.1z M81.2,27c0,3.5-2.1,5.8-5.2,5.8c-3.1,0-5.3-2.4-5.3-5.8
	c0-3.5,2.1-5.8,5.3-5.8C79.1,21.2,81.2,23.6,81.2,27z M110.6,6.9H91v31.4h7.3v-12h11.6v-5.9H98.3v-7.7h12.3V6.9L110.6,6.9z
	 M121.1,9.5c0-2.2-1.7-3.8-4.1-3.8s-4.1,1.5-4.1,3.8c0,2.3,1.7,3.8,4.1,3.8S121.1,11.8,121.1,9.5z M120.6,15.9h-7.3v22.4h7.3V15.9z
	 M131.2,6.9H124v31.4h7.3V6.9z M142.4,9.5c0-2.2-1.7-3.8-4.1-3.8s-4.1,1.5-4.1,3.8c0,2.3,1.7,3.8,4.1,3.8S142.4,11.8,142.4,9.5z
	 M141.9,15.9h-7.3v22.4h7.3V15.9z M166.9,25.1c0-5.4-1.7-9.6-8.2-9.6c-3.2,0-5.3,1.6-6.5,3.6h-0.1l0-3.2h-7.3v22.4h7.3V27.2
	c0-3.2,0.9-5.8,4-5.8c3,0,3.5,2.2,3.5,5.2v11.7h7.3L166.9,25.1L166.9,25.1z M194,15.9h-7.3l0.1,2.9h-0.1c-1.2-1.5-3.3-3.3-7.1-3.3
	c-5.5,0-10.6,3.8-10.6,11.1s5.1,11,10.6,11c3.5,0,5.7-1.4,7.1-3.2h0.1v0.7c0,2-0.6,3.6-1.4,4.5c-0.8,0.8-2.3,1.8-5.3,1.8
	c-3,0-6.4-1.5-7.7-2.5l-3,4.9c1.5,1.1,5.7,3.3,10.9,3.3c5.1,0,8.1-1.5,10.3-3.5c2.2-2,3.4-4.9,3.4-9.7L194,15.9L194,15.9z
	 M186.9,26.6c0,3.1-2,5.5-5.2,5.5s-5.3-2.4-5.3-5.5c0-3,2-5.4,5.3-5.4C184.9,21.2,186.9,23.5,186.9,26.6z M214.6,31.4
	c0-2.4-1.1-3.8-1.8-4.5c-0.8-0.7-1.9-1.3-2.9-1.7c-1-0.4-1.6-0.6-3.2-1s-3.3-1-3.3-2.2s1-1.6,2.7-1.6c1.8,0,4.4,1.2,5.6,2.2l2.4-4.3
	c-1.3-1-3.9-2.8-8.6-2.8c-4.7,0-8.5,2.7-8.5,7c0,4,2.8,5.4,3.8,5.9c1,0.5,2.3,0.8,3.2,1c0.8,0.3,4.1,1,4.1,2.5
	c0,1.5-1.3,1.9-3.1,1.9c-1.8,0-4.8-1.2-6.6-2.7l-2.7,4.3c2.5,2.4,6.1,3.5,9.5,3.5c3,0,5.2-0.7,6.9-2
	C213.6,35.5,214.6,33.7,214.6,31.4z"/>
</svg>
