<?xml version="1.0" encoding="utf-8"?>
<!-- Generator: Adobe Illustrator 16.2.1, SVG Export Plug-In . SVG Version: 6.00 Build 0)  -->
<!DOCTYPE svg PUBLIC "-//W3C//DTD SVG 1.1//EN" "http://www.w3.org/Graphics/SVG/1.1/DTD/svg11.dtd">
<svg version="1.1" id="Layer_1" xmlns="http://www.w3.org/2000/svg" xmlns:xlink="http://www.w3.org/1999/xlink" x="0px" y="0px"
	 width="220px" height="50px" viewBox="-2.5 -1.5 220 50" enable-background="new -2.5 -1.5 220 50" xml:space="preserve">
<path fill="#595959" d="M7.728,15.894l4.497,12.723l3.222-9.782l3.781,10.847l-2.909,8.633H8.189L0.389,15.894H7.728z M36.909,0.001
	l-9.427,28.901L23.66,15.91h-7.273l7.804,22.409h7.47L45.119,0.001H36.909z M61.791,26.448c0-6.548-4.593-10.959-11.231-10.959
	c-6.638,0-12.095,4.229-12.095,11.642c0,7.412,5.047,11.686,11.958,11.686c6.957,0,9.913-3.091,10.641-3.636L58.2,31.405
	c-1.273,0.864-3.82,2.138-6.73,2.138c-2.956,0-5.41-1.455-5.729-4.684h15.96C61.699,28.858,61.791,27.541,61.791,26.448z
	 M45.785,24.721c0.091-2.138,1.637-4.502,4.638-4.502c3.046,0,4.547,2.457,4.594,4.502H45.785z M88.601,27.13
	c0-6.593-4.093-11.642-10.549-11.642c-3.82,0-6.093,1.774-7.048,3.138h-0.137c0,0,0.092-2.092,0.092-4.138V6.941h-7.275v31.375
	h6.911l-0.046-2.956h0.046c1.682,2.365,4.364,3.455,7.411,3.455C84.508,38.815,88.601,33.724,88.601,27.13z M81.188,27.039
	c0,3.457-2.091,5.821-5.229,5.821c-3.139,0-5.274-2.364-5.274-5.821c0-3.455,2.137-5.82,5.274-5.82
	C79.096,21.219,81.188,23.583,81.188,27.039z M110.562,6.941H90.965v31.375h7.321v-11.96h11.55v-5.865h-11.55v-7.686h12.276V6.941
	L110.562,6.941z M121.12,9.533c0-2.228-1.683-3.774-4.138-3.774s-4.14,1.546-4.14,3.774c0,2.274,1.685,3.774,4.14,3.774
	S121.12,11.807,121.12,9.533z M120.62,15.899h-7.276v22.417h7.276V15.899z M131.232,6.941h-7.274v31.375h7.274V6.941z
	 M142.376,9.533c0-2.228-1.683-3.774-4.138-3.774S134.1,7.305,134.1,9.533c0,2.274,1.684,3.774,4.139,3.774
	S142.376,11.807,142.376,9.533z M141.876,15.899H134.6v22.417h7.276V15.899z M166.932,25.083c0-5.411-1.686-9.595-8.187-9.595
	c-3.229,0-5.274,1.637-6.503,3.638h-0.092l0.047-3.229h-7.275v22.417h7.275V27.222c0-3.229,0.863-5.775,4.001-5.775
	c3.002,0,3.456,2.229,3.456,5.184v11.688h7.275V25.083H166.932z M193.979,15.899h-7.274l0.09,2.864h-0.09
	c-1.183-1.546-3.319-3.274-7.095-3.274c-5.502,0-10.596,3.82-10.596,11.05c0,7.23,5.094,11.049,10.596,11.049
	c3.502,0,5.684-1.408,7.05-3.183h0.09v0.728c0,2.002-0.591,3.593-1.362,4.457c-0.773,0.818-2.275,1.773-5.277,1.773
	c-3,0-6.409-1.546-7.729-2.548l-3.001,4.865c1.547,1.138,5.685,3.319,10.868,3.319c5.139,0,8.141-1.5,10.322-3.547
	c2.182-2.045,3.41-4.865,3.41-9.685V15.899H193.979z M186.932,26.583c0,3.094-2,5.457-5.229,5.457s-5.272-2.363-5.272-5.457
	c0-3.045,2.045-5.411,5.272-5.411C184.932,21.173,186.932,23.539,186.932,26.583z M214.611,31.404c0-2.363-1.092-3.818-1.818-4.547
	c-0.773-0.729-1.909-1.318-2.909-1.684c-0.956-0.362-1.638-0.59-3.184-1.045s-3.273-1-3.273-2.183s0.954-1.637,2.683-1.637
	c1.817,0,4.367,1.182,5.64,2.182l2.362-4.273c-1.271-1.046-3.909-2.774-8.594-2.774c-4.684,0-8.504,2.682-8.504,7.047
	c0,4,2.775,5.412,3.82,5.866c1.047,0.454,2.32,0.818,3.184,1.046c0.817,0.272,4.094,1.002,4.094,2.456
	c0,1.455-1.273,1.91-3.094,1.91c-1.817,0-4.819-1.184-6.639-2.729l-2.727,4.318c2.545,2.41,6.092,3.455,9.455,3.455
	c3.002,0,5.229-0.682,6.867-1.954C213.611,35.542,214.611,33.724,214.611,31.404z"/>
</svg>
