<?xml version="1.0" encoding="utf-8"?>
<!-- Generator: Adobe Illustrator 16.2.1, SVG Export Plug-In . SVG Version: 6.00 Build 0)  -->
<!DOCTYPE svg PUBLIC "-//W3C//DTD SVG 1.1//EN" "http://www.w3.org/Graphics/SVG/1.1/DTD/svg11.dtd">
<svg version="1.1" id="Layer_1" xmlns="http://www.w3.org/2000/svg" xmlns:xlink="http://www.w3.org/1999/xlink" x="0px" y="0px"
	 width="130px" height="38px" viewBox="0 0 130 38" enable-background="new 0 0 130 38" xml:space="preserve">
<g>
	<g>
		<polygon fill="#7BCE05" points="38.118,1 28.928,29.055 25.051,16.021 18.826,16.021 25.986,36.588 32.616,36.588 45.118,1 		"/>
		<polygon fill="#7BCE05" points="14.427,29.055 10.018,16.006 3.718,16.006 10.875,36.584 18.125,36.584 21.081,27.81 
			17.889,18.659 		"/>
	</g>
	<g>
		<path fill="#595959" d="M55.253,17.184c-1.517-1.041-3.314-1.568-5.352-1.568c-5.661,0-10.095,4.706-10.095,10.714
			c0,2.68,0.933,5.232,2.626,7.192C44.304,35.699,47.208,37,50.191,37c1.973,0,3.743-0.572,5.267-1.706v1.295h5.732V6.761h-5.938
			L55.253,17.184L55.253,17.184z M55.253,29.202c-0.966,1.372-2.711,2.271-4.527,2.271c-2.838,0-4.979-2.211-4.979-5.144
			c0-2.515,1.702-5.188,4.857-5.188c1.835,0,3.394,0.651,4.65,2.278c0.548,0.805,0.718,1.898,0.72,2.908
			C55.975,27.498,55.758,28.428,55.253,29.202z"/>
		<path fill="#595959" d="M95.183,23.791c-1.572-0.523-2.928-0.972-2.928-1.747c0-0.903,1.257-1.315,2.428-1.315
			c1.604,0,2.98,0.819,3.657,1.304l0.25,0.18l2.824-4.352l-0.212-0.165c-1.289-1.007-4.16-2.081-6.935-2.081
			c-3.854,0-7.953,2.283-7.953,6.511c0,4.024,3.539,5.24,6.385,6.217c1.769,0.607,3.294,1.133,3.294,2.145
			c0,0.796-0.97,1.397-2.26,1.397c-1.968,0-3.993-0.729-5.28-1.9l-0.25-0.228l-2.943,4.342l0.227,0.167
			c2.36,1.738,5.35,2.735,8.207,2.735c4.094,0,8.24-2.222,8.24-6.471C101.936,26.025,98.034,24.732,95.183,23.791z"/>
		<polygon fill="#595959" points="115.001,25.308 125.089,16.029 116.687,16.029 110.218,22.112 110.218,6.761 104.277,6.761 
			104.277,36.588 110.218,36.588 110.218,28.362 118.246,36.588 126.282,36.588 		"/>
		<path fill="#595959" d="M74.03,15.615c-5.709,0-10.014,4.605-10.014,10.714C64.017,32.612,68.441,37,74.773,37
			c3.283,0,6.509-1.414,8.42-3.688l0.171-0.206l-3.452-3.452l-0.206,0.223c-0.477,0.521-2.235,2.214-4.812,2.214
			c-2.623,0-4.658-1.69-5.062-4.152h13.751l0.042-0.24c0.085-0.461,0.128-1.009,0.128-1.576
			C83.753,20.23,79.484,15.615,74.03,15.615z M70.054,23.755c0.005-0.1,0.05-0.312,0.05-0.312c0.374-1.461,1.888-2.918,3.927-2.918
			c1.935,0,3.318,1.46,3.615,2.918c0,0,0.046,0.235,0.05,0.312H70.054z"/>
	</g>
</g>
</svg>
