<?xml version="1.0" encoding="utf-8"?>
<!-- Generator: Adobe Illustrator 16.2.1, SVG Export Plug-In . SVG Version: 6.00 Build 0)  -->
<!DOCTYPE svg PUBLIC "-//W3C//DTD SVG 1.1//EN" "http://www.w3.org/Graphics/SVG/1.1/DTD/svg11.dtd">
<svg version="1.1" id="Layer_1" xmlns="http://www.w3.org/2000/svg" xmlns:xlink="http://www.w3.org/1999/xlink" x="0px" y="0px"
	 width="130px" height="38px" viewBox="0 0 130 38" enable-background="new 0 0 130 38" xml:space="preserve">
<path fill="#FFFFFF" d="M45.119,1L32.617,36.586h-6.629l-7.16-20.566h6.225l3.877,13.034L38.119,1H45.119z M14.429,29.054
	l-4.408-13.048h-6.3l7.158,20.577h7.248l2.957-8.773l-3.19-9.15L14.429,29.054z M55.254,6.762h5.938v29.825H55.46v-1.294
	c-1.526,1.132-3.295,1.706-5.268,1.706c-2.982,0-5.887-1.302-7.758-3.479c-1.693-1.958-2.626-4.514-2.626-7.192
	c0-6.008,4.434-10.713,10.096-10.713c2.037,0,3.834,0.527,5.351,1.568L55.254,6.762L55.254,6.762z M55.973,26.328
	c-0.002-1.012-0.171-2.105-0.719-2.909c-1.256-1.627-2.814-2.278-4.65-2.278c-3.155,0-4.856,2.673-4.856,5.188
	c0,2.934,2.14,5.146,4.978,5.146c1.817,0,3.562-0.899,4.527-2.272C55.758,28.427,55.975,27.497,55.973,26.328z M95.181,23.789
	c-1.571-0.522-2.927-0.97-2.927-1.745c0-0.903,1.256-1.315,2.428-1.315c1.604,0,2.98,0.818,3.658,1.304l0.248,0.179l2.825-4.352
	l-0.212-0.165c-1.289-1.007-4.161-2.081-6.935-2.081c-3.854,0-7.953,2.282-7.953,6.511c0,4.023,3.539,5.24,6.385,6.216
	c1.769,0.607,3.294,1.133,3.294,2.146c0,0.796-0.971,1.396-2.26,1.396c-1.968,0-3.993-0.728-5.28-1.899l-0.25-0.228l-2.943,4.342
	l0.227,0.167c2.36,1.738,5.35,2.734,8.206,2.734c4.095,0,8.241-2.222,8.241-6.47C101.935,26.025,98.032,24.732,95.181,23.789z
	 M114.999,25.307l10.086-9.278h-8.4l-6.469,6.083V6.762h-5.94v29.825h5.94v-8.225l8.027,8.225h8.036L114.999,25.307z M83.753,26.121
	c0,0.569-0.044,1.117-0.129,1.578l-0.042,0.238H69.833c0.401,2.463,2.438,4.154,5.062,4.154c2.574,0,4.331-1.694,4.809-2.215
	l0.205-0.223l3.453,3.453l-0.17,0.205C81.282,35.586,78.056,37,74.771,37c-6.331,0-10.756-4.388-10.756-10.67
	c0-6.108,4.305-10.713,10.014-10.713C79.483,15.615,83.753,20.229,83.753,26.121z M77.694,23.754
	c-0.004-0.077-0.05-0.312-0.05-0.312c-0.296-1.458-1.68-2.918-3.614-2.918c-2.039,0-3.554,1.456-3.928,2.918
	c0,0-0.044,0.215-0.049,0.312H77.694z"/>
</svg>
