<?xml version="1.0" encoding="utf-8"?>
<!-- Generated by IcoMoon.io -->
<!DOCTYPE svg PUBLIC "-//W3C//DTD SVG 1.1//EN" "http://www.w3.org/Graphics/SVG/1.1/DTD/svg11.dtd">
<svg version="1.1" xmlns="http://www.w3.org/2000/svg" xmlns:xlink="http://www.w3.org/1999/xlink" width="504" height="504" viewBox="0 0 504 504">
<g>
</g>
	<path d="M210 105h-42l-126 315h46.2l37.8-84h126l37.8 84h46.2l-126-315zM136.5 294l52.5-136.5 52.5 136.5h-105z" fill="#595959" />
	<path d="M451.5 63h10.5v-21h-10.5c-16.8 0-31.5 8.4-42 21-10.5-12.6-25.2-21-42-21h-10.5v21h10.5c16.8 0 31.5 14.7 31.5 31.5v157.5h-42v21h42v147c0 18.9-14.7 42-31.5 42h-10.5v21h10.5c16.8 0 31.5-16.8 42-31.5 10.5 14.7 25.2 31.5 42 31.5h10.5v-21h-10.5c-16.8 0-31.5-23.1-31.5-42v-147h42v-21h-42v-157.5c0-16.8 14.7-31.5 31.5-31.5z" fill="#595959" />
</svg>
