<?xml version="1.0" encoding="utf-8"?>
<!-- Generated by IcoMoon.io -->
<!DOCTYPE svg PUBLIC "-//W3C//DTD SVG 1.1//EN" "http://www.w3.org/Graphics/SVG/1.1/DTD/svg11.dtd">
<svg version="1.1" xmlns="http://www.w3.org/2000/svg" xmlns:xlink="http://www.w3.org/1999/xlink" width="512" height="512" viewBox="0 0 512 512">
<g>
</g>
	<path d="M272 32h-32c-44.125 0-80 35.875-80 80v288c0 44.125 35.875 80 80 80h32c44.125 0 80-35.875 80-80v-16h-32v16c0 26.469-21.531 48-48 48h-32c-26.469 0-48-21.531-48-48v-288c0-26.469 21.531-48 48-48h32c26.469 0 48 21.531 48 48v176.639c0 17.293-14.068 31.361-32.639 31.361-17.293 0-31.361-14.068-31.361-31.361v-128.639h-32v128.639c0 34.994 28.367 63.361 63.361 63.361h1.279c34.993 0 63.36-28.367 63.36-63.361v-176.639c0-44.125-35.875-80-80-80z" fill="#595959" />
</svg>
