<svg xmlns="http://www.w3.org/2000/svg" width="512" height="512" viewBox="0 0 512 512"><path stroke="#449FDB" d="M0 0"/><path d="M272 32h-32c-44.125 0-80 35.875-80 80v288c0 44.125 35.875 80 80 80h32c44.125 0 80-35.875 80-80v-16h-32v16c0 26.47-21.53 48-48 48h-32c-26.47 0-48-21.53-48-48V112c0-26.47 21.53-48 48-48h32c26.47 0 48 21.53 48 48v176.64c0 17.292-14.068 31.36-32.64 31.36-17.292 0-31.36-14.068-31.36-31.36V160h-32v128.64c0 34.993 28.367 63.36 63.36 63.36h1.28c34.993 0 63.36-28.367 63.36-63.36V112c0-44.125-35.875-80-80-80z" fill="#595959"/></svg>