<?xml version="1.0" encoding="utf-8"?>
<!-- Generated by IcoMoon.io -->
<!DOCTYPE svg PUBLIC "-//W3C//DTD SVG 1.1//EN" "http://www.w3.org/Graphics/SVG/1.1/DTD/svg11.dtd">
<svg version="1.1" xmlns="http://www.w3.org/2000/svg" xmlns:xlink="http://www.w3.org/1999/xlink" width="512" height="512" viewBox="0 0 512 512">
<g>
</g>
	<path d="M256 32c-123.711 0-224 100.289-224 224 0 123.713 100.289 224 224 224 123.713 0 224-100.287 224-224 0-123.711-100.287-224-224-224zM64 256c0-41.397 13.301-79.674 35.67-111.065l267.394 267.394c-31.39 22.369-69.668 35.67-111.065 35.67-105.869 0-192-86.131-192-192zM412.318 367.076l-267.394-267.394c31.392-22.375 69.674-35.681 111.076-35.681 105.869 0 192 86.131 192 192 0 41.403-13.307 79.683-35.682 111.076z" fill="#595959" />
</svg>
