<?xml version="1.0" encoding="utf-8"?>
<!-- Generated by IcoMoon.io -->
<!DOCTYPE svg PUBLIC "-//W3C//DTD SVG 1.1//EN" "http://www.w3.org/Graphics/SVG/1.1/DTD/svg11.dtd">
<svg version="1.1" xmlns="http://www.w3.org/2000/svg" xmlns:xlink="http://www.w3.org/1999/xlink" width="512" height="512" viewBox="0 0 512 512">
<g>
</g>
	<path d="M384 0h-256c-17.6 0-32 14.4-32 32v448c0 17.6 14.4 32 32 32h256c17.6 0 32-14.4 32-32v-448c0-17.6-14.4-32-32-32zM192 480h-64v-64h64v64zM192 384h-64v-64h64v64zM192 288h-64v-64h64v64zM288 480h-64v-64h64v64zM288 384h-64v-64h64v64zM288 288h-64v-64h64v64zM384 480h-64v-64h64v64zM384 384h-64v-64h64v64zM384 288h-64v-64h64v64zM384 192h-256v-160h256v160z" fill="#595959" />
</svg>
