<?xml version="1.0" encoding="utf-8"?>
<!-- Generated by IcoMoon.io -->
<!DOCTYPE svg PUBLIC "-//W3C//DTD SVG 1.1//EN" "http://www.w3.org/Graphics/SVG/1.1/DTD/svg11.dtd">
<svg version="1.1" xmlns="http://www.w3.org/2000/svg" xmlns:xlink="http://www.w3.org/1999/xlink" width="512" height="512" viewBox="0 0 512 512">
<g>
</g>
	<path d="M256 352h64v64h-64v-64z" fill="#595959" />
	<path d="M352 352h64v64h-64v-64z" fill="#595959" />
	<path d="M64 352h64v64h-64v-64z" fill="#595959" />
	<path d="M160 352h64v64h-64v-64z" fill="#595959" />
	<path d="M256 256h64v64h-64v-64z" fill="#595959" />
	<path d="M352 256h64v64h-64v-64z" fill="#595959" />
	<path d="M64 256h64v64h-64v-64z" fill="#595959" />
	<path d="M160 256h64v64h-64v-64z" fill="#595959" />
	<path d="M256 160h64v64h-64v-64z" fill="#595959" />
	<path d="M352 160h64v64h-64v-64z" fill="#595959" />
	<path d="M160 160h64v64h-64v-64z" fill="#595959" />
	<path d="M0 32v448h480v-448h-480zM448 448h-416v-320h416v320z" fill="#595959" />
</svg>
