<?xml version="1.0" encoding="utf-8"?>
<!-- Generated by IcoMoon.io -->
<!DOCTYPE svg PUBLIC "-//W3C//DTD SVG 1.1//EN" "http://www.w3.org/Graphics/SVG/1.1/DTD/svg11.dtd">
<svg version="1.1" xmlns="http://www.w3.org/2000/svg" xmlns:xlink="http://www.w3.org/1999/xlink" width="512" height="512" viewBox="0 0 512 512">
<g>
</g>
	<path d="M152 304c0 57.438 46.562 104 104 104s104-46.562 104-104-46.562-104-104-104-104 46.562-104 104zM480 128h-112c-8-32-16-64-48-64h-128c-32 0-40 32-48 64h-112c-17.6 0-32 14.4-32 32v288c0 17.6 14.4 32 32 32h448c17.6 0 32-14.4 32-32v-288c0-17.6-14.4-32-32-32zM256 446c-78.425 0-142-63.574-142-142 0-78.425 63.575-142 142-142 78.426 0 142 63.575 142 142 0 78.426-63.573 142-142 142zM480 224h-64v-32h64v32z" fill="#595959" />
</svg>
