<?xml version="1.0" encoding="utf-8"?>
<!-- Generated by IcoMoon.io -->
<!DOCTYPE svg PUBLIC "-//W3C//DTD SVG 1.1//EN" "http://www.w3.org/Graphics/SVG/1.1/DTD/svg11.dtd">
<svg version="1.1" xmlns="http://www.w3.org/2000/svg" xmlns:xlink="http://www.w3.org/1999/xlink" width="512" height="512" viewBox="0 0 512 512">
<g>
</g>
	<path d="M391.6 152.8l16.7-27.7-29.7-12.6 7.3-31.5-32.2-2.8-2.8-32.2-31.4 7.2-12.6-29.7-27.6 16.7-23.3-24.2-23.3 24.4-27.6-16.7-12.6 29.7-31.4-7.2-2.8 32.1-32.2 2.8 7.3 31.4-29.7 12.6 16.6 27.7-24.3 21.1 24.3 21.2-16.6 27.6 29.7 12.6-7.3 31.4 32.1 2.8 3.1 32.1 12.6-3 2.1 181.4 80-71.5 80 71.5 2.3-180.3 12.3 2 2.9-32.2 32.2-2.8-7.2-31.4 29.7-12.6-16.6-27.7 24.4-21.1-24.4-21.1zM352 176c0 53-43 96-96 96s-96-43-96-96 43-96 96-96 96 43 96 96z" fill="#595959" />
</svg>
