<?xml version="1.0" encoding="utf-8"?>
<!-- Generated by IcoMoon.io -->
<!DOCTYPE svg PUBLIC "-//W3C//DTD SVG 1.1//EN" "http://www.w3.org/Graphics/SVG/1.1/DTD/svg11.dtd">
<svg version="1.1" xmlns="http://www.w3.org/2000/svg" xmlns:xlink="http://www.w3.org/1999/xlink" width="512" height="512" viewBox="0 0 512 512">
<g>
</g>
	<path d="M128 384h224v32h-224v-32z" fill="#595959" />
	<path d="M128 320h224v32h-224v-32z" fill="#595959" />
	<path d="M128 256h224v32h-224v-32z" fill="#595959" />
	<path d="M368 96h-49.5c-7.414-36.516-39.797-64-78.5-64s-70.987 27.484-78.4 64h-49.6c-26.51 0-48 21.49-48 48v320c0 26.51 21.49 48 48 48h256c26.51 0 48-21.49 48-48v-320c0-26.51-21.49-48-48-48zM384 464c0 8.822-7.178 16-16 16h-256c-8.823 0-16-7.178-16-16v-272h288v272zM384 160h-288v-16c0-8.857 7.142-16 16-16h96.75c-5.205-6.752-8.75-14.817-8.75-24 0-22.092 17.908-40 40-40s40 17.908 40 40c0 9.183-3.545 17.248-8.75 24h96.75c8.822 0 16 7.178 16 16v16z" fill="#595959" />
</svg>
