<?xml version="1.0" encoding="utf-8"?>
<!-- Generated by IcoMoon.io -->
<!DOCTYPE svg PUBLIC "-//W3C//DTD SVG 1.1//EN" "http://www.w3.org/Graphics/SVG/1.1/DTD/svg11.dtd">
<svg version="1.1" xmlns="http://www.w3.org/2000/svg" xmlns:xlink="http://www.w3.org/1999/xlink" width="512" height="512" viewBox="0 0 512 512">
<g>
</g>
	<path d="M402.248 203.388c-1.683-4.701-3.453-9.283-5.569-13.751l26.696-56.149c-12.653-17.15-27.741-32.268-44.893-44.862l-56.118 26.696c-4.498-2.118-9.081-3.888-13.812-5.6l-20.806-58.529c-10.418-1.597-20.895-3.193-31.746-3.193s-21.328 1.596-31.748 3.192l-20.806 58.529c-4.73 1.712-9.311 3.482-13.811 5.6l-56.121-26.696c-17.149 12.594-32.239 27.712-44.891 44.862l26.696 56.149c-2.118 4.469-3.888 9.051-5.571 13.751l-58.558 20.806c-1.623 10.448-3.19 20.925-3.19 31.807 0 10.853 1.567 21.328 3.192 31.776l58.558 20.775c1.683 4.731 3.453 9.314 5.571 13.812l-26.696 56.118c12.652 17.151 27.741 32.241 44.891 44.893l56.121-26.696c4.5 2.116 9.081 3.889 13.811 5.569l20.806 58.56c10.418 1.625 20.895 3.193 31.746 3.193s21.328-1.568 31.747-3.192l20.806-58.56c4.73-1.681 9.313-3.453 13.812-5.569l56.118 26.696c17.151-12.651 32.239-27.741 44.893-44.893l-26.696-56.118c2.116-4.498 3.887-9.081 5.569-13.812l58.56-20.775c1.623-10.449 3.191-20.924 3.191-31.777 0-10.882-1.568-21.359-3.192-31.806l-58.56-20.806zM256 334c-43.121 0-78-34.938-78-78s34.879-78 78-78c43.12 0 78 34.938 78 78 0 43.062-34.88 78-78 78z" fill="#595959" />
</svg>
