<?xml version="1.0" encoding="utf-8"?>
<!-- Generated by IcoMoon.io -->
<!DOCTYPE svg PUBLIC "-//W3C//DTD SVG 1.1//EN" "http://www.w3.org/Graphics/SVG/1.1/DTD/svg11.dtd">
<svg version="1.1" xmlns="http://www.w3.org/2000/svg" xmlns:xlink="http://www.w3.org/1999/xlink" width="512" height="512" viewBox="0 0 512 512">
<g>
</g>
	<path d="M48 144l64 64 72-64 72 64 64-64 72 64 72-64 48 48v-96c0-35.347-28.654-64-64-64h-384c-35.346 0-64 28.653-64 64v96l48-48z" fill="#595959" />
	<path d="M464 208l-72 72-72-64-64 64-72-64-72 64-64-64-48 48v56c0 35.346 28.654 64 64 64h32l160 128v-128h192c35.346 0 64-28.654 64-64v-56l-48-56z" fill="#595959" />
</svg>
