<?xml version="1.0" encoding="utf-8"?>
<!-- Generated by IcoMoon.io -->
<!DOCTYPE svg PUBLIC "-//W3C//DTD SVG 1.1//EN" "http://www.w3.org/Graphics/SVG/1.1/DTD/svg11.dtd">
<svg version="1.1" xmlns="http://www.w3.org/2000/svg" xmlns:xlink="http://www.w3.org/1999/xlink" width="512" height="512" viewBox="0 0 512 512">
<g>
</g>
	<path d="M96 128h320v32h-320v-32z" fill="#595959" />
	<path d="M96 192h320v32h-320v-32z" fill="#595959" />
	<path d="M96 256h320v32h-320v-32z" fill="#595959" />
	<path d="M297.373 374.627l-9.373-9.373v-13.254h-64v96l-112-96h-48c-17.645 0-32-14.356-32-32v-224c0-17.644 14.355-32 32-32h384c17.644 0 32 14.356 32 32v192h32v-192c0-35.347-28.654-64-64-64h-384c-35.346 0-64 28.653-64 64v224c0 35.346 28.654 64 64 64h32l160 128v-128h50.746l-9.373-9.373z" fill="#595959" />
	<path d="M320 320v32l64 64v64h64v-64l64-64v-32z" fill="#595959" />
</svg>
