<?xml version="1.0" encoding="utf-8"?>
<!-- Generated by IcoMoon.io -->
<!DOCTYPE svg PUBLIC "-//W3C//DTD SVG 1.1//EN" "http://www.w3.org/Graphics/SVG/1.1/DTD/svg11.dtd">
<svg version="1.1" xmlns="http://www.w3.org/2000/svg" xmlns:xlink="http://www.w3.org/1999/xlink" width="512" height="512" viewBox="0 0 512 512">
<g>
</g>
	<path d="M96 128h320v32h-320v-32z" fill="#595959" />
	<path d="M96 192h320v32h-320v-32z" fill="#595959" />
	<path d="M96 256h224v32h-224v-32z" fill="#595959" />
	<path d="M448 32h-384c-35.346 0-64 28.653-64 64v224c0 35.346 28.654 64 64 64h32l160 128v-160h-32v96l-112-96h-48c-17.645 0-32-14.356-32-32v-224c0-17.644 14.355-32 32-32h384c17.644 0 32 14.356 32 32v224h32v-224c0-35.347-28.654-64-64-64z" fill="#595959" />
	<path d="M480 352h-64v-64h-64v64h-64v64h64v64h64v-64h64z" fill="#595959" />
</svg>
