<?xml version="1.0" encoding="utf-8"?>
<!-- Generated by IcoMoon.io -->
<!DOCTYPE svg PUBLIC "-//W3C//DTD SVG 1.1//EN" "http://www.w3.org/Graphics/SVG/1.1/DTD/svg11.dtd">
<svg version="1.1" xmlns="http://www.w3.org/2000/svg" xmlns:xlink="http://www.w3.org/1999/xlink" width="512" height="512" viewBox="0 0 512 512">
<g>
</g>
	<path d="M176 158.973c-25.149 0-44.156 18.619-44.156 48.24s19.007 48.478 44.156 48.478c25.131 0 44.156-18.858 44.156-48.478 0-29.4-19.025-48.24-44.156-48.24z" fill="#595959" />
	<path d="M448 32h-384c-35.346 0-64 28.653-64 64v224c0 35.346 28.654 64 64 64h32l160 128v-128h192c35.346 0 64-28.654 64-64v-224c0-35.347-28.654-64-64-64zM176 287.998c-44.815 0-80-29.84-80-79.888 0-50.034 35.185-80.109 80-80.109 44.797 0 80 30.076 80 80.109 0 50.049-35.203 79.888-80 79.888zM424 290.467h-38.297l-69.943-108.529c0 0 0.695 19.258 0.695 36.175v72.353h-36.455v-160h39.914l68.326 107.586c0 0-0.695-18.090-0.695-35.006v-72.58h36.455v160z" fill="#595959" />
</svg>
