<?xml version="1.0" encoding="utf-8"?>
<!-- Generated by IcoMoon.io -->
<!DOCTYPE svg PUBLIC "-//W3C//DTD SVG 1.1//EN" "http://www.w3.org/Graphics/SVG/1.1/DTD/svg11.dtd">
<svg version="1.1" xmlns="http://www.w3.org/2000/svg" xmlns:xlink="http://www.w3.org/1999/xlink" width="512" height="512" viewBox="0 0 512 512">
<g>
</g>
	<path d="M96 128v32h165.488l32-32z" fill="#595959" />
	<path d="M416 224v-32h-5.488l-32 32z" fill="#595959" />
	<path d="M96 192v32h101.49l32-32z" fill="#595959" />
	<path d="M96 256v32h37.49l32-32z" fill="#595959" />
	<path d="M416 288v-32h-69.488l-32.002 32z" fill="#595959" />
	<path d="M64 352c-17.645 0-32-14.356-32-32v-224c0-17.644 14.355-32 32-32h293.488l32-32h-325.488c-35.346 0-64 28.653-64 64v224c0 27.473 17.398 50.709 41.707 59.784l27.783-27.784h-5.49z" fill="#595959" />
	<path d="M224 448l-37.418-32.072-22.522 22.522 91.94 73.55v-128h192c35.346 0 64-28.654 64-64v-224c0-1.707-0.371-3.313-0.502-4.986l-31.498 31.498v197.488c0 17.644-14.356 32-32 32h-197.49l-26.51 26.51v69.49z" fill="#595959" />
	<path d="M466.746 0.001l45.255 45.255-407.296 407.296-45.255-45.255 407.296-407.296z" fill="#595959" />
</svg>
