<?xml version="1.0" encoding="utf-8"?>
<!-- Generated by IcoMoon.io -->
<!DOCTYPE svg PUBLIC "-//W3C//DTD SVG 1.1//EN" "http://www.w3.org/Graphics/SVG/1.1/DTD/svg11.dtd">
<svg version="1.1" xmlns="http://www.w3.org/2000/svg" xmlns:xlink="http://www.w3.org/1999/xlink" width="512" height="512" viewBox="0 0 512 512">
<g>
</g>
	<path d="M96 128h320v32h-320v-32z" fill="#595959" />
	<path d="M96 192h320v32h-320v-32z" fill="#595959" />
	<path d="M288 352h-64v96l-112-96h-48c-19.2 0-32-12.8-32-32v-224c0-19.2 12.8-32 32-32h384c19.2 0 32 12.8 32 32v192c12.8 12.8 22.4 32 28.8 51.2 3.2-6.4 3.2-12.8 3.2-19.2v-224c0-35.2-28.8-64-64-64h-384c-35.2 0-64 28.8-64 64v224c0 35.2 28.8 64 64 64h32l160 128v-128h32v-32z" fill="#595959" />
	<path d="M400 256h-304v32h224c19.2-19.2 48-32 80-32z" fill="#595959" />
	<path d="M400 288v0c-44.8 0-80 35.2-80 80v64c0 44.8 35.2 80 80 80h3.2c32 0 60.8-19.2 73.6-48h-38.4c-9.6 9.6-22.4 16-35.2 16-25.6 0-48-22.4-48-48v-64c0-25.6 22.4-48 48-48h3.2c25.6 0 48 22.4 48 48v32c0 9.6-6.4 16-16 16s-16-6.4-16-16v-48h-32v48c0 25.6 22.4 48 48 48v0c25.6 0 48-22.4 48-48v-32c-6.4-44.8-41.6-80-86.4-80z" fill="#595959" />
</svg>
