<svg xmlns="http://www.w3.org/2000/svg" width="512" height="512" viewBox="0 0 512 512"><path stroke="#449FDB" d="M0 0"/><path d="M177.077 294.206c.1 1.197.202 2.38.302 3.553.15 1.16.275 2.29.4 3.4.53 4.45 1.21 8.505 1.916 12.06.327 1.775.756 3.425 1.084 4.95.328 1.512.707 2.96 1.034 4.26.177.642.327 1.247.48 1.826.15.567.3 1.11.452 1.55.277.908.53 1.677.706 2.306.403 1.247.63 1.914.63 1.914 1.11 3.453 4.334 5.97 8.165 5.97 4.763.015 8.62-3.842 8.62-8.59 0 0 0-.693 0-2.004 0-.655 0-1.46-.026-2.42 0-.49.027-.944.05-1.448.027-.49.05-1.02.078-1.575.076-2.17.227-5.003.48-8.15.176-1.59.276-3.266.528-5.03.202-1.776.403-3.615.706-5.543.53-3.843 1.387-7.963 2.27-12.273 1.007-4.31 2.09-8.795 3.552-13.344 1.41-4.535 2.948-9.172 4.838-13.733 1.864-4.574 3.93-9.097 6.174-13.47.555-1.095 1.11-2.192 1.714-3.263.58-1.058 1.16-2.142 1.764-3.188 1.26-2.092 2.444-4.17 3.78-6.15 1.235-2.015 2.646-3.892 3.93-5.808.682-.92 1.336-1.84 2.017-2.747.327-.45.68-.905 1.008-1.36.353-.44.68-.87 1.034-1.297.682-.87 1.387-1.714 2.042-2.558.706-.82 1.41-1.626 2.117-2.42.327-.402.68-.793 1.008-1.184.353-.377.706-.755 1.058-1.133.706-.744 1.386-1.474 2.066-2.205 1.412-1.385 2.748-2.76 4.11-4.006 1.284-1.11 2.418-2.268 3.603-3.3l28.45 39.45 63.28-140.82L188.9 122.012l30.49 42.298c-2.243 2.268-4.612 4.838-6.93 7.724-.38.466-.78.945-1.185 1.45-.378.503-.756 1.007-1.134 1.524-.755 1.02-1.536 2.08-2.292 3.15-1.537 2.168-3 4.46-4.536 6.792-.73 1.197-1.46 2.406-2.192 3.63-.378.617-.73 1.234-1.11 1.85-.352.62-.705 1.26-1.057 1.89-.705 1.274-1.41 2.56-2.116 3.856-.68 1.323-1.36 2.646-2.04 3.994-.328.668-.656 1.335-1.01 2.016-.3.68-.63 1.373-.93 2.066-.63 1.373-1.286 2.76-1.89 4.158-1.186 2.822-2.37 5.683-3.403 8.606-1.083 2.898-2.015 5.87-2.998 8.833-.453 1.486-.856 2.985-1.285 4.484-.452 1.487-.83 2.986-1.21 4.498-.78 3-1.46 6.023-2.065 9.034-.3 1.5-.554 3.01-.805 4.51l-.403 2.244c-.1.756-.202 1.5-.327 2.243-.907 5.96-1.436 11.845-1.74 17.515-.326 5.683-.25 11.164-.125 16.317.15 2.588.225 5.083.478 7.515zM448 32H64C28.654 32 0 60.653 0 96v224c0 35.346 28.654 64 64 64h32l160 128V384h192c35.346 0 64-28.654 64-64V96c0-35.347-28.654-64-64-64zm32 288c0 17.644-14.356 32-32 32H224v96l-112-96H64c-17.645 0-32-14.356-32-32V96c0-17.644 14.355-32 32-32h384c17.644 0 32 14.356 32 32v224z" fill="#595959"/></svg>