<svg xmlns="http://www.w3.org/2000/svg" width="512" height="512" viewBox="0 0 512 512"><path stroke="#449FDB" d="M0 0"/><path d="M96 128h320v32H96v-32zm0 64h320v32H96v-32zm192 160h-64v96l-112-96H64c-19.2 0-32-12.8-32-32V96c0-19.2 12.8-32 32-32h384c19.2 0 32 12.8 32 32v192c12.8 12.8 22.4 32 28.8 51.2 3.2-6.4 3.2-12.8 3.2-19.2V96c0-35.2-28.8-64-64-64H64C28.8 32 0 60.8 0 96v224c0 35.2 28.8 64 64 64h32l160 128V384h32v-32zm112-96H96v32h224c19.2-19.2 48-32 80-32zm0 32c-44.8 0-80 35.2-80 80v64c0 44.8 35.2 80 80 80h3.2c32 0 60.8-19.2 73.6-48h-38.4c-9.6 9.6-22.4 16-35.2 16-25.6 0-48-22.4-48-48v-64c0-25.6 22.4-48 48-48h3.2c25.6 0 48 22.4 48 48v32c0 9.6-6.4 16-16 16s-16-6.4-16-16v-48h-32v48c0 25.6 22.4 48 48 48s48-22.4 48-48v-32c-6.4-44.8-41.6-80-86.4-80z" fill="#595959"/></svg>