<svg xmlns="http://www.w3.org/2000/svg" width="512" height="512" viewBox="0 0 512 512"><path stroke="#449FDB" d="M0 0"/><path d="M96 128h320v32H96v-32zm0 64h320v32H96v-32zm0 64h320v32H96v-32zm201.373 118.627L288 365.254V352h-64v96l-112-96H64c-17.645 0-32-14.356-32-32V96c0-17.644 14.355-32 32-32h384c17.644 0 32 14.356 32 32v192h32V96c0-35.347-28.654-64-64-64H64C28.654 32 0 60.653 0 96v224c0 35.346 28.654 64 64 64h32l160 128V384h50.746l-9.373-9.373zM320 320v32l64 64v64h64v-64l64-64v-32z" fill="#595959"/></svg>