<?xml version="1.0" encoding="utf-8"?>
<!-- Generated by IcoMoon.io -->
<!DOCTYPE svg PUBLIC "-//W3C//DTD SVG 1.1//EN" "http://www.w3.org/Graphics/SVG/1.1/DTD/svg11.dtd">
<svg version="1.1" xmlns="http://www.w3.org/2000/svg" xmlns:xlink="http://www.w3.org/1999/xlink" width="512" height="512" viewBox="0 0 512 512">
<g>
</g>
	<path d="M177.077 294.206c0.101 1.197 0.202 2.381 0.302 3.553 0.152 1.16 0.277 2.293 0.403 3.402 0.529 4.448 1.21 8.505 1.915 12.058 0.327 1.777 0.756 3.427 1.084 4.952 0.327 1.512 0.706 2.961 1.033 4.259 0.177 0.643 0.327 1.248 0.479 1.827 0.152 0.567 0.302 1.109 0.453 1.55 0.277 0.908 0.529 1.677 0.706 2.306 0.403 1.247 0.63 1.914 0.63 1.914 1.109 3.453 4.334 5.971 8.165 5.971 4.763 0.014 8.619-3.843 8.619-8.592 0 0 0-0.692 0-2.003 0-0.655 0-1.461-0.025-2.419 0-0.491 0.025-0.945 0.050-1.449 0.025-0.491 0.050-1.021 0.076-1.575 0.076-2.168 0.227-5.002 0.479-8.151 0.177-1.588 0.277-3.264 0.529-5.027 0.202-1.777 0.403-3.616 0.706-5.544 0.529-3.843 1.386-7.963 2.268-12.273 1.008-4.309 2.092-8.795 3.553-13.344 1.411-4.536 2.948-9.173 4.838-13.734 1.864-4.574 3.931-9.097 6.174-13.469 0.555-1.096 1.109-2.193 1.714-3.264 0.58-1.058 1.161-2.142 1.764-3.188 1.26-2.092 2.444-4.171 3.78-6.149 1.235-2.016 2.646-3.893 3.931-5.809 0.681-0.92 1.335-1.839 2.016-2.747 0.327-0.453 0.681-0.907 1.008-1.361 0.353-0.441 0.681-0.869 1.034-1.298 0.681-0.869 1.386-1.714 2.041-2.558 0.706-0.819 1.411-1.626 2.117-2.419 0.327-0.403 0.681-0.794 1.008-1.185 0.353-0.378 0.706-0.756 1.058-1.134 0.706-0.744 1.386-1.474 2.066-2.205 1.411-1.386 2.747-2.76 4.108-4.007 1.285-1.109 2.419-2.268 3.604-3.301l28.45 39.451 63.279-140.819-153.595 15.585 30.492 42.298c-2.243 2.268-4.612 4.838-6.93 7.724-0.378 0.466-0.781 0.945-1.185 1.449-0.378 0.504-0.756 1.008-1.134 1.525-0.756 1.021-1.537 2.079-2.293 3.15-1.537 2.168-2.999 4.46-4.536 6.792-0.731 1.197-1.461 2.406-2.193 3.629-0.378 0.618-0.731 1.235-1.109 1.852-0.353 0.618-0.706 1.26-1.058 1.89-0.706 1.273-1.411 2.558-2.117 3.855-0.681 1.323-1.361 2.646-2.041 3.994-0.327 0.668-0.655 1.335-1.008 2.016-0.302 0.681-0.63 1.373-0.932 2.066-0.63 1.373-1.285 2.76-1.89 4.158-1.185 2.822-2.369 5.683-3.402 8.606-1.084 2.898-2.016 5.871-2.999 8.833-0.453 1.487-0.856 2.986-1.285 4.485-0.453 1.487-0.831 2.986-1.21 4.498-0.781 2.999-1.461 6.023-2.066 9.034-0.302 1.499-0.555 3.011-0.806 4.511l-0.403 2.243c-0.101 0.756-0.202 1.499-0.327 2.243-0.907 5.96-1.436 11.844-1.739 17.514-0.327 5.683-0.252 11.164-0.126 16.317 0.15 2.588 0.225 5.083 0.478 7.515v0z" fill="#595959" />
	<path d="M448 32h-384c-35.346 0-64 28.653-64 64v224c0 35.346 28.654 64 64 64h32l160 128v-128h192c35.346 0 64-28.654 64-64v-224c0-35.347-28.654-64-64-64zM480 320c0 17.644-14.356 32-32 32h-224v96l-112-96h-48c-17.645 0-32-14.356-32-32v-224c0-17.644 14.355-32 32-32h384c17.644 0 32 14.356 32 32v224z" fill="#595959" />
</svg>
