<?xml version="1.0" encoding="utf-8"?>
<!-- Generated by IcoMoon.io -->
<!DOCTYPE svg PUBLIC "-//W3C//DTD SVG 1.1//EN" "http://www.w3.org/Graphics/SVG/1.1/DTD/svg11.dtd">
<svg version="1.1" xmlns="http://www.w3.org/2000/svg" xmlns:xlink="http://www.w3.org/1999/xlink" width="512" height="512" viewBox="0 0 512 512">
<g>
</g>
	<path d="M426.7 112h-242c-11.7 0-26.9 7.8-33.7 17.4l-81.9 109.2c-6.8 9.6-6.8 25.2 0 34.8l81.9 109.2c6.8 9.6 22 17.4 33.7 17.4h242c11.7 0 21.3-9.6 21.3-21.3v-245.4c0-11.7-9.6-21.3-21.3-21.3v0zM398.6 190.6l-65.4 65.4 65.4 65.4-45.3 45.2-65.3-65.4-65.4 65.4-45.2-45.3 65.4-65.3-65.4-65.4 45.3-45.2 65.3 65.4 65.4-65.4 45.2 45.2z" fill="#595959" />
</svg>
