<svg xmlns="http://www.w3.org/2000/svg" width="512" height="512" viewBox="0 0 512 512"><path stroke="#449FDB" d="M0 0"/><path d="M439.638 73.76V60.37c0-7.85-6.363-14.21-14.21-14.21H67.51c-32.965 0-47.002 13.18-47.002 44.267V368.4c0 7.847 6.362 14.21 14.21 14.21h15.848V109.83c0-25.897 9.78-36.07 36.07-36.07h353zM232.504 362.112h-6.56c-7.847 0-14.21 6.362-14.21 14.21v76.513c0 7.85 6.362 14.21 14.21 14.21h6.56c7.848 0 14.21-6.36 14.21-14.21v-76.513c0-7.848-6.362-14.21-14.21-14.21zM477.348 95.62H86.64c-7.847 0-14.208 6.362-14.208 14.21v294.367c0 7.848 6.362 14.21 14.21 14.21h109.792v-42.082c0-16.274 13.24-29.513 29.513-29.513h6.56c16.272 0 29.51 13.24 29.51 29.513v42.083h37.025v-42.083c0-16.274 13.238-29.513 29.512-29.513h6.56c16.272 0 29.512 13.24 29.512 29.513v42.083H477.35c7.848 0 14.21-6.363 14.21-14.21l-.002-294.37c-.002-7.847-6.362-14.208-14.21-14.208zM297.965 310.565c0 1.215-1.01 2.803-2.232 2.803H108.276c-1.224 0-2.235-1.588-2.235-2.803 0 0 0-12.068 0-20.86 0-8.785 1.666-12.397 8.35-16.192 5.366-3.057 41.454-23.786 58.41-31.07v-31.43c-5.208-3.79-8.347-9.666-8.347-18.638 0-20.86 0-24.902 0-24.902 0-20.65 12.52-37.55 37.55-37.55 25.037 0 37.55 16.9 37.55 37.55v24.902c0 8.882-3.136 14.742-8.343 18.547v31.52c18 7.284 53.04 28.015 58.41 31.07 6.68 3.797 8.344 7.408 8.344 16.193 0 8.792 0 20.86 0 20.86zm160.933.072H333.745v-31.7h125.153v31.7zm0-70.922H333.745v-31.7h125.153v31.7zm0-73.11H333.745v-31.698h125.153v31.7zM335.11 362.115h-6.56c-7.847 0-14.208 6.36-14.208 14.21v76.512c0 7.85 6.362 14.21 14.21 14.21h6.558c7.848 0 14.21-6.36 14.21-14.21v-76.513c0-7.848-6.362-14.21-14.21-14.21z" fill="#595959"/></svg>