<?xml version="1.0" encoding="utf-8"?>
<!-- Generated by IcoMoon.io -->
<!DOCTYPE svg PUBLIC "-//W3C//DTD SVG 1.1//EN" "http://www.w3.org/Graphics/SVG/1.1/DTD/svg11.dtd">
<svg version="1.1" xmlns="http://www.w3.org/2000/svg" xmlns:xlink="http://www.w3.org/1999/xlink" width="512" height="512" viewBox="0 0 512 512">
<g>
</g>
	<path d="M439.638 73.759v-13.39c0-7.848-6.363-14.209-14.211-14.209l-357.915-0.001c-32.965 0-47.002 13.18-47.002 44.268v277.972c0 7.848 6.362 14.211 14.209 14.211h15.849l0.001-272.781c0-25.896 9.78-36.070 36.070-36.070h352.999zM232.504 362.113h-6.559c-7.848 0-14.211 6.362-14.211 14.211v76.512c0 7.849 6.362 14.211 14.211 14.211h6.559c7.848 0 14.209-6.362 14.209-14.211l0.001-34.43v-42.083c0-7.848-6.362-14.21-14.21-14.21zM477.348 95.62h-390.707c-7.848 0-14.209 6.362-14.209 14.209v294.368c0 7.848 6.362 14.211 14.209 14.211h109.793v-42.083c0-16.274 13.239-29.513 29.513-29.513h6.559c16.273 0 29.512 13.239 29.512 29.513v42.083h37.024v-42.083c0-16.274 13.238-29.513 29.512-29.513h6.559c16.273 0 29.513 13.239 29.513 29.513v42.083h112.724c7.848 0 14.209-6.363 14.209-14.211l-0.001-294.368c-0.002-7.848-6.362-14.209-14.21-14.209zM297.965 310.565c0 1.215-1.009 2.803-2.232 2.803h-187.457c-1.224 0-2.235-1.588-2.235-2.803 0 0 0-12.068 0-20.86 0-8.785 1.664-12.397 8.347-16.192 5.367-3.057 41.455-23.786 58.41-31.071v-31.43c-5.207-3.79-8.346-9.665-8.346-18.637 0-20.861 0-24.902 0-24.902 0-20.649 12.52-37.55 37.551-37.55 25.036 0 37.55 16.901 37.55 37.55v24.902c0 8.882-3.137 14.742-8.344 18.547v31.52c18.001 7.284 53.041 28.015 58.412 31.071 6.68 3.796 8.343 7.407 8.343 16.192 0.001 8.792 0.001 20.86 0.001 20.86zM458.898 310.637h-125.153v-31.699h125.153v31.699zM458.898 239.715h-125.153v-31.699h125.153v31.699zM458.898 166.606h-125.153v-31.699h125.153v31.699zM335.11 362.113h-6.559c-7.848 0-14.209 6.362-14.209 14.211v76.512c0 7.849 6.362 14.211 14.209 14.211h6.559c7.848 0 14.211-6.362 14.211-14.211v-76.513c-0.001-7.848-6.363-14.21-14.211-14.21z" fill="#595959" />
</svg>
