<svg xmlns="http://www.w3.org/2000/svg" width="512" height="512" viewBox="0 0 512 512"><path stroke="#449FDB" d="M0 0"/><path d="M256 48c28.1 0 55.3 5.5 81 16.3 24.8 10.5 47 25.5 66.1 44.6s34.1 41.4 44.6 66.1c10.8 25.7 16.3 52.9 16.3 81s-5.5 55.3-16.3 81c-10.5 24.8-25.5 47-44.6 66.1s-41.4 34.1-66.1 44.6c-25.6 10.8-52.9 16.3-81 16.3s-55.3-5.5-81-16.3c-24.8-10.5-47-25.5-66.1-44.6S74.8 361.7 64.3 337C53.5 311.4 48 284.1 48 256s5.5-55.3 16.3-81c10.5-24.8 25.5-47 44.6-66.1s41.4-34.1 66.1-44.6C200.7 53.5 227.9 48 256 48zm0-32C123.5 16 16 123.5 16 256s107.5 240 240 240 240-107.5 240-240S388.5 16 256 16zm85.1 205L288 273.9V128h-64v145.9L171 221l-42.7 42.7 114.2 114.6c3.7 3.6 8.5 5.6 13.6 5.6 5.2 0 10-2 13.6-5.7l114.2-114.6-42.8-42.6z" fill="#595959"/></svg>