<?xml version="1.0" encoding="utf-8"?>
<!-- Generated by IcoMoon.io -->
<!DOCTYPE svg PUBLIC "-//W3C//DTD SVG 1.1//EN" "http://www.w3.org/Graphics/SVG/1.1/DTD/svg11.dtd">
<svg version="1.1" xmlns="http://www.w3.org/2000/svg" xmlns:xlink="http://www.w3.org/1999/xlink" width="512" height="512" viewBox="0 0 512 512">
<g>
</g>
	<path d="M256 48c28.1 0 55.3 5.5 81 16.3 24.8 10.5 47 25.5 66.1 44.6 19.1 19.1 34.1 41.4 44.6 66.1 10.8 25.7 16.3 52.9 16.3 81s-5.5 55.3-16.3 81c-10.5 24.8-25.5 47-44.6 66.1s-41.4 34.1-66.1 44.6c-25.6 10.8-52.9 16.3-81 16.3s-55.3-5.5-81-16.3c-24.8-10.5-47-25.5-66.1-44.6s-34.1-41.4-44.6-66.1c-10.8-25.6-16.3-52.9-16.3-81s5.5-55.3 16.3-81c10.5-24.8 25.5-47 44.6-66.1s41.4-34.1 66.1-44.6c25.7-10.8 52.9-16.3 81-16.3zM256 16c-132.5 0-240 107.5-240 240s107.5 240 240 240 240-107.5 240-240-107.5-240-240-240v0z" fill="#595959" />
	<path d="M341.1 221l-53.1 52.9v-145.9h-64v145.9l-53-52.9-42.7 42.7 114.2 114.6c3.7 3.6 8.5 5.6 13.6 5.6 5.2 0 10-2 13.6-5.7l114.2-114.6-42.8-42.6z" fill="#595959" />
</svg>
