<?xml version="1.0" encoding="utf-8"?>
<!-- Generated by IcoMoon.io -->
<!DOCTYPE svg PUBLIC "-//W3C//DTD SVG 1.1//EN" "http://www.w3.org/Graphics/SVG/1.1/DTD/svg11.dtd">
<svg version="1.1" xmlns="http://www.w3.org/2000/svg" xmlns:xlink="http://www.w3.org/1999/xlink" width="512" height="512" viewBox="0 0 512 512">
<g>
</g>
	<path d="M341.1 221l-53.1 52.9v-145.9h-64v145.9l-53-52.9-42.7 42.7 114.2 114.6c3.7 3.6 8.5 5.6 13.6 5.6 5.2 0 10-2 13.6-5.7l114.1-114.5-42.7-42.7z" fill="#595959" />
	<path d="M254.7 16c13.3 0 24 10.7 24 24s-10.7 24-24 24c-13.3 0-24-10.7-24-24 0-13.3 10.7-24 24-24zM363.3 44.8c14 0 25.3 11.3 25.3 25.3s-11.3 25.3-25.3 25.3c-14 0-25.3-11.3-25.3-25.3s11.4-25.3 25.3-25.3zM441.9 123.3c14 0 25.3 11.3 25.3 25.3s-11.3 25.3-25.3 25.3c-14 0-25.3-11.3-25.3-25.3 0-13.9 11.4-25.3 25.3-25.3zM472 232c13.3 0 24 10.7 24 24s-10.7 24-24 24c-13.3 0-24-10.7-24-24 0-13.3 10.7-24 24-24zM441.9 339.3c13.3 0 24 10.7 24 24s-10.7 24-24 24c-13.3 0-24-10.7-24-24 0-13.2 10.8-24 24-24zM363.3 417.9c13.3 0 24 10.7 24 24s-10.7 24-24 24c-13.3 0-24-10.7-24-24 0-13.2 10.8-24 24-24zM256 448c13.3 0 24 10.7 24 24s-10.7 24-24 24c-13.3 0-24-10.7-24-24 0-13.3 10.7-24 24-24zM148.7 417.9c13.3 0 24 10.7 24 24s-10.7 24-24 24c-13.3 0-24-10.7-24-24 0-13.2 10.7-24 24-24zM70.1 339.3c13.3 0 24 10.7 24 24s-10.7 24-24 24c-13.3 0-24-10.7-24-24 0-13.2 10.7-24 24-24zM40 232c13.3 0 24 10.7 24 24s-10.7 24-24 24-24-10.7-24-24c0-13.3 10.7-24 24-24zM70.1 124.6c13.3 0 24 10.7 24 24s-10.7 24-24 24c-13.3 0-24-10.7-24-24 0-13.2 10.7-24 24-24zM148.7 46.1c13.3 0 24 10.7 24 24s-10.7 24-24 24c-13.3 0-24-10.7-24-24s10.7-24 24-24z" fill="#595959" />
</svg>
