<?xml version="1.0" encoding="utf-8"?>
<!-- Generated by IcoMoon.io -->
<!DOCTYPE svg PUBLIC "-//W3C//DTD SVG 1.1//EN" "http://www.w3.org/Graphics/SVG/1.1/DTD/svg11.dtd">
<svg version="1.1" xmlns="http://www.w3.org/2000/svg" xmlns:xlink="http://www.w3.org/1999/xlink" width="512" height="512" viewBox="0 0 512 512">
<g>
</g>
	<path d="M447.97 316.751c-0.006-0.353-0.015-0.701-0.021-1.053-0.016-0.714-0.035-1.427-0.059-2.14-5.015-157.824-191.89-313.558-191.89-313.558s-186.877 155.734-191.89 313.561c-0.022 0.715-0.044 1.426-0.060 2.141-0.007 0.352-0.015 0.701-0.021 1.053-0.018 1.080-0.028 2.162-0.028 3.248 0 1.184 0.014 2.361 0.035 3.539 0.002 0.098 0.003 0.195 0.007 0.293 2.039 104.266 87.198 188.165 191.957 188.165 104.758 0 189.916-83.899 191.959-188.168 0.002-0.098 0.004-0.196 0.005-0.293 0.021-1.178 0.036-2.357 0.036-3.539 0-1.086-0.012-2.168-0.030-3.249zM383.975 322.37l-0.004 0.203c-0.659 33.643-14.266 65.167-38.313 88.774-24.071 23.636-55.915 36.653-89.658 36.653-6.231 0-12.397-0.447-18.462-1.319 69.528-41.423 116.108-117.352 116.108-204.161 0-9.728-0.59-19.317-1.726-28.74 20.136 36.97 31.032 71.4 32.001 101.813l0.002 0.072c0.016 0.474 0.026 0.946 0.039 1.422l0.014 0.724c0.014 0.728 0.024 1.459 0.024 2.189 0 0.792-0.010 1.581-0.025 2.37z" fill="#595959" />
</svg>
