<svg xmlns="http://www.w3.org/2000/svg" width="512" height="512" viewBox="0 0 512 512"><path stroke="#449FDB" d="M0 0"/><path d="M511.263 167.07l-5.93 38.04s-8.477-70.428-18.866-96.757c-15.923-40.344-23.007-40.02-23.054-39.96 10.665 27.1 8.73 41.66 8.73 41.66S453.25 58.556 403.29 42.17c-55.343-18.14-85.285-13.182-88.744-12.243-.525-.004-1.032-.005-1.515-.005.41.03.806.073 1.213.106-.017.01-.045.02-.04.026.224.274 61.152 10.65 71.957 25.498 0 0-25.88 0-51.637 7.42-1.164.334 94.762 11.983 114.373 107.838 0 0-10.515-21.938-23.52-25.664 8.553 26.018 6.357 75.388-1.788 99.925-1.048 3.158-2.12-13.64-18.164-20.873 5.14 36.823-.308 95.228-25.854 111.316-1.99 1.252 16.015-57.655 3.62-34.88-71.353 109.4-155.7 50.485-193.623 24.554 19.433 4.23 56.327-.66 72.657-12.806.02-.014.04-.027.06-.042 17.733-12.126 28.235-20.982 37.666-18.886 9.437 2.108 15.72-7.362 8.39-15.764-7.338-8.42-25.157-19.99-49.262-13.683-17 4.452-38.067 23.26-70.224 4.216-24.682-14.625-27.006-26.773-27.225-35.19.607-2.98 1.375-5.766 2.286-8.31 2.84-7.935 11.456-10.33 16.247-12.22 8.128 1.397 15.13 3.93 22.484 7.704.095-2.447.126-5.695-.01-9.38.706-1.4.27-5.626-.86-10.79-.65-5.154-1.71-10.487-3.376-15.346.007 0 .01-.005.016-.007.028-.01.054-.02.078-.034.04-.022.073-.056.104-.095.005-.01.014-.016.02-.025.042-.062.078-.136.1-.233.51-2.308 6.01-6.76 12.86-11.55 6.135-4.29 13.35-8.847 19.033-12.375 5.03-3.124 8.86-5.44 9.674-6.05.31-.232.68-.505 1.082-.817.075-.058.15-.116.227-.177.047-.036.095-.073.143-.112 2.705-2.153 6.742-6.223 7.59-14.79 0-.02.004-.04.005-.06.026-.25.047-.506.066-.766.014-.18.025-.362.036-.547.007-.142.016-.283.022-.428.015-.338.025-.683.03-1.033 0-.02 0-.038.002-.058.01-.83-.003-1.694-.052-2.6-.027-.51-.063-.967-.15-1.383-.003-.022-.008-.046-.013-.068-.01-.04-.017-.083-.03-.123-.016-.073-.036-.146-.06-.215-.002-.01-.004-.016-.007-.023-.026-.08-.056-.158-.087-.233-.002-.003-.002-.005-.003-.008-.877-2.055-4.16-2.83-17.72-3.06-.014 0-.026 0-.04 0-5.532-.095-12.768-.098-22.25-.06-16.625.067-25.814-16.25-28.747-22.566 4.02-22.23 15.638-38.07 34.725-48.813.36-.202.29-.37-.136-.49 3.732-2.255-45.123-.06-67.593 28.52-19.943-4.957-37.326-4.623-52.307-1.107-2.877-.082-6.462-.44-10.717-1.327-9.962-9.028-24.224-25.7-24.988-45.604 0 0-.046.035-.126.1-.01-.19-.028-.38-.036-.57 0 0-30.358 23.332-25.814 86.94-.01 1.02-.032 1.994-.06 2.938-8.216 11.144-12.293 20.51-12.596 22.578C13.398 163.178 6.01 185.483 0 219.346c0 0 4.204-13.333 12.642-28.433-6.206 19.01-11.082 48.578-8.218 92.928 0 0 .757-9.83 3.437-23.995 2.095 27.505 11.26 61.462 34.43 101.394 44.475 76.66 112.836 115.37 188.397 121.307 13.418 1.106 27.025 1.132 40.712.093 1.257-.09 2.515-.183 3.774-.288 15.482-1.087 31.067-3.426 46.62-7.183 212.585-51.4 189.47-308.1 189.47-308.1z" fill="#595959"/></svg>