<?xml version="1.0" encoding="utf-8"?>
<!-- Generated by IcoMoon.io -->
<!DOCTYPE svg PUBLIC "-//W3C//DTD SVG 1.1//EN" "http://www.w3.org/Graphics/SVG/1.1/DTD/svg11.dtd">
<svg version="1.1" xmlns="http://www.w3.org/2000/svg" xmlns:xlink="http://www.w3.org/1999/xlink" width="512" height="512" viewBox="0 0 512 512">
<g>
</g>
	<path d="M416 86.153c38.233 0 72.546-20.811 96-36.553v297.845c-23.454 15.743-57.767 36.555-96 36.555s-72.546-11.335-96-27.078c-23.454-15.74-57.767-27.075-96-27.075-38.233 0-72.545 19.458-96 35.198v-297.845c23.455-15.742 57.767-35.2 96-35.2s72.546 11.334 96 27.076c23.454 15.742 57.767 27.077 96 27.077zM64 0c17.673 0 32 14.327 32 32v480h-64v-480c0-17.673 14.327-32 32-32z" fill="#595959" />
</svg>
