<svg xmlns="http://www.w3.org/2000/svg" width="512" height="512" viewBox="0 0 512 512"><path d="M269.2 96c.1 0 12.7.4 18.9 9.2l26.1-18.5c-15.6-22.1-42-22.7-45-22.7-39.8 0-70.2 23-79.7 61l-19 99H104l-8 32h68.4l-22.9 119.3c-3.9 19.3-10.5 31.8-19.8 37.1-9 5.1-22.2 4.7-39.3-1.1L72 441.6c12.5 4.3 24 6.4 34.5 6.4 11.6 0 22-2.6 31-7.8 17.7-10.2 29.5-29.9 35.3-58.8l24-125.4H280l8-32h-84.9l17.6-92.1c8.1-32.4 36.6-35.9 48.5-35.9zM288 312.2l56.6 56.6-56.6 56.6 22.6 22.6 56.6-56.6 56.6 56.6 22.6-22.6-56.6-56.6 56.6-56.6-22.6-22.6-56.6 56.6-56.6-56.6z" fill="#595959"/></svg>