<?xml version="1.0" encoding="utf-8"?>
<!-- Generated by IcoMoon.io -->
<!DOCTYPE svg PUBLIC "-//W3C//DTD SVG 1.1//EN" "http://www.w3.org/Graphics/SVG/1.1/DTD/svg11.dtd">
<svg version="1.1" xmlns="http://www.w3.org/2000/svg" xmlns:xlink="http://www.w3.org/1999/xlink" width="512" height="512" viewBox="0 0 512 512">
<g>
</g>
	<path d="M289.127 173.205h-65.772l14.951-84.793c4.109-23.306 12.917-34.959 26.425-34.959 4.37 0 7.397 1.026 9.091 3.078 1.688 2.056 2.822 4.638 3.4 7.747 0.575 3.112 0.842 6.489 0.796 10.13-0.046 3.645 0.382 7.021 1.293 10.13 0.907 3.113 2.571 5.695 4.99 7.747 2.419 2.056 6.341 3.079 11.772 3.079 3.973 0 7.736-0.695 11.293-2.085 3.553-1.392 6.801-3.278 9.738-5.661 2.934-2.384 5.38-5.165 7.33-8.344 1.951-3.178 3.241-6.555 3.872-10.13 0.816-4.634 0.391-9.168-1.275-13.605-1.671-4.437-4.71-8.408-9.122-11.919-4.416-3.507-10.405-6.322-17.977-8.441-7.572-2.117-16.788-3.179-27.645-3.179-12.979 0-25.26 2.254-36.845 6.754-11.588 4.503-21.987 10.527-31.194 18.076-9.211 7.548-16.882 16.321-23.015 26.318-6.133 10-10.168 20.493-12.106 31.483l-10.328 58.573h-64.937l-5.738 32.544h64.938l-25.823 146.448c0 0-8.066 63.902-95.238 66.104l9.46 61.7c0 0 128.754-5.425 150.333-127.803l25.823-146.448h65.772l5.738-32.544zM447.029 239.029l-71.029 71.030-71.029-71.030-33.942 33.942 71.030 71.029-71.030 71.029 33.942 33.942 71.029-71.030 71.029 71.030 33.942-33.942-71.030-71.029 71.030-71.029z" fill="#595959" />
</svg>
