<?xml version="1.0" encoding="utf-8"?>
<!-- Generated by IcoMoon.io -->
<!DOCTYPE svg PUBLIC "-//W3C//DTD SVG 1.1//EN" "http://www.w3.org/Graphics/SVG/1.1/DTD/svg11.dtd">
<svg version="1.1" xmlns="http://www.w3.org/2000/svg" xmlns:xlink="http://www.w3.org/1999/xlink" width="512" height="512" viewBox="0 0 512 512">
<g>
</g>
	<path d="M288 384c0 17.7-14.3 32-32 32s-32-14.3-32-32c0-17.7 14.3-32 32-32 17.7 0 32 14.3 32 32z" fill="#595959" />
	<path d="M256 48c28.1 0 55.3 5.5 81 16.3 24.8 10.5 47 25.5 66.1 44.6 19.1 19.1 34.1 41.4 44.6 66.1 10.8 25.7 16.3 52.9 16.3 81s-5.5 55.3-16.3 81c-10.5 24.8-25.5 47-44.6 66.1-19.1 19.1-41.4 34.1-66.1 44.6-25.6 10.8-52.9 16.3-81 16.3s-55.3-5.5-81-16.3c-24.8-10.5-47-25.5-66.1-44.6-19.1-19.1-34.1-41.4-44.6-66.1-10.8-25.6-16.3-52.9-16.3-81s5.5-55.3 16.3-81c10.5-24.8 25.5-47 44.6-66.1 19.1-19.1 41.4-34.1 66.1-44.6 25.7-10.8 52.9-16.3 81-16.3zM256 16c-132.5 0-240 107.5-240 240s107.5 240 240 240 240-107.5 240-240-107.5-240-240-240v0z" fill="#595959" />
	<path d="M331.7 134c-16.5-14.2-39.4-22-64.6-22-53.5 0-79.7 22.4-88.6 32.1l-1.7 1.9 21.6 52.6 4.2-4.1c8.8-8.5 27.5-22.9 53.6-22.9 29.9 0 34.4 13.8 34.4 22 0 9.2-7.5 15.5-16 21.6l-24.4 17.6c-9.8 7-16 13.5-20.2 21.1-4.7 8.6-6.4 18.6-6.2 31.4v34.7h64v-27.5c0-6.5-0.6-8.7 2.2-12.2 2.7-3.1 8.3-7 14.7-11.6 6.7-4.8 14.2-10.1 21.3-16.4v0 0c16.7-15.4 30.5-30.9 30.5-65.3 0.2-20.4-8.6-39.2-24.8-53z" fill="#595959" />
</svg>
