<?xml version="1.0" encoding="utf-8"?>
<!-- Generated by IcoMoon.io -->
<!DOCTYPE svg PUBLIC "-//W3C//DTD SVG 1.1//EN" "http://www.w3.org/Graphics/SVG/1.1/DTD/svg11.dtd">
<svg version="1.1" xmlns="http://www.w3.org/2000/svg" xmlns:xlink="http://www.w3.org/1999/xlink" width="512" height="512" viewBox="0 0 512 512">
<g>
</g>
	<path d="M367.101 314.415h118.025c0.91-8.185 1.274-16.549 1.274-25.098 0-40.112-10.767-77.734-29.562-110.133 19.44-51.654 18.746-95.494-7.278-121.695-24.748-24.64-91.145-20.64-166.206 12.599-5.552-0.42-11.159-0.636-16.819-0.636-103.024 0-189.463 70.897-213.354 166.425 32.319-41.377 66.319-71.377 111.739-93.224-4.13 3.87-28.227 27.826-32.28 31.882-119.774 119.739-157.545 276.153-116.903 316.802 30.893 30.887 86.879 25.671 151.188-5.824 29.903 15.229 63.75 23.815 99.609 23.815 96.567 0 178.402-62.158 208.045-148.724h-118.934c-16.367 30.191-48.374 50.74-85.109 50.74-36.734 0-68.742-20.549-85.108-50.74-7.275-13.637-11.457-29.277-11.457-45.828v-0.361h193.13zM174.151 256.402c2.728-48.555 43.1-87.292 92.383-87.292s89.656 38.736 92.383 87.292h-184.766zM448.483 81.904c16.763 16.94 16.344 48.107 2.006 87.011-24.568-37.454-60.259-66.968-102.396-83.82 45.053-19.319 81.703-21.878 100.39-3.191zM46.741 483.628c-21.391-21.398-14.942-66.309 12.615-120.416 17.154 48.135 50.578 88.545 93.668 114.577-47.715 21.659-86.768 25.337-106.283 5.839z" fill="#595959" />
</svg>
