<?xml version="1.0" encoding="utf-8"?>
<!-- Generated by IcoMoon.io -->
<!DOCTYPE svg PUBLIC "-//W3C//DTD SVG 1.1//EN" "http://www.w3.org/Graphics/SVG/1.1/DTD/svg11.dtd">
<svg version="1.1" xmlns="http://www.w3.org/2000/svg" xmlns:xlink="http://www.w3.org/1999/xlink" width="512" height="512" viewBox="0 0 512 512">
<g>
</g>
	<path d="M109.852 64h-64.114c-4.387 0-7.943 3.601-7.943 8.041v367.917c0 4.441 3.557 8.042 7.943 8.042h64.113c4.388 0 7.943-3.601 7.943-8.042v-367.917c0.001-4.44-3.555-8.041-7.942-8.041zM108.827 180.638h-62.064v-73.073h62.064v73.073zM205.852 64h-64.113c-4.387 0-7.943 3.601-7.943 8.041v367.917c0 4.441 3.557 8.042 7.943 8.042h64.113c4.388 0 7.943-3.601 7.943-8.042v-367.917c0-4.44-3.556-8.041-7.943-8.041zM204.827 180.638h-62.064v-73.073h62.064v73.073zM301.852 64h-64.113c-4.387 0-7.943 3.601-7.943 8.041v367.917c0 4.441 3.557 8.042 7.943 8.042h64.113c4.388 0 7.943-3.601 7.943-8.042v-367.917c0-4.44-3.556-8.041-7.943-8.041zM300.827 180.638h-62.064v-73.073h62.064v73.073zM386.269 61.575l-62.646 13.641c-4.286 0.934-6.995 5.208-6.051 9.547l78.276 359.494c0.944 4.34 5.186 7.101 9.472 6.168l62.646-13.641c4.288-0.934 6.996-5.208 6.051-9.547l-78.276-359.495c-0.944-4.339-5.184-7.1-9.472-6.167zM410.083 175.761l-60.644 13.204-15.547-71.399 60.644-13.205 15.547 71.4z" fill="#595959" />
</svg>
