<svg xmlns="http://www.w3.org/2000/svg" width="512" height="512" viewBox="0 0 512 512"><path stroke="#449FDB" d="M0 0"/><path d="M254.55 353.274c-6.505 0-12.617 2.534-17.21 7.136l-32.336 32.336c-9.044 8.986-21.148 13.96-34.1 14.02-12.685-.062-24.583-5.038-33.584-14.01l-3.22-3.246c-8.99-9.02-13.966-21.07-13.997-33.917.03-12.725 5.004-24.7 14-33.756l75.01-75.038c8.396-8.316 19.263-13.163 30.887-13.87v-48.77c-24.367.72-48.034 10.907-65.31 28.205L99.668 287.38c-17.997 18.003-28.307 42.854-28.282 68.185-.05 25.456 10.26 50.377 28.282 68.396l3.213 3.215c17.938 17.957 42.645 28.254 67.79 28.254h.375c25.506 0 50.432-10.3 68.388-28.255l32.335-32.33c9.49-9.492 9.49-24.938 0-34.43-4.598-4.607-10.71-7.142-17.216-7.142zm157.78-265.24l-3.16-3.137c-18.014-18.01-42.905-28.327-68.312-28.327-25.427 0-50.327 10.317-68.315 28.305l-30.828 30.85c-9.475 9.493-9.475 24.946.004 34.444 4.6 4.597 10.72 7.134 17.223 7.134s12.622-2.536 17.23-7.142l30.822-30.856c9.013-8.984 21.02-13.96 33.824-14.024 12.88.063 24.885 5.04 33.886 14.012l3.22 3.243c8.976 9.016 13.94 21.014 13.972 33.773-.03 12.824-5.004 24.853-14.003 33.91l-75.01 74.982c-8.343 8.34-18.97 13.115-30.885 13.935v48.75c24.425-.79 48.08-10.966 65.317-28.198l75.016-75.023c18.02-18.022 28.33-42.924 28.28-68.322.046-25.38-10.262-50.266-28.285-68.312z" fill="#595959"/></svg>