<?xml version="1.0" encoding="utf-8"?>
<!-- Generated by IcoMoon.io -->
<!DOCTYPE svg PUBLIC "-//W3C//DTD SVG 1.1//EN" "http://www.w3.org/Graphics/SVG/1.1/DTD/svg11.dtd">
<svg version="1.1" xmlns="http://www.w3.org/2000/svg" xmlns:xlink="http://www.w3.org/1999/xlink" width="512" height="512" viewBox="0 0 512 512">
<g>
</g>
	<path d="M256 353.321c-0.481-0.028-0.963-0.047-1.449-0.047-6.506 0-12.618 2.534-17.21 7.136l-32.337 32.336c-9.044 8.986-21.147 13.959-34.1 14.021-12.684-0.063-24.583-5.039-33.584-14.012l-3.219-3.245c-8.99-9.019-13.966-21.069-13.998-33.917 0.032-12.725 5.004-24.699 14.001-33.756l75.010-75.038c9.107-9.020 21.122-13.971 33.858-13.971 11.591 0 22.583 4.099 31.307 11.609l34.521-34.52-3.312-3.298c-1.845-1.846-3.948-3.383-6.268-4.583l-0.474-0.245-0.437-0.305c-16.241-11.365-35.291-17.373-55.092-17.373h-0.438c-25.34 0-50.158 10.297-68.091 28.252l-75.020 75.016c-17.998 18.002-28.307 42.854-28.283 68.184-0.048 25.456 10.26 50.377 28.282 68.396l3.213 3.214c17.935 17.957 42.642 28.254 67.789 28.254h0.374c25.505 0 50.432-10.299 68.388-28.254l16.569-16.565v-57.289zM440.613 156.346c0.049-25.379-10.259-50.266-28.282-68.312l-3.162-3.137c-18.013-18.010-42.904-28.327-68.312-28.327-25.427 0-50.327 10.317-68.316 28.305l-30.828 30.85c-9.474 9.493-9.474 24.946 0.004 34.444 4.601 4.599 10.72 7.136 17.224 7.136 6.505 0 12.623-2.536 17.229-7.142l30.824-30.856c9.013-8.984 21.021-13.961 33.824-14.024 12.879 0.063 24.886 5.040 33.888 14.012l3.217 3.243c8.978 9.016 13.943 21.014 13.974 33.773-0.030 12.823-5.003 24.852-14.002 33.909l-75.012 74.982c-9.076 9.076-20.854 13.942-34.060 14.070l-0.118 0.001c-11.415-0.059-22.275-4.183-30.939-11.683l-34.527 34.514c14.58 13.571 33.203 22.316 52.762 24.97v-7.074h51.235c4.41-1.896 8.68-4.114 12.765-6.639v-57.361h61.003l31.331-31.333c18.020-18.021 28.327-42.924 28.278-68.321zM416 288h-64v64h-64v64h64v64h64v-64h64v-64h-64z" fill="#595959" />
</svg>
