<?xml version="1.0" encoding="utf-8"?>
<!-- Generated by IcoMoon.io -->
<!DOCTYPE svg PUBLIC "-//W3C//DTD SVG 1.1//EN" "http://www.w3.org/Graphics/SVG/1.1/DTD/svg11.dtd">
<svg version="1.1" xmlns="http://www.w3.org/2000/svg" xmlns:xlink="http://www.w3.org/1999/xlink" width="512" height="512" viewBox="0 0 512 512">
<g>
</g>
	<path d="M241.718 150.169c4.601 4.599 10.72 7.136 17.225 7.136 6.504 0 12.622-2.536 17.229-7.142l30.823-30.856c9.013-8.984 21.021-13.961 33.824-14.024 12.879 0.063 24.886 5.040 33.887 14.012l3.219 3.243c8.977 9.016 13.942 21.014 13.973 33.773-0.030 12.823-5.003 24.852-14.002 33.909l-75.011 74.982c-9.077 9.076-20.855 13.942-34.060 14.070l-0.119 0.001c-11.415-0.059-22.274-4.183-30.939-11.683l-34.527 34.514c14.58 13.571 33.203 22.316 52.762 24.97v-7.074h51.235c11.167-4.801 21.434-11.665 30.082-20.312l75.017-75.021c18.021-18.022 28.329-42.924 28.279-68.322 0.049-25.379-10.26-50.266-28.282-68.312l-3.161-3.137c-18.014-18.010-42.905-28.327-68.312-28.327-25.427 0-50.327 10.317-68.315 28.305l-30.828 30.85c-9.478 9.494-9.478 24.947 0.001 34.445zM256 353.321c-0.48-0.028-0.963-0.047-1.449-0.047-6.506 0-12.618 2.534-17.21 7.136l-32.337 32.336c-9.044 8.986-21.148 13.959-34.101 14.021-12.684-0.063-24.582-5.039-33.583-14.012l-3.22-3.245c-8.99-9.019-13.966-21.069-13.997-33.917 0.031-12.725 5.004-24.699 14.001-33.756l75.010-75.038c9.107-9.020 21.122-13.971 33.858-13.971 11.591 0 22.583 4.099 31.308 11.609l34.52-34.52-3.312-3.298c-1.845-1.846-3.949-3.383-6.268-4.583l-0.474-0.245-0.437-0.305c-16.241-11.365-35.291-17.373-55.092-17.373h-0.438c-25.34 0-50.158 10.297-68.091 28.252l-75.021 75.016c-17.997 18.002-28.307 42.853-28.282 68.184-0.049 25.456 10.26 50.377 28.282 68.396l3.213 3.214c17.936 17.957 42.643 28.254 67.79 28.254h0.373c25.506 0 50.432-10.299 68.388-28.254l16.569-16.565v-57.289zM288 352h192v64h-192z" fill="#595959" />
</svg>
