<svg xmlns="http://www.w3.org/2000/svg" width="512" height="512" viewBox="0 0 512 512"><path stroke="#449FDB" d="M0 0"/><path d="M223.135 440.214l-12.58-12.58L274.49 363.7c-.804-1.15-1.696-2.258-2.723-3.284-4.598-4.607-10.71-7.142-17.216-7.142s-12.616 2.534-17.21 7.136l-32.335 32.336c-9.044 8.986-21.148 13.96-34.1 14.02-12.685-.062-24.583-5.038-33.584-14.01l-3.22-3.246c-8.99-9.02-13.965-21.07-13.996-33.917.03-12.725 5.004-24.7 14-33.756l75.01-75.038c9.108-9.02 21.123-13.973 33.86-13.973 11.59 0 22.582 4.1 31.307 11.61l34.52-34.52-3.31-3.3c-1.846-1.845-3.95-3.382-6.27-4.582l-.473-.245-.437-.304c-16.242-11.365-35.292-17.373-55.093-17.373h-.438c-25.34 0-50.16 10.297-68.093 28.252l-75.02 75.016c-17.998 18.004-28.308 42.855-28.283 68.186-.05 25.456 10.26 50.377 28.282 68.396l3.213 3.215c17.935 17.957 42.642 28.254 67.79 28.254h.372c18.48 0 36.652-5.41 52.092-15.215zm217.478-283.868c.05-25.38-10.26-50.266-28.282-68.312l-3.16-3.137c-18.013-18.01-42.904-28.327-68.31-28.327-25.428 0-50.328 10.317-68.316 28.305l-30.828 30.85c-9.475 9.493-9.475 24.946.004 34.444 4.6 4.597 10.72 7.134 17.224 7.134s12.622-2.536 17.23-7.142l30.822-30.856c9.013-8.984 21.02-13.96 33.824-14.024 12.88.063 24.886 5.04 33.887 14.012l3.22 3.243c8.976 9.016 13.94 21.014 13.972 33.773-.03 12.824-5.005 24.853-14.004 33.91l-75.01 74.982c-9.078 9.076-20.856 13.942-34.06 14.07h-.12c-11.415-.058-22.274-4.182-30.94-11.682l-34.526 34.514c17.677 16.454 41.294 25.838 65.318 25.838h.37c2.986 0 5.965-.147 8.926-.425.41-2.607.876-5.21 1.457-7.795 4.99-22.195 16.16-42.458 32.3-58.6 22.723-22.72 52.935-35.232 85.07-35.23 4.576 0 9.13.273 13.646.786l2.01-2.01c18.02-18.022 28.328-42.925 28.278-68.322zM430.248 365.04l-52.366-52.367 45.408-45.41c-1.003-.336-2.012-.648-3.024-.946-.317-.094-.637-.177-.955-.268-.7-.198-1.403-.39-2.11-.57-.37-.093-.743-.18-1.116-.27-.667-.16-1.335-.31-2.005-.453-.378-.08-.756-.16-1.133-.233-.696-.14-1.395-.264-2.093-.385-.343-.06-.685-.12-1.027-.176-.863-.138-1.73-.26-2.596-.37-.173-.02-.346-.05-.52-.07-1.046-.126-2.093-.23-3.142-.317-.274-.022-.55-.035-.823-.056-.77-.055-1.54-.103-2.312-.14-.375-.017-.75-.025-1.126-.037-.677-.02-1.354-.036-2.032-.04-.19-.002-.383 0-.575 0-.178 0-.355-.002-.532 0-1.02.005-2.04.028-3.06.072-.18.007-.36.01-.542.018-1.174.058-2.347.146-3.52.252-.32.03-.643.066-.965.1-.912.094-1.825.203-2.737.327-.315.044-.63.083-.946.13-1.16.17-2.315.364-3.467.584-.227.044-.452.096-.678.14-.955.192-1.907.4-2.855.626-.348.082-.695.166-1.042.252-1.005.252-2.005.52-3 .81-.16.047-.32.087-.48.134-1.128.334-2.25.7-3.365 1.085-.326.11-.65.23-.975.346-.868.312-1.732.64-2.592.98-.296.115-.592.23-.887.35-1.095.45-2.183.92-3.262 1.416-.237.11-.472.228-.71.34-.875.414-1.746.845-2.61 1.29-.318.165-.636.33-.952.498-.99.527-1.97 1.07-2.94 1.64-.088.052-.178.1-.264.15-1.045.618-2.076 1.268-3.098 1.936-.292.19-.582.388-.87.582-.81.542-1.61 1.1-2.404 1.674-.24.173-.48.342-.72.518-.99.732-1.967 1.49-2.932 2.27-.21.173-.42.353-.63.527-.778.647-1.55 1.308-2.31 1.985-.266.235-.53.472-.793.712-.936.855-1.864 1.73-2.77 2.636-23.13 23.13-29.8 56.468-20.046 85.504L262.92 427.64 315.288 480l54.822-54.822c1 .337 2.007.648 3.02.945.324.097.652.184.98.274.69.194 1.38.383 2.075.56.384.096.77.187 1.153.278.65.155 1.304.304 1.958.442.392.084.783.166 1.176.244.676.135 1.354.257 2.033.374.36.062.72.13 1.08.186.83.13 1.662.247 2.494.353.21.026.414.06.62.084 1.04.125 2.08.23 3.12.314.29.026.578.04.867.06.757.057 1.514.105 2.27.14.38.017.76.026 1.14.038.676.02 1.353.036 2.03.04.364.003.73.003 1.098 0 1.027-.006 2.056-.028 3.083-.072.17-.008.344-.01.516-.018 1.18-.06 2.36-.146 3.54-.254.308-.028.616-.062.924-.095.934-.097 1.866-.21 2.797-.336.3-.04.6-.078.9-.123 1.17-.172 2.337-.366 3.5-.59.2-.04.4-.085.602-.124.983-.197 1.964-.41 2.94-.644.33-.077.66-.157.988-.238 1.04-.26 2.074-.537 3.104-.838.126-.037.254-.07.38-.107 1.144-.34 2.28-.71 3.41-1.1.306-.105.61-.217.915-.326.895-.32 1.784-.655 2.67-1.007.274-.11.55-.214.824-.326 1.106-.453 2.206-.93 3.297-1.432.217-.1.432-.21.648-.31.898-.425 1.79-.866 2.677-1.324.307-.158.612-.317.917-.48 1.006-.535 2.007-1.09 2.996-1.67.07-.042.143-.08.214-.122 1.05-.62 2.087-1.273 3.115-1.945.283-.186.565-.376.85-.566.815-.55 1.624-1.11 2.425-1.69.234-.17.47-.334.704-.507.99-.734 1.97-1.49 2.937-2.274.21-.17.417-.35.625-.52.782-.648 1.555-1.31 2.317-1.99.264-.235.528-.47.79-.71.938-.856 1.866-1.73 2.774-2.637 23.13-23.13 29.797-56.467 20.045-85.502l-45.406 45.41z" fill="#595959"/></svg>