<?xml version="1.0" encoding="utf-8"?>
<!-- Generated by IcoMoon.io -->
<!DOCTYPE svg PUBLIC "-//W3C//DTD SVG 1.1//EN" "http://www.w3.org/Graphics/SVG/1.1/DTD/svg11.dtd">
<svg version="1.1" xmlns="http://www.w3.org/2000/svg" xmlns:xlink="http://www.w3.org/1999/xlink" width="512" height="512" viewBox="0 0 512 512">
<g>
</g>
	<path d="M64 320h384v64h-384zM136.656 206.367h-23.293v37.825c0 8.977 1.281 11.113 2.992 13.035 1.496 1.711 3.633 2.563 8.121 2.563 5.34 0 10.254-1.922 10.254-1.922l1.711 26.71c-2.562 0.641-11.965 3.422-24.359 3.422-12.184 0-20.301-3.636-25.645-9.832-5.344-6.195-7.48-14.957-7.48-30.984v-40.816h-14.957v-25.855h14.957v-28.637h34.406v28.637h23.293v25.854zM251.191 241.199h-75.004c1.496 15.172 13.035 22.012 26.922 22.012 13.68 0 25.645-5.984 31.629-10.042l13.461 17.734c-3.418 2.566-17.308 17.097-50.004 17.097-32.48 0-56.199-20.090-56.199-54.922 0-34.832 25.645-54.703 56.84-54.703 31.199 0 52.781 20.727 52.781 51.5 0 5.129-0.426 11.324-0.426 11.324zM219.777 221.754c-0.211-9.618-7.262-21.156-21.582-21.156-14.102 0-21.367 11.113-21.797 21.156h43.379zM375.988 285.647h-38.895l-23.719-35.045-23.934 35.045h-38.891l42.312-54.917-37.824-50.434h38.676l19.66 31.629 19.445-31.629h38.68l-37.824 50.434 42.314 54.917zM448 206.367h-23.293v37.825c0 8.977 1.281 11.113 2.992 13.035 1.496 1.711 3.633 2.563 8.121 2.563 5.34 0 10.258-1.922 10.258-1.922l1.707 26.71c-2.562 0.641-11.965 3.422-24.359 3.422-12.18 0-20.301-3.636-25.645-9.832-5.34-6.195-7.477-14.957-7.477-30.984v-40.816h-14.961v-25.855h14.961v-28.637h34.402v28.637h23.294v25.854z" fill="#595959" />
</svg>
