<svg xmlns="http://www.w3.org/2000/svg" width="512" height="512" viewBox="0 0 512 512"><path stroke="#449FDB" d="M0 0"/><path d="M256 353.32c-.48-.027-.963-.046-1.45-.046-6.505 0-12.617 2.534-17.21 7.136l-32.336 32.336c-9.044 8.986-21.147 13.96-34.1 14.02-12.684-.062-24.583-5.038-33.584-14.01l-3.22-3.246c-8.99-9.02-13.965-21.07-13.997-33.917.032-12.725 5.004-24.7 14-33.756l75.01-75.038c9.108-9.02 21.123-13.973 33.86-13.973 11.59 0 22.582 4.1 31.306 11.61l34.52-34.52-3.313-3.3c-1.845-1.845-3.948-3.382-6.268-4.582l-.475-.245-.437-.304c-16.242-11.365-35.292-17.373-55.093-17.373h-.438c-25.34 0-50.16 10.297-68.092 28.252l-75.02 75.016c-17.998 18.004-28.307 42.856-28.283 68.186-.048 25.456 10.26 50.377 28.282 68.396l3.213 3.215c17.935 17.957 42.642 28.254 67.79 28.254h.373c25.505 0 50.432-10.3 68.388-28.254L256 410.61v-57.29zm184.613-196.974c.05-25.38-10.26-50.266-28.282-68.312l-3.16-3.137c-18.013-18.01-42.904-28.327-68.312-28.327-25.427 0-50.327 10.317-68.316 28.305l-30.827 30.85c-9.474 9.493-9.474 24.946.004 34.444 4.6 4.597 10.72 7.134 17.223 7.134s12.624-2.536 17.23-7.142l30.824-30.856c9.013-8.984 21.02-13.96 33.824-14.024 12.88.063 24.887 5.04 33.89 14.012l3.216 3.243c8.978 9.016 13.943 21.014 13.974 33.773-.03 12.824-5.003 24.853-14.002 33.91l-75.012 74.982c-9.076 9.076-20.854 13.942-34.06 14.07h-.118c-11.415-.058-22.275-4.182-30.94-11.682l-34.526 34.514c14.58 13.57 33.202 22.316 52.76 24.97V320h51.236c4.41-1.896 8.68-4.114 12.765-6.64V256h61.004l31.33-31.333c18.02-18.02 28.328-42.924 28.28-68.32zM416 288h-64v64h-64v64h64v64h64v-64h64v-64h-64z" fill="#595959"/></svg>