<?xml version="1.0" encoding="utf-8"?>
<!-- Generated by IcoMoon.io -->
<!DOCTYPE svg PUBLIC "-//W3C//DTD SVG 1.1//EN" "http://www.w3.org/Graphics/SVG/1.1/DTD/svg11.dtd">
<svg version="1.1" xmlns="http://www.w3.org/2000/svg" xmlns:xlink="http://www.w3.org/1999/xlink" width="512" height="512" viewBox="0 0 512 512">
<g>
</g>
	<path d="M254.551 353.274c-6.506 0-12.618 2.534-17.21 7.136l-32.337 32.336c-9.044 8.986-21.148 13.959-34.101 14.021-12.684-0.063-24.582-5.039-33.583-14.012l-3.22-3.245c-8.99-9.019-13.966-21.069-13.997-33.917 0.031-12.725 5.004-24.699 14.001-33.756l75.010-75.038c8.395-8.314 19.262-13.161 30.886-13.87v-48.77c-24.367 0.723-48.034 10.909-65.311 28.207l-75.021 75.016c-17.997 18.002-28.307 42.853-28.282 68.184-0.049 25.456 10.26 50.377 28.282 68.396l3.213 3.214c17.936 17.957 42.643 28.254 67.79 28.254h0.373c25.506 0 50.432-10.299 68.388-28.254l32.335-32.331c9.491-9.491 9.491-24.937-0.001-34.429-4.597-4.607-10.709-7.142-17.215-7.142zM412.331 88.034l-3.161-3.137c-18.014-18.010-42.905-28.327-68.312-28.327-25.427 0-50.327 10.317-68.315 28.305l-30.828 30.85c-9.475 9.493-9.475 24.946 0.004 34.444 4.601 4.599 10.72 7.136 17.225 7.136 6.504 0 12.622-2.536 17.229-7.142l30.823-30.856c9.013-8.984 21.021-13.961 33.824-14.024 12.879 0.063 24.886 5.040 33.887 14.012l3.219 3.243c8.977 9.016 13.942 21.014 13.973 33.773-0.030 12.823-5.003 24.852-14.002 33.909l-75.011 74.982c-8.342 8.341-18.969 13.115-30.884 13.935v48.75c24.425-0.791 48.081-10.966 65.317-28.198l75.017-75.021c18.021-18.022 28.329-42.924 28.279-68.322 0.047-25.379-10.261-50.266-28.284-68.312z" fill="#595959" />
</svg>
