<svg xmlns="http://www.w3.org/2000/svg" width="512" height="512" viewBox="0 0 512 512"><path stroke="#449FDB" d="M0 0"/><path d="M423.55 216.707c-5.628-5.805-12.37-8.707-20.222-8.707h-3.237l-.223-29.61c-.002-19.41-3.814-38.267-11.333-56.04-7.254-17.152-17.63-32.545-30.84-45.754s-28.6-23.584-45.753-30.84c-17.78-7.52-36.64-11.332-56.06-11.332s-38.277 3.812-56.057 11.333c-17.15 7.255-32.545 17.63-45.754 30.84s-23.585 28.602-30.84 45.753c-7.52 17.78-11.333 36.64-11.333 56.06V208h-3.226c-7.85 0-14.593 2.902-20.222 8.707-5.63 5.8-8.447 12.63-8.447 20.477V451.33c0 7.85 2.817 14.593 8.45 20.222 5.63 5.633 12.37 8.45 20.223 8.45H403.33c7.85 0 14.593-2.817 20.222-8.45 5.634-5.63 8.45-12.37 8.45-20.223V237.182c0-7.848-2.816-14.676-8.45-20.477zM269.695 350l7.213 67.493H234.08l7.958-67.616c-10.9-5.215-18.43-16.344-18.43-29.234 0-17.89 14.5-32.393 32.392-32.393s32.393 14.503 32.393 32.393c0 12.994-7.656 24.196-18.7 29.356zM157.072 208h-.174v-29.592c0-54.668 44.316-98.984 98.984-98.984s98.984 44.316 98.984 98.984l-.09 29.592H157.073z" fill="#595959"/></svg>