<?xml version="1.0" encoding="utf-8"?>
<!-- Generated by IcoMoon.io -->
<!DOCTYPE svg PUBLIC "-//W3C//DTD SVG 1.1//EN" "http://www.w3.org/Graphics/SVG/1.1/DTD/svg11.dtd">
<svg version="1.1" xmlns="http://www.w3.org/2000/svg" xmlns:xlink="http://www.w3.org/1999/xlink" width="512" height="512" viewBox="0 0 512 512">
<g>
</g>
	<path d="M512 214.628c0-100.463-29.396-181.969-65.741-182.613 0.145-0.003 0.289-0.015 0.435-0.015h-41.47c0 0-93.401 73.168-233.615 101.877-4.28 22.646-7.015 49.637-7.015 80.751 0 31.114 2.733 58.104 7.015 80.75 140.214 28.709 233.615 101.878 233.615 101.878h41.47c-0.146 0-0.289-0.012-0.435-0.016 36.348-0.644 65.741-82.149 65.741-182.612zM445.823 379.912c-4.771 0-9.934-5.194-12.588-8.291-6.423-7.498-12.61-19.174-17.897-33.766-11.829-32.646-18.347-76.41-18.347-123.229s6.518-90.582 18.347-123.229c5.286-14.592 11.477-26.268 17.897-33.765 2.654-3.099 7.816-8.292 12.588-8.292 4.772 0 9.937 5.195 12.588 8.292 6.425 7.498 12.612 19.172 17.898 33.765 11.83 32.646 18.346 76.41 18.346 123.229 0 46.816-6.516 90.582-18.346 123.229-5.286 14.592-11.476 26.268-17.898 33.766-2.651 3.097-7.814 8.291-12.588 8.291zM129.906 214.628c0-25.975 1.905-51.215 5.526-74.547-23.686 3.277-48.471 5.162-74.17 5.162-33.529 0-33.529 0-33.529 0l-27.733 47.343v44.085l27.73 47.343c0 0 0 0 33.53 0 25.699 0 50.484 1.887 74.17 5.162-3.618-23.332-5.524-48.573-5.524-74.548zM422.882 134.571c-4.532 24.36-6.937 51.644-6.937 80.057 0 28.414 2.402 55.696 6.937 80.057 23.671-0.587 42.765-36.2 42.765-80.057 0-43.856-19.094-79.471-42.765-80.057zM184.075 321.086l-63.999-12.255 40.921 160.773c2.118 8.317 10.372 12.518 18.343 9.327l59.278-23.726c7.972-3.187 11.164-11.982 7.098-19.542l-61.641-114.577z" fill="#595959" />
</svg>
