<svg xmlns="http://www.w3.org/2000/svg" width="512" height="512" viewBox="0 0 512 512"><path stroke="#449FDB" d="M0 0"/><path d="M512 214.628c0-100.463-29.396-181.97-65.74-182.613.144-.003.288-.015.434-.015h-41.47s-93.4 73.168-233.615 101.877c-4.28 22.646-7.017 49.637-7.017 80.75s2.733 58.105 7.015 80.75c140.213 28.71 233.614 101.88 233.614 101.88h41.47c-.146 0-.29-.013-.435-.017 36.347-.644 65.74-82.15 65.74-182.612zm-66.177 165.284c-4.77 0-9.934-5.194-12.588-8.29-6.423-7.5-12.61-19.175-17.897-33.767-11.83-32.646-18.347-76.41-18.347-123.23s6.52-90.58 18.35-123.228c5.285-14.592 11.476-26.268 17.896-33.765 2.654-3.1 7.816-8.292 12.588-8.292s9.937 5.195 12.588 8.292c6.426 7.498 12.613 19.172 17.9 33.765 11.83 32.646 18.345 76.41 18.345 123.23 0 46.815-6.516 90.58-18.346 123.228-5.286 14.592-11.476 26.268-17.9 33.766-2.65 3.1-7.812 8.293-12.586 8.293zM129.906 214.628c0-25.975 1.905-51.215 5.526-74.547-23.686 3.28-48.47 5.164-74.17 5.164-33.53 0-33.53 0-33.53 0L0 192.586v44.085l27.73 47.345s0 0 33.53 0c25.7 0 50.484 1.887 74.17 5.162-3.618-23.332-5.524-48.573-5.524-74.548zm292.976-80.057c-4.532 24.36-6.937 51.646-6.937 80.06 0 28.413 2.402 55.695 6.937 80.056 23.67-.587 42.765-36.2 42.765-80.057s-19.094-79.47-42.765-80.058zM184.075 321.088l-64-12.255 40.922 160.774c2.118 8.317 10.372 12.518 18.343 9.327l59.278-23.725c7.972-3.187 11.164-11.982 7.098-19.542l-61.64-114.577z" fill="#595959"/></svg>