<?xml version="1.0" encoding="utf-8"?>
<!-- Generated by IcoMoon.io -->
<!DOCTYPE svg PUBLIC "-//W3C//DTD SVG 1.1//EN" "http://www.w3.org/Graphics/SVG/1.1/DTD/svg11.dtd">
<svg version="1.1" xmlns="http://www.w3.org/2000/svg" xmlns:xlink="http://www.w3.org/1999/xlink" width="512" height="512" viewBox="0 0 512 512">
<g>
</g>
	<path d="M256 8c-136.967 0-248 111.033-248 248s111.033 248 248 248 248-111.033 248-248-111.033-248-248-248zM189.761 377.335l-70.81 21.945c-5.592 2.132-8.365-0.643-6.232-6.212l21.945-70.832c0.464-1.197 1.076-2.176 1.782-2.949 4.442 1.143 8.644 3.441 12.115 6.913 4.571 4.571 7.311 10.646 7.711 17.104l0.727 11.692 11.694 0.728c6.459 0.401 12.534 3.141 17.106 7.713 3.47 3.47 5.77 7.672 6.911 12.113-0.774 0.709-1.751 1.32-2.949 1.785zM211.535 356.759c-1.905-4.050-4.523-7.844-7.868-11.19-7.142-7.141-16.32-10.991-25.666-11.571-0.58-9.345-4.431-18.522-11.572-25.664-3.346-3.347-7.141-5.965-11.189-7.87l136.861-136.861 56.295 56.294-136.861 136.862zM397.343 170.951l-31.077 31.075-56.287-56.287 31.074-31.092c3.562-3.528 9.35-3.528 12.894 0l43.396 43.412c3.544 3.545 3.542 9.33 0 12.892z" fill="#595959" />
</svg>
