<?xml version="1.0" encoding="utf-8"?>
<!-- Generated by IcoMoon.io -->
<!DOCTYPE svg PUBLIC "-//W3C//DTD SVG 1.1//EN" "http://www.w3.org/Graphics/SVG/1.1/DTD/svg11.dtd">
<svg version="1.1" xmlns="http://www.w3.org/2000/svg" xmlns:xlink="http://www.w3.org/1999/xlink" width="512" height="512" viewBox="0 0 512 512">
<g>
</g>
	<path d="M139.591 388.966l-15.592-0.969-0.969-15.591c-0.535-8.612-4.188-16.711-10.282-22.807-4.628-4.628-10.231-7.693-16.153-9.217-0.942 1.033-1.758 2.336-2.377 3.932l-29.26 94.443c-2.844 7.427 0.854 11.125 8.311 8.282l94.413-29.261c1.597-0.619 2.899-1.435 3.932-2.377-1.521-5.922-4.588-11.525-9.215-16.152-6.096-6.095-14.197-9.747-22.808-10.283zM386.596 67.529c-4.725-4.703-12.439-4.703-17.188 0l-8.571 8.594-32.864 32.865 75.048 75.047 41.436-41.434c4.724-4.75 4.725-12.464 0-17.189l-57.861-57.883zM121.653 315.283c5.397 2.539 10.457 6.030 14.919 10.492 9.521 9.521 14.656 21.76 15.43 34.219 12.46 0.774 24.698 5.909 34.221 15.43 4.46 4.463 7.951 9.521 10.491 14.921l182.482-182.485-75.060-75.059-182.483 182.482z" fill="#595959" />
</svg>
