<?xml version="1.0" encoding="utf-8"?>
<!-- Generated by IcoMoon.io -->
<!DOCTYPE svg PUBLIC "-//W3C//DTD SVG 1.1//EN" "http://www.w3.org/Graphics/SVG/1.1/DTD/svg11.dtd">
<svg version="1.1" xmlns="http://www.w3.org/2000/svg" xmlns:xlink="http://www.w3.org/1999/xlink" width="512" height="512" viewBox="0 0 512 512">
<g>
</g>
	<path d="M362.996 304.208c0.044-0.025 0.050-0.024 0.009 0 0.227-0.003 0.45-0.014 0.68-0.014 0.294 0 0.591 0.002 0.888 0.008 16.412 0.311 34.96 9.22 58.374 28.039 16.439 13.217 26.198 26.265 29.835 39.891 1.985 7.44 2.080 14.954 0.289 22.442 7.544-10.434 12.792-22.966 8.953-37.35-3.184-11.924-12.056-23.606-27.118-35.719-21.961-17.651-38.966-26.001-53.514-26.275-0.246-0.006-0.491-0.007-0.737-0.007-10.312 0-18.47 3.949-26.099 9.895 2.68-0.554 5.489-0.866 8.44-0.91zM124.093 53.662c0 0 0 0 0 0 0.31 0 0.621 0.004 0.932 0.010 17.455 0.366 34.049 10.635 50.729 31.389 13.71 17.053 22.158 31.547 25.828 44.31 2.436 8.474 2.879 16.426 1.316 24.031 1.895-2.444 3.592-4.946 5.018-7.555 5.333-9.76 6.269-19.685 2.948-31.236-3.371-11.724-11.344-25.301-24.374-41.508-15.108-18.799-29.718-28.091-44.662-28.403-0.255-0.006-0.511-0.009-0.764-0.009-0.001 0-0.001 0-0.001 0-10.439 0-19.721 4.509-27.648 10.248 3.036-0.726 6.909-1.277 10.678-1.277zM439.396 379.853c-3.184-11.923-12.053-23.606-27.117-35.719-21.961-17.652-38.967-26.001-53.514-26.276-0.246-0.005-0.492-0.007-0.737-0.007-17.601 0-28.932 11.497-42.051 24.809-1.372 1.393-2.766 2.807-4.191 4.231-0.85 0.851-1.778 1.52-2.841 2.049-1.67 0.83-3.655 1.251-5.903 1.252-2.332 0-4.998-0.448-7.924-1.332-7.090-2.143-15.798-6.848-25.884-13.986-14.259-10.092-31.483-25.202-51.192-44.911-18.645-18.649-33.192-35.089-43.236-48.865-11.266-15.454-22.788-35.784-13.695-44.878 1.42-1.42 2.831-2.81 4.219-4.177 7.89-7.773 15.342-15.115 19.959-23.566 5.333-9.76 6.269-19.685 2.948-31.236-3.37-11.723-11.343-25.3-24.374-41.508-15.109-18.801-29.718-28.093-44.663-28.405-0.254-0.006-0.51-0.009-0.764-0.009-16.219 0-29.646 10.876-39.532 20.352-3.947 3.783-7.706 7.734-11.34 11.555-2.542 2.671-4.941 5.195-7.311 7.562-15.676 15.67-15.404 50.556 0.727 93.318 18.029 47.797 53.678 99.841 100.376 146.545 36.018 36.017 75.287 65.588 113.565 85.518 33.614 17.501 65.764 27.141 90.526 27.14 15.842 0.001 28.208-3.992 35.766-11.55 2.369-2.369 4.893-4.77 7.564-7.312 3.822-3.637 7.773-7.396 11.559-11.345 11.729-12.235 24.495-28.89 19.060-49.249z" fill="#595959" />
</svg>
