<?xml version="1.0" encoding="utf-8"?>
<!-- Generated by IcoMoon.io -->
<!DOCTYPE svg PUBLIC "-//W3C//DTD SVG 1.1//EN" "http://www.w3.org/Graphics/SVG/1.1/DTD/svg11.dtd">
<svg version="1.1" xmlns="http://www.w3.org/2000/svg" xmlns:xlink="http://www.w3.org/1999/xlink" width="512" height="512" viewBox="0 0 512 512">
<g>
</g>
	<path d="M511.76 177.081c-2.665-47.049-39.484-88.805-91.275-98.566-60.233-11.338-110.089 26.221-120.615 82.176-10.532 55.97 22.22 109.093 82.445 120.438 4.802 0.908 9.535 1.013 14.274 1.329-0.176 25.463-72.893 109.236-120.214 153.049h34.006c181.448-91.554 204.386-231.387 201.379-258.426zM0 435.506h34.006c181.446-91.553 204.389-231.386 201.375-258.426-2.662-47.049-39.48-88.806-91.271-98.565-60.239-11.338-110.081 26.218-120.615 82.173-10.542 55.97 22.218 109.094 82.446 120.438 4.798 0.908 9.529 1.014 14.274 1.329-0.175 25.464-72.892 109.237-120.215 153.051z" fill="#595959" />
</svg>
