<?xml version="1.0" encoding="utf-8"?>
<!-- Generated by IcoMoon.io -->
<!DOCTYPE svg PUBLIC "-//W3C//DTD SVG 1.1//EN" "http://www.w3.org/Graphics/SVG/1.1/DTD/svg11.dtd">
<svg version="1.1" xmlns="http://www.w3.org/2000/svg" xmlns:xlink="http://www.w3.org/1999/xlink" width="512" height="512" viewBox="0 0 512 512">
<g>
</g>
	<path d="M0.24 334.917c2.679 47.049 39.488 88.803 91.279 98.567 60.231 11.338 110.090-26.223 120.614-82.178 10.537-55.972-22.22-109.096-82.441-120.438-4.812-0.906-9.542-1.012-14.271-1.328 0.172-25.458 72.882-109.237 120.208-153.047h-34.006c-181.453 91.55-204.387 231.383-201.383 258.424zM512 76.494h-33.999c-181.451 91.55-204.393 231.382-201.381 258.423 2.664 47.049 39.479 88.803 91.273 98.567 60.233 11.338 110.072-26.223 120.613-82.178 10.541-55.972-22.227-109.096-82.45-120.438-4.798-0.906-9.528-1.012-14.271-1.328 0.183-25.458 72.897-109.236 120.215-153.046z" fill="#595959" />
</svg>
