<?xml version="1.0" encoding="utf-8"?>
<!-- Generated by IcoMoon.io -->
<!DOCTYPE svg PUBLIC "-//W3C//DTD SVG 1.1//EN" "http://www.w3.org/Graphics/SVG/1.1/DTD/svg11.dtd">
<svg version="1.1" xmlns="http://www.w3.org/2000/svg" xmlns:xlink="http://www.w3.org/1999/xlink" width="512" height="512" viewBox="0 0 512 512">
<g>
</g>
	<path d="M312.9 360c-16.6 8.4-34.5 12.6-53.2 12.6-31.6 0-61.4-12.4-83.8-34.8-22.4-22.4-34.8-52.2-34.8-83.8 0-0.7 0-3.4 0-6l0.1-8.1h50.8l-79.9-80-80.1 80.1h49.8v8.3c0 2.3 0 5 0 5.8 0 47.5 18.5 92.2 52.1 125.8 33.6 33.6 78.3 52.1 125.8 52.1 34.4 0 67.9-9.9 96.6-28.5l-43.4-43.5z" fill="#595959" />
	<path d="M434.2 272h-3.1l0.3-8.6c0.1-1.8 0.1-3.7 0.1-5.5 0-47.5-18.5-92.2-52.1-125.8-33.7-33.6-78.4-52.1-125.9-52.1-37.1 0-72.6 11.3-102.8 32.7l42.9 42.9c18.1-10.6 38.8-16.3 59.8-16.3 65.4 0 118.6 53.2 118.6 118.6 0 2-0.1 4.1-0.2 6.6l-0.4 7.5h-51.4l79.9 80 80.1-80h-45.8z" fill="#595959" />
</svg>
