<svg xmlns="http://www.w3.org/2000/svg" width="512" height="512" viewBox="0 0 512 512"><path stroke="#449FDB" d="M0 0"/><path d="M256 32c-12.032 0-23.854.896-35.412 2.606-.15-.39-.312-.774-.49-1.148 6.412-5 9.774-11.915 8.316-18.776C226.547 5.9 217.217 0 205.197 0c-2.59 0-5.23.28-7.84.836-15.084 3.207-25.073 14.31-22.74 25.28 1.416 6.67 7.145 11.67 15.08 13.693-.015.484-.007.973.022 1.465C89.406 70.04 16 162.445 16 272c0 132.55 107.452 240 240 240s240-107.45 240-240c0-132.548-107.45-240-240-240zm-73.56-7.546c-1.352-6.363 6.24-13.595 16.58-15.792 2.066-.44 4.145-.662 6.177-.662 8.018 0 14.347 3.432 15.392 8.345.796 3.755-1.537 7.805-5.695 10.952-3.517-2.483-8.008-3.563-12.55-2.598-4.522.96-8.174 3.752-10.38 7.426-5.09-1.225-8.753-4.042-9.525-7.673zm202.253 376.24c-21.984 21.983-48.605 37.638-77.655 46.076l-21.198-34.384-5.373 39.98C272.422 453.44 264.254 454 256 454c-48.614 0-94.318-18.932-128.693-53.307-21.984-21.983-37.64-48.605-46.077-77.654l34.384-21.2-39.98-5.374C74.56 288.422 74 280.254 74 272c0-48.614 18.93-94.318 53.307-128.693 21.984-21.984 48.606-37.64 77.655-46.078l21.198 34.383 5.374-39.98C239.578 90.56 247.746 90 256 90c48.614 0 94.318 18.93 128.693 53.307 21.984 21.984 37.64 48.606 46.077 77.655l-34.385 21.2 39.98 5.372C437.44 255.578 438 263.746 438 272c0 48.614-18.932 94.318-53.307 128.693zM380.45 147.55l-98.487 74.85c-7.322-3.83-15.438-6.03-23.708-6.363l-25.54-53.59-1.534 59.332c-6.64 3.267-12.55 7.83-17.437 13.474L182.2 224.072l23.045 24.27c-3.167 6.758-4.933 14.014-5.217 21.41l-53.58 25.534 59.37 1.534c.19.385.387.764.585 1.142l-74.852 98.49 98.49-74.852c7.32 3.828 15.437 6.03 23.708 6.362l25.54 53.59 1.533-59.33c6.644-3.27 12.554-7.833 17.44-13.477l31.545 11.184-23.047-24.27c3.168-6.76 4.934-14.017 5.218-21.414l53.578-25.533-59.368-1.535c-.19-.384-.387-.763-.585-1.14l74.85-98.49zm-124.4 74.716zm-10.03 2.782c3.365-.716 6.724-1.06 10.03-1.06 2.07 0 4.125.135 6.147.398l.046.016-.005-.01c4.366.57 8.588 1.75 12.566 3.447l-35.773 27.19-27.19 35.774c-1.187-2.797-2.134-5.742-2.79-8.826-5.512-25.93 11.04-51.42 36.97-56.93zm35.04 87.892c-4.527 2.772-9.59 4.842-15.08 6.01-3.362.714-6.72 1.058-10.026 1.058-2.075 0-4.13-.136-6.154-.4l-.035-.004c-4.367-.57-8.587-1.75-12.566-3.447l35.77-27.19 27.19-35.776c1.19 2.798 2.135 5.744 2.79 8.828 4.345 20.442-5.028 40.6-21.89 50.922z" fill="#595959"/></svg>