<?xml version="1.0" encoding="utf-8"?>
<!-- Generated by IcoMoon.io -->
<!DOCTYPE svg PUBLIC "-//W3C//DTD SVG 1.1//EN" "http://www.w3.org/Graphics/SVG/1.1/DTD/svg11.dtd">
<svg version="1.1" xmlns="http://www.w3.org/2000/svg" xmlns:xlink="http://www.w3.org/1999/xlink" width="512" height="512" viewBox="0 0 512 512">
<g>
</g>
	<path d="M256 32c-12.032 0-23.854 0.896-35.412 2.606-0.15-0.391-0.312-0.774-0.491-1.148 6.413-5.001 9.775-11.915 8.317-18.776-1.867-8.782-11.197-14.682-23.217-14.682-2.59 0-5.229 0.281-7.84 0.836-15.084 3.207-25.073 14.311-22.741 25.281 1.417 6.669 7.146 11.669 15.082 13.692-0.016 0.486-0.008 0.975 0.021 1.467-100.311 28.765-173.719 121.169-173.719 230.724 0 132.549 107.452 240 240 240 132.549 0 240-107.451 240-240 0-132.548-107.451-240-240-240zM182.441 24.454c-1.353-6.363 6.24-13.595 16.579-15.792 2.066-0.439 4.145-0.662 6.177-0.662 8.018 0 14.347 3.432 15.392 8.345 0.798 3.755-1.535 7.805-5.693 10.952-3.517-2.483-8.008-3.563-12.55-2.598-4.522 0.961-8.174 3.754-10.379 7.428-5.092-1.225-8.754-4.042-9.526-7.673zM384.693 400.693c-21.984 21.984-48.605 37.639-77.655 46.077l-21.198-34.384-5.373 39.979c-8.045 1.076-16.213 1.635-24.467 1.635-48.614 0-94.318-18.932-128.693-53.307-21.984-21.983-37.639-48.605-46.077-77.654l34.384-21.199-39.98-5.373c-1.075-8.045-1.634-16.213-1.634-24.467 0-48.614 18.931-94.318 53.307-128.693 21.984-21.984 48.606-37.639 77.655-46.078l21.198 34.385 5.374-39.98c8.044-1.075 16.212-1.634 24.466-1.634 48.614 0 94.318 18.931 128.693 53.307 21.984 21.984 37.639 48.606 46.077 77.655l-34.385 21.199 39.98 5.373c1.076 8.044 1.635 16.212 1.635 24.466 0 48.614-18.932 94.318-53.307 128.693zM380.451 147.549l-98.489 74.852c-7.322-3.829-15.438-6.031-23.708-6.363l-25.54-53.59-1.534 59.332c-6.642 3.268-12.552 7.832-17.438 13.475l-31.544-11.182 23.046 24.269c-3.167 6.759-4.933 14.015-5.217 21.412l-53.579 25.533 59.369 1.534c0.19 0.384 0.387 0.763 0.585 1.141l-74.852 98.49 98.489-74.852c7.322 3.828 15.437 6.030 23.708 6.362l25.54 53.591 1.533-59.332c6.643-3.269 12.553-7.832 17.439-13.476l31.545 11.184-23.047-24.27c3.168-6.76 4.934-14.015 5.218-21.412l53.578-25.533-59.368-1.535c-0.189-0.383-0.387-0.762-0.585-1.14l74.851-98.49zM256.051 222.267v0zM246.021 225.049c3.363-0.715 6.722-1.059 10.028-1.059 2.072 0 4.125 0.135 6.147 0.398l0.046 0.016-0.005-0.011c4.366 0.572 8.588 1.75 12.566 3.448l-35.773 27.188-27.19 35.776c-1.188-2.797-2.135-5.742-2.79-8.826-5.513-25.93 11.040-51.418 36.971-56.93zM281.060 312.942v0 0c-4.528 2.772-9.591 4.842-15.080 6.009-3.363 0.715-6.722 1.059-10.027 1.059-2.075 0-4.129-0.136-6.154-0.399l-0.034-0.005c-4.367-0.571-8.587-1.75-12.566-3.447l35.772-27.188 27.19-35.777c1.188 2.797 2.135 5.743 2.79 8.827 4.345 20.441-5.028 40.6-21.891 50.921z" fill="#595959" />
</svg>
