<?xml version="1.0" encoding="utf-8"?>
<!-- Generated by IcoMoon.io -->
<!DOCTYPE svg PUBLIC "-//W3C//DTD SVG 1.1//EN" "http://www.w3.org/Graphics/SVG/1.1/DTD/svg11.dtd">
<svg version="1.1" xmlns="http://www.w3.org/2000/svg" xmlns:xlink="http://www.w3.org/1999/xlink" width="512" height="512" viewBox="0 0 512 512">
<g>
</g>
	<path d="M416.443 144l-180.591 180.591-76.297-76.296-63.555 63.556 139.852 139.852 244.148-244.15zM137.337 169.797h-26.946l-7.502-21.282h-37.665l-7.502 21.282h-25.722l39.808-105.797h25.722l39.807 105.797zM97.224 129.224l-13.167-37.971-13.168 37.971h26.335zM223.613 162.754c-6.737 4.899-16.229 6.89-27.1 6.89h-43.177v-105.644h35.98c9.646 0 18.985 0.766 26.028 4.44 7.043 3.675 13.473 10.564 13.473 22.201s-7.502 20.516-15.464 23.272v0.306c13.168 3.215 21.895 12.096 21.895 25.11 0.001 11.635-4.898 18.525-11.635 23.425zM199.27 84.516c-2.909-1.837-5.665-2.144-11.024-2.144h-10.258v24.344h9.646c5.512 0 8.728-0.306 11.637-2.297 3.062-2.143 5.205-4.899 5.205-10.105-0.001-5.051-2.145-7.96-5.206-9.798zM204.781 126.774c-3.675-2.603-7.809-2.909-13.167-2.909h-13.627v26.947h13.627c5.358 0 9.492-0.306 13.167-2.909 3.674-2.45 5.358-5.971 5.358-10.564 0.001-4.747-1.684-7.963-5.358-10.565zM342.885 158.62c-5.358 5.512-16.535 14.392-38.123 14.392-31.081 0-55.425-20.517-55.425-54.506 0-34.143 24.65-54.506 55.425-54.506 21.741 0 33.53 9.033 36.286 11.942l-7.655 20.516c-1.99-2.603-13.32-11.023-27.253-11.023-17.914 0-31.693 11.942-31.693 32.612s14.392 32.458 31.693 32.458c13.167 0 22.659-5.206 28.478-11.177l8.267 19.292z" fill="#595959" />
</svg>
