<?xml version="1.0" encoding="utf-8"?>
<!-- Generator: Adobe Illustrator 17.1.0, SVG Export Plug-In . SVG Version: 6.00 Build 0)  -->
<!DOCTYPE svg PUBLIC "-//W3C//DTD SVG 1.1//EN" "http://www.w3.org/Graphics/SVG/1.1/DTD/svg11.dtd">
<svg version="1.1" id="Layer_1" xmlns="http://www.w3.org/2000/svg" xmlns:xlink="http://www.w3.org/1999/xlink" x="0px" y="0px"
	 width="512px" height="512px" viewBox="0 0 512 512" enable-background="new 0 0 512 512" xml:space="preserve">
<path fill="#595959" d="M400,32H80c-26.5,0-48,21.5-48,48c0,0,0,216,0,288c0,32,24,40,48,56s144,88,144,88v-64c0-17.7,14.3-32,32-32
	h144c26.5,0,48-21.5,48-48V80C448,53.5,426.5,32,400,32z M239.2,384c-17.7,0-32-14.3-32-32s14.3-32,32-32s32,14.3,32,32
	S256.9,384,239.2,384z M309.2,220.3c-7.1,6.3-14.6,11.6-21.3,16.4c-6.4,4.6-12,8.5-14.7,11.6c-2.8,3.5-2.2,5.7-2.2,12.2V288h-64
	v-34.7c-0.2-12.8,1.5-22.8,6.2-31.4c4.2-7.6,10.4-14.1,20.2-21.1l24.4-17.6c8.5-6.1,16-12.4,16-21.6c0-8.2-4.5-22-34.4-22
	c-26.1,0-44.8,14.4-53.6,22.9l-4.2,4.1L160,114l1.7-1.9c8.9-9.7,35.1-32.1,88.6-32.1c25.2,0,48.1,7.8,64.6,22
	c16.2,13.8,25,32.6,24.8,53C339.7,189.4,325.9,204.9,309.2,220.3z"/>
<rect fill="none" width="512" height="512"/>
</svg>
