<svg xmlns="http://www.w3.org/2000/svg" width="512" height="512" viewBox="0 0 512 512"><path stroke="#449FDB" d="M0 0"/><path d="M320 73.294v67.98c18.103 7.9 34.75 19.203 49.137 33.59C399.357 205.084 416 245.264 416 288s-16.643 82.917-46.863 113.137S298.737 448 256 448s-82.917-16.643-113.137-46.863S96 330.737 96 288s16.643-82.917 46.863-113.137c14.387-14.387 31.034-25.69 49.137-33.59v-67.98C99.476 100.833 32 186.53 32 288c0 123.712 100.29 224 224 224s224-100.288 224-224c0-101.47-67.475-187.166-160-214.706zM224 0h64v256h-64z" fill="#595959"/></svg>