<?xml version="1.0" encoding="utf-8"?>
<!-- Generated by IcoMoon.io -->
<!DOCTYPE svg PUBLIC "-//W3C//DTD SVG 1.1//EN" "http://www.w3.org/Graphics/SVG/1.1/DTD/svg11.dtd">
<svg version="1.1" xmlns="http://www.w3.org/2000/svg" xmlns:xlink="http://www.w3.org/1999/xlink" width="512" height="512" viewBox="0 0 512 512">
<g>
</g>
	<path d="M274.688 186.459c2.594 4.532 3.875 10.064 3.875 16.627 0 14.877-3.219 30.411-9.688 46.694-6.438 16.252-13.969 30.16-22.781 41.693-8.812 11.471-16.031 17.347-21.625 17.347-2.969 0-5.531-1.72-7.625-5.032-2.094-3.345-3.031-7.22-3.031-11.783 0-7.438 1.562-17.377 4.719-29.973 3.125-12.689 7.406-25.598 12.844-38.724 5.5-13.064 11.188-23.628 17.125-31.661 5.969-7.97 11.719-12.033 17.344-12.033 3.374 0 6.311 2.344 8.843 6.845zM480 256.031c0 123.705-100.25 223.969-223.938 223.969-123.718 0-224.062-100.264-224.062-223.969 0-123.736 100.344-224.031 224.062-224.031 123.688 0 223.938 100.295 223.938 224.031zM416.875 311.695h-11.188c-8.938 23.409-21.625 42.725-38.125 57.758-16.469 15.158-34.5 26.098-54.094 32.817-19.531 6.751-38.469 10.063-56.906 10.063-19.688 0-38.125-3.281-55.375-9.845-17.188-6.595-32.406-16.346-45.656-29.316-13.219-12.721-23.469-28.004-30.562-45.538-7.156-17.502-10.781-37.161-10.781-58.695 0-28.441 6.406-55.695 19.156-81.605 12.719-26.035 31.375-46.944 55.844-62.915 24.531-15.846 53.188-23.847 86.094-23.847 18.5 0 35.125 3.031 49.906 9.188 14.688 6.126 26.906 14.627 36.844 25.378 9.969 10.689 17.344 23.035 22.312 36.943 5.094 13.939 7.594 28.379 7.594 43.475 0 16.721-2.656 32.036-8.125 46.101-5.469 14.127-12.469 26.035-21.062 36.224-8.594 10.063-17.344 17.753-26.375 23.003-9.062 5.251-16.812 7.876-23.375 7.876-4 0-7.406-1.344-10.125-4.188-2.719-2.813-4.125-6.095-4.125-9.752 0-6.657 1.719-16.283 5.094-28.816l33.688-114.578-44.375 1.781-6.375 22.753c-1.469-19.472-10-29.317-25.688-29.317-8.375 0-17.938 3.563-28.594 10.689-10.688 7.032-21.062 16.783-31.188 29.535-10.188 12.721-18.438 27.16-24.812 43.35-6.406 16.409-9.688 33.474-9.688 51.477 0 9.782 2.406 18.971 7.25 27.503 4.844 8.502 12.656 12.689 23.312 12.689 13.438 0 24.719-5.25 33.781-15.971 9.031-10.533 19-25.316 29.938-44.193-3.5 13.189-5.25 22.815-5.25 28.879 0 5.876 2.312 12.471 7 20.034 4.656 7.532 14.625 11.251 29.906 11.251 16.344 0 31.375-3.5 45.062-10.751 13.688-7.22 25.25-17.034 34.719-29.285 9.594-12.252 16.844-26.254 21.844-42.006 5.062-15.752 7.594-31.599 7.594-47.726 0-16.033-2.625-31.191-7.938-45.694-5.312-14.533-13.219-27.503-23.781-39.099-10.688-11.47-24.281-20.722-40.812-27.566-16.562-6.876-35.969-10.345-58.375-10.345-25.875 0-49.781 4.563-71.625 13.346-21.781 8.876-40.406 21.284-56.031 37.318-15.531 15.908-27.562 34.411-35.844 55.445-8.312 21.128-12.469 43.443-12.469 66.947 0 23.597 4.125 45.287 12.406 64.978 8.219 19.909 19.594 36.755 34.125 50.882 14.469 14.096 31.562 25.004 51.375 32.692 19.812 7.657 40.844 11.564 63.219 11.564 15.438 0 30.906-1.938 46.094-5.688 15.219-3.907 29.969-10.063 44.406-18.503 14.438-8.532 27.344-19.627 38.906-33.316 7.906-9.627 14.438-18.815 19.25-27.785 4.813-8.972 8.906-17.504 12-25.599z" fill="#595959" />
</svg>
