<?xml version="1.0" encoding="utf-8"?>
<!-- Generated by IcoMoon.io -->
<!DOCTYPE svg PUBLIC "-//W3C//DTD SVG 1.1//EN" "http://www.w3.org/Graphics/SVG/1.1/DTD/svg11.dtd">
<svg version="1.1" xmlns="http://www.w3.org/2000/svg" xmlns:xlink="http://www.w3.org/1999/xlink" width="512" height="512" viewBox="0 0 512 512">
<g>
</g>
	<path d="M176 432h288v-352h-416v352h128zM208 400v-64h96v64h-96zM208 240h96v64h-96v-64zM176 304h-96v-64h96v64zM208 208v-64h96v64h-96zM432 304h-96v-64h96v64zM336 400v-64h96v64h-96zM432 208h-96v-64h96v64zM176 144v64h-96v-64h96zM80 336h96v64h-96v-64z" fill="#595959" />
</svg>
