<svg xmlns="http://www.w3.org/2000/svg" width="512" height="512" viewBox="0 0 512 512"><path stroke="#449FDB" d="M0 0"/><path d="M512 224h-50.462C447.718 134.88 377.12 64.282 288 50.462V0h-64v50.462C134.88 64.282 64.282 134.88 50.462 224H0v64h50.462C64.282 377.12 134.88 447.718 224 461.538V512h64v-50.462C377.12 447.718 447.718 377.12 461.538 288H512v-64zm-115.59 0h-49.88c-9.642-27.275-31.255-48.89-58.53-58.53v-49.88c53.757 12.244 96.166 54.654 108.41 108.41zM256 288c-17.673 0-32-14.327-32-32s14.327-32 32-32c17.673 0 32 14.327 32 32s-14.327 32-32 32zm-32-172.41v49.88c-27.275 9.64-48.89 31.255-58.53 58.53h-49.88c12.244-53.756 54.654-96.166 108.41-108.41zM115.59 288h49.88c9.64 27.275 31.255 48.89 58.53 58.53v49.88c-53.756-12.244-96.166-54.653-108.41-108.41zM288 396.41v-49.88c27.275-9.642 48.89-31.255 58.53-58.53h49.88c-12.244 53.757-54.653 96.166-108.41 108.41z" fill="#595959"/></svg>