<svg xmlns="http://www.w3.org/2000/svg" width="768" height="768" viewBox="0 0 768 768"><path stroke="#449FDB" d="M0 0"/><path d="M148.1 64H43.9C37.3 64 32 69.4 32 76.1V724c0 6.7 5.3 12.1 11.9 12.1h104.2c6.6 0 11.9-5.4 11.9-12.1V76.1c0-6.7-5.3-12.1-11.9-12.1zM128 239H64V129.3h64V239zM308.1 64H203.9c-6.6 0-11.9 5.4-11.9 12.1V724c0 6.7 5.3 12.1 11.9 12.1h104.2c6.6 0 11.9-5.4 11.9-12.1V76.1c0-6.7-5.3-12.1-11.9-12.1zM288 239h-64V129.3h64V239zM468.1 64H363.9c-6.6 0-11.9 5.4-11.9 12.1V724c0 6.7 5.3 12.1 11.9 12.1h104.2c6.6 0 11.9-5.4 11.9-12.1V76.1c0-6.7-5.3-12.1-11.9-12.1zM448 239h-64V129.3h64V239zM586.9 60.5L485 82.2c-6.4 1.4-10.5 7.8-9.1 14.3l134.7 633.7c1.4 6.5 7.7 10.7 14.2 9.3l101.9-21.7c6.4-1.4 10.5-7.8 9.1-14.3L601 69.8c-1.4-6.5-7.7-10.7-14.1-9.3zm16.7 175.3L541 249.1l-22.8-107.2 62.6-13.3 22.8 107.2z" visibility="false" fill="#595959"/></svg>