<?xml version="1.0" encoding="utf-8"?>
<!-- Generated by IcoMoon.io -->
<!DOCTYPE svg PUBLIC "-//W3C//DTD SVG 1.1//EN" "http://www.w3.org/Graphics/SVG/1.1/DTD/svg11.dtd">
<svg version="1.1" xmlns="http://www.w3.org/2000/svg" xmlns:xlink="http://www.w3.org/1999/xlink" width="768" height="768" viewBox="0 0 768 768">
<g>
</g>
	<path d="M384 64c-176.731 0-320 143.267-320 320 0 176.731 143.269 320 320 320s320-143.269 320-320c0-176.732-143.269-320-320-320zM444.901 462.851c0.756 13.467-22.697 41.338-30.207 48.846l-67.881-67.883-96.835 84.185-9.977-9.977 84.184-96.836-67.881-67.883c7.507-7.507 35.377-30.963 48.846-30.205 5.353 0.299 19.135 10.039 33.973 21.969l120.828-150.155 113.137 113.137-150.149 120.827c11.959 14.844 21.66 28.565 21.963 33.975z" fill="#595959"></path>
</svg>
