<svg xmlns="http://www.w3.org/2000/svg" width="768" height="768" viewBox="0 0 768 768"><path stroke="#449FDB" d="M0 0"/><path d="M640 128H480V96c0-35.347-28.654-64-64-64h-64c-35.346 0-64 28.652-64 64v32H128c-17.674 0-32 14.327-32 32v64c0 17.672 14.327 32 32 32h32v416c0 35.346 28.654 64 64 64h320c35.346 0 64-28.655 64-64V256h32c17.674 0 32-14.328 32-32v-64c0-17.674-14.327-32-32-32zM320 96c0-17.644 14.356-32 32-32h64c17.644 0 32 14.356 32 32v32H320V96zm256 576c0 17.644-14.356 32-32 32H224c-17.645 0-32-14.356-32-32V256h384v416zm64-448H128v-64h512v64zM304 608c-8.844 0-16-7.157-16-16V336c0-8.844 7.156-16 16-16s16 7.156 16 16v256c0 8.844-7.156 16-16 16zm160 0c-8.844 0-16-7.157-16-16V336c0-8.844 7.156-16 16-16s16 7.156 16 16v256c0 8.844-7.157 16-16 16z" fill="#595959"/></svg>