<?xml version="1.0" encoding="utf-8"?>
<!-- Generated by IcoMoon.io -->
<!DOCTYPE svg PUBLIC "-//W3C//DTD SVG 1.1//EN" "http://www.w3.org/Graphics/SVG/1.1/DTD/svg11.dtd">
<svg version="1.1" xmlns="http://www.w3.org/2000/svg" xmlns:xlink="http://www.w3.org/1999/xlink" width="768" height="768" viewBox="0 0 768 768">
<g>
</g>
	<path d="M560 480h-352c-26.5 0-48 21.5-48 48s21.5 48 48 48h352c26.5 0 48-21.5 48-48s-21.5-48-48-48z" fill="#595959" />
	<path d="M560 320h-352c-26.5 0-48 21.5-48 48s21.5 48 48 48h352c26.5 0 48-21.5 48-48s-21.5-48-48-48z" fill="#595959" />
	<path d="M560 160h-352c-26.5 0-48 21.5-48 48s21.5 48 48 48h352c26.5 0 48-21.5 48-48s-21.5-48-48-48z" fill="#595959" />
</svg>
