<?xml version="1.0" encoding="utf-8"?>
<!-- Generated by IcoMoon.io -->
<!DOCTYPE svg PUBLIC "-//W3C//DTD SVG 1.1//EN" "http://www.w3.org/Graphics/SVG/1.1/DTD/svg11.dtd">
<svg version="1.1" xmlns="http://www.w3.org/2000/svg" xmlns:xlink="http://www.w3.org/1999/xlink" width="768" height="768" viewBox="0 0 768 768">
<g>
</g>
	<path d="M384 64c-176.731 0-320 143.267-320 320 0 176.731 143.269 320 320 320s320-143.269 320-320c0-176.732-143.269-320-320-320zM400 448l-8.945 128h-14.11l-8.945-128h-96c0-10.619 3.121-46.91 13.18-55.898 3.998-3.574 20.629-6.432 39.557-8.488l-20.737-191.613h160l-20.734 191.607c18.953 2.041 35.513 4.883 39.554 8.494 10.057 8.989 13.18 45.279 13.18 55.898h-96z" fill="#595959"></path>
</svg>
