<?xml version="1.0" encoding="utf-8"?>
<!-- Generated by IcoMoon.io -->
<!DOCTYPE svg PUBLIC "-//W3C//DTD SVG 1.1//EN" "http://www.w3.org/Graphics/SVG/1.1/DTD/svg11.dtd">
<svg version="1.1" xmlns="http://www.w3.org/2000/svg" xmlns:xlink="http://www.w3.org/1999/xlink" width="512" height="512" viewBox="0 0 512 512">
<g>
</g>
	<path d="M423.551 232.707c-5.629-5.805-12.371-8.707-20.223-8.707h-3.226v-39.258h-0.048l-0.188-24.776c-0.002-19.411-3.814-38.267-11.333-56.040-7.254-17.152-17.63-32.545-30.839-45.754s-28.602-23.584-45.754-30.839c-17.779-7.521-36.64-11.333-56.058-11.333s-38.279 3.812-56.059 11.333c-17.151 7.255-32.545 17.63-45.754 30.839s-23.584 28.603-30.839 45.754c-7.521 17.779-11.333 36.641-11.333 56.059v31.092h45v-31.092c0-54.668 44.316-98.984 98.984-98.984s98.984 44.316 98.984 98.984l0.179 24.758v39.257h-246.372c-7.852 0-14.594 2.902-20.223 8.707-5.633 5.801-8.449 12.629-8.449 20.477v214.145c0 7.852 2.816 14.594 8.449 20.223 5.629 5.633 12.371 8.449 20.223 8.449h294.656c7.852 0 14.594-2.816 20.223-8.449 5.633-5.629 8.449-12.371 8.449-20.223v-214.145c0-7.848-2.816-14.676-8.449-20.477zM269.694 365.999l7.213 67.494h-42.827l7.958-67.616c-10.901-5.215-18.431-16.344-18.431-29.234 0-17.89 14.502-32.393 32.393-32.393 17.89 0 32.393 14.503 32.393 32.393 0 12.994-7.656 24.196-18.699 29.356z" fill="#595959" />
</svg>
