<?xml version="1.0" encoding="utf-8"?>
<!-- Generated by IcoMoon.io -->
<!DOCTYPE svg PUBLIC "-//W3C//DTD SVG 1.1//EN" "http://www.w3.org/Graphics/SVG/1.1/DTD/svg11.dtd">
<svg version="1.1" xmlns="http://www.w3.org/2000/svg" xmlns:xlink="http://www.w3.org/1999/xlink" width="512" height="512" viewBox="0 0 512 512">
<g>
</g>
	<path d="M254.7 16c13.3 0 24 10.7 24 24s-10.7 24-24 24c-13.3 0-24-10.7-24-24 0-13.3 10.7-24 24-24zM363.3 44.8c14 0 25.3 11.3 25.3 25.3s-11.3 25.3-25.3 25.3c-14 0-25.3-11.3-25.3-25.3s11.4-25.3 25.3-25.3zM441.9 123.3c14 0 25.3 11.3 25.3 25.3s-11.3 25.3-25.3 25.3c-14 0-25.3-11.3-25.3-25.3 0-13.9 11.4-25.3 25.3-25.3zM472 232c13.3 0 24 10.7 24 24s-10.7 24-24 24c-13.3 0-24-10.7-24-24 0-13.3 10.7-24 24-24zM441.9 339.3c13.3 0 24 10.7 24 24s-10.7 24-24 24c-13.3 0-24-10.7-24-24 0-13.2 10.8-24 24-24zM363.3 417.9c13.3 0 24 10.7 24 24s-10.7 24-24 24c-13.3 0-24-10.7-24-24 0-13.2 10.8-24 24-24zM256 448c13.3 0 24 10.7 24 24s-10.7 24-24 24c-13.3 0-24-10.7-24-24 0-13.3 10.7-24 24-24zM148.7 417.9c13.3 0 24 10.7 24 24s-10.7 24-24 24c-13.3 0-24-10.7-24-24 0-13.2 10.7-24 24-24zM70.1 339.3c13.3 0 24 10.7 24 24s-10.7 24-24 24c-13.3 0-24-10.7-24-24 0-13.2 10.7-24 24-24zM40 232c13.3 0 24 10.7 24 24s-10.7 24-24 24-24-10.7-24-24c0-13.3 10.7-24 24-24zM70.1 124.6c13.3 0 24 10.7 24 24s-10.7 24-24 24c-13.3 0-24-10.7-24-24 0-13.2 10.7-24 24-24zM148.7 46.1c13.3 0 24 10.7 24 24s-10.7 24-24 24c-13.3 0-24-10.7-24-24s10.7-24 24-24z" fill="#595959" />
	<path d="M432 256l-75.7 75.7-75.5-75.7h51.9c0.1-1.3 0.1-2.6 0.1-3.8 0-38.3-31.2-69.4-69.4-69.4-12.3 0-24.4 3.3-35 9.5l-5.3 3.1-39.1-39.1 7.7-5.5c21-14.9 45.8-22.8 71.7-22.8 33.2 0 64.4 12.9 87.8 36.4 23.5 23.5 36.4 54.6 36.4 87.8 0 1.3 0 2.6-0.1 3.8h44.5zM320.8 351.7l-32.5-32.5-5.2 2.6c-9.7 4.9-20.2 7.4-31.1 7.4-18.5 0-35.9-7.2-49.1-20.4-13.1-13.1-20.4-30.6-20.4-49.1 0-0.5 0-2.2 0-3.8h48.6l-75.4-75.6-75.7 75.7h47.9c0 1.5 0 3.3 0 3.8 0 33.2 12.9 64.3 36.4 87.8 23.5 23.5 54.6 36.4 87.8 36.4 24 0 47.3-6.9 67.4-19.9l8.3-5.4-7-7z" fill="#595959" />
</svg>
