<?xml version="1.0" encoding="utf-8"?>
<!-- Generated by IcoMoon.io -->
<!DOCTYPE svg PUBLIC "-//W3C//DTD SVG 1.1//EN" "http://www.w3.org/Graphics/SVG/1.1/DTD/svg11.dtd">
<svg version="1.1" xmlns="http://www.w3.org/2000/svg" xmlns:xlink="http://www.w3.org/1999/xlink" width="512" height="512" viewBox="0 0 512 512">
<g>
</g>
	<path d="M361.045 221.957v24.13c-2.762 1.187-5.906 2.642-9.309 4.288v7.712c0 10.125-3.207 24.964-8.578 39.692-4.090 11.213-8.535 20.096-13.282 26.562v11.659h150.124v-69.41c-14.473-7.94-30.111-16.080-41.041-20.503v-24.25c6.945-5.076 15.898-30.685 15.898-42.534v-33.216c0-27.543-21.461-50.087-54.854-50.087-33.39 0-54.861 22.544-54.861 50.087 0 0 0 5.319 0 32.58 3.51 8.512 5.65 17.646 6.331 27.147 2.936 7.46 6.456 13.874 9.572 16.143zM168.84 297.922c-5.371-14.751-8.577-29.643-8.577-39.835v-7.898c-3.347-1.569-6.484-2.96-9.305-4.102v-24.25c3.119-2.28 6.642-8.705 9.578-16.162 0.692-9.45 2.828-18.535 6.321-27.004v-32.584c0-27.543-21.46-50.087-54.854-50.087-33.389 0-54.861 22.544-54.861 50.087 0 0 0 5.391 0 33.216 0 11.968 8.958 37.598 15.902 42.653v24.13c-10.429 4.48-26.283 12.774-41.045 20.812v69.102h150.129v-11.488c-4.753-6.47-9.2-15.362-13.288-26.59zM309.568 316.572c9.549-6.981 21.86-42.193 21.86-58.485v-45.672c0-37.872-29.509-68.415-75.425-68.415-45.91 0-75.433 30.543-75.433 68.415 0 0 0 7.413 0 45.672 0 16.456 12.315 51.696 21.865 58.647v33.18c-31.096 13.36-97.284 51.381-107.126 56.986-12.256 6.963-15.309 13.586-15.309 29.698 0 16.127 0 38.26 0 38.26 0 2.229 1.856 5.143 4.101 5.143h343.804c2.244 0 4.096-2.914 4.096-5.143 0 0 0-22.133 0-38.26 0-16.111-3.049-22.734-15.3-29.697-9.853-5.605-74.117-43.626-107.132-56.986v-33.343z" fill="#595959" />
</svg>
