<svg xmlns="http://www.w3.org/2000/svg" width="512" height="512" viewBox="0 0 512 512"><path stroke="#449FDB" d="M0 0"/><path d="M480 473.455c0 2.836-2.356 6.545-5.212 6.545H37.218c-2.854 0-5.218-3.71-5.218-6.545 0 0 0-28.17 0-48.694 0-20.505 3.885-28.933 19.485-37.796 12.527-7.133 96.767-55.522 136.344-72.527V272.21c-12.156-8.848-27.83-53.7-27.83-74.644 0-48.695 0-58.13 0-58.13C160 91.236 197.573 48 256.005 48 314.444 48 352 91.236 352 139.437v58.13c0 20.733-15.67 65.55-27.822 74.434v42.438c42.02 17.005 123.81 65.395 136.35 72.527 15.59 8.862 19.472 17.29 19.472 37.797 0 20.526 0 48.695 0 48.695z" fill="#595959"/></svg>