<?xml version="1.0" encoding="utf-8"?>
<!-- Generated by IcoMoon.io -->
<!DOCTYPE svg PUBLIC "-//W3C//DTD SVG 1.1//EN" "http://www.w3.org/Graphics/SVG/1.1/DTD/svg11.dtd">
<svg version="1.1" xmlns="http://www.w3.org/2000/svg" xmlns:xlink="http://www.w3.org/1999/xlink" width="512" height="512" viewBox="0 0 512 512">
<g>
</g>
	<path d="M480 473.455c0 2.836-2.356 6.545-5.212 6.545h-437.569c-2.855 0-5.219-3.709-5.219-6.545 0 0 0-28.169 0-48.694 0-20.507 3.885-28.935 19.485-37.798 12.527-7.133 96.767-55.522 136.344-72.527v-42.228c-12.154-8.847-27.829-53.699-27.829-74.643 0-48.695 0-58.129 0-58.129 0-48.2 37.574-91.436 96.006-91.436 58.438 0 95.994 43.236 95.994 91.437v58.129c0 20.734-15.669 65.55-27.822 74.435v42.436c42.019 17.005 123.81 65.395 136.35 72.527 15.591 8.862 19.472 17.29 19.472 37.797 0 20.525 0 48.694 0 48.694z" fill="#595959" />
</svg>
