<?xml version="1.0" encoding="utf-8"?>
<!-- Generated by IcoMoon.io -->
<!DOCTYPE svg PUBLIC "-//W3C//DTD SVG 1.1//EN" "http://www.w3.org/Graphics/SVG/1.1/DTD/svg11.dtd">
<svg version="1.1" xmlns="http://www.w3.org/2000/svg" xmlns:xlink="http://www.w3.org/1999/xlink" width="512" height="512" viewBox="0 0 512 512">
<g>
</g>
	<path d="M252.766 448h-124.766v-256h256v112.766c11.030 0 21.719 1.125 32 3.328v-116.094h32v-96h-128v-32c0-17.672-14.328-32-32-32h-64c-17.672 0-32 14.328-32 32v32h-128v96h32v288h180.094c-1.047-1.127-2.078-2.266-3.094-3.438-8.812-10.063-15.438-20.107-20.234-28.562zM224 64h64v32h-64v-32zM96 128h320v32h-320v-32zM192 224h32v192h-32zM288 224v116.422c9.875-8.655 20.578-15.781 32-21.312v-95.11h-32zM384 336c-84 0-112 80-112 80s28 80 112 80 112-80 112-80-28-80-112-80zM384 480c-35.344 0-64-28.656-64-64s28.656-64 64-64 64 28.656 64 64-28.656 64-64 64zM384 384c-17.687 0-32 14.313-32 32s14.313 32 32 32 32-14.313 32-32-14.313-32-32-32z" fill="#595959" />
</svg>
