<?xml version="1.0" encoding="utf-8"?>
<!-- Generated by IcoMoon.io -->
<!DOCTYPE svg PUBLIC "-//W3C//DTD SVG 1.1//EN" "http://www.w3.org/Graphics/SVG/1.1/DTD/svg11.dtd">
<svg version="1.1" xmlns="http://www.w3.org/2000/svg" xmlns:xlink="http://www.w3.org/1999/xlink" width="512" height="512" viewBox="0 0 512 512">
<g>
</g>
	<path d="M32 64v328.1l32-31.989v-8.111h6.954c-7.249-18.851-9.516-39.007-6.954-58.575v-37.425h11.327c5.685-11.543 13.304-22.329 22.827-31.847 0.052-0.052 0.105-0.101 0.157-0.153h-34.311v-64h96v31.196c7.5-1.449 15.193-2.196 23-2.196 3.019 0 6.020 0.111 9 0.331v-29.331h96v64h-20.311c0.050 0.050 0.102 0.098 0.152 0.149 22.671 22.662 35.156 52.795 35.153 84.849-0.002 20.685-5.21 40.569-14.994 58.169v48.833h-50.569c-16.656 8.499-35.198 13.002-54.431 13.002-15.176 0-30.001-2.826-43.865-8.286l-27.279 27.284h336.144v-384h-416zM416 416h-96v-64h96v64zM416 320h-96v-64h96v64zM416 224h-96v-64h96v64zM133.125 381.469c14.969 10.343 32.406 15.533 49.875 15.533 22.516 0 45.031-8.596 62.219-25.783 34.359-34.374 34.375-90.078 0-124.438-17.172-17.187-39.688-25.781-62.219-25.781-22.516 0-45.031 8.594-62.219 25.781-30.5 30.484-33.906 77.813-10.281 112.093l-88.219 88.188 22.609 22.656 88.235-88.249zM183 249.5c32.859 0 59.5 26.641 59.5 59.5 0 32.843-26.641 59.467-59.5 59.467-32.828 0-59.469-26.624-59.469-59.467 0-32.859 26.641-59.5 59.469-59.5z" fill="#595959" />
</svg>
