<svg xmlns="http://www.w3.org/2000/svg" width="512" height="512" viewBox="0 0 512 512"><path stroke="#449FDB" d="M0 0"/><path d="M274.51 370.51c-6.143 0-12.284-2.343-16.97-7.03-9.374-9.372-9.374-24.567 0-33.94 40.55-40.55 40.55-106.53 0-147.078-9.374-9.373-9.374-24.57 0-33.94s24.567-9.373 33.94 0c59.265 59.264 59.265 155.695 0 214.96-4.686 4.685-10.828 7.028-16.97 7.028zM200.666 39.334C213.5 26.5 224 30.85 224 49v414c0 18.15-10.5 22.5-23.334 9.665L80 352H0V160h80L200.666 39.334z" fill="#595959"/></svg>