<?xml version="1.0" encoding="utf-8"?>
<!-- Generated by IcoMoon.io -->
<!DOCTYPE svg PUBLIC "-//W3C//DTD SVG 1.1//EN" "http://www.w3.org/Graphics/SVG/1.1/DTD/svg11.dtd">
<svg version="1.1" xmlns="http://www.w3.org/2000/svg" xmlns:xlink="http://www.w3.org/1999/xlink" width="544" height="512" viewBox="0 0 544 512">
<g>
</g>
	<path d="M445.020 461.020c-6.143 0-12.284-2.343-16.971-7.029-9.372-9.373-9.372-24.568 0-33.941 43.819-43.821 67.952-102.080 67.952-164.050 0-61.969-24.133-120.229-67.952-164.049-9.372-9.373-9.372-24.569 0-33.941 9.372-9.372 24.569-9.372 33.941 0 52.885 52.886 82.011 123.2 82.011 197.99 0 74.791-29.126 145.104-82.011 197.99-4.686 4.687-10.828 7.030-16.97 7.030zM359.765 415.765c-6.143 0-12.284-2.343-16.971-7.029-9.372-9.372-9.372-24.568 0-33.941 65.503-65.503 65.503-172.085 0-237.588-9.372-9.373-9.372-24.569 0-33.941 9.372-9.371 24.569-9.372 33.941 0 40.797 40.796 63.265 95.038 63.265 152.734 0 57.695-22.468 111.938-63.265 152.735-4.686 4.687-10.828 7.030-16.97 7.030zM274.51 370.51c-6.143 0-12.284-2.343-16.971-7.029-9.373-9.373-9.373-24.568 0-33.941 40.55-40.55 40.55-106.529 0-147.078-9.373-9.373-9.373-24.569 0-33.941 9.373-9.372 24.568-9.372 33.941 0 59.265 59.265 59.265 155.696 0 214.961-4.686 4.685-10.828 7.028-16.97 7.028zM200.666 39.334c12.834-12.834 23.334-8.484 23.334 9.666v414c0 18.15-10.5 22.499-23.334 9.665l-120.666-120.665h-80v-192h80l120.666-120.666z" fill="#595959" />
</svg>
