<?xml version="1.0" encoding="utf-8"?>
<!-- Generated by IcoMoon.io -->
<!DOCTYPE svg PUBLIC "-//W3C//DTD SVG 1.1//EN" "http://www.w3.org/Graphics/SVG/1.1/DTD/svg11.dtd">
<svg version="1.1" xmlns="http://www.w3.org/2000/svg" xmlns:xlink="http://www.w3.org/1999/xlink" width="512" height="512" viewBox="0 0 512 512">
<g>
</g>
	<path d="M208 64c38.5 0 74.6 15 101.8 42.2s42.2 63.3 42.2 101.8-15 74.6-42.2 101.8-63.3 42.2-101.8 42.2-74.6-15-101.8-42.2-42.2-63.3-42.2-101.8 15-74.6 42.2-101.8 63.3-42.2 101.8-42.2zM208 32c-97.2 0-176 78.8-176 176s78.8 176 176 176 176-78.8 176-176-78.8-176-176-176v0z" fill="#595959" />
	<path d="M341.1 295.9l154.9 154.9-45.3 45.2-154.9-154.8 45.3-45.3z" fill="#595959" />
	<path d="M304 240h-64v64h-64v-64h-64v-64h64v-64h64v64h64v64z" fill="#595959" />
</svg>
