<?xml version="1.0" encoding="utf-8"?>
<!-- Generated by IcoMoon.io -->
<!DOCTYPE svg PUBLIC "-//W3C//DTD SVG 1.1//EN" "http://www.w3.org/Graphics/SVG/1.1/DTD/svg11.dtd">
<svg version="1.1" xmlns="http://www.w3.org/2000/svg" xmlns:xlink="http://www.w3.org/1999/xlink" width="512" height="512" viewBox="0 0 512 512">
<g>
</g>
	<path d="M348.8 64c19.4 0 35.2 15.8 35.2 35.2v348.8h-320v-384h284.8zM348.8 32h-316.8v448h384v-380.8c0-37.1-30.1-67.2-67.2-67.2v0 0 0z" fill="#595959" />
	<path d="M235.3 379.3l65-65-22.7-22.7-37.7 37.7v-146.6l37.7 37.7 22.7-22.7-65-65c-6.2-6.2-16.4-6.2-22.6 0l-65 65 22.7 22.7 37.7-37.7v146.6l-37.7-37.7-22.7 22.7 65 65c6.2 6.3 16.4 6.3 22.6 0z" fill="#595959" />
</svg>
